<svg id="HEADER_SUCCESS" xmlns="http://www.w3.org/2000/svg" width="27" height="26.948" viewBox="0 0 27 26.948">
  <defs>
    <style>
      .cls-1 {
        fill: #0288cc;
      }
    </style>
  </defs>
  <path id="Path_15196" data-name="Path 15196" class="cls-1" d="M26.957,10.671a.844.844,0,0,0-.722-.582L17.886,9.3,14.28.493a.881.881,0,0,0-1.562,0L9.112,9.3l-8.351.793a.844.844,0,0,0-.474,1.475L6.64,17.122,4.248,25.9a.844.844,0,0,0,1.3.913L13.5,21.247l7.952,5.568a.844.844,0,0,0,1.3-.913l-2.393-8.774,6.353-5.558a.844.844,0,0,0,.248-.9ZM18.85,16.2a.844.844,0,0,0-.258.857l1.915,7.028-6.523-4.566a.844.844,0,0,0-.969,0L6.492,24.085l1.915-7.028a.844.844,0,0,0-.258-.857l-5.28-4.617,6.918-.658a.844.844,0,0,0,.7-.52L13.5,3.034l3.015,7.372a.844.844,0,0,0,.7.52l6.918.658Z" transform="translate(0.001 -0.019)"/>
</svg>
