<svg id="ACM_logo" xmlns="http://www.w3.org/2000/svg" xmlns:xlink="http://www.w3.org/1999/xlink" width="110" height="110" viewBox="0 0 110 110">
  <defs>
    <style>
      .cls-1 {
        fill: url(#linear-gradient);
      }

      .cls-2 {
        fill: #fffffe;
      }

      .cls-3 {
        fill: url(#linear-gradient-2);
      }
    </style>
    <linearGradient id="linear-gradient" x1="11.844" y1="-5.875" x2="12.551" y2="-5.168" gradientUnits="objectBoundingBox">
      <stop offset="0" stop-color="#66b9e2"/>
      <stop offset="0.134" stop-color="#60b7e1"/>
      <stop offset="0.31" stop-color="#50b0de"/>
      <stop offset="0.509" stop-color="#35a4d9"/>
      <stop offset="0.723" stop-color="#0f95d2"/>
      <stop offset="0.8" stop-color="#008ecf"/>
    </linearGradient>
    <linearGradient id="linear-gradient-2" x1="15.401" y1="14.365" x2="15.401" y2="13.331" gradientUnits="objectBoundingBox">
      <stop offset="0" stop-color="#76bfe4"/>
      <stop offset="0.123" stop-color="#70bde3"/>
      <stop offset="0.283" stop-color="#60b6e0"/>
      <stop offset="0.464" stop-color="#45abdb"/>
      <stop offset="0.66" stop-color="#1f9bd5"/>
      <stop offset="0.8" stop-color="#008ecf"/>
    </linearGradient>
  </defs>
  <g id="Group_4" data-name="Group 4">
    <path id="Path_12" data-name="Path 12" class="cls-1" d="M75,114,20,59,75,4l55,55Z" transform="translate(-20 -4)"/>
    <circle id="Ellipse_1" data-name="Ellipse 1" class="cls-2" cx="33.721" cy="33.721" r="33.721" transform="translate(21.279 21.279)"/>
    <circle id="Ellipse_2" data-name="Ellipse 2" class="cls-3" cx="30.349" cy="30.349" r="30.349" transform="translate(24.651 24.651)"/>
    <g id="Group_3" data-name="Group 3" transform="translate(28.212 47.408)">
      <g id="Group_2" data-name="Group 2">
        <path id="Path_13" data-name="Path 13" class="cls-2" d="M47.584,48.53c-.31.26-.591.492-.836.7a4.869,4.869,0,0,1-.993.626,6.243,6.243,0,0,1-1.186.448,7.007,7.007,0,0,1-1.615.153,4.306,4.306,0,0,1-3.211-1.3,4.47,4.47,0,0,1-1.277-3.279,4.77,4.77,0,0,1,.648-2.629,4.454,4.454,0,0,1,1.868-1.587,9.9,9.9,0,0,1,2.946-.833q1.714-.234,3.685-.364v-.078a1.712,1.712,0,0,0-.889-1.668,5.959,5.959,0,0,0-2.668-.463,7.234,7.234,0,0,0-1.879.295,14.835,14.835,0,0,0-2.1.752h-.388V35.763c.451-.131,1.178-.284,2.188-.463a17.351,17.351,0,0,1,3.043-.269q3.777,0,5.5,1.259a4.431,4.431,0,0,1,1.725,3.835v9.952H47.588V48.53h0Zm0-2.276V43.226c-.767.078-1.384.147-1.856.2a6.052,6.052,0,0,0-1.393.333,1.954,1.954,0,0,0-.924.628,1.768,1.768,0,0,0-.328,1.114,1.611,1.611,0,0,0,.548,1.407,2.84,2.84,0,0,0,1.621.377,3.05,3.05,0,0,0,1.212-.269A3.739,3.739,0,0,0,47.584,46.254Z" transform="translate(-38.466 -35.031)"/>
        <path id="Path_14" data-name="Path 14" class="cls-2" d="M56.817,50.446A11.4,11.4,0,0,1,53.5,49.99a7,7,0,0,1-2.611-1.406,6.385,6.385,0,0,1-1.71-2.382,8.6,8.6,0,0,1-.611-3.39,8.607,8.607,0,0,1,.668-3.566,6.708,6.708,0,0,1,1.8-2.417,7.046,7.046,0,0,1,2.573-1.343,10.921,10.921,0,0,1,3.083-.438,10.6,10.6,0,0,1,2.426.284,10.808,10.808,0,0,1,2.438.889v3.913h-.594c-.182-.173-.406-.364-.669-.573a6.382,6.382,0,0,0-.868-.576,5.573,5.573,0,0,0-1.118-.463,4.833,4.833,0,0,0-1.4-.188A3.239,3.239,0,0,0,54.2,39.549a5.12,5.12,0,0,0-.958,3.265,4.6,4.6,0,0,0,1.024,3.272,3.576,3.576,0,0,0,2.718,1.08,5.337,5.337,0,0,0,1.511-.2,4.776,4.776,0,0,0,1.907-1.027c.218-.191.406-.367.561-.521h.588v3.9c-.263.112-.564.24-.908.391a8.2,8.2,0,0,1-1.051.359,11.877,11.877,0,0,1-1.247.28A9.912,9.912,0,0,1,56.817,50.446Z" transform="translate(-33.135 -35.022)"/>
        <path id="Path_15" data-name="Path 15" class="cls-2" d="M76.114,50.069V42.762c0-.72-.015-1.328-.038-1.823a3.723,3.723,0,0,0-.235-1.212,1.327,1.327,0,0,0-.605-.683,2.568,2.568,0,0,0-1.158-.215,2.614,2.614,0,0,0-1.033.223,7.333,7.333,0,0,0-1.114.651V50.069H67.372V42.762c0-.71-.015-1.315-.041-1.817a3.84,3.84,0,0,0-.241-1.218,1.327,1.327,0,0,0-.605-.683,2.766,2.766,0,0,0-2.244.044,8.19,8.19,0,0,0-1.045.614V50.069H58.636V35.46h4.559v1.612A11.972,11.972,0,0,1,65.3,35.589a4.6,4.6,0,0,1,2.223-.538,4.336,4.336,0,0,1,2.354.639,4.046,4.046,0,0,1,1.549,1.9,13.492,13.492,0,0,1,2.48-1.879,4.808,4.808,0,0,1,4.18-.332,3.515,3.515,0,0,1,1.367.976,4.549,4.549,0,0,1,.92,1.671,8.553,8.553,0,0,1,.307,2.53v9.513l-4.568,0Z" transform="translate(-27.821 -35.02)"/>
      </g>
    </g>
  </g>
</svg>
