<svg id="JBH_logo" xmlns="http://www.w3.org/2000/svg" width="294.34" height="75" viewBox="0 0 294.34 75">
  <defs>
    <style>
      .cls-1 {
        fill: #fd0;
      }
    </style>
  </defs>
  <rect id="Rectangle_1" data-name="Rectangle 1" width="278.706" height="75"/>
  <rect id="Rectangle_2" data-name="Rectangle 2" class="cls-1" width="263.805" height="61.222" transform="translate(6.68 6.631)"/>
  <path id="Path_1" data-name="Path 1" d="M547.446,133.776a4.342,4.342,0,0,1,1.226,3.12,4.428,4.428,0,0,1-1.226,3.147,4.037,4.037,0,0,1-5.9,0,4.46,4.46,0,0,1-1.216-3.136,4.374,4.374,0,0,1,1.221-3.12,4.005,4.005,0,0,1,5.894,0Zm.488-.494a4.569,4.569,0,0,0-3.435-1.492,4.516,4.516,0,0,0-3.413,1.492,5.313,5.313,0,0,0,0,7.223,4.64,4.64,0,0,0,6.859,0,5.312,5.312,0,0,0,0-7.223Zm-2.713,3.37a2.341,2.341,0,0,1-.885.125h-.863v-2.024h.809a2.4,2.4,0,0,1,1.14.2,1.047,1.047,0,0,1-.2,1.7Zm-2.681,3.033h.933V137.46h.716a2.078,2.078,0,0,1,1.053.19c.331.206.494.624.494,1.286v.749h.885v-.076a.716.716,0,0,1-.049-.288,3.723,3.723,0,0,1,0-.418v-.412a1.54,1.54,0,0,0-.3-.874,1.281,1.281,0,0,0-.906-.543,1.786,1.786,0,0,0,.76-.26,1.248,1.248,0,0,0,.542-1.085,1.41,1.41,0,0,0-.825-1.427,4.116,4.116,0,0,0-1.454-.2h-1.873Z" transform="translate(-255.022 -70.622)"/>
  <path id="Path_2" data-name="Path 2" d="M291.17,84.984a15.471,15.471,0,0,0-3.31-6.8c-2.805-3.549-6.116-5.53-8.422-5.253v-.054H262.247c-7.8-8.4-15.813-17.088-17.473-19.058-3.039-3.62-5-3.663-5.687-3.511L56.277,50.33h0c-4.178-.119-6.154,1.085-7.054,2.241-1.292,1.7-1.221,4.14.179,7.288h.049a19.534,19.534,0,0,0,4.884,6.382c4.227,3.8,8.775,5.427,11.287,4.271H76.98c7.9,8.53,16.193,17.511,17.908,19.535,3.05,3.582,5.247,3.256,5.486,3.256H280.453c.857.174,6.87,1.243,9.637-1.948C291.447,89.835,291.789,87.7,291.17,84.984Zm-4.808-5.806a.456.456,0,0,0,.1.109,16.815,16.815,0,0,1,1.389,2.067h-7.32a17.826,17.826,0,0,1-1.15-2.171Zm-11.255,7.532c-.293-.331-.613-.662-.933-1.02h7.5c.358.364.705.7,1.085,1.02Zm8.753.9c.244.179.51.347.749.51h-8.189c-.146-.163-.309-.342-.472-.51ZM273.338,84.8c-.32-.331-.619-.667-.955-1.026h7.651c.087.1.163.217.239.32.206.239.385.467.6.705Zm-1.78-1.91c-.353-.38-.716-.76-1.085-1.156h8.189c.212.385.45.765.716,1.156Zm7.559-8.042c.9-.7,3.674.336,6.485,3.446h-6.561a6.413,6.413,0,0,1-.385-2.485,1.379,1.379,0,0,1,.456-.961Zm-.944,6h-8.52l-1.2-1.275h9.138c.179.4.353.836.575,1.275Zm-10.538-2.171c-.271-.293-.543-.591-.825-.9h10.218c.07.288.152.591.239.9Zm9.5-4.021a3.315,3.315,0,0,0-.25.944,4.547,4.547,0,0,0-.038.613,3.639,3.639,0,0,0,.044.684H265.969c-.673-.738-1.373-1.487-2.068-2.241Zm-33.748-19.7c.206.25.543.6.9,1.02H65.958c-.863-.928-1.59-1.7-2.171-2.29H242.2a12.7,12.7,0,0,1,1.194,1.27ZM64.314,56.864c.543.581,1.134,1.21,1.78,1.916H62.572c-.255-.244-.488-.488-.749-.738-.478-.418-.961-.809-1.443-1.178Zm-5.161-.9a19.319,19.319,0,0,0-1.921-1.123h5.2c.3.315.651.689,1.047,1.123Zm180.123-3.885.163-.038a2.812,2.812,0,0,1,1.715.738H62.968c-.2-.2-.326-.353-.38-.4l-.174-.174-.1-.1ZM61.6,53.949h-6.4a7.3,7.3,0,0,0-.9-.271h7.055A3.116,3.116,0,0,1,61.6,53.949Zm-2.61-1.628a3.423,3.423,0,0,1,1.351.434H51.844c1.177-.559,3.3-.955,7.147-.407Zm-8.313,1.357h.147a.543.543,0,0,0-.174.054A.5.5,0,0,0,50.672,53.678Zm-.157,3.337a1.742,1.742,0,0,1,.336-1.33,1.785,1.785,0,0,1,1.3-.488c1.964-.109,5,1.319,7.738,3.582H50.938A5.715,5.715,0,0,1,50.514,57.016Zm.83,2.654h9.594a20.438,20.438,0,0,1,2.816,3.2H53.564A16.924,16.924,0,0,1,51.345,59.669Zm4.238,5.247c-.423-.374-.83-.771-1.221-1.161h9.979a9.429,9.429,0,0,1,1.226,2.805h-7.9A20.624,20.624,0,0,1,55.583,64.917Zm10.1,2.567a1.627,1.627,0,0,1-.358,1.14c-.852.944-3.381.543-6.268-1.15h6.626Zm-2.2-7.814h3.457q1.389,1.492,2.968,3.2H65.92A18.758,18.758,0,0,0,63.478,59.669Zm7.25,4.086c.841.906,1.731,1.84,2.616,2.805H67.375a8.574,8.574,0,0,0-.982-2.805Zm3.457,3.69c.114.136.239.26.369.4H67.429c0-.141.038-.266.038-.4Zm-7.407,2.171a3.054,3.054,0,0,0,.5-.89h8.08l.83.89ZM94.366,86.709l-1.975-2.171h2.171v-.885H91.55L89.8,81.739h4.732v-.89H89c-.9-.977-1.85-2-2.827-3.066h8.373v-.89H85.326L83.09,74.467H94.524v-.9H82.292l-1.764-1.91H94.551v-.89H79.715c-.412-.423-.8-.857-1.2-1.281H94.551v-.9H77.7c-.358-.385-.716-.765-1.085-1.15H94.518v-.885H75.813c-.244-.26-.472-.543-.716-.765H94.562v-.9h-20.3l-1.085-1.145H94.534v-.89H72.373c-.364-.4-.716-.781-1.085-1.156H94.534v-.9H70.473l-1.085-1.145H94.534V58.8H68.574c-.629-.678-1.226-1.33-1.78-1.916H245.083c.488.543,1.085,1.194,1.731,1.916H244.67v.868h2.947c.347.364.7.749,1.053,1.145h-4v.9h4.83c.331.374.689.754,1.047,1.156H244.67v.89h6.7c.342.374.7.754,1.085,1.145h-7.76v.9h8.568c.233.25.478.5.705.765h-9.279v.885H254.8c.347.385.705.765,1.085,1.15H244.708v.9h12l1.172,1.281H244.67v.89h14.017c.575.635,1.183,1.275,1.753,1.91H244.67v.9h16.611c.749.819,1.5,1.628,2.252,2.426H244.67v.9h19.693c.277.309.543.608.83.9H244.67v.89h21.343c.407.423.792.852,1.188,1.275H244.67v.89h23.367c.358.4.727.776,1.058,1.156H244.676v1.628h.049v-.771h25.212l.955,1.026H244.67v.89h27.04c.336.353.662.689.955,1.02Zm.8.9H273.507c.369.412.743.792,1.085,1.145H96.168c-.228-.271-.575-.646-1.015-1.145Zm5.1,3.923c-.13,0-1.329.081-3.256-1.888H275.4c1.085,1.14,1.709,1.818,1.736,1.85h0Zm180.541,0a5.029,5.029,0,0,1-1.579-.6h8.634c-2.187,1.259-5.8.879-7.065.6Zm8.091-1.5H278.222c-.185-.19-.5-.543-.961-1.02h9.1a6.054,6.054,0,0,0,1.427.374,3.414,3.414,0,0,0,1.568-.152,3.3,3.3,0,0,1-.472.792Zm.152-2.6a1.444,1.444,0,0,1-1.047.2c-1.465-.174-3.972-1.671-6.311-4.629-.2-.255-.374-.5-.543-.754h7.234c.109.228.2.429.3.651h0a17.516,17.516,0,0,1,.825,2.713,2.182,2.182,0,0,1-.467,1.813Z" transform="translate(-30.295 -33.334)"/>
  <g id="Group_1" data-name="Group 1" transform="translate(67.501 26.829)">
    <path id="Path_3" data-name="Path 3" d="M143.059,85.088c1.731,2.545,3.06,1.628,4.634,1.628.906,0,1.514-.966,1.514-2.833V68.51h6v14.3c0,6.148-2.3,9.323-7.13,9.6-4.683.271-5.969-.619-8.563-3.533Z" transform="translate(-139.51 -68.51)"/>
    <path id="Path_4" data-name="Path 4" d="M192.4,91.79V68.51h8.753c4.113,0,7.385,1.232,7.385,5.861a6.559,6.559,0,0,1-2.377,5.074c1.97.64,3.039,2.816,3.039,5.334,0,5.209-3.12,7.011-7.874,7.011Zm6.007-9.724v4.3h2.615c1.487,0,2.6-.385,2.6-2.133,0-2.04-1.406-2.171-3.31-2.171Zm0-8.113v3.869h2.485a1.883,1.883,0,0,0,2.062-2.03c0-1.807-1.172-1.84-2.447-1.84Z" transform="translate(-163.699 -68.51)"/>
    <path id="Path_5" data-name="Path 5" d="M255.16,91.79V68.51h5.969v7.863h5.682V68.51h5.969V91.79h-5.969V82.771h-5.655V91.79Z" transform="translate(-192.402 -68.51)"/>
    <path id="Path_6" data-name="Path 6" d="M295.6,68.51h5.969V82.456c0,2.29.358,4.26,2.827,4.26,2.171,0,2.8-1.742,2.8-4.26V68.51h5.969V81.68c0,7.467-2.713,10.728-8.785,10.728-5.666,0-8.818-2.746-8.818-10.772Z" transform="translate(-210.879 -68.51)"/>
    <path id="Path_7" data-name="Path 7" d="M346.746,81.219l-.228-5.3V68.51h5.736V91.79h-5.633L340.11,79.124l.228,5.3V91.79H334.58V68.51H340.2Z" transform="translate(-228.725 -68.51)"/>
    <path id="Path_8" data-name="Path 8" d="M371.79,68.51h16.773v6.116H383.18V91.79h-5.969V74.626h-5.394Z" transform="translate(-245.743 -68.51)"/>
    <path id="Path_9" data-name="Path 9" d="M172.895,100.76a3.131,3.131,0,1,0,2.226.913A3.131,3.131,0,0,0,172.895,100.76Z" transform="translate(-153.354 -83.259)"/>
    <path id="Path_10" data-name="Path 10" d="M229.425,100.76a3.131,3.131,0,1,0,3.147,3.136A3.131,3.131,0,0,0,229.425,100.76Z" transform="translate(-179.208 -83.259)"/>
  </g>
</svg>
