<svg id="surface1" xmlns="http://www.w3.org/2000/svg" width="249.666" height="68.366" viewBox="0 0 249.666 68.366">
  <defs>
    <style>
      .cls-1 {
        fill: #275b8c;
      }

      .cls-1, .cls-2, .cls-3 {
        fill-rule: evenodd;
      }

      .cls-2 {
        fill: #f3c741;
      }

      .cls-3 {
        fill: #fff;
      }
    </style>
  </defs>
  <path id="Path_63" data-name="Path 63" class="cls-1" d="M154.734,117.51v-.85h3.613v.861h-1.026v4.827h-1.527V117.51h-1.06" transform="translate(52.997 -54.011)"/>
  <path id="Path_64" data-name="Path 64" class="cls-1" d="M157.5,116.66H159.7l.588,4.078.716-4.078h2.152v5.688h-1.32v-4.856l-.938,4.856h-1.327l-.865-4.856v4.856H157.5V116.66" transform="translate(54.159 -54.011)"/>
  <path id="Path_65" data-name="Path 65" class="cls-2" d="M205.987,140.924s-168.428-.212-171.38-.212c-12.53.172-15.549-4.9-12.374-14.532.782-2.375,7.73-17.336,7.625-17.441-.7-.322-2.32-1.16-2.425-1.16-.15,0-8.013.189-9.184,0-8.862-.422-9.6-4.589-5.483-14.722-1.149-1.9-4.262-7.891-4.262-8.185l18.057.278,1.282-2.8-7.8-9.589,238.124.688L242.005,107.84l-15.233.056c0,.211-9.289,9.072-9.5,9.072-.105,0-11.286,23.957-11.286,23.957" transform="translate(-8.504 -72.559)"/>
  <path id="Path_66" data-name="Path 66" class="cls-1" d="M32.314,106.775l-5.721-2.619c-5.338-.111-12.191.616-13.878-1.759-2.07-2.908,1.1-7.9,1.787-10.46.011-.056-2.958-5.194-2.974-5.349l15.743.244,2.669-5.838L24.6,74.43l227.869.655-13.657,29.46-14.655.044c-.955.794-10.543,9.922-10.794,10.221-.187.229-9.217,20.289-10.553,22.475l-163.988-.206c-18.007.588-17.308-5.593-13.584-14.084l7.075-16.22" transform="translate(-7.232 -71.772)"/>
  <path id="Path_67" data-name="Path 67" class="cls-3" d="M163.821,94.837c-.645-.322-1.138-.677-1.787-.988l7.869-.022c-1.682,2.763-5.266,9.228-6.221,10.5l-7.67.017,2.936-1.027Zm-38.1-.061-1.842-1.027h14.549a6.186,6.186,0,0,1,2.453.483c.693.577.349,1.16-.006,1.77l-1.182,2a9.072,9.072,0,0,1-2.958,1.459c-.128.05,1.931,4.855,1.931,4.855.122.045-6.458.045-6.2,0,0,0-1-4.239-1.249-4.278l-2.6-.067-2.68,4.306c-1.088-.011-2.075-.027-2.813-.033l-5.255.021,2.919-1.026Zm5.038.877-1.332,2.109,3.468.05a3.26,3.26,0,0,0,1.331-.289c.722-.572.416-.35.844-.977.017-.239.322-.511.04-.732-.1-.111-.4-.139-.639-.178Zm-76.672-.866c-.644-.322-1-.677-1.643-.993l7.552-.1,4.778,5.954,2.58-4.806-2.037-1.054h8.562L67.4,104.3l-4.878-.028-5.005-5.943c-1.482,2.575-3,5.194-3.568,5.96l-7.669.017,2.935-1.027Zm144.36-1.038c.112.233,1.111,3.452,1.111,3.452.688-.372,4.861-3.452,4.861-3.452h5.16l-9.322,6.16c-.827,1.393-1.571,2.963-2.48,4.417l-7.83.028,2.686-.861,2.1-3.584-1.919-5.144-1.749-1Zm-94.168.022L93.6,104.332H85.128l3.224-9.394-2.53-1.11,8.551-.028c-1.2,2.752-2.114,5.993-3.124,7.9,1.654-1.926,7.142-7.9,7.142-7.9Zm-54,.139c-.178.266-3.5,6.393-3.5,6.393-.894,1.188-.882,2.63-3.23,3.629a14.463,14.463,0,0,1-4.722.5l-7.119-.017a3.985,3.985,0,0,1-2.142-.561,1.314,1.314,0,0,1-.189-1.526l4.184-7.253-1.737-1.165h8.041c-.749,1.254-2.769,5.205-3.474,6.448l-.444.721c-.128.344-.577.788-.183,1.143a16.416,16.416,0,0,0,3.407.055,1.592,1.592,0,0,0,.9-.422l4.456-7.919Zm133.75,1.554c-1.814,3.119-4.544,7.813-5.31,8.84l-8.191.027,3.053-.915,4.561-7.952h-5.094l-1.888-1.72,19.1.028-1.138,1.748ZM152.789,104.1a22.761,22.761,0,0,1-3.452.233h-4.05a15.109,15.109,0,0,1-2.637-.254c-1.115-.261-2.519-.55-1.342-2.792l.4-.655,6.192-.067-.754,1.215c-.244.388-.327.66-.2.782a1.583,1.583,0,0,0,.987.189,3.012,3.012,0,0,0,1.249-.244,1.7,1.7,0,0,0,.766-.66c.382-.616.439-1.038.094-1.243a17.084,17.084,0,0,0-2.685-.927,26.757,26.757,0,0,1-2.8-.932,1.287,1.287,0,0,1-.544-2.153,8.231,8.231,0,0,1,1.7-1.9c.76-.633,3-1.01,5.354-1.082h3.13a32.291,32.291,0,0,1,3.424.222c1.117.211,1.882.466,1.915,1.032.195.327.028.732-.494,1.565l-.233.377-6.192.072.443-.716c.223-.361.3-.61.178-.721a1.344,1.344,0,0,0-.842-.166,2.955,2.955,0,0,0-1.176.228,1.67,1.67,0,0,0-.722.633c-.217.355-.273.627-.128.816a3.732,3.732,0,0,0,1.615.644c2.641.682,4.189,1.249,4.694,1.687s.821.821.189,1.848a5.959,5.959,0,0,1-1.636,2.081A6.143,6.143,0,0,1,152.789,104.1ZM78.42,94.776c-.644-.322-1.138-.672-1.781-.988l7.869-.017c-1.681,2.758-5.272,9.228-6.221,10.5l-7.669.023,2.93-1.027Zm43.094-.982-1.276,1.92-7.009-.033-1.165,2.053h7.264l-1.154,1.942-7.258.05c-.555.96-1.077,1.837-1.46,2.469l7.813.006c-.35.666-.76,1.42-1.11,2.086l-15.732.023,2.935-1.033,4.872-8.485c-.644-.322-1.138-.671-1.787-.993l15.066-.006" transform="translate(0.217 -63.707)"/>
  <path id="Path_68" data-name="Path 68" class="cls-3" d="M218.8,80.5c-.661-.533-1-1.126-1.665-1.654l8.373-.161,4.368,9.855,3.607-7.957-2.093-1.737h9.472L232.07,96.23l-5.4-.044-4.623-9.833c-2.043,4.256-4.124,8.6-4.873,9.855l-8.489.028,3.407-1.7ZM29.2,91.807l6.293-11.836-2.547-1.287s9.234.161,9.25.078l-7.6,14.705A6.092,6.092,0,0,1,32.328,95.6a8.906,8.906,0,0,1-3.363.81H19.743c-4.806-.178-2.947-2.852-1.687-5.15.028.022-1.509-1.5-1.759-1.665l8.679.2a8.686,8.686,0,0,0-1.182,2.6c.039.921,2.308.533,3.6.583l.627-.161C28.777,92.534,28.855,92.162,29.2,91.807ZM80.189,80.459c-.666-.533-1.16-1.121-1.831-1.648l8.745-.028c-2.3,4.6-7.3,15.377-8.551,17.5l-8.529.033L73.442,94.6l2.919-6.126H69.191c-1.693,3.529-3.252,6.748-3.879,7.808l-8.523.033L60.207,94.6l6.748-14.145c-.671-.533-1.165-1.121-1.831-1.648l8.745-.028c-.794,1.582-1.9,3.9-3.069,6.337h7.164Zm10.976.111c-.666-.538-1-1.138-1.665-1.665l8.374-.166,4.356,9.955,3.612-8.035L103.751,78.9h9.478L104.4,96.469l-5.394-.044L94.4,86.486c-2.048,4.306-4.14,8.684-4.889,9.961l-8.49.033,3.407-1.72Zm75.84,1.326a5.747,5.747,0,0,1,4.195-2.858l1.543-.166h9.328c1.144.067,2.3.283,2.786.927.832,1.654-.921,3.335-1.526,5.1l-2.291,4.678c-1.172,1.953-1.377,4.317-4.13,5.954a11.6,11.6,0,0,1-5.31.827l-7.88-.028c-.943-.111-1.965-.344-2.291-.927a2.846,2.846,0,0,1,.072-2.037Zm2.513,7.774-.6,1.182c-.188.566-.754,1.293-.371,1.876a12.184,12.184,0,0,0,3.762.094,1.841,1.841,0,0,0,1.065-.694l4.223-8.512.2-.855c-.416-.882-2.391-.327-3.695-.477a2.029,2.029,0,0,0-1.443.949C171.577,85.409,170.546,87.518,169.519,89.671Zm45.9-10.954L204.861,96.474H196.4a88.783,88.783,0,0,1,1.915-9.3q-1.349,2.222-5.839,9.3h-8.411L188.1,80.637,185.9,78.684l9.272.033-1.942,6.193-1.837,5.982c1.564-3.091,6.02-9.783,7.042-12.175h7.047c-.128.516-3.88,12.6-3.88,12.6q3.3-6.434,7.242-12.6ZM146.591,80.4l-1.9-1.72h16.27a4.732,4.732,0,0,1,2.669.81c.682.966.21,1.937-.283,2.958L161.706,85.8c-.4.766-2.608,2.014-3.534,2.453-.149.078,1.4,8.113,1.4,8.113.122.078-7.229.078-6.935,0,0,0-.462-7.086-.727-7.147l-2.9-.122.011.133-3.679,7.064c-1.21-.011-9.023-.011-9.023-.011l3.429-1.72Zm5.493,1.471-1.82,3.524,3.867.083A2.916,2.916,0,0,0,155.668,85c.9-.96.521-.588,1.1-1.631.055-.411.438-.86.149-1.226-.088-.189-.416-.239-.682-.3ZM45,81.774a5.8,5.8,0,0,1,4.251-2.919l1.559-.172h9.45c1.154.072,2.331.294,2.819.949.843,1.692-.938,3.407-1.554,5.211L59.2,89.621c-1.182,2-1.4,4.412-4.19,6.082a11.658,11.658,0,0,1-5.377.849l-7.985-.033c-.954-.111-1.987-.344-2.314-.943a2.91,2.91,0,0,1,.072-2.081Zm2.53,7.941-.61,1.21c-.194.583-.766,1.321-.377,1.92a12.332,12.332,0,0,0,3.812.094,1.842,1.842,0,0,0,1.077-.71l4.289-8.69.205-.882c-.416-.9-2.425-.327-3.746-.488a2.046,2.046,0,0,0-1.459.977C49.625,85.365,48.576,87.523,47.533,89.715Zm77.538-9.206-1.909-1.726H139.5a4.729,4.729,0,0,1,2.681.81c.683.971.212,1.948-.283,2.969l-1.642,3.363a3.813,3.813,0,0,1-1.892,1.764c.615.871.188,1.754-.256,2.675l-1.921,3.757c-.588,1.121-1.32,1.665-3.5,2.142-1.964.339-8.945.222-12.025.15l-5.91.044,3.44-1.726L120.82,89.3l-3.5-3.929,5.5-.2Zm5.516,1.476-1.826,3.54,3.89.078a2.811,2.811,0,0,0,1.543-.483c.9-.96.516-.588,1.1-1.637.055-.411.438-.866.155-1.232-.1-.189-.422-.233-.688-.3Zm-3.08,7.253.011.161-1.82,3.507,3.884.083a2.908,2.908,0,0,0,1.548-.483c.9-.966.516-.594,1.1-1.643.055-.411.438-.86.155-1.232-.094-.183-.422-.233-.688-.3l-4.19-.094" transform="translate(-5.226 -69.983)"/>
  <path id="Path_69" data-name="Path 69" class="cls-3" d="M198.75,108.1c-1.7,3.523-3.867,8.085-5.121,10.515l-158.811-.239c-2.4-.006-12.291.9-10.554-3.429.389-.96.089-.361.494-1.287L27.2,108.1H198.75" transform="translate(-1.961 -57.61)"/>
  <path id="Path_70" data-name="Path 70" class="cls-1" d="M70.373,110.64c-.006.016-2.58,3.922-2.6,3.9.511.044,1.343.017,1.92.011a.9.9,0,0,0,.494-.256l2.075-3.152.106-.315C72.2,110.5,70.95,110.7,70.373,110.64Zm-6.165,5.194c.25-.378,3.807-5.982,4.09-6.421h6.537a1.158,1.158,0,0,1,.755.267c.505.378-.322,1.193-.627,1.764L73.8,113.182c-.566.722-.855,1.764-2.12,2.369a6.228,6.228,0,0,1-2.386.305l-3.513-.011C65.362,115.805,64.663,115.851,64.208,115.834Zm72.128-5.094c-.716.827-1.487,1.682-2.236,2.514h2.158l1.115-2.337.05-.2Zm-1.715-.727a5.562,5.562,0,0,0-.644-.554l6.17-.011c-.781,2.092-1.564,4.328-2.347,6.376h-2.824l.626-1.321-2.4-.01c-.4.443-.75.9-1.126,1.342h-3.763l1.582-.632Zm-45.492-.56-.832,1.165-3.457-.023-.794,1.243h3.585l-.771,1.188-3.59.028c-.377.582-.727,1.121-.982,1.5l3.857.006-.766,1.264-7.769.011,1.554-.622,3.307-5.154c-.283-.195-.494-.411-.777-.6Zm-58.166.921a2.724,2.724,0,0,1,1.82-.965l.477-.045h4.622a1.521,1.521,0,0,1,.871.288c.339.572-.383,1.227-.683,1.821-.882.021-1.865.006-2.752.006.133-.256.461-.538.289-.8l-.222-.084H34.026a1.132,1.132,0,0,0-.732.406l-2.025,3.135c-.011.128-.15.266.055.365l.205.061c.594-.016,1.415.122,1.865-.216a7.756,7.756,0,0,0,.832-1.276l-1.271.05.527-1,3.956.161-.8,1.421a3.22,3.22,0,0,1-3.307,2.114H29.243a2.025,2.025,0,0,1-1.115-.294c-.239-.216-.122-.51-.017-.777Zm26.469-.327c-.283-.195-.494-.4-.777-.6l3.884-.011c-1.121,1.676-2.136,3.391-3.291,5.111l2.469.011c-.239.4-.555.842-.8,1.247l-6.348.023,1.554-.626Zm38.184.027c-.283-.193-.422-.416-.7-.6l3.74-.061,1.726,3.617,1.781-2.924-.893-.632h4.228l-4.312,6.381-2.408-.017-1.837-3.613c-1,1.565-2.031,3.158-2.392,3.624l-3.79.011,1.559-.628ZM44.8,113.365l-.3.438c-.094.212-.366.477-.205.695a6.372,6.372,0,0,0,1.67.038.891.891,0,0,0,.494-.261l2.075-3.147.111-.315c-.166-.328-1.06-.122-1.637-.183a1.031,1.031,0,0,0-.666.355C45.807,111.788,45.3,112.571,44.8,113.365Zm-.943-2.881a2.809,2.809,0,0,1,1.937-1.054l.688-.067h4.156a1.887,1.887,0,0,1,1.221.349c.333.611-.488,1.233-.8,1.888l-1.127,1.73c-.566.727-.716,1.6-1.981,2.209a6.412,6.412,0,0,1-2.386.305l-3.507-.017c-.422-.038-.866-.122-1-.338s-.017-.506.083-.754Zm143.794,5.26a9.581,9.581,0,0,1-1.732.145h-2a6.1,6.1,0,0,1-1.277-.155c-.521-.156-1.182-.334-.365-1.7l.266-.394,3.068-.044-.5.737c-.161.239-.227.4-.178.477s.222.117.46.117a1.457,1.457,0,0,0,.644-.149,1.206,1.206,0,0,0,.45-.4c.254-.378.327-.634.178-.756a6.345,6.345,0,0,0-1.227-.565,10.376,10.376,0,0,1-1.287-.567.677.677,0,0,1-.332-.487,1.217,1.217,0,0,1,.294-.821,6.285,6.285,0,0,1,1.037-1.155,5.342,5.342,0,0,1,2.764-.661h1.541a11.425,11.425,0,0,1,1.665.139c.527.128.878.277.838.626.061.2-.067.445-.411.949l-.155.233-3.068.045.3-.439c.143-.222.21-.372.161-.439s-.195-.105-.4-.1a1.319,1.319,0,0,0-.605.139,1.091,1.091,0,0,0-.416.382c-.151.217-.206.384-.151.494s.294.244.722.388a5.494,5.494,0,0,1,2.142,1.033c.2.266.322.494-.1,1.121a4.731,4.731,0,0,1-1.033,1.266A3.346,3.346,0,0,1,187.648,115.744ZM127.3,109.485l-.832,1.166-3.452-.017-.794,1.243h3.585l-.777,1.182-3.59.027c-.372.584-.721,1.121-.982,1.5l3.857.006-.766,1.271-7.769.01,1.559-.626,3.307-5.15c-.289-.2-.494-.411-.782-.605Zm34.221.605c-.283-.195-.487-.4-.777-.6l3.891-.011c-1.127,1.676-2.142,3.391-3.3,5.106l2.47.011c-.239.411-.55.844-.8,1.254l-6.349.021,1.56-.626Zm17.841-.571-.832,1.171-3.458-.023-.793,1.249h3.584l-.771,1.176-3.59.034c-.378.582-.727,1.115-.983,1.5l3.857.006-.771,1.271-7.762.011,1.553-.628,3.307-5.155c-.288-.2-.493-.411-.776-.6l7.435-.006" transform="translate(-0.31 -57.08)"/>
  <path id="Path_71" data-name="Path 71" class="cls-1" d="M112.228,110.373a2.722,2.722,0,0,1,1.825-.965l.472-.045h4.623a1.5,1.5,0,0,1,.871.288c.338.572-.382,1.227-.678,1.821-.882.021-1.869.006-2.752.006.128-.256.455-.538.288-.8l-.227-.084H115.3a1.134,1.134,0,0,0-.739.406l-2.02,3.135c-.01.128-.155.266.051.365l.2.061c.594-.016,1.421.122,1.865-.216a7.422,7.422,0,0,0,.832-1.276l-1.266.05.527-1,3.956.161-.8,1.421a3.229,3.229,0,0,1-3.313,2.114h-4.084a2.022,2.022,0,0,1-1.115-.294c-.233-.216-.122-.51-.011-.777l2.847-4.367" transform="translate(33.87 -57.08)"/>
  <path id="Path_72" data-name="Path 72" class="cls-2" d="M28.34,103.984H200.224l-1.254,2.32H27.086l1.254-2.32" transform="translate(-0.688 -59.342)"/>
</svg>
