<svg xmlns="http://www.w3.org/2000/svg" width="289.569" height="70.219" viewBox="0 0 289.569 70.219">
  <defs>
    <style>
      .cls-1 {
        fill: #fff;
      }

      .cls-2, .cls-4, .cls-5, .cls-6, .cls-7, .cls-8, .cls-9 {
        fill: none;
      }

      .cls-2, .cls-4, .cls-5, .cls-8, .cls-9 {
        stroke: #000;
      }

      .cls-2, .cls-9 {
        stroke-width: 1.674px;
      }

      .cls-3 {
        fill: #a41f35;
      }

      .cls-4 {
        stroke-width: 1.807px;
      }

      .cls-5, .cls-6 {
        stroke-width: 0.942px;
      }

      .cls-6 {
        stroke: #231815;
      }

      .cls-7 {
        stroke: #fff;
        stroke-width: 0.366px;
      }

      .cls-8 {
        stroke-width: 0.904px;
      }

      .cls-9 {
        stroke-linecap: round;
      }
    </style>
  </defs>
  <g id="UARK_logo" transform="translate(0.904 0.904)">
    <path id="Path_16" data-name="Path 16" class="cls-1" d="M-50.7,328.827s2.742-.385,4.955-.914c1.973-.481,3.9-1.155,3.9-1.155l-1.4-2.742,1.251-3.416s-2.357.674-4.426,1.107a32.453,32.453,0,0,1-4.186.625Z" transform="translate(86.494 -267.197)"/>
    <path id="Path_17" data-name="Path 17" class="cls-2" d="M-50.7,328.827s2.742-.385,4.955-.914c1.973-.481,3.9-1.155,3.9-1.155l-1.4-2.742,1.251-3.416s-2.357.674-4.426,1.107a32.453,32.453,0,0,1-4.186.625Z" transform="translate(86.494 -267.197)"/>
    <path id="Path_18" data-name="Path 18" class="cls-1" d="M-111.348,328.827s-2.742-.385-4.955-.914c-1.973-.481-3.9-1.155-3.9-1.155l1.4-2.742-1.251-3.416s2.357.674,4.426,1.107a32.453,32.453,0,0,0,4.186.625Z" transform="translate(122.557 -267.197)"/>
    <path id="Path_19" data-name="Path 19" class="cls-2" d="M-111.348,328.827s-2.742-.385-4.955-.914c-1.973-.481-3.9-1.155-3.9-1.155l1.4-2.742-1.251-3.416s2.357.674,4.426,1.107a32.453,32.453,0,0,0,4.186.625Z" transform="translate(122.557 -267.197)"/>
    <path id="Path_20" data-name="Path 20" class="cls-3" d="M-101.622,216.9s5.437,6.158,11.691,7.986a27.674,27.674,0,0,0,7.986,1.107,23.764,23.764,0,0,0,3.656-.241s.192,11.354.192,19.581c0,13.952-7.313,23.238-13.808,29.444-5.773,5.533-9,6.784-9.67,6.976,0,0-3.9-1.443-9.718-6.976-6.495-6.206-13.808-15.251-13.808-29.444,0-8.035.192-19.581.192-19.581a24.554,24.554,0,0,0,3.656.241,29.46,29.46,0,0,0,7.986-1.107c6.206-1.876,11.643-7.986,11.643-7.986" transform="translate(125.1 -213.388)"/>
    <path id="Path_21" data-name="Path 21" class="cls-4" d="M-101.622,216.9s5.437,6.158,11.691,7.986a27.674,27.674,0,0,0,7.986,1.107,23.764,23.764,0,0,0,3.656-.241s.192,11.354.192,19.581c0,13.952-7.313,23.238-13.808,29.444-5.773,5.533-9,6.784-9.67,6.976,0,0-3.9-1.443-9.718-6.976-6.495-6.206-13.808-15.251-13.808-29.444,0-8.035.192-19.581.192-19.581a24.554,24.554,0,0,0,3.656.241,29.46,29.46,0,0,0,7.986-1.107C-107.058,223.01-101.622,216.9-101.622,216.9Z" transform="translate(125.1 -213.388)"/>
    <rect id="Rectangle_3" data-name="Rectangle 3" width="29.059" height="27.231" transform="translate(8.949 32.331)"/>
    <path id="Path_22" data-name="Path 22" class="cls-1" d="M-106.2,240.248s3.32-5.34,3.656-10.488c.144-2.021,0-4.282.241-6.351.289-2.742,2.6-7.409,2.6-7.409h15.78s2.309,4.715,2.6,7.409c.241,2.021.1,4.282.241,6.351.385,5.1,3.656,10.488,3.656,10.488Z" transform="translate(115.293 -212.921)"/>
    <path id="Path_23" data-name="Path 23" class="cls-4" d="M-106.2,240.248s3.32-5.34,3.656-10.488c.144-2.021,0-4.282.241-6.351.289-2.742,2.6-7.409,2.6-7.409h15.78s2.309,4.715,2.6,7.409c.241,2.021.1,4.282.241,6.351.385,5.1,3.656,10.488,3.656,10.488Z" transform="translate(115.293 -212.921)"/>
    <rect id="Rectangle_4" data-name="Rectangle 4" width="21.409" height="28.337" transform="translate(12.749 34.111)"/>
    <path id="Path_24" data-name="Path 24" class="cls-1" d="M-77.18,308.848H-99.6V279.5h22.42Zm-1.01-28.385H-98.638v27.327h20.447Z" transform="translate(111.868 -245.87)"/>
    <path id="Path_25" data-name="Path 25" d="M-76.939,215.1H-93.2v-1.4h16.261v1.4Z" transform="translate(108.547 -211.727)"/>
    <path id="Path_26" data-name="Path 26" d="M-77.335,213.681v.914h-15.78v-.914Zm.481-.481H-93.5v1.78h16.646V213.2Z" transform="translate(108.703 -211.468)"/>
    <path id="Path_27" data-name="Path 27" d="M-77.7,211.043H-96.075L-96.7,209.6h19.677Z" transform="translate(110.364 -209.6)"/>
    <path id="Path_28" data-name="Path 28" class="cls-5" d="M-77.7,211.043H-96.075L-96.7,209.6h19.677Z" transform="translate(110.364 -209.6)"/>
    <path id="Path_29" data-name="Path 29" d="M-93.53,213.37l-.77-.77h17.368l-.818.77Z" transform="translate(109.118 -211.157)"/>
    <path id="Path_30" data-name="Path 30" class="cls-6" d="M-93.53,213.37l-.77-.77h17.368l-.818.77Z" transform="translate(109.118 -211.157)"/>
    <path id="Path_31" data-name="Path 31" d="M-112.119,270.706a12.905,12.905,0,0,0-1.636-1.924,8.3,8.3,0,0,0-2.887-1.828L-117.7,264.5h39.788l-1.058,2.454a10.179,10.179,0,0,0-2.79,1.828,12.055,12.055,0,0,0-1.54,1.876Z" transform="translate(121.26 -238.087)"/>
    <path id="Path_32" data-name="Path 32" d="M-77.879,264.2l-1.155,2.694a9.78,9.78,0,0,0-2.79,1.828,8.544,8.544,0,0,0-1.54,1.924l-29.059.048a12.781,12.781,0,0,0-1.636-1.973,9.15,9.15,0,0,0-2.887-1.828L-118.1,264.2h40.221m-.433.289h-39.307l.914,2.165a8.475,8.475,0,0,1,2.839,1.828,13.975,13.975,0,0,1,1.588,1.876l28.722-.048a12.776,12.776,0,0,1,1.491-1.876,9.311,9.311,0,0,1,2.79-1.828Z" transform="translate(121.468 -237.931)"/>
    <path id="Path_33" data-name="Path 33" class="cls-1" d="M-77.2,298.936H-100V297.3h22.8v1.636Z" transform="translate(112.076 -255.107)"/>
    <path id="Path_34" data-name="Path 34" d="M-77.6,298.536h-22.42v-1.2H-77.6Zm.433-1.636H-100.4v1.973h23.189V296.9Z" transform="translate(112.283 -254.899)"/>
    <path id="Path_35" data-name="Path 35" d="M-79.709,231.354c-.144-1.732,0-3.608-.192-5.34a20.946,20.946,0,0,0-1.78-5.148,1.009,1.009,0,0,1-.529.192.862.862,0,0,1-.866-.866V220h-11.4v.192a.862.862,0,0,1-.866.866.724.724,0,0,1-.529-.192,18.527,18.527,0,0,0-1.732,5.148c-.192,1.732-.1,3.608-.192,5.34a27.315,27.315,0,0,1-2.5,8.8h23.093a26.851,26.851,0,0,1-2.5-8.8" transform="translate(112.231 -214.996)"/>
    <path id="Path_36" data-name="Path 36" class="cls-1" d="M-78,235.6a5.205,5.205,0,0,0-5.2-5.2,5.205,5.205,0,0,0-5.2,5.2H-89.5l.722,1.78h.722l1.973,5.052h-1.107v1.3h8.035v-1.3h-1.155l1.876-5h.818l.722-1.78Z" transform="translate(106.627 -220.393)"/>
    <path id="Path_37" data-name="Path 37" class="cls-7" d="M-78,235.6a5.205,5.205,0,0,0-5.2-5.2,5.205,5.205,0,0,0-5.2,5.2H-89.5l.722,1.78h.722l1.973,5.052h-1.107v1.3h8.035v-1.3h-1.155l1.876-5h.818l.722-1.78Z" transform="translate(106.627 -220.393)"/>
    <path id="Path_38" data-name="Path 38" d="M-76.58,237.359a3.552,3.552,0,0,1-3.56,3.56,3.552,3.552,0,0,1-3.56-3.56,3.552,3.552,0,0,1,3.56-3.56,3.522,3.522,0,0,1,3.56,3.56" transform="translate(103.618 -222.156)"/>
    <path id="Path_39" data-name="Path 39" class="cls-1" d="M-96.7,209.6l.625,1.443h.529l.77.77H-79l.77-.77h.529l.625-1.443Z" transform="translate(110.364 -209.6)"/>
    <path id="Path_40" data-name="Path 40" class="cls-4" d="M-96.7,209.6l.625,1.443h.529l.77.77H-79l.77-.77h.529l.625-1.443Z" transform="translate(110.364 -209.6)"/>
    <path id="Path_41" data-name="Path 41" class="cls-1" d="M-78.6,266.928H-115.93l-.77-1.828h38.874Z" transform="translate(120.741 -238.398)"/>
    <path id="Path_42" data-name="Path 42" d="M-77.879,264.2l-1.155,2.694h-37.911L-118.1,264.2Zm-1.3.866h-37.575l.433.962h36.757Z" transform="translate(121.468 -237.931)"/>
    <path id="Path_43" data-name="Path 43" class="cls-1" d="M-76.986,292.993H-97v-.241A3.612,3.612,0,0,1-93.536,289a3.5,3.5,0,0,1,3.272,2.454A3.5,3.5,0,0,1-86.993,289a3.5,3.5,0,0,1,3.272,2.454A3.5,3.5,0,0,1-80.45,289a3.612,3.612,0,0,1,3.464,3.753Z" transform="translate(110.519 -250.8)"/>
    <path id="Path_44" data-name="Path 44" d="M-87.352,288.981a3.439,3.439,0,0,1,3.272,3.56,3.407,3.407,0,0,1,3.272-3.56,3.439,3.439,0,0,1,3.272,3.56H-97.119a3.407,3.407,0,0,1,3.272-3.56,3.407,3.407,0,0,1,3.272,3.56,3.369,3.369,0,0,1,3.223-3.56m0-.481a3.722,3.722,0,0,0-3.272,2.117A3.722,3.722,0,0,0-93.9,288.5a3.869,3.869,0,0,0-3.7,3.993v.433h20.447v-.433a3.837,3.837,0,0,0-3.7-3.993,3.722,3.722,0,0,0-3.272,2.117,3.544,3.544,0,0,0-3.223-2.117" transform="translate(110.831 -250.541)"/>
    <path id="Path_45" data-name="Path 45" class="cls-1" d="M-94.4,305.96V294.654s0-2.454,2.165-2.454,2.165,2.454,2.165,2.454V305.96Z" transform="translate(109.17 -252.46)"/>
    <path id="Path_46" data-name="Path 46" class="cls-8" d="M-94.4,305.96V294.654s0-2.454,2.165-2.454,2.165,2.454,2.165,2.454V305.96Z" transform="translate(109.17 -252.46)"/>
    <path id="Path_47" data-name="Path 47" class="cls-1" d="M-90.145,289.506h-.962L-91.3,287.1h1.4Z" transform="translate(107.561 -249.814)"/>
    <path id="Path_48" data-name="Path 48" class="cls-8" d="M-90.145,289.506h-.962L-91.3,287.1h1.4Z" transform="translate(107.561 -249.814)"/>
    <path id="Path_49" data-name="Path 49" class="cls-1" d="M-80.7,305.96V294.654s0-2.454,2.165-2.454,2.165,2.454,2.165,2.454V305.96Z" transform="translate(102.061 -252.46)"/>
    <path id="Path_50" data-name="Path 50" class="cls-8" d="M-80.7,305.96V294.654s0-2.454,2.165-2.454,2.165,2.454,2.165,2.454V305.96Z" transform="translate(102.061 -252.46)"/>
    <path id="Path_51" data-name="Path 51" class="cls-1" d="M-76.545,289.506h-.914L-77.7,287.1h1.4Z" transform="translate(100.505 -249.814)"/>
    <path id="Path_52" data-name="Path 52" class="cls-8" d="M-76.545,289.506h-.914L-77.7,287.1h1.4Z" transform="translate(100.505 -249.814)"/>
    <path id="Path_53" data-name="Path 53" class="cls-1" d="M-67.1,305.96V294.654s0-2.454,2.165-2.454,2.165,2.454,2.165,2.454V305.96Z" transform="translate(95.004 -252.46)"/>
    <path id="Path_54" data-name="Path 54" class="cls-8" d="M-67.1,305.96V294.654s0-2.454,2.165-2.454,2.165,2.454,2.165,2.454V305.96Z" transform="translate(95.004 -252.46)"/>
    <path id="Path_55" data-name="Path 55" class="cls-1" d="M-62.9,289.506h-.962L-64.1,287.1h1.4Z" transform="translate(93.448 -249.814)"/>
    <path id="Path_56" data-name="Path 56" class="cls-8" d="M-62.9,289.506h-.962L-64.1,287.1h1.4Z" transform="translate(93.448 -249.814)"/>
    <path id="Path_57" data-name="Path 57" class="cls-1" d="M-107.1,327.6v6.495a76.522,76.522,0,0,0,14.77,1.3,76.522,76.522,0,0,0,14.77-1.3V327.6a82.284,82.284,0,0,1-14.866,1.2,78.645,78.645,0,0,1-14.674-1.2" transform="translate(115.76 -270.829)"/>
    <path id="Path_58" data-name="Path 58" class="cls-9" d="M-107.1,327.6v6.495a76.522,76.522,0,0,0,14.77,1.3,76.522,76.522,0,0,0,14.77-1.3V327.6a82.284,82.284,0,0,1-14.866,1.2A78.645,78.645,0,0,1-107.1,327.6Z" transform="translate(115.76 -270.829)"/>
    <path id="Path_59" data-name="Path 59" d="M-87.187,336.641a2.113,2.113,0,0,0-.433-.048c-.144,0-.385-.048-.529-.048H-88.2c-.144,0-.529-.048-.722-.048H-89.3a.1.1,0,0,1-.1-.1v-.144l.048-.048h.192c.433,0,.529-.048.577-.1s.048-.192.1-.385l.144-1.78a3.152,3.152,0,0,0,0-.674c0-.048-.048-.048-.144-.048h-.433c-.1-.048-.1-.144-.1-.241v-.048h.048a2.3,2.3,0,0,0,.914-.241l.048-.048a.177.177,0,0,1,.144-.048h.192l-.241,3.127a.95.95,0,0,0,.048.433c.048.1.433.144.577.192h.144v.192l-.048.1Zm2.309.192a1.142,1.142,0,0,0,1.2-1.107c0-.529-.289-.818-.77-1.155.192-.1.674-.385.674-.866a.944.944,0,0,0-1.058-.866.97.97,0,0,0-1.107.914,1.255,1.255,0,0,0,.625,1.01,1.226,1.226,0,0,0-.818,1.058c0,.577.433.962,1.251,1.01Zm-.144-1.924c.433.289.77.529.722.962a.62.62,0,0,1-.625.674h0c-.289,0-.625-.289-.625-.818a1.011,1.011,0,0,1,.529-.818m.144-1.876v.048a.556.556,0,0,1,.529.625.78.78,0,0,1-.337.674h0c-.289-.192-.625-.433-.625-.77a.519.519,0,0,1,.481-.529v-.048Zm3.127,3.8c.192,0,.337-.048.337-.192a7.873,7.873,0,0,1,1.2-3.464v-.385l-2.309.048-.144.962.048.048h.048c.144,0,.241,0,.241-.1,0-.048.048-.1.048-.144,0-.1.048-.144.144-.192.1-.1.385-.1.674-.1h.818c-.241.385-.577,1.107-.77,1.491a5.284,5.284,0,0,0-.625,1.78.177.177,0,0,0,.048.144c0,.1.048.1.241.1Zm2.935-.192h.144c.1,0,.241-.048.289-.048.144,0,.433-.048.625-.048h.144c.144,0,.385-.048.577-.048h.433l.048-.048V336.3l-.048-.048h-.144c-.385,0-.529-.048-.577-.1a.693.693,0,0,1-.1-.433l-.241-3.127h-.144c-.048,0-.1.048-.144.1l-.048.048a1.813,1.813,0,0,1-.866.385h-.048v.048c0,.1,0,.192.1.192a.364.364,0,0,0,.192-.048c.1,0,.144-.048.241-.048h.048c.048,0,.1,0,.1.048.1.1.1.529.144.674l.144,1.78c0,.192.048.337,0,.385-.048.1-.481.144-.625.192h-.1l-.048.048v.241h-.1Z" transform="translate(106.576 -273.424)"/>
    <path id="Path_60" data-name="Path 60" d="M-87.764,332.544h.1l-.241,3.079c0,.241,0,.385.048.433.1.144.625.192.674.241h0v.1h0a1.548,1.548,0,0,0-.385-.048,2.96,2.96,0,0,0-.625-.048c-.144,0-.529-.048-.722-.048H-89.3v-.1l.048-.048h.192c.192,0,.529,0,.625-.1a.693.693,0,0,0,.1-.433l.144-1.78a3.617,3.617,0,0,0,0-.722.25.25,0,0,0-.192-.1h-.433c-.048-.048-.048-.1-.048-.192a2.559,2.559,0,0,0,.962-.241c.048.048.1,0,.144,0m0-.1c-.048,0-.1.048-.192.048H-88a2.3,2.3,0,0,1-.914.241h-.1v.1a.61.61,0,0,0,.048.289h.529c.048,0,.1,0,.1.048a1.264,1.264,0,0,1,0,.625l-.144,1.78a1.175,1.175,0,0,1-.048.337,1.528,1.528,0,0,1-.529.048h-.192q-.072,0-.144.144v.1c0,.1.048.144.1.144h.385c.192,0,.625.048.722.048h.048c.144,0,.385.048.529.048a1.547,1.547,0,0,1,.385.048h0a.154.154,0,0,0,.144-.144v-.192l-.1-.048h-.1c-.433-.048-.529-.144-.529-.144-.048-.048-.048-.192-.048-.385l.241-3.079v-.1h-.1c.048.048,0,.048-.048.048Zm2.935.289h0c.577,0,1.01.289,1.01.818,0,.481-.481.77-.722.866.529.337.866.625.818,1.155a1.09,1.09,0,0,1-1.155,1.058h-.048c-.674,0-1.155-.337-1.155-.962a1.28,1.28,0,0,1,.914-1.058c-.337-.241-.722-.481-.722-1.01a.976.976,0,0,1,1.058-.866m.1,1.636a.98.98,0,0,0,.433-.77.6.6,0,0,0-.577-.674h0a.574.574,0,0,0-.529.577c0,.385.385.625.674.866m-.144,2.117c.385,0,.625-.289.674-.722,0-.481-.337-.722-.77-1.01a1.036,1.036,0,0,0-.577.866.75.75,0,0,0,.674.866h0m.048-3.849h0a1.054,1.054,0,0,0-1.155,1.01,1.13,1.13,0,0,0,.577.962,1.252,1.252,0,0,0-.77,1.058c0,.674.481,1.058,1.251,1.107h.048a1.194,1.194,0,0,0,1.251-1.155,1.4,1.4,0,0,0-.722-1.155,1.284,1.284,0,0,0,.625-.914c0-.481-.433-.866-1.107-.914Zm.1,1.588c-.289-.192-.577-.433-.577-.722,0-.144.144-.481.433-.481.433,0,.481.433.481.577a.7.7,0,0,1-.337.625m-.144,2.261v-.1a.715.715,0,0,1-.577-.77.816.816,0,0,1,.433-.77c.433.289.674.481.674.866a.562.562,0,0,1-.529.625v.144Zm4.571-3.7v.289a7.488,7.488,0,0,0-1.2,3.416c0,.1-.048.144-.289.144h-.048c-.192,0-.241-.048-.192-.144a5.284,5.284,0,0,1,.625-1.78,15.585,15.585,0,0,1,.818-1.54h-.914a1.538,1.538,0,0,0-.722.1.611.611,0,0,0-.192.337c0,.048-.1.048-.241.048l.144-.914,2.213.048m.144-.1h-.1l-2.213.048h-.1v.1l-.144.914v.144h.192c.144,0,.241,0,.289-.144,0-.048.048-.1.048-.144,0-.1.048-.1.144-.192a2.17,2.17,0,0,1,.625-.048h.77c-.241.385-.529,1.058-.722,1.4a5.5,5.5,0,0,0-.625,1.828.238.238,0,0,0,.048.144.407.407,0,0,0,.289.1h.048c.144,0,.385,0,.385-.241a6.643,6.643,0,0,1,1.2-3.368v-.385Zm2.357-.192.241,3.079a.693.693,0,0,0,.1.433c.1.1.433.1.625.1h.144v.1h-.433c-.192,0-.481.048-.625.048s-.529.048-.722.048c-.048,0-.241.048-.385.048h0V336.2c.048,0,.674-.1.77-.241a.95.95,0,0,0,.048-.433l-.144-1.78a1.537,1.537,0,0,0-.144-.674.177.177,0,0,0-.144-.048h-.048c-.1,0-.241.048-.385.048-.048,0-.048-.1-.048-.144a2.282,2.282,0,0,0,.914-.385.691.691,0,0,1,.144-.1c.048.048.048.048.1.048m.1-.1h-.241c-.048,0-.1.048-.192.1a.047.047,0,0,0-.048.048,2.437,2.437,0,0,1-.866.385h-.1v.1c0,.1,0,.192.1.241h.1a.364.364,0,0,0,.192-.048c.1,0,.144-.048.241-.048h.1c.048.048.1.192.1.625l.144,1.78v.385c0,.048-.144.1-.577.144h-.1c-.048,0-.1.048-.1.144v.1a.128.128,0,0,0,.144.144h.144a.979.979,0,0,0,.241-.048c.144,0,.481-.048.625-.048h.144c.144,0,.385-.048.577-.048h.433a.154.154,0,0,0,.144-.144v-.192h-.289a1.527,1.527,0,0,1-.529-.048c-.048-.048-.048-.192-.1-.385l-.241-3.079Z" transform="translate(106.576 -273.32)"/>
    <path id="Path_61" data-name="Path 61" d="M6.174,256.383c.481-1.4.674-1.636.914-1.636s.433.192.914,1.491c.625,1.588,7.217,18.908,9.767,25.306,1.491,3.753,2.742,4.426,3.608,4.667a5.883,5.883,0,0,0,1.684.241c.241,0,.433.048.433.241,0,.241-.385.337-.818.337-.625,0-3.7,0-6.591-.1-.818-.048-1.251-.048-1.251-.289,0-.144.144-.241.289-.289.241-.1.481-.481.241-1.155l-3.9-10.3c-.1-.144-.144-.241-.385-.241H2.036A.514.514,0,0,0,1.6,275l-2.5,7.409a8.727,8.727,0,0,0-.577,2.79c0,.818.866,1.2,1.588,1.2H.545c.289,0,.433.1.433.241,0,.241-.241.337-.625.337-1.01,0-2.79-.144-3.272-.144s-2.79.144-4.763.144c-.529,0-.818-.1-.818-.337,0-.144.144-.241.385-.241a11,11,0,0,0,1.2-.1c1.924-.241,2.79-1.828,3.512-3.945Zm4.33,16.791c.192,0,.192-.144.144-.289L6.655,261.531c-.192-.625-.433-.625-.625,0l-3.7,11.354c-.1.192,0,.289.144.289Zm17.7-5.677c0-6.543,0-7.7-.1-9.045-.1-1.443-.433-2.117-1.828-2.406a6.991,6.991,0,0,0-1.443-.144c-.144,0-.337-.1-.337-.241,0-.241.192-.337.674-.337,1.876,0,4.522.144,4.763.144.481,0,3.656-.144,4.955-.144,2.646,0,5.437.241,7.7,1.828a7.311,7.311,0,0,1,2.887,5.725c0,3.127-1.3,6.206-5.1,9.67,3.464,4.426,6.3,8.131,8.708,10.729a8.839,8.839,0,0,0,5.1,3.031,8.989,8.989,0,0,0,1.636.144c.192,0,.385.144.385.241,0,.241-.241.337-1.01.337H52.216c-2.357,0-3.416-.192-4.474-.818-1.828-.962-3.272-3.031-5.677-6.158-1.78-2.309-3.753-5.1-4.571-6.206a.689.689,0,0,0-.529-.241l-5.148-.1c-.192,0-.289.144-.289.337v1.01c0,4.041,0,7.361.192,9.093.144,1.2.385,2.165,1.636,2.309a14.46,14.46,0,0,0,1.876.144c.241,0,.337.144.337.241,0,.192-.192.337-.674.337-2.309,0-4.955-.144-5.148-.144-.048,0-2.694.144-3.945.144-.481,0-.674-.1-.674-.337,0-.144.1-.241.337-.241a11.064,11.064,0,0,0,1.251-.144c.818-.144,1.058-1.107,1.2-2.309.192-1.78.192-5.1.192-9.093V267.5Zm3.32,3.656a.529.529,0,0,0,.289.481,11.406,11.406,0,0,0,4.426.674,5.367,5.367,0,0,0,3.127-.818c1.443-1.01,2.55-3.272,2.55-6.447,0-5.244-2.79-8.419-7.265-8.419a14.59,14.59,0,0,0-2.79.241.523.523,0,0,0-.337.481Zm28,3.7c0,4.041,0,7.361-.192,9.093-.144,1.2-.337,2.117-1.155,2.309a4.847,4.847,0,0,1-1.2.144c-.241,0-.337.144-.337.241,0,.241.192.337.625.337,1.2,0,3.512-.144,3.849-.144s2.646.144,4.571.144c.433,0,.625-.144.625-.337,0-.144-.1-.241-.337-.241-.337,0-1.01-.1-1.54-.144-1.2-.144-1.443-1.107-1.54-2.309-.192-1.78-.192-5.1-.192-9.093v-4.089H62.9c1.924,2.454,7.986,12.076,9.767,13.615,1.732,1.443,2.694,2.357,4.811,2.55a23.907,23.907,0,0,0,2.742.1h2.021c.674,0,.866-.144.866-.337,0-.144-.241-.241-.529-.241a7.365,7.365,0,0,1-2.454-.529c-1.924-.818-2.6-1.491-5.918-4.763-1.636-1.588-7.553-10.633-8.564-11.835.818-1.058,7.794-8.179,8.756-9.189,1.78-1.78,2.646-2.839,4.282-3.608a5.589,5.589,0,0,1,2.213-.577c.337,0,.385-.1.385-.289s-.144-.289-.577-.289c-1.01,0-3.608.144-3.849.144-.962,0-2.213-.144-2.983-.144-.289,0-.481.1-.481.289,0,.144.144.241.337.337a.824.824,0,0,1,.529.866c0,.722-1.058,1.828-2.165,3.031-1.443,1.636-8.66,9.382-9.333,10.151h-.144v-2.5c0-6.543,0-7.746.1-9.045.1-1.491.385-2.165,1.491-2.406a5,5,0,0,1,1.01-.144c.144,0,.337-.1.337-.241,0-.241-.192-.337-.625-.337-1.2,0-3.512.144-3.849.144-.241,0-2.6-.144-4.378-.144-.433,0-.625.1-.625.337,0,.144.144.241.337.241a6.088,6.088,0,0,1,1.347.144c1.3.289,1.636.962,1.732,2.406.1,1.347.1,2.5.1,9.045v7.313Zm39.018-18.475c.481-1.4.674-1.636.914-1.636s.433.192.914,1.491c.625,1.588,7.217,18.908,9.767,25.306,1.491,3.753,2.742,4.426,3.608,4.667a5.883,5.883,0,0,0,1.684.241c.241,0,.433.048.433.241,0,.241-.385.337-.818.337-.625,0-3.7,0-6.591-.1-.818-.048-1.251-.048-1.251-.289,0-.144.144-.241.289-.289.241-.1.481-.481.241-1.155l-3.9-10.344c-.1-.144-.144-.241-.385-.241H94.409a.514.514,0,0,0-.433.337l-2.5,7.409a8.727,8.727,0,0,0-.577,2.79c0,.818.866,1.2,1.588,1.2h.433c.289,0,.433.1.433.241,0,.241-.241.337-.625.337-1.01,0-2.79-.144-3.272-.144s-2.79.144-4.763.144c-.529,0-.818-.1-.818-.337,0-.144.144-.241.385-.241a11,11,0,0,0,1.2-.1c1.924-.241,2.79-1.828,3.512-3.945Zm4.33,16.791c.192,0,.192-.144.144-.289l-3.993-11.354c-.192-.625-.433-.625-.625,0l-3.7,11.354c-.1.192,0,.289.144.289ZM153.1,286.5a13.114,13.114,0,0,0,5.629,1.155,10.858,10.858,0,0,0,6.351-1.78,8.729,8.729,0,0,0,3.56-6.976c0-3.368-1.155-5.966-6.11-9.863l-1.155-.914c-4.041-3.127-5.1-4.667-5.1-7.072,0-3.079,2.261-4.859,5.148-4.859,3.849,0,5,1.78,5.244,2.213a8.039,8.039,0,0,1,.529,2.117c.048.337.1.529.337.529.192,0,.289-.289.289-.962,0-2.839.144-4.234.144-4.426s-.1-.289-.433-.289a8.693,8.693,0,0,1-1.491-.192,16.8,16.8,0,0,0-3.9-.433c-5.34,0-8.708,3.079-8.708,7.553,0,2.839,1.01,5.437,5.437,9.093l1.876,1.54c3.608,2.983,4.811,4.667,4.811,7.553a5.6,5.6,0,0,1-6.014,5.581c-2.79,0-5.581-1.155-6.206-4.282a6.3,6.3,0,0,1-.144-1.54c0-.337-.048-.481-.289-.481-.192,0-.289.192-.337.674-.048.674-.192,2.357-.192,4.426.1,1.155.1,1.347.722,1.636m31.416-30.117c.481-1.4.674-1.636.914-1.636s.433.192.914,1.491c.625,1.588,7.217,18.908,9.767,25.306,1.491,3.753,2.742,4.426,3.608,4.667a5.883,5.883,0,0,0,1.684.241c.241,0,.433.048.433.241,0,.241-.385.337-.818.337-.625,0-3.7,0-6.591-.1-.818-.048-1.251-.048-1.251-.289,0-.144.144-.241.289-.289.241-.1.481-.481.241-1.155l-3.9-10.344c-.1-.144-.144-.241-.385-.241h-9.045a.514.514,0,0,0-.433.337l-2.5,7.409a8.727,8.727,0,0,0-.577,2.79c0,.818.866,1.2,1.588,1.2h.433c.289,0,.433.1.433.241,0,.241-.241.337-.625.337-1.01,0-2.79-.144-3.272-.144s-2.79.144-4.763.144c-.529,0-.818-.1-.818-.337,0-.144.144-.241.385-.241a11,11,0,0,0,1.2-.1c1.924-.241,2.79-1.828,3.512-3.945Zm4.378,16.791c.192,0,.192-.144.144-.289l-3.993-11.354c-.192-.625-.433-.625-.625,0l-3.7,11.354c-.1.192,0,.289.144.289ZM204.776,286.5a13.114,13.114,0,0,0,5.629,1.155,10.858,10.858,0,0,0,6.351-1.78,8.729,8.729,0,0,0,3.56-6.976c0-3.368-1.155-5.966-6.11-9.863l-1.155-.914c-4.041-3.127-5.1-4.667-5.1-7.072,0-3.079,2.261-4.859,5.148-4.859,3.849,0,5,1.78,5.244,2.213a8.039,8.039,0,0,1,.529,2.117c.048.337.1.529.337.529.192,0,.289-.289.289-.962,0-2.839.144-4.234.144-4.426s-.1-.289-.433-.289a8.693,8.693,0,0,1-1.491-.192,16.8,16.8,0,0,0-3.9-.433c-5.34,0-8.708,3.079-8.708,7.553,0,2.839,1.01,5.437,5.437,9.093l1.876,1.54c3.608,2.983,4.811,4.667,4.811,7.553a5.6,5.6,0,0,1-6.014,5.581c-2.79,0-5.581-1.155-6.206-4.282a6.3,6.3,0,0,1-.144-1.54c0-.337-.048-.481-.289-.481-.192,0-.289.192-.337.674-.048.674-.192,2.357-.192,4.426.1,1.155.144,1.347.722,1.636m-82.943-25.258c1.2,1.491,5.485,6.784,9.863,12.028,3.993,4.763,9.43,10.969,9.863,11.354,2.021,2.213,2.454,2.694,2.742,2.694.241,0,.337-.192.337-2.983l.1-24.585c0-2.5.144-3.464,1.4-3.753a2.618,2.618,0,0,1,.914-.144c.241,0,.433-.144.433-.289,0-.241-.241-.289-.674-.289-1.54,0-2.79.144-3.223.144s-2.213-.144-3.945-.144c-.433,0-.77.048-.77.289a.253.253,0,0,0,.289.289,10.643,10.643,0,0,1,1.828.192c1.155.337,1.443,1.251,1.491,3.993l.433,21.313c-1.2-1.4-5.34-6.495-9.045-10.969-5.821-6.928-11.45-13.663-12.028-14.385-.385-.433-1.01-1.347-1.3-1.347s-.433.481-.433,2.117l-.048,24.055c0,3.8-.192,5.052-1.155,5.34a5.461,5.461,0,0,1-1.54.241c-.192,0-.289.1-.289.241,0,.289.241.337.625.337,1.684,0,3.272-.144,3.608-.144s1.828.144,3.993.144c.433,0,.674-.1.674-.337,0-.144-.1-.241-.289-.241a8.214,8.214,0,0,1-1.876-.241c-1.01-.337-1.4-1.443-1.491-4.859ZM.352,243.682c0,3.031.77,4.474,1.828,5.485a6.406,6.406,0,0,0,4.282,1.491,6.039,6.039,0,0,0,4.282-1.54c1.684-1.491,1.924-3.993,1.924-6.206V240.7c0-3.223,0-3.849.048-4.474.048-.722.192-1.058.77-1.2a2.362,2.362,0,0,1,.529-.048.128.128,0,0,0,.144-.144c0-.144-.1-.144-.337-.144-.625,0-1.588.048-1.732.048s-1.251-.048-2.213-.048c-.241,0-.337.048-.337.144a.154.154,0,0,0,.144.144,3.642,3.642,0,0,1,.722.048c.674.144.866.481.914,1.2.048.674.048,1.251.048,4.474v2.6c0,2.165-.241,3.9-1.2,5.1A4.371,4.371,0,0,1,6.9,249.888a4,4,0,0,1-3.127-1.155c-.914-.866-1.54-2.165-1.54-5.148v-2.935c0-3.223,0-3.849.048-4.474.048-.722.192-1.107.77-1.2a2.36,2.36,0,0,1,.529-.048.128.128,0,0,0,.144-.144c0-.144-.1-.144-.337-.144-.625,0-1.876.048-2.069.048s-1.443-.048-2.406-.048c-.241,0-.337.048-.337.144a.154.154,0,0,0,.144.144,3.64,3.64,0,0,1,.722.048c.674.144.866.481.914,1.2.048.674.048,1.251.048,4.474v3.031Zm23.238-6.11c.674.77,3.031,3.368,5.437,5.966,2.213,2.357,5.2,5.437,5.437,5.629,1.107,1.107,1.347,1.347,1.54,1.347.144,0,.192-.1.192-1.491l.048-12.172c0-1.251.1-1.684.77-1.876a2.209,2.209,0,0,1,.481-.048c.144,0,.241-.048.241-.144,0-.144-.144-.144-.385-.144-.866,0-1.54.048-1.78.048s-1.2-.048-2.165-.048c-.241,0-.433,0-.433.144,0,.1,0,.144.144.144a4.56,4.56,0,0,1,1.01.1c.625.144.77.625.818,1.973l.241,10.584c-.674-.674-2.935-3.223-5-5.437-3.223-3.416-6.3-6.784-6.639-7.12-.192-.192-.577-.674-.722-.674s-.241.241-.241,1.058v11.932c0,1.876-.1,2.5-.625,2.646a3.234,3.234,0,0,1-.866.144.128.128,0,0,0-.144.144c0,.144.144.144.337.144.962,0,1.828-.048,2.021-.048s1.01.048,2.213.048c.241,0,.385-.048.385-.144a.128.128,0,0,0-.144-.144,3.351,3.351,0,0,1-1.058-.144c-.577-.144-.77-.722-.818-2.406Zm25.643,3.079c0-3.223,0-3.849.048-4.474.048-.722.192-1.058.77-1.2a2.36,2.36,0,0,1,.529-.048.128.128,0,0,0,.144-.144c0-.144-.1-.144-.337-.144-.625,0-1.924.048-2.021.048s-1.4-.048-2.117-.048c-.241,0-.337.048-.337.144a.154.154,0,0,0,.144.144,1.529,1.529,0,0,1,.625.1c.433.1.674.433.722,1.155.048.674.048,1.251.048,4.474v3.656c0,2.021,0,3.656-.1,4.522-.1.625-.192,1.058-.625,1.155a2.815,2.815,0,0,1-.625.1c-.144,0-.144.048-.144.144,0,.144.1.144.337.144.625,0,1.924-.048,2.021-.048s1.4.048,2.55.048c.241,0,.337-.048.337-.144a.154.154,0,0,0-.144-.144,7.409,7.409,0,0,1-.914-.1c-.625-.1-.77-.529-.818-1.155-.1-.866-.1-2.5-.1-4.522ZM61.6,237.139a9.836,9.836,0,0,1-.577-1.732.474.474,0,0,1,.289-.433,2.119,2.119,0,0,1,.77-.1c.144,0,.192-.048.192-.144s-.192-.144-.577-.144c-.77,0-1.732.048-1.924.048-.241,0-1.443-.048-2.454-.048-.337,0-.529,0-.529.144a.128.128,0,0,0,.144.144,2.543,2.543,0,0,1,.77.1c.722.192,1.058.433,1.491,1.588l5.1,12.749c.385,1.01.481,1.3.77,1.3.192,0,.289-.337.866-1.588.481-1.01,1.4-3.272,2.694-6.3,1.058-2.55,2.117-5.052,2.309-5.629.577-1.4.866-1.78,1.155-1.973a1.965,1.965,0,0,1,1.01-.241c.144,0,.241-.048.241-.144s-.144-.144-.337-.144c-.625,0-1.491.048-1.636.048-.241,0-1.2-.048-2.021-.048-.337,0-.481.048-.481.144s.1.144.241.144a2.119,2.119,0,0,1,.77.1.529.529,0,0,1,.289.481,2.975,2.975,0,0,1-.192.77c-.481,1.491-3.272,8.756-4.474,11.547Zm19.389,7.169c0,1.973,0,3.656-.1,4.522-.1.625-.192,1.058-.625,1.155a2.815,2.815,0,0,1-.625.1c-.144,0-.144.048-.144.144,0,.144.1.144.337.144.289,0,.77-.048,1.2-.048h.818c.289,0,.818,0,1.636.048.818,0,1.973.048,3.512.048.818,0,.962,0,1.107-.529.1-.433.289-1.876.289-2.021s0-.289-.144-.289c-.1,0-.144.1-.192.289-.144.866-.385,1.251-.962,1.491a5.556,5.556,0,0,1-1.973.241c-2.021,0-2.357-.289-2.406-1.684v-5.388a.128.128,0,0,1,.144-.144c.337,0,2.406.048,2.983.1.818.1,1.01.433,1.107.722a1.879,1.879,0,0,1,.1.674c0,.1.048.192.144.192.144,0,.144-.241.144-.385s.048-.914.1-1.347c.048-.674.144-1.058.144-1.155,0-.144-.048-.144-.1-.144-.1,0-.144.1-.289.289a1.518,1.518,0,0,1-.962.289c-.481.048-3.031.048-3.32.048-.1,0-.144-.048-.144-.192v-5.725c0-.144.048-.192.144-.192.241,0,2.5,0,2.839.048,1.107.144,1.347.385,1.491.722a2.645,2.645,0,0,1,.144.77c0,.144.048.289.144.289s.144-.144.144-.241a13.59,13.59,0,0,0,.1-1.4c.048-.577.144-.818.144-.962,0-.1,0-.192-.1-.192s-.192.1-.289.1a3.432,3.432,0,0,1-.914.1H81.852l-.866-.048H79.495c-.241,0-.337.048-.337.144a.154.154,0,0,0,.144.144,3.643,3.643,0,0,1,.722.048c.674.144.866.481.914,1.2.048.674.048,1.251.048,4.474v3.56Zm17.176-3.656c0-3.223,0-3.849-.048-4.474-.048-.722-.192-1.058-.914-1.2a3.407,3.407,0,0,0-.722-.048.128.128,0,0,1-.144-.144c0-.144.1-.144.337-.144.914,0,2.261.048,2.357.048.241,0,1.828-.048,2.454-.048a6.569,6.569,0,0,1,3.8.914,3.643,3.643,0,0,1,1.443,2.839c0,1.54-.625,3.079-2.5,4.811,1.684,2.165,3.127,4.041,4.33,5.34a4.21,4.21,0,0,0,2.55,1.491,6.28,6.28,0,0,0,.818.048c.1,0,.192.048.192.144,0,.144-.144.144-.481.144h-1.54a4.221,4.221,0,0,1-2.213-.385c-.914-.481-1.636-1.491-2.79-3.079-.866-1.155-1.828-2.55-2.261-3.079a.343.343,0,0,0-.289-.144l-2.55-.048a.128.128,0,0,0-.144.144v.481c0,2.021,0,3.656.1,4.522.048.625.192,1.058.818,1.155a8.483,8.483,0,0,0,.914.1c.144,0,.144.048.144.144s-.1.144-.337.144c-1.155,0-2.454-.048-2.55-.048,0,0-1.347.048-1.973.048-.241,0-.337-.048-.337-.144a.154.154,0,0,1,.144-.144,2.816,2.816,0,0,0,.625-.1c.433-.1.529-.529.625-1.155.1-.866.1-2.5.1-4.522v-3.608Zm1.684,1.828a.265.265,0,0,0,.144.241,5.421,5.421,0,0,0,2.165.337,2.627,2.627,0,0,0,1.54-.385,3.822,3.822,0,0,0,1.251-3.223c0-2.6-1.4-4.186-3.608-4.186a4.468,4.468,0,0,0-1.4.144.265.265,0,0,0-.144.241v6.832Zm17.176,7.6a6.186,6.186,0,0,0,2.79.577,5.386,5.386,0,0,0,3.127-.866,4.3,4.3,0,0,0,1.78-3.464c0-1.684-.577-2.935-3.031-4.907l-.577-.433c-2.021-1.54-2.55-2.309-2.55-3.512a2.337,2.337,0,0,1,2.55-2.406c1.924,0,2.454.866,2.6,1.107a3.822,3.822,0,0,1,.289,1.058c0,.144.048.289.144.289s.144-.144.144-.481c0-1.4.1-2.117.1-2.213s-.048-.144-.192-.144a2.607,2.607,0,0,1-.722-.1,7.187,7.187,0,0,0-1.924-.192c-2.646,0-4.33,1.54-4.33,3.753,0,1.4.481,2.694,2.694,4.522l.962.77c1.78,1.491,2.406,2.309,2.406,3.753a2.779,2.779,0,0,1-2.983,2.79c-1.4,0-2.79-.577-3.079-2.117a4.683,4.683,0,0,1-.048-.77c0-.144,0-.241-.144-.241-.1,0-.144.1-.144.337,0,.337-.1,1.155-.1,2.213-.1.433-.048.529.241.674m19.389-9.43c0-3.223,0-3.849.048-4.474.048-.722.192-1.058.77-1.2a2.36,2.36,0,0,1,.529-.048.128.128,0,0,0,.144-.144c0-.144-.1-.144-.337-.144-.625,0-1.924.048-2.021.048s-1.4-.048-2.117-.048c-.241,0-.337.048-.337.144a.154.154,0,0,0,.144.144,1.529,1.529,0,0,1,.625.1c.481.1.674.433.722,1.155.048.674.048,1.251.048,4.474v3.656c0,2.021,0,3.656-.1,4.522-.1.625-.192,1.058-.625,1.155a2.815,2.815,0,0,1-.625.1c-.144,0-.144.048-.144.144,0,.144.1.144.337.144.625,0,1.924-.048,2.021-.048s1.4.048,2.55.048c.241,0,.337-.048.337-.144a.154.154,0,0,0-.144-.144,7.41,7.41,0,0,1-.914-.1c-.625-.1-.77-.529-.818-1.155-.1-.866-.1-2.5-.1-4.522Zm16.31-5.148,2.6.048c2.021.048,2.5.529,2.55,1.155v.241c0,.289.048.337.144.337s.144-.1.144-.289c0-.241.048-1.684.048-2.309,0-.144,0-.241-.1-.241s-.289.048-.577.1a10.4,10.4,0,0,1-1.491.1h-7.794c-.241,0-1.058-.048-1.636-.1a4.145,4.145,0,0,1-.914-.241c-.1,0-.144.289-.192.385-.048.144-.433,1.973-.433,2.165,0,.144.048.192.1.192.1,0,.144-.048.192-.192a4.4,4.4,0,0,1,.337-.625c.337-.481.818-.625,2.117-.674l3.079-.048v8.8c0,2.021,0,3.656-.1,4.522-.1.625-.192,1.058-.625,1.155a2.815,2.815,0,0,1-.625.1c-.144,0-.144.048-.144.144,0,.144.1.144.337.144.625,0,1.924-.048,2.021-.048s1.4.048,2.55.048c.241,0,.337-.048.337-.144a.154.154,0,0,0-.144-.144,7.41,7.41,0,0,1-.914-.1c-.625-.1-.77-.529-.818-1.155-.1-.866-.1-2.5-.1-4.522v-8.8Zm16.743,11.258c0,.337,0,1.2-.048,2.069-.048.625-.241,1.058-.625,1.155a2.815,2.815,0,0,1-.625.1c-.144,0-.144.048-.144.144,0,.144.1.144.337.144.625,0,1.924-.048,2.021-.048s1.4.048,2.55.048c.241,0,.337-.048.337-.144a.154.154,0,0,0-.144-.144,7.409,7.409,0,0,1-.914-.1c-.625-.1-.818-.529-.866-1.155-.048-.866-.048-1.732-.048-2.069v-1.78a5.255,5.255,0,0,1,.289-2.069,63.894,63.894,0,0,1,3.993-6.639,3.217,3.217,0,0,1,1.107-1.058,2.151,2.151,0,0,1,.962-.289c.144,0,.289-.048.289-.144s-.144-.144-.289-.144c-.385,0-1.876.048-2.021.048s-.818-.048-1.4-.048c-.192,0-.337.048-.337.144s.144.144.289.192c.241.048.337.289.337.577a2.209,2.209,0,0,1-.337,1.058c-.433.674-3.079,5.244-3.464,6.11-.385-.625-3.512-5.966-3.849-6.591a2.1,2.1,0,0,1-.289-.818.451.451,0,0,1,.289-.385c.192-.1.289-.1.289-.192s-.048-.144-.289-.144c-.818,0-1.588.048-1.732.048-.1,0-1.684-.048-2.069-.048q-.289,0-.289.144c0,.1.1.144.192.144a2.388,2.388,0,0,1,.914.337,4.984,4.984,0,0,1,1.4,1.54c.722,1.058,3.512,5.677,3.656,6.014a4.241,4.241,0,0,1,.481,2.165v1.828Zm27.183-12.413c4.667,0,8.179,2.935,8.179,7.794a8.163,8.163,0,0,1-8.323,8.516c-5.677,0-8.083-4.426-8.083-8.179a8.123,8.123,0,0,1,8.227-8.131m.481,15.492c1.876,0,5.725-1.107,5.725-7.12,0-5-3.031-7.7-6.3-7.7-3.464,0-6.062,2.309-6.062,6.832-.048,4.859,2.887,7.986,6.639,7.986m17.224-5.533c0,1.973,0,3.656-.1,4.522-.1.625-.192,1.058-.625,1.155a2.815,2.815,0,0,1-.625.1c-.144,0-.144.048-.144.144,0,.144.1.144.337.144.625,0,1.924-.048,2.021-.048s1.4.048,2.55.048c.241,0,.337-.048.337-.144a.154.154,0,0,0-.144-.144,7.409,7.409,0,0,1-.914-.1c-.625-.1-.77-.529-.818-1.155-.1-.866-.1-2.5-.1-4.522v-1.78c0-.144.048-.192.144-.192.337,0,2.6,0,3.127.048a1.45,1.45,0,0,1,1.107.77,4.331,4.331,0,0,1,.144.77c0,.1.048.192.144.192.144,0,.144-.192.144-.385,0-.144.048-.962.1-1.4.048-.674.144-1.058.144-1.155s0-.144-.1-.144-.144.1-.241.192c-.192.289-.481.337-.962.385h-3.56c-.144,0-.144-.048-.144-.192V235.7c0-.144.048-.241.192-.241l3.223.048a1.426,1.426,0,0,1,1.4.674,1.965,1.965,0,0,1,.192.77c0,.144.048.241.144.241s.144-.144.144-.241a13.592,13.592,0,0,0,.1-1.4c.048-.577.144-.818.144-.962,0-.1-.048-.192-.144-.192s-.144.1-.289.144c-.192.048-.529.048-.914.1-.481,0-4.715.048-5.1,0l-.866-.048h-1.491c-.241,0-.337.048-.337.144a.154.154,0,0,0,.144.144,3.642,3.642,0,0,1,.722.048c.674.144.866.481.914,1.2.048.674.048,1.251.048,4.474v3.7Zm6.639,41.856a1.55,1.55,0,0,1,1.54-1.54,1.54,1.54,0,1,1-1.54,1.54m2.79,0a1.3,1.3,0,0,0-1.3-1.347,1.348,1.348,0,1,0,1.3,1.347m-.529.866h-.241l-.481-.77h-.385v.77h-.192V285.3h.77c.433,0,.625.192.625.433a.468.468,0,0,1-.529.481Zm-.77-.962c.241,0,.577.048.577-.289,0-.289-.241-.289-.433-.289h-.481v.625h.337Z" transform="translate(64.597 -222.417)"/>
  </g>
</svg>
