<svg xmlns="http://www.w3.org/2000/svg" width="296.719" height="71.912" viewBox="0 0 296.719 71.912">
  <defs>
    <style>
      .cls-1 {
        fill: #fff;
      }

      .cls-10, .cls-2, .cls-4, .cls-5, .cls-6, .cls-7, .cls-8, .cls-9 {
        fill: none;
      }

      .cls-10, .cls-2, .cls-4, .cls-8 {
        stroke: #fff;
      }

      .cls-10, .cls-2 {
        stroke-width: 1.674px;
      }

      .cls-3 {
        fill: #a41f35;
      }

      .cls-4, .cls-5 {
        stroke-width: 1.807px;
      }

      .cls-5, .cls-6, .cls-9 {
        stroke: #000;
      }

      .cls-6, .cls-7 {
        stroke-width: 0.942px;
      }

      .cls-7 {
        stroke: #231815;
      }

      .cls-8 {
        stroke-width: 0.366px;
      }

      .cls-9 {
        stroke-width: 0.904px;
      }

      .cls-10 {
        stroke-linecap: round;
      }
    </style>
  </defs>
  <g id="White-UARK-Logo" transform="translate(0.904 0.904)">
    <path id="Path_94" data-name="Path 94" class="cls-1" d="M102.3,375.031s2.81-.394,5.078-.937c2.021-.493,3.993-1.183,3.993-1.183l-1.43-2.81,1.282-3.5s-2.416.69-4.536,1.134a33.254,33.254,0,0,1-4.289.641Z" transform="translate(-65.619 -311.874)"/>
    <path id="Path_95" data-name="Path 95" class="cls-2" d="M102.3,375.031s2.81-.394,5.078-.937c2.021-.493,3.993-1.183,3.993-1.183l-1.43-2.81,1.282-3.5s-2.416.69-4.536,1.134a33.254,33.254,0,0,1-4.289.641Z" transform="translate(-65.619 -311.874)"/>
    <path id="Path_96" data-name="Path 96" class="cls-1" d="M41.872,375.031s-2.81-.394-5.078-.937c-2.021-.493-3.993-1.183-3.993-1.183l1.43-2.81-1.282-3.5s2.416.69,4.536,1.134a33.254,33.254,0,0,0,4.289.641Z" transform="translate(-30.384 -311.874)"/>
    <path id="Path_97" data-name="Path 97" class="cls-2" d="M41.872,375.031s-2.81-.394-5.078-.937c-2.021-.493-3.993-1.183-3.993-1.183l1.43-2.81-1.282-3.5s2.416.69,4.536,1.134a33.254,33.254,0,0,0,4.289.641Z" transform="translate(-30.384 -311.874)"/>
    <path id="Path_98" data-name="Path 98" class="cls-3" d="M51.96,262.9s5.571,6.311,11.981,8.184a28.361,28.361,0,0,0,8.184,1.134,24.354,24.354,0,0,0,3.747-.246s.2,11.635.2,20.066c0,14.3-7.494,23.813-14.15,30.173-5.916,5.67-9.22,6.952-9.91,7.149,0,0-3.993-1.479-9.959-7.149-6.656-6.36-14.15-15.629-14.15-30.173,0-8.234.2-20.066.2-20.066a25.165,25.165,0,0,0,3.747.246,30.19,30.19,0,0,0,8.184-1.134c6.36-1.923,11.931-8.184,11.931-8.184" transform="translate(-27.9 -259.301)"/>
    <path id="Path_99" data-name="Path 99" class="cls-4" d="M51.96,262.9s5.571,6.311,11.981,8.184a28.361,28.361,0,0,0,8.184,1.134,24.354,24.354,0,0,0,3.747-.246s.2,11.635.2,20.066c0,14.3-7.494,23.813-14.15,30.173-5.916,5.67-9.22,6.952-9.91,7.149,0,0-3.993-1.479-9.959-7.149-6.656-6.36-14.15-15.629-14.15-30.173,0-8.234.2-20.066.2-20.066a25.165,25.165,0,0,0,3.747.246,30.19,30.19,0,0,0,8.184-1.134C46.388,269.161,51.96,262.9,51.96,262.9Z" transform="translate(-27.9 -259.301)"/>
    <rect id="Rectangle_55" data-name="Rectangle 55" width="29.779" height="27.905" transform="translate(9.17 33.131)"/>
    <path id="Path_100" data-name="Path 100" class="cls-1" d="M46.8,286.848s3.4-5.473,3.747-10.748c.148-2.071,0-4.388.247-6.508.3-2.81,2.662-7.593,2.662-7.593H69.627s2.367,4.832,2.662,7.593c.247,2.071.1,4.388.247,6.508.394,5.226,3.747,10.748,3.747,10.748Z" transform="translate(-37.482 -258.845)"/>
    <path id="Path_101" data-name="Path 101" class="cls-5" d="M46.8,286.848s3.4-5.473,3.747-10.748c.148-2.071,0-4.388.247-6.508.3-2.81,2.662-7.593,2.662-7.593H69.627s2.367,4.832,2.662,7.593c.247,2.071.1,4.388.247,6.508.394,5.226,3.747,10.748,3.747,10.748Z" transform="translate(-37.482 -258.845)"/>
    <rect id="Rectangle_56" data-name="Rectangle 56" width="21.94" height="29.039" transform="translate(13.065 34.956)"/>
    <path id="Path_102" data-name="Path 102" class="cls-1" d="M76.375,355.575H53.4V325.5H76.375ZM75.34,326.486H54.386v28H75.34Z" transform="translate(-40.828 -291.038)"/>
    <path id="Path_103" data-name="Path 103" d="M76.464,261.13H59.8V259.7H76.464v1.43Z" transform="translate(-44.072 -257.679)"/>
    <path id="Path_104" data-name="Path 104" d="M76.066,259.693v.937H59.894v-.937Zm.493-.493H59.5v1.824H76.559V259.2Z" transform="translate(-43.921 -257.425)"/>
    <path id="Path_105" data-name="Path 105" d="M75.774,257.079H56.941L56.3,255.6H76.465Z" transform="translate(-42.298 -255.6)"/>
    <path id="Path_106" data-name="Path 106" class="cls-6" d="M75.774,257.079H56.941L56.3,255.6H76.465Z" transform="translate(-42.298 -255.6)"/>
    <path id="Path_107" data-name="Path 107" d="M59.489,259.389,58.7,258.6H76.5l-.838.789Z" transform="translate(-43.515 -257.121)"/>
    <path id="Path_108" data-name="Path 108" class="cls-7" d="M59.489,259.389,58.7,258.6H76.5l-.838.789Z" transform="translate(-43.515 -257.121)"/>
    <path id="Path_109" data-name="Path 109" d="M41.019,316.86a13.224,13.224,0,0,0-1.676-1.972,8.509,8.509,0,0,0-2.958-1.874L35.3,310.5H76.073l-1.085,2.514a10.431,10.431,0,0,0-2.86,1.874,12.352,12.352,0,0,0-1.578,1.923Z" transform="translate(-31.652 -283.433)"/>
    <path id="Path_110" data-name="Path 110" d="M76.117,310.2l-1.183,2.761a10.023,10.023,0,0,0-2.86,1.874,8.755,8.755,0,0,0-1.578,1.972l-29.779.049a13.1,13.1,0,0,0-1.676-2.021,9.377,9.377,0,0,0-2.958-1.874L34.9,310.2H76.117m-.444.3H35.393l.937,2.219a8.685,8.685,0,0,1,2.909,1.874,14.324,14.324,0,0,1,1.627,1.923l29.434-.049a13.091,13.091,0,0,1,1.528-1.923,9.541,9.541,0,0,1,2.86-1.874Z" transform="translate(-31.449 -283.281)"/>
    <path id="Path_111" data-name="Path 111" class="cls-1" d="M76.369,344.976H53V343.3H76.369v1.676Z" transform="translate(-40.625 -300.062)"/>
    <path id="Path_112" data-name="Path 112" d="M75.969,344.576H52.994v-1.233H75.969Zm.444-1.676H52.6v2.021H76.364v-1.627l.049-.394Z" transform="translate(-40.422 -299.859)"/>
    <path id="Path_113" data-name="Path 113" d="M73.8,277.635c-.148-1.775,0-3.7-.2-5.473a21.465,21.465,0,0,0-1.824-5.275,1.034,1.034,0,0,1-.542.2.884.884,0,0,1-.887-.887V266H58.666v.2a.884.884,0,0,1-.887.887.742.742,0,0,1-.542-.2,18.986,18.986,0,0,0-1.775,5.275c-.2,1.775-.1,3.7-.2,5.473a27.991,27.991,0,0,1-2.564,9.022H76.365a27.515,27.515,0,0,1-2.564-9.022" transform="translate(-40.473 -260.872)"/>
    <path id="Path_114" data-name="Path 114" class="cls-1" d="M75.283,281.725a5.325,5.325,0,0,0-10.649,0H63.5l.74,1.824h.74L67,288.726H65.867v1.331H74.1v-1.331H72.917L74.84,283.6h.838l.74-1.824Z" transform="translate(-45.948 -266.145)"/>
    <path id="Path_115" data-name="Path 115" class="cls-8" d="M75.283,281.725a5.325,5.325,0,0,0-10.649,0H63.5l.74,1.824h.74L67,288.726H65.867v1.331H74.1v-1.331H72.917L74.84,283.6h.838l.74-1.824Z" transform="translate(-45.948 -266.145)"/>
    <path id="Path_116" data-name="Path 116" d="M76.6,283.447a3.648,3.648,0,1,1-3.648-3.648,3.64,3.64,0,0,1,3.648,3.648" transform="translate(-48.889 -267.868)"/>
    <path id="Path_117" data-name="Path 117" class="cls-1" d="M56.3,255.6l.641,1.479h.542l.789.789H74.443l.789-.789h.542l.641-1.479Z" transform="translate(-42.298 -255.6)"/>
    <path id="Path_118" data-name="Path 118" class="cls-5" d="M56.3,255.6l.641,1.479h.542l.789.789H74.443l.789-.789h.542l.641-1.479Z" transform="translate(-42.298 -255.6)"/>
    <path id="Path_119" data-name="Path 119" class="cls-1" d="M75.348,312.974H37.089L36.3,311.1H76.136Z" transform="translate(-32.159 -283.737)"/>
    <path id="Path_120" data-name="Path 120" d="M76.117,310.2l-1.183,2.761H36.083L34.9,310.2Zm-1.331.887H36.28l.444.986H74.391Z" transform="translate(-31.449 -283.281)"/>
    <path id="Path_121" data-name="Path 121" class="cls-1" d="M76.51,339.092H56v-.247A3.7,3.7,0,0,1,59.55,335a3.582,3.582,0,0,1,3.353,2.514,3.492,3.492,0,0,1,6.705,0A3.582,3.582,0,0,1,72.96,335a3.7,3.7,0,0,1,3.55,3.846v.247Z" transform="translate(-42.146 -295.854)"/>
    <path id="Path_122" data-name="Path 122" d="M65.9,334.993a3.524,3.524,0,0,1,3.353,3.648,3.365,3.365,0,1,1,6.705,0H55.893a3.365,3.365,0,1,1,6.705,0,3.453,3.453,0,0,1,3.3-3.648m0-.493a3.814,3.814,0,0,0-3.353,2.169A3.814,3.814,0,0,0,59.2,334.5a3.965,3.965,0,0,0-3.8,4.092v.444H76.354v-.444a3.932,3.932,0,0,0-3.8-4.092,3.814,3.814,0,0,0-3.353,2.169,3.632,3.632,0,0,0-3.3-2.169" transform="translate(-41.842 -295.6)"/>
    <path id="Path_123" data-name="Path 123" class="cls-1" d="M58.6,352.3V340.714s0-2.514,2.219-2.514,2.219,2.514,2.219,2.514V352.3Z" transform="translate(-43.464 -297.476)"/>
    <path id="Path_124" data-name="Path 124" class="cls-9" d="M58.6,352.3V340.714s0-2.514,2.219-2.514,2.219,2.514,2.219,2.514V352.3Z" transform="translate(-43.464 -297.476)"/>
    <path id="Path_125" data-name="Path 125" class="cls-1" d="M62.883,335.565H61.9l-.2-2.465h1.43Z" transform="translate(-45.036 -294.891)"/>
    <path id="Path_126" data-name="Path 126" class="cls-9" d="M62.883,335.565H61.9l-.2-2.465h1.43Z" transform="translate(-45.036 -294.891)"/>
    <path id="Path_127" data-name="Path 127" class="cls-1" d="M72.3,352.3V340.714s0-2.514,2.219-2.514,2.219,2.514,2.219,2.514V352.3Z" transform="translate(-50.41 -297.476)"/>
    <path id="Path_128" data-name="Path 128" class="cls-9" d="M72.3,352.3V340.714s0-2.514,2.219-2.514,2.219,2.514,2.219,2.514V352.3Z" transform="translate(-50.41 -297.476)"/>
    <path id="Path_129" data-name="Path 129" class="cls-1" d="M76.483,335.565h-.937L75.3,333.1h1.43Z" transform="translate(-51.931 -294.891)"/>
    <path id="Path_130" data-name="Path 130" class="cls-9" d="M76.483,335.565h-.937L75.3,333.1h1.43Z" transform="translate(-51.931 -294.891)"/>
    <path id="Path_131" data-name="Path 131" class="cls-1" d="M85.9,352.3V340.714s0-2.514,2.219-2.514,2.219,2.514,2.219,2.514V352.3Z" transform="translate(-57.305 -297.476)"/>
    <path id="Path_132" data-name="Path 132" class="cls-9" d="M85.9,352.3V340.714s0-2.514,2.219-2.514,2.219,2.514,2.219,2.514V352.3Z" transform="translate(-57.305 -297.476)"/>
    <path id="Path_133" data-name="Path 133" class="cls-1" d="M90.133,335.565h-.986L88.9,333.1h1.43Z" transform="translate(-58.826 -294.891)"/>
    <path id="Path_134" data-name="Path 134" class="cls-9" d="M90.133,335.565h-.986L88.9,333.1h1.43Z" transform="translate(-58.826 -294.891)"/>
    <path id="Path_135" data-name="Path 135" class="cls-1" d="M45.9,373.6v6.656a78.416,78.416,0,0,0,15.136,1.331,78.416,78.416,0,0,0,15.136-1.331V373.6a84.325,84.325,0,0,1-15.234,1.233A80.6,80.6,0,0,1,45.9,373.6" transform="translate(-37.026 -315.423)"/>
    <path id="Path_136" data-name="Path 136" class="cls-10" d="M45.9,373.6v6.656a78.416,78.416,0,0,0,15.136,1.331,78.416,78.416,0,0,0,15.136-1.331V373.6a84.325,84.325,0,0,1-15.234,1.233A80.6,80.6,0,0,1,45.9,373.6Z" transform="translate(-37.026 -315.423)"/>
    <path id="Path_137" data-name="Path 137" d="M65.868,382.741a2.167,2.167,0,0,0-.444-.049c-.148,0-.394-.049-.542-.049h-.049c-.148,0-.542-.049-.74-.049H63.7a.106.106,0,0,1-.1-.1v-.148l.049-.049h.2c.444,0,.542-.049.592-.1s.049-.2.1-.394l.148-1.824a3.23,3.23,0,0,0,0-.69c0-.049-.049-.049-.148-.049h-.444c-.1-.049-.1-.148-.1-.247v-.049h.049a2.358,2.358,0,0,0,.937-.247l.049-.049a.181.181,0,0,1,.148-.049h.2l-.247,3.2a.973.973,0,0,0,.049.444c.049.1.444.148.592.2h.148v.2l-.049.1Zm2.367.2a1.171,1.171,0,0,0,1.233-1.134c0-.542-.3-.838-.789-1.183.2-.1.69-.394.69-.887a.967.967,0,0,0-1.085-.887.994.994,0,0,0-1.134.937,1.286,1.286,0,0,0,.641,1.035,1.256,1.256,0,0,0-.838,1.085c0,.592.444.986,1.282,1.035Zm-.148-1.972c.444.3.789.542.74.986a.635.635,0,0,1-.641.69h0c-.3,0-.641-.3-.641-.838a1.036,1.036,0,0,1,.542-.838m.148-1.923v.049a.569.569,0,0,1,.542.641.8.8,0,0,1-.345.69h0c-.3-.2-.641-.444-.641-.789a.62.62,0,0,1,.444-.592Zm3.2,3.895c.2,0,.345-.049.345-.2a8.069,8.069,0,0,1,1.233-3.55V378.8l-2.367.049-.148.986.049.049H70.6c.148,0,.247,0,.247-.1,0-.049.049-.1.049-.148,0-.1.049-.148.148-.2.1-.1.394-.1.69-.1h.838c-.247.394-.592,1.134-.789,1.528a5.415,5.415,0,0,0-.641,1.824.181.181,0,0,0,.049.148c0,.1.049.1.247.1Zm3.007-.2h.148c.1,0,.247-.049.3-.049.148,0,.444-.049.641-.049h.148c.148,0,.394-.049.592-.049h.444l.049-.049V382.4l-.049-.049h-.148c-.394,0-.542-.049-.592-.1a.71.71,0,0,1-.1-.444l-.247-3.2h-.148c-.049,0-.1.049-.148.1l-.049.049a1.858,1.858,0,0,1-.887.394h-.049v.049c0,.1,0,.2.1.2a.373.373,0,0,0,.2-.049c.1,0,.148-.049.247-.049h.049c.049,0,.1,0,.1.049.1.1.1.542.148.69l.148,1.824c0,.2.049.345,0,.394-.049.1-.493.148-.641.2h-.1l-.049.049v.246Z" transform="translate(-45.999 -317.958)"/>
    <path id="Path_138" data-name="Path 138" d="M65.276,378.548h.1l-.247,3.155c0,.246,0,.394.049.444.1.148.641.2.69.247h0v.1h0a1.585,1.585,0,0,0-.394-.049,3.032,3.032,0,0,0-.641-.049c-.148,0-.542-.049-.74-.049H63.7v-.1l.049-.049h.2c.2,0,.542,0,.641-.1a.71.71,0,0,0,.1-.444l.148-1.824a3.707,3.707,0,0,0,0-.74.256.256,0,0,0-.2-.1h-.444c-.049-.049-.049-.1-.049-.2a2.623,2.623,0,0,0,.986-.247c.049.049.1,0,.148,0m0-.1c-.049,0-.1.049-.2.049H65.03a2.357,2.357,0,0,1-.937.247h-.1v.1a.625.625,0,0,0,.049.3h.542c.049,0,.1,0,.1.049a1.3,1.3,0,0,1,0,.641l-.148,1.824a1.2,1.2,0,0,1-.049.345,1.565,1.565,0,0,1-.542.049h-.2q-.074,0-.148.148v.1c0,.1.049.148.1.148h.394c.2,0,.641.049.74.049h.049c.148,0,.394.049.542.049a1.585,1.585,0,0,1,.394.049h0a.157.157,0,0,0,.148-.148v-.2l-.1-.049h-.1c-.444-.049-.542-.148-.542-.148-.049-.049-.049-.2-.049-.394l.247-3.155v-.1h-.1c.049.049,0,.049-.049.049Zm3.007.3h0c.592,0,1.035.3,1.035.838,0,.493-.493.789-.74.887.542.345.887.641.838,1.183a1.117,1.117,0,0,1-1.183,1.085h-.049c-.69,0-1.183-.345-1.183-.986a1.312,1.312,0,0,1,.937-1.085c-.345-.247-.74-.493-.74-1.035a1,1,0,0,1,1.085-.887m.1,1.676a1,1,0,0,0,.444-.789.619.619,0,0,0-.592-.69h0a.588.588,0,0,0-.542.592c0,.394.394.641.69.887m-.148,2.169c.394,0,.641-.3.69-.74,0-.493-.345-.74-.789-1.035a1.061,1.061,0,0,0-.592.887.769.769,0,0,0,.69.887h0m.049-3.944h0a1.08,1.08,0,0,0-1.183,1.035,1.158,1.158,0,0,0,.592.986,1.283,1.283,0,0,0-.789,1.085c0,.69.493,1.085,1.282,1.134h.049a1.224,1.224,0,0,0,1.282-1.183,1.438,1.438,0,0,0-.74-1.183,1.316,1.316,0,0,0,.641-.937c0-.493-.444-.887-1.134-.937Zm.1,1.627c-.3-.2-.592-.444-.592-.74,0-.148.148-.493.444-.493.444,0,.493.444.493.592a.718.718,0,0,1-.345.641m-.148,2.317v-.1a.733.733,0,0,1-.592-.789.836.836,0,0,1,.444-.789c.444.3.69.493.69.887a.576.576,0,0,1-.542.641Zm4.684-3.8v.3a7.674,7.674,0,0,0-1.233,3.5c0,.1-.049.148-.3.148H71.34c-.2,0-.247-.049-.2-.148a5.414,5.414,0,0,1,.641-1.824,15.969,15.969,0,0,1,.838-1.578h-.937a1.576,1.576,0,0,0-.74.1.626.626,0,0,0-.2.345c0,.049-.1.049-.247.049l.148-.937,2.268.049m.148-.1h-.1l-2.268.049h-.1v.1l-.148.937v.148h.2c.148,0,.247,0,.3-.148,0-.049.049-.1.049-.148,0-.1.049-.1.148-.2a2.224,2.224,0,0,1,.641-.049h.789c-.247.394-.542,1.085-.74,1.43a5.632,5.632,0,0,0-.641,1.874.243.243,0,0,0,.049.148.417.417,0,0,0,.3.1h.049c.148,0,.394,0,.394-.247a6.808,6.808,0,0,1,1.233-3.451v-.394Zm2.416-.2.247,3.155a.71.71,0,0,0,.1.444c.1.1.444.1.641.1h.148v.1h-.444c-.2,0-.493.049-.641.049s-.542.049-.74.049c-.049,0-.247.049-.394.049h0v-.148c.049,0,.69-.1.789-.247a.973.973,0,0,0,.049-.444l-.148-1.824a1.575,1.575,0,0,0-.148-.69.181.181,0,0,0-.148-.049h-.049c-.1,0-.247.049-.394.049-.049,0-.049-.1-.049-.148a2.338,2.338,0,0,0,.937-.394.709.709,0,0,1,.148-.1c.049.049.049.049.1.049m.1-.1h-.247c-.049,0-.1.049-.2.1a.048.048,0,0,0-.049.049,2.5,2.5,0,0,1-.887.394h-.1v.1c0,.1,0,.2.1.247h.1a.373.373,0,0,0,.2-.049c.1,0,.148-.049.247-.049h.1c.049.049.1.2.1.641l.148,1.824v.394c0,.049-.148.1-.592.148h-.1c-.049,0-.1.049-.1.148v.1a.131.131,0,0,0,.148.148h.148a1,1,0,0,0,.247-.049c.148,0,.493-.049.641-.049h.148c.148,0,.394-.049.592-.049h.444a.157.157,0,0,0,.148-.148v-.2h-.3a1.565,1.565,0,0,1-.542-.049c-.049-.049-.049-.2-.1-.394L75.63,378.5Z" transform="translate(-45.999 -317.857)"/>
    <path id="Path_139" data-name="Path 139" class="cls-1" d="M159.537,302.93c.493-1.43.69-1.676.937-1.676s.444.2.937,1.528c.641,1.627,7.4,19.376,10.008,25.933,1.528,3.846,2.81,4.536,3.7,4.782a6.029,6.029,0,0,0,1.726.246c.247,0,.444.049.444.246,0,.247-.394.345-.838.345-.641,0-3.8,0-6.754-.1-.838-.049-1.282-.049-1.282-.3,0-.148.148-.246.3-.3.247-.1.493-.493.247-1.183l-3.994-10.551c-.1-.148-.148-.247-.394-.247H155.3a.526.526,0,0,0-.444.345L152.29,329.6a8.943,8.943,0,0,0-.592,2.86c0,.838.887,1.233,1.627,1.233h.444c.3,0,.444.1.444.246,0,.247-.247.345-.641.345-1.035,0-2.86-.148-3.353-.148s-2.86.148-4.881.148c-.542,0-.838-.1-.838-.345,0-.148.148-.246.394-.246a11.265,11.265,0,0,0,1.233-.1c1.972-.247,2.86-1.873,3.6-4.043Zm4.437,17.207c.2,0,.2-.148.148-.3l-4.092-11.635c-.2-.641-.444-.641-.641,0l-3.8,11.635c-.1.2,0,.3.148.3Zm18.143-5.818c0-6.705,0-7.888-.1-9.269-.1-1.479-.444-2.169-1.874-2.465a7.168,7.168,0,0,0-1.479-.148c-.148,0-.345-.1-.345-.247,0-.247.2-.345.69-.345,1.923,0,4.634.148,4.881.148.493,0,3.747-.148,5.078-.148,2.712,0,5.571.246,7.888,1.873a7.492,7.492,0,0,1,2.958,5.867c0,3.2-1.331,6.36-5.226,9.91,3.55,4.536,6.459,8.332,8.924,10.994a9.058,9.058,0,0,0,5.226,3.106,9.207,9.207,0,0,0,1.676.148c.2,0,.394.148.394.246,0,.247-.246.345-1.035.345H206.72c-2.416,0-3.5-.2-4.585-.838-1.874-.986-3.353-3.106-5.818-6.311-1.824-2.367-3.846-5.226-4.684-6.36a.706.706,0,0,0-.542-.247l-5.275-.1c-.2,0-.3.148-.3.345v1.035c0,4.141,0,7.543.2,9.318.148,1.233.394,2.219,1.676,2.367a14.829,14.829,0,0,0,1.923.148c.247,0,.345.148.345.247,0,.2-.2.345-.69.345-2.367,0-5.078-.148-5.275-.148-.049,0-2.761.148-4.043.148-.493,0-.69-.1-.69-.345,0-.148.1-.247.345-.247a11.352,11.352,0,0,0,1.282-.148c.838-.148,1.085-1.134,1.233-2.367.2-1.824.2-5.226.2-9.318v-7.543Zm3.4,3.747a.542.542,0,0,0,.3.493,11.688,11.688,0,0,0,4.536.69,5.5,5.5,0,0,0,3.2-.838c1.479-1.035,2.613-3.353,2.613-6.607,0-5.374-2.86-8.628-7.445-8.628a14.952,14.952,0,0,0-2.86.246.536.536,0,0,0-.345.493Zm28.694,3.8c0,4.141,0,7.543-.2,9.318-.148,1.233-.345,2.169-1.183,2.367a4.967,4.967,0,0,1-1.233.148c-.247,0-.345.148-.345.247,0,.247.2.345.641.345,1.233,0,3.6-.148,3.944-.148s2.712.148,4.684.148c.444,0,.641-.148.641-.345,0-.148-.1-.247-.345-.247-.345,0-1.035-.1-1.578-.148-1.233-.148-1.479-1.134-1.578-2.367-.2-1.824-.2-5.226-.2-9.318v-4.191h.2c1.972,2.514,8.184,12.375,10.008,13.953,1.775,1.479,2.761,2.416,4.93,2.613a24.515,24.515,0,0,0,2.81.1h2.071c.69,0,.887-.148.887-.345,0-.148-.246-.247-.542-.247a7.548,7.548,0,0,1-2.514-.542c-1.972-.838-2.662-1.528-6.064-4.881-1.676-1.627-7.741-10.9-8.776-12.128.838-1.085,7.987-8.381,8.973-9.417,1.824-1.824,2.712-2.909,4.388-3.7a5.727,5.727,0,0,1,2.268-.592c.345,0,.394-.1.394-.3s-.148-.3-.592-.3c-1.035,0-3.7.148-3.944.148-.986,0-2.268-.148-3.057-.148-.3,0-.493.1-.493.3,0,.148.148.246.345.345a.845.845,0,0,1,.542.887c0,.74-1.085,1.873-2.219,3.106-1.479,1.676-8.874,9.614-9.565,10.4h-.148v-2.564c0-6.705,0-7.938.1-9.269.1-1.528.394-2.219,1.528-2.465a5.125,5.125,0,0,1,1.035-.148c.148,0,.345-.1.345-.247,0-.246-.2-.345-.641-.345-1.233,0-3.6.148-3.944.148-.246,0-2.662-.148-4.487-.148-.444,0-.641.1-.641.345,0,.148.148.247.345.247a6.237,6.237,0,0,1,1.38.148c1.331.3,1.676.986,1.775,2.465.1,1.38.1,2.564.1,9.269v7.494ZM254.2,302.93c.493-1.43.69-1.676.937-1.676s.444.2.937,1.528c.641,1.627,7.4,19.376,10.008,25.933,1.528,3.846,2.81,4.536,3.7,4.782a6.029,6.029,0,0,0,1.726.246c.246,0,.444.049.444.246,0,.247-.394.345-.838.345-.641,0-3.8,0-6.754-.1-.838-.049-1.282-.049-1.282-.3,0-.148.148-.246.3-.3.247-.1.493-.493.247-1.183l-3.993-10.6c-.1-.148-.148-.247-.394-.247h-9.269a.526.526,0,0,0-.444.345l-2.564,7.593a8.943,8.943,0,0,0-.592,2.86c0,.838.887,1.233,1.627,1.233h.444c.3,0,.444.1.444.247,0,.246-.247.345-.641.345-1.035,0-2.86-.148-3.353-.148s-2.86.148-4.881.148c-.542,0-.838-.1-.838-.345,0-.148.148-.247.394-.247a11.265,11.265,0,0,0,1.233-.1c1.972-.247,2.86-1.873,3.6-4.043Zm4.437,17.207c.2,0,.2-.148.148-.3l-4.092-11.635c-.2-.641-.444-.641-.641,0l-3.8,11.635c-.1.2,0,.3.148.3Zm51.472,13.657a13.438,13.438,0,0,0,5.768,1.183,11.127,11.127,0,0,0,6.508-1.824A8.945,8.945,0,0,0,326.032,326c0-3.451-1.183-6.114-6.261-10.107l-1.183-.937c-4.141-3.2-5.226-4.782-5.226-7.247,0-3.155,2.317-4.98,5.275-4.98,3.944,0,5.127,1.824,5.374,2.268a8.236,8.236,0,0,1,.542,2.169c.049.345.1.542.345.542.2,0,.3-.3.3-.986,0-2.909.148-4.339.148-4.536s-.1-.3-.444-.3a8.91,8.91,0,0,1-1.528-.2,17.21,17.21,0,0,0-3.993-.444c-5.473,0-8.924,3.155-8.924,7.741,0,2.909,1.035,5.571,5.571,9.318l1.923,1.578c3.7,3.057,4.93,4.782,4.93,7.74,0,2.761-2.021,5.719-6.163,5.719-2.86,0-5.719-1.183-6.36-4.388a6.457,6.457,0,0,1-.148-1.578c0-.345-.049-.493-.3-.493-.2,0-.3.2-.345.69-.049.69-.2,2.416-.2,4.536.1,1.183.1,1.38.74,1.676M342.3,302.93c.493-1.43.69-1.676.937-1.676s.444.2.937,1.528c.641,1.627,7.4,19.376,10.008,25.933,1.528,3.846,2.81,4.536,3.7,4.782a6.029,6.029,0,0,0,1.726.246c.247,0,.444.049.444.246,0,.247-.394.345-.838.345-.641,0-3.8,0-6.754-.1-.838-.049-1.282-.049-1.282-.3,0-.148.148-.246.3-.3.247-.1.493-.493.247-1.183l-3.993-10.6c-.1-.148-.148-.247-.394-.247h-9.269a.526.526,0,0,0-.444.345l-2.564,7.593a8.943,8.943,0,0,0-.592,2.86c0,.838.887,1.233,1.627,1.233h.444c.3,0,.444.1.444.247,0,.246-.247.345-.641.345-1.035,0-2.86-.148-3.353-.148s-2.86.148-4.881.148c-.542,0-.838-.1-.838-.345,0-.148.148-.247.394-.247a11.266,11.266,0,0,0,1.233-.1c1.972-.247,2.86-1.873,3.6-4.043Zm4.487,17.207c.2,0,.2-.148.148-.3l-4.092-11.635c-.2-.641-.444-.641-.641,0l-3.8,11.635c-.1.2,0,.3.148.3Zm16.27,13.657a13.438,13.438,0,0,0,5.768,1.183,11.127,11.127,0,0,0,6.508-1.824A8.945,8.945,0,0,0,378.983,326c0-3.451-1.183-6.114-6.261-10.107l-1.183-.937c-4.141-3.2-5.226-4.782-5.226-7.247,0-3.155,2.317-4.98,5.275-4.98,3.944,0,5.127,1.824,5.374,2.268a8.237,8.237,0,0,1,.542,2.169c.049.345.1.542.345.542.2,0,.3-.3.3-.986,0-2.909.148-4.339.148-4.536s-.1-.3-.444-.3a8.909,8.909,0,0,1-1.528-.2,17.21,17.21,0,0,0-3.993-.444c-5.473,0-8.924,3.155-8.924,7.741,0,2.909,1.035,5.571,5.571,9.318l1.923,1.578c3.7,3.057,4.93,4.782,4.93,7.74,0,2.761-2.021,5.719-6.163,5.719-2.86,0-5.719-1.183-6.36-4.388a6.455,6.455,0,0,1-.148-1.578c0-.345-.049-.493-.3-.493-.2,0-.3.2-.345.69-.049.69-.2,2.416-.2,4.536.1,1.183.148,1.38.74,1.676m-85-25.884c1.233,1.528,5.62,6.952,10.107,12.326,4.092,4.881,9.663,11.241,10.107,11.635,2.071,2.268,2.514,2.761,2.81,2.761.247,0,.345-.2.345-3.057l.1-25.194c0-2.564.148-3.55,1.43-3.846a2.683,2.683,0,0,1,.937-.148c.246,0,.444-.148.444-.3,0-.246-.246-.3-.69-.3-1.578,0-2.86.148-3.3.148s-2.268-.148-4.043-.148c-.444,0-.789.049-.789.3a.259.259,0,0,0,.3.3,10.908,10.908,0,0,1,1.873.2c1.183.345,1.479,1.282,1.528,4.092l.444,21.841c-1.233-1.43-5.473-6.656-9.269-11.241-5.966-7.1-11.734-14-12.326-14.741-.394-.444-1.035-1.38-1.331-1.38s-.444.493-.444,2.169l-.049,24.651c0,3.895-.2,5.177-1.183,5.473a5.6,5.6,0,0,1-1.578.247c-.2,0-.3.1-.3.246,0,.3.247.345.641.345,1.726,0,3.353-.148,3.7-.148s1.873.148,4.092.148c.444,0,.69-.1.69-.345,0-.148-.1-.246-.3-.246a8.418,8.418,0,0,1-1.923-.247c-1.035-.345-1.43-1.479-1.528-4.98Zm-124.489-18c0,3.106.789,4.585,1.873,5.62a6.565,6.565,0,0,0,4.388,1.528,6.189,6.189,0,0,0,4.388-1.578c1.726-1.528,1.972-4.092,1.972-6.36v-2.268c0-3.3,0-3.944.049-4.585.049-.74.2-1.085.789-1.233a2.419,2.419,0,0,1,.542-.049.131.131,0,0,0,.148-.148c0-.148-.1-.148-.345-.148-.641,0-1.627.049-1.775.049s-1.282-.049-2.268-.049c-.247,0-.345.049-.345.148a.157.157,0,0,0,.148.148,3.73,3.73,0,0,1,.74.049c.69.148.887.493.937,1.233.049.69.049,1.282.049,4.585v2.662c0,2.219-.247,3.993-1.233,5.226a4.479,4.479,0,0,1-3.353,1.528,4.1,4.1,0,0,1-3.2-1.183c-.937-.887-1.578-2.219-1.578-5.275v-3.007c0-3.3,0-3.944.049-4.585.049-.74.2-1.134.789-1.233a2.419,2.419,0,0,1,.542-.049.131.131,0,0,0,.148-.148c0-.148-.1-.148-.345-.148-.641,0-1.923.049-2.12.049s-1.479-.049-2.465-.049c-.247,0-.345.049-.345.148a.157.157,0,0,0,.148.148,3.73,3.73,0,0,1,.74.049c.69.148.887.493.937,1.233.049.69.049,1.282.049,4.585l-.049,3.106Zm23.813-6.261c.69.789,3.106,3.451,5.571,6.113,2.268,2.416,5.325,5.571,5.571,5.768,1.134,1.134,1.38,1.38,1.578,1.38.148,0,.2-.1.2-1.528l.049-12.474c0-1.282.1-1.726.789-1.923a2.265,2.265,0,0,1,.493-.049c.148,0,.247-.049.247-.148,0-.148-.148-.148-.394-.148-.887,0-1.578.049-1.824.049s-1.233-.049-2.219-.049c-.247,0-.444,0-.444.148,0,.1,0,.148.148.148a4.673,4.673,0,0,1,1.035.1c.641.148.789.641.838,2.021l.247,10.847c-.69-.69-3.007-3.3-5.127-5.571-3.3-3.5-6.459-6.952-6.8-7.3-.2-.2-.592-.69-.74-.69s-.247.247-.247,1.085v12.227c0,1.923-.1,2.564-.641,2.712a3.315,3.315,0,0,1-.887.148.131.131,0,0,0-.148.148c0,.148.148.148.345.148.986,0,1.873-.049,2.071-.049s1.035.049,2.268.049c.247,0,.394-.049.394-.148a.131.131,0,0,0-.148-.148,3.434,3.434,0,0,1-1.085-.148c-.592-.148-.789-.74-.838-2.465Zm26.278,3.155c0-3.3,0-3.944.049-4.585.049-.74.2-1.085.789-1.233a2.42,2.42,0,0,1,.542-.049.131.131,0,0,0,.148-.148c0-.148-.1-.148-.345-.148-.641,0-1.972.049-2.071.049s-1.43-.049-2.169-.049c-.247,0-.345.049-.345.148a.157.157,0,0,0,.148.148,1.567,1.567,0,0,1,.641.1c.444.1.69.444.74,1.183.049.69.049,1.282.049,4.585v3.747c0,2.071,0,3.747-.1,4.634-.1.641-.2,1.085-.641,1.183a2.885,2.885,0,0,1-.641.1c-.148,0-.148.049-.148.148,0,.148.1.148.345.148.641,0,1.972-.049,2.071-.049s1.43.049,2.613.049c.247,0,.345-.049.345-.148a.157.157,0,0,0-.148-.148,7.593,7.593,0,0,1-.937-.1c-.641-.1-.789-.542-.838-1.183-.1-.887-.1-2.564-.1-4.634Zm12.671-3.6a10.078,10.078,0,0,1-.592-1.775.486.486,0,0,1,.3-.444,2.171,2.171,0,0,1,.789-.1c.148,0,.2-.049.2-.148s-.2-.148-.592-.148c-.789,0-1.775.049-1.972.049-.247,0-1.479-.049-2.514-.049-.345,0-.542,0-.542.148a.131.131,0,0,0,.148.148,2.606,2.606,0,0,1,.789.1c.74.2,1.085.444,1.528,1.627l5.226,13.065c.394,1.035.493,1.331.789,1.331.2,0,.3-.345.887-1.627.493-1.035,1.43-3.353,2.761-6.459,1.085-2.613,2.169-5.177,2.367-5.768.592-1.43.887-1.824,1.183-2.021a2.013,2.013,0,0,1,1.035-.247c.148,0,.247-.049.247-.148s-.148-.148-.345-.148c-.641,0-1.528.049-1.676.049-.247,0-1.233-.049-2.071-.049-.345,0-.493.049-.493.148s.1.148.246.148a2.171,2.171,0,0,1,.789.1.542.542,0,0,1,.3.493,3.049,3.049,0,0,1-.2.789c-.493,1.528-3.353,8.973-4.585,11.833Zm19.869,7.346c0,2.021,0,3.747-.1,4.634-.1.641-.2,1.085-.641,1.183a2.884,2.884,0,0,1-.641.1c-.148,0-.148.049-.148.148,0,.148.1.148.345.148.3,0,.789-.049,1.233-.049h.838c.3,0,.838,0,1.676.049.838,0,2.021.049,3.6.049.838,0,.986,0,1.134-.542.1-.444.3-1.923.3-2.071s0-.3-.148-.3c-.1,0-.148.1-.2.3-.148.887-.394,1.282-.986,1.528a5.694,5.694,0,0,1-2.021.247c-2.071,0-2.416-.3-2.465-1.726v-5.522a.131.131,0,0,1,.148-.148c.345,0,2.465.049,3.057.1.838.1,1.035.444,1.134.74a1.925,1.925,0,0,1,.1.69c0,.1.049.2.148.2.148,0,.148-.247.148-.394s.049-.937.1-1.38c.049-.69.148-1.085.148-1.183,0-.148-.049-.148-.1-.148-.1,0-.148.1-.3.3a1.556,1.556,0,0,1-.986.3c-.493.049-3.106.049-3.4.049-.1,0-.148-.049-.148-.2v-5.867c0-.148.049-.2.148-.2.247,0,2.564,0,2.909.049,1.134.148,1.38.394,1.528.74a2.71,2.71,0,0,1,.148.789c0,.148.049.3.148.3s.148-.148.148-.246a13.934,13.934,0,0,0,.1-1.43c.049-.592.148-.838.148-.986,0-.1,0-.2-.1-.2s-.2.1-.3.1a3.519,3.519,0,0,1-.937.1H237.09l-.887-.049h-1.528c-.247,0-.345.049-.345.148a.157.157,0,0,0,.148.148,3.731,3.731,0,0,1,.74.049c.69.148.887.493.937,1.233.049.69.049,1.282.049,4.585v3.648Zm17.6-3.747c0-3.3,0-3.944-.049-4.585-.049-.74-.2-1.085-.937-1.233a3.493,3.493,0,0,0-.74-.049.131.131,0,0,1-.148-.148c0-.148.1-.148.345-.148.937,0,2.317.049,2.416.049.247,0,1.873-.049,2.514-.049a6.731,6.731,0,0,1,3.895.937,3.733,3.733,0,0,1,1.479,2.909c0,1.578-.641,3.155-2.564,4.93,1.726,2.219,3.2,4.141,4.437,5.473a4.315,4.315,0,0,0,2.613,1.528,6.434,6.434,0,0,0,.838.049c.1,0,.2.049.2.148,0,.148-.148.148-.493.148h-1.578a4.325,4.325,0,0,1-2.268-.394c-.937-.493-1.676-1.528-2.86-3.155-.887-1.183-1.873-2.613-2.317-3.155a.351.351,0,0,0-.3-.148l-2.613-.049a.131.131,0,0,0-.148.148v.493c0,2.071,0,3.747.1,4.634.049.641.2,1.085.838,1.183a8.7,8.7,0,0,0,.937.1c.148,0,.148.049.148.148s-.1.148-.345.148c-1.183,0-2.514-.049-2.613-.049,0,0-1.38.049-2.021.049-.246,0-.345-.049-.345-.148a.157.157,0,0,1,.148-.148,2.886,2.886,0,0,0,.641-.1c.444-.1.542-.542.641-1.183.1-.887.1-2.564.1-4.634v-3.7h.049Zm1.726,1.874a.271.271,0,0,0,.148.246,5.555,5.555,0,0,0,2.219.345,2.692,2.692,0,0,0,1.578-.394,3.917,3.917,0,0,0,1.282-3.3c0-2.662-1.43-4.289-3.7-4.289a4.579,4.579,0,0,0-1.43.148.271.271,0,0,0-.148.247v7Zm17.6,7.79a6.339,6.339,0,0,0,2.86.592,5.52,5.52,0,0,0,3.2-.887,4.4,4.4,0,0,0,1.824-3.55c0-1.726-.592-3.007-3.106-5.029l-.592-.444c-2.071-1.578-2.613-2.367-2.613-3.6a2.4,2.4,0,0,1,2.613-2.465c1.972,0,2.514.887,2.662,1.134a3.917,3.917,0,0,1,.3,1.085c0,.148.049.3.148.3s.148-.148.148-.493c0-1.43.1-2.169.1-2.268s-.049-.148-.2-.148a2.67,2.67,0,0,1-.74-.1,7.366,7.366,0,0,0-1.972-.2c-2.712,0-4.437,1.578-4.437,3.846,0,1.43.493,2.761,2.761,4.634l.986.789c1.824,1.528,2.465,2.367,2.465,3.846a2.848,2.848,0,0,1-3.057,2.86c-1.43,0-2.86-.592-3.155-2.169a4.8,4.8,0,0,1-.049-.789c0-.148,0-.247-.148-.247-.1,0-.148.1-.148.345,0,.345-.1,1.183-.1,2.268-.1.444-.049.542.247.69M293,286.808c0-3.3,0-3.944.049-4.585.049-.74.2-1.085.789-1.233a2.42,2.42,0,0,1,.542-.049.131.131,0,0,0,.148-.148c0-.148-.1-.148-.345-.148-.641,0-1.972.049-2.071.049s-1.43-.049-2.169-.049c-.246,0-.345.049-.345.148a.157.157,0,0,0,.148.148,1.567,1.567,0,0,1,.641.1c.493.1.69.444.74,1.183.049.69.049,1.282.049,4.585v3.747c0,2.071,0,3.747-.1,4.634-.1.641-.2,1.085-.641,1.183a2.884,2.884,0,0,1-.641.1c-.148,0-.148.049-.148.148,0,.148.1.148.345.148.641,0,1.972-.049,2.071-.049s1.43.049,2.613.049c.246,0,.345-.049.345-.148a.157.157,0,0,0-.148-.148,7.593,7.593,0,0,1-.937-.1c-.641-.1-.789-.542-.838-1.183-.1-.887-.1-2.564-.1-4.634Zm16.714-5.275,2.662.049c2.071.049,2.564.542,2.613,1.183v.247c0,.3.049.345.148.345s.148-.1.148-.3c0-.246.049-1.726.049-2.367,0-.148,0-.246-.1-.246s-.3.049-.592.1a10.653,10.653,0,0,1-1.528.1h-7.987c-.247,0-1.085-.049-1.676-.1a4.248,4.248,0,0,1-.937-.246c-.1,0-.148.3-.2.394-.049.148-.444,2.021-.444,2.219,0,.148.049.2.1.2.1,0,.148-.049.2-.2a4.51,4.51,0,0,1,.345-.641c.345-.493.838-.641,2.169-.69l3.155-.049v9.022c0,2.071,0,3.747-.1,4.634-.1.641-.2,1.085-.641,1.183a2.885,2.885,0,0,1-.641.1c-.148,0-.148.049-.148.148,0,.148.1.148.345.148.641,0,1.972-.049,2.071-.049s1.43.049,2.613.049c.247,0,.345-.049.345-.148a.157.157,0,0,0-.148-.148,7.593,7.593,0,0,1-.937-.1c-.641-.1-.789-.542-.838-1.183-.1-.887-.1-2.564-.1-4.634v-9.022h.049Zm17.157,11.537c0,.345,0,1.233-.049,2.12-.049.641-.247,1.085-.641,1.183a2.885,2.885,0,0,1-.641.1c-.148,0-.148.049-.148.148,0,.148.1.148.345.148.641,0,1.972-.049,2.071-.049s1.43.049,2.613.049c.247,0,.345-.049.345-.148a.157.157,0,0,0-.148-.148,7.593,7.593,0,0,1-.937-.1c-.641-.1-.838-.542-.887-1.183-.049-.887-.049-1.775-.049-2.12v-1.824a5.386,5.386,0,0,1,.3-2.12,65.476,65.476,0,0,1,4.092-6.8,3.3,3.3,0,0,1,1.134-1.085,2.2,2.2,0,0,1,.986-.3c.148,0,.3-.049.3-.148s-.148-.148-.3-.148c-.394,0-1.923.049-2.071.049s-.838-.049-1.43-.049c-.2,0-.345.049-.345.148s.148.148.3.2c.246.049.345.3.345.592a2.264,2.264,0,0,1-.345,1.085c-.444.69-3.155,5.374-3.55,6.261-.394-.641-3.6-6.114-3.944-6.754a2.15,2.15,0,0,1-.3-.838.462.462,0,0,1,.3-.394c.2-.1.3-.1.3-.2s-.049-.148-.3-.148c-.838,0-1.627.049-1.775.049-.1,0-1.726-.049-2.12-.049q-.3,0-.3.148c0,.1.1.148.2.148a2.447,2.447,0,0,1,.937.345,5.108,5.108,0,0,1,1.43,1.578c.74,1.085,3.6,5.818,3.747,6.163a4.346,4.346,0,0,1,.493,2.219l.049,1.873Zm27.856-12.72c4.782,0,8.381,3.007,8.381,7.987a8.366,8.366,0,0,1-8.529,8.727c-5.818,0-8.283-4.536-8.283-8.381a8.324,8.324,0,0,1,8.431-8.332m.493,15.875c1.923,0,5.867-1.134,5.867-7.3,0-5.127-3.106-7.888-6.459-7.888-3.55,0-6.212,2.367-6.212,7-.049,4.98,2.958,8.184,6.8,8.184m17.65-5.67c0,2.021,0,3.747-.1,4.634-.1.641-.2,1.085-.641,1.183a2.885,2.885,0,0,1-.641.1c-.148,0-.148.049-.148.148,0,.148.1.148.345.148.641,0,1.972-.049,2.071-.049s1.43.049,2.613.049c.247,0,.345-.049.345-.148a.157.157,0,0,0-.148-.148,7.593,7.593,0,0,1-.937-.1c-.641-.1-.789-.542-.838-1.183-.1-.887-.1-2.564-.1-4.634v-1.824c0-.148.049-.2.148-.2.345,0,2.662,0,3.2.049a1.485,1.485,0,0,1,1.134.789,4.441,4.441,0,0,1,.148.789c0,.1.049.2.148.2.148,0,.148-.2.148-.394,0-.148.049-.986.1-1.43.049-.69.148-1.085.148-1.183s0-.148-.1-.148-.148.1-.247.2c-.2.3-.493.345-.986.394h-3.648c-.148,0-.148-.049-.148-.2V281.73c0-.148.049-.247.2-.247l3.3.049a1.461,1.461,0,0,1,1.43.69,2.013,2.013,0,0,1,.2.789c0,.148.049.247.148.247s.148-.148.148-.247a13.933,13.933,0,0,0,.1-1.43c.049-.592.148-.838.148-.986,0-.1-.049-.2-.148-.2s-.148.1-.3.148c-.2.049-.542.049-.937.1-.493,0-4.832.049-5.226,0l-.887-.049H371.39c-.246,0-.345.049-.345.148a.157.157,0,0,0,.148.148,3.731,3.731,0,0,1,.74.049c.69.148.887.493.937,1.233.049.69.049,1.282.049,4.585l-.049,3.8Zm6.8,42.893a1.589,1.589,0,0,1,1.578-1.578,1.578,1.578,0,1,1-1.578,1.578m2.86,0a1.337,1.337,0,0,0-1.331-1.38,1.381,1.381,0,1,0,1.331,1.38m-.542.887h-.246l-.493-.789h-.394v.789h-.2v-1.775h.789c.444,0,.641.2.641.444a.479.479,0,0,1-.542.493Zm-.789-.986c.247,0,.592.049.592-.3,0-.3-.247-.3-.444-.3h-.493v.641l.345-.049Z" transform="translate(-87.013 -268.122)"/>
  </g>
</svg>
