<svg id="HEADER_RUBRIC" xmlns="http://www.w3.org/2000/svg" width="27" height="27" viewBox="0 0 27 27">
  <defs>
    <style>
      .cls-1 {
        fill: #0288cc;
      }
    </style>
  </defs>
  <path id="Path_15123" data-name="Path 15123" class="cls-1" d="M8.438,14.344a.844.844,0,0,1,.844-.844h3.375a.844.844,0,1,1,0,1.687H9.281A.844.844,0,0,1,8.438,14.344Zm.844-4.219h3.375a.844.844,0,0,0,0-1.687H9.281a.844.844,0,0,0,0,1.688ZM5.316,8.691a.834.834,0,1,0,1.181,0A.844.844,0,0,0,5.316,8.691Zm0,5.062a.834.834,0,1,0,1.181,0,.844.844,0,0,0-1.181,0Zm0,5.063a.834.834,0,1,0,1.181,0,.844.844,0,0,0-1.181,0ZM27,19.406A7.6,7.6,0,0,1,19.406,27a7.518,7.518,0,0,1-4.715-1.687H.844A.844.844,0,0,1,0,24.469V4.219a.844.844,0,0,1,.844-.844H4.219V.844A.844.844,0,0,1,5.063,0H22.781a.844.844,0,0,1,.844.844V13.1A7.594,7.594,0,0,1,27,19.406ZM5.906,3.375H17.719a.844.844,0,0,1,.844.844V11.9a7.327,7.327,0,0,1,.844-.086,7.5,7.5,0,0,1,2.531.466V1.688H5.906ZM1.688,23.625H13.1a7.538,7.538,0,0,1-1.2-3.375H9.281a.844.844,0,0,1,0-1.687H11.9a7.563,7.563,0,0,1,4.976-6.284V5.063H1.688Zm23.625-4.219a5.906,5.906,0,1,0-5.906,5.906,5.906,5.906,0,0,0,5.906-5.906ZM23.325,16.23a.844.844,0,0,0-1.181.1l-3.986,4.725-1.91-2.2a.844.844,0,1,0-1.276,1.1l2.548,2.953a.844.844,0,0,0,.638.292.933.933,0,0,0,.646-.3l4.622-5.484A.844.844,0,0,0,23.325,16.23Z"/>
</svg>
