<svg xmlns="http://www.w3.org/2000/svg" width="22.857" height="20" viewBox="0 0 22.857 20">
  <g id="Menu_Hamburger" transform="translate(0 -1)">
    <path id="_Compound_Path_" data-name="&lt;Compound Path&gt;" d="M22.143,11.714H.714a.714.714,0,0,1,0-1.429H22.143a.714.714,0,1,1,0,1.429Zm.714-10A.714.714,0,0,0,22.143,1H.714a.714.714,0,0,0,0,1.429H22.143A.714.714,0,0,0,22.857,1.714Zm0,18.571a.714.714,0,0,0-.714-.714H.714A.714.714,0,0,0,.714,21H22.143A.714.714,0,0,0,22.857,20.286Z"/>
  </g>
</svg>
