<svg id="HEADER_FAQ" xmlns="http://www.w3.org/2000/svg" width="27" height="27" viewBox="0 0 27 27">
  <defs>
    <style>
      .cls-1 {
        fill: #0288cc;
      }
    </style>
  </defs>
  <path id="Path_15167" data-name="Path 15167" class="cls-1" d="M26.156,0H.844A.844.844,0,0,0,0,.844V19.406a.844.844,0,0,0,.844.844H3.375v5.906a.844.844,0,0,0,.577.8A.81.81,0,0,0,4.219,27a.844.844,0,0,0,.675-.337L9.7,20.25H26.156A.844.844,0,0,0,27,19.406V.844A.844.844,0,0,0,26.156,0Zm-.844,18.563H9.281a.844.844,0,0,0-.675.337L5.063,23.625V19.406a.844.844,0,0,0-.844-.844H1.688V1.688H25.313ZM5.063,5.906a.844.844,0,0,1,.844-.844H21.094a.844.844,0,0,1,0,1.688H5.906A.844.844,0,0,1,5.063,5.906Zm0,8.438a.844.844,0,0,1,.844-.844H21.094a.844.844,0,0,1,0,1.688H5.906A.844.844,0,0,1,5.063,14.344Zm0-4.219a.844.844,0,0,1,.844-.844H21.094a.844.844,0,0,1,0,1.688H5.906A.844.844,0,0,1,5.063,10.125Z"/>
</svg>
