<svg id="HEADER_WINNERS" xmlns="http://www.w3.org/2000/svg" width="27" height="26.999" viewBox="0 0 27 26.999">
  <defs>
    <style>
      .cls-1 {
        fill: #0288cc;
      }
    </style>
  </defs>
  <path id="_Compound_Path_" data-name="&lt;Compound Path&gt;" class="cls-1" d="M26.858,22.313l-4.686-7.03c.02-.03.047-.051.067-.083a2.788,2.788,0,0,0,.155-1.947,2.545,2.545,0,0,1-.067-.79,2.43,2.43,0,0,1,.432-.592,2.7,2.7,0,0,0,.866-1.747,2.661,2.661,0,0,0-.861-1.738,2.305,2.305,0,0,1-.437-.6A2.514,2.514,0,0,1,22.393,7a2.8,2.8,0,0,0-.148-1.936A2.818,2.818,0,0,0,20.7,3.977a2.406,2.406,0,0,1-.692-.346,2.477,2.477,0,0,1-.351-.7,2.913,2.913,0,0,0-1.077-1.547,2.742,2.742,0,0,0-1.952-.157,2.57,2.57,0,0,1-.783.069,2.477,2.477,0,0,1-.614-.439A2.757,2.757,0,0,0,13.464,0a2.609,2.609,0,0,0-1.736.871,2.211,2.211,0,0,1-.572.429,2.585,2.585,0,0,1-.785-.069,2.725,2.725,0,0,0-1.952.159A2.934,2.934,0,0,0,7.342,2.931a2.548,2.548,0,0,1-.354.7,2.393,2.393,0,0,1-.687.337A2.789,2.789,0,0,0,4.754,5.062,2.832,2.832,0,0,0,4.607,7a2.572,2.572,0,0,1,.066.793,2.341,2.341,0,0,1-.437.6,2.673,2.673,0,0,0-.861,1.738,2.7,2.7,0,0,0,.866,1.748,2.459,2.459,0,0,1,.432.591,2.545,2.545,0,0,1-.067.79A2.788,2.788,0,0,0,4.76,15.2c.02.032.047.052.067.083L.142,22.313a.844.844,0,0,0,.969,1.269l4.263-1.421,1.419,4.261A.844.844,0,0,0,7.543,27h.051a.844.844,0,0,0,.763-.483l3.385-7.145.015.012a2.69,2.69,0,0,0,1.743.866,2.681,2.681,0,0,0,1.741-.866l.017-.014,3.385,7.146a.844.844,0,0,0,.763.483h.051a.844.844,0,0,0,.751-.575l1.419-4.261,4.263,1.421a.844.844,0,0,0,.969-1.269ZM7.73,23.9,6.708,20.827a.844.844,0,0,0-1.068-.535l-2.729.91,3.3-4.956.091.037a2.7,2.7,0,0,1,.7.351,2.4,2.4,0,0,1,.337.685,2.8,2.8,0,0,0,1.1,1.554,2.433,2.433,0,0,0,1.578.2ZM13.5,18.562c-.12,0-.454-.292-.631-.447a3.834,3.834,0,0,0-1.056-.69c-.024-.014-.039-.035-.064-.047a.612.612,0,0,0-.071-.017.691.691,0,0,0-.071-.034,1.455,1.455,0,0,0-.147-.019h-.052a2.425,2.425,0,0,0-.4-.049,5.726,5.726,0,0,0-.921.1,2.432,2.432,0,0,1-.813.056,2.05,2.05,0,0,1-.361-.709,3.456,3.456,0,0,0-.731-1.274,3.635,3.635,0,0,0-1.25-.71,2.118,2.118,0,0,1-.726-.386,2.373,2.373,0,0,1,.062-.795A3.466,3.466,0,0,0,6.3,12.008a3.331,3.331,0,0,0-.783-1.24c-.169-.2-.451-.52-.451-.643s.277-.437.442-.626A3.285,3.285,0,0,0,6.3,8.24a3.53,3.53,0,0,0-.025-1.519,2.214,2.214,0,0,1-.056-.81,2,2,0,0,1,.7-.366A3.41,3.41,0,0,0,8.2,4.808a3.653,3.653,0,0,0,.71-1.25A2.049,2.049,0,0,1,9.3,2.83a2.423,2.423,0,0,1,.783.064,3.4,3.4,0,0,0,1.544.025,3.206,3.206,0,0,0,1.232-.795c.192-.169.486-.437.607-.437a2.241,2.241,0,0,1,.675.457,3.414,3.414,0,0,0,1.24.775,3.387,3.387,0,0,0,1.542-.025,2.452,2.452,0,0,1,.785-.064,2,2,0,0,1,.386.722,3.584,3.584,0,0,0,.717,1.259,3.456,3.456,0,0,0,1.277.732,1.942,1.942,0,0,1,.7.368,2.256,2.256,0,0,1-.057.8,3.458,3.458,0,0,0-.025,1.531A3.321,3.321,0,0,0,21.505,9.5c.169.187.442.506.442.624s-.282.445-.449.638A3.321,3.321,0,0,0,20.714,12a3.466,3.466,0,0,0,.025,1.532,2.362,2.362,0,0,1,.062.793,2.087,2.087,0,0,1-.726.388,3.635,3.635,0,0,0-1.25.71,3.456,3.456,0,0,0-.731,1.274,2.082,2.082,0,0,1-.363.705,2.435,2.435,0,0,1-.815-.056,4.207,4.207,0,0,0-1.291-.047.854.854,0,0,0-.111.01.44.44,0,0,0-.115.01c-.039.01-.049.027-.076.035s-.044,0-.066.017a.469.469,0,0,0-.071.044,3.78,3.78,0,0,0-1.06.694C13.952,18.272,13.62,18.562,13.5,18.562Zm7.86,1.73a.844.844,0,0,0-1.068.535L19.269,23.9l-2.287-4.828a2.42,2.42,0,0,0,1.579-.2,2.8,2.8,0,0,0,1.1-1.554,2.4,2.4,0,0,1,.337-.685,2.7,2.7,0,0,1,.7-.351l.091-.037,3.3,4.956Z" transform="translate(0)"/>
</svg>
