<?xml version="1.0" encoding="UTF-8"?>
<svg xmlns="http://www.w3.org/2000/svg" xmlns:xlink="http://www.w3.org/1999/xlink" width="24px" height="24px" viewBox="0 0 24 24" version="1.1">
<g id="surface1">
<path style=" stroke:none;fill-rule:nonzero;fill:rgb(0%,0%,0%);fill-opacity:1;" d="M 12 6.339844 L 9.589844 2 L 1.378906 2 L 6.851562 12.941406 C 5.34375 15.457031 5.882812 18.699219 8.121094 20.59375 C 10.359375 22.492188 13.640625 22.492188 15.878906 20.59375 C 18.117188 18.699219 18.65625 15.457031 17.148438 12.941406 L 22.621094 2 L 14.410156 2 Z M 8.410156 4 L 10.851562 8.398438 L 9.710938 10.460938 C 9.191406 10.675781 8.707031 10.960938 8.269531 11.308594 L 4.621094 4 Z M 12 20 C 9.789062 20 8 18.210938 8 16 C 8 13.789062 9.789062 12 12 12 L 12 13.328125 L 12 12 C 14.210938 12 16 13.789062 16 16 C 16 18.210938 14.210938 20 12 20 Z M 19.378906 4 L 15.730469 11.308594 C 14.738281 10.515625 13.519531 10.058594 12.25 10 L 15.589844 4 Z M 19.378906 4 "/>
</g>
</svg>
