<svg xmlns="http://www.w3.org/2000/svg" xmlns:xlink="http://www.w3.org/1999/xlink" version="1.1" xml:space="preserve" viewBox="0.5 0.5 86.93 123.79">
<desc>Created with Fabric.js 3.6.3</desc>
<defs>
</defs>
<g transform="matrix(1 0 0 1 43.97 62.4)" id="surface1">
<path style="stroke: none; stroke-width: 1; stroke-dasharray: none; stroke-linecap: butt; stroke-dashoffset: 0; stroke-linejoin: miter; stroke-miterlimit: 4; fill: rgb(2,136,204); fill-rule: evenodd; opacity: 1;" transform=" translate(-74.97, -75.78)" d="M 72.292969 14.035156 C 69.28125 14.234375 69.375 14.140625 69.515625 16.769531 C 69.738281 21.003906 68.539062 38.246094 67.90625 39.910156 C 67.40625 41.226562 64.589844 40.769531 64.109375 39.292969 C 63.714844 38.097656 63.207031 30.492188 62.917969 21.566406 C 62.820312 18.632812 62.625 16.234375 62.476562 16.234375 C 61.972656 16.234375 57.261719 18.707031 55.460938 19.917969 C 48.382812 24.671875 42.144531 33.484375 40.105469 41.601562 L 39.625 43.515625 L 37.515625 43.722656 C 34.296875 44.039062 34.570312 43.410156 34.570312 50.515625 L 34.570312 56.777344 L 35.996094 56.992188 C 36.78125 57.109375 38.507812 57.285156 39.828125 57.386719 L 42.234375 57.566406 L 42.308594 59.21875 C 42.695312 67.640625 45.742188 75.230469 51.019531 80.898438 L 52.3125 82.289062 L 49.679688 84.1875 C 42.695312 89.226562 36.742188 97.132812 33.980469 105.042969 C 31.875 111.078125 31.808594 111.632812 31.648438 125.277344 L 31.503906 137.675781 L 118.4375 137.675781 L 118.4375 126.097656 C 118.4375 105.792969 114.398438 95.636719 102.355469 85.667969 C 101.855469 85.257812 100.679688 84.265625 99.738281 83.464844 L 98.023438 82.015625 L 100.074219 79.476562 C 104.425781 74.101562 107.070312 67.414062 107.511719 60.691406 L 107.703125 57.726562 L 108.636719 57.582031 C 109.148438 57.503906 110.246094 57.359375 111.070312 57.261719 C 111.898438 57.164062 113.015625 57.007812 113.558594 56.914062 L 114.542969 56.746094 L 114.460938 50.691406 L 114.378906 44.640625 L 109.824219 43.84375 L 108.859375 40.785156 C 105.65625 30.660156 98.90625 22.335938 90.332031 17.9375 L 88.226562 16.859375 L 88.152344 20.980469 C 88.109375 23.246094 87.949219 25.371094 87.796875 25.703125 C 87.648438 26.03125 87.441406 28.46875 87.347656 31.113281 C 87.1875 35.457031 86.832031 38.902344 86.386719 40.371094 C 86.25 40.820312 85.945312 40.894531 84.519531 40.820312 L 82.816406 40.730469 L 82.453125 38.929688 C 82.03125 36.828125 81.34375 23.765625 81.375 18.421875 C 81.390625 15.21875 81.328125 14.726562 80.882812 14.585938 C 80.316406 14.40625 74.570312 13.816406 74.097656 13.890625 C 73.933594 13.914062 73.121094 13.980469 72.292969 14.035156 M 99.414062 60.6875 C 98.769531 70.65625 91.035156 79.773438 81.011719 82.378906 C 66.671875 86.109375 51.53125 75.316406 50.585938 60.6875 L 50.410156 58.015625 L 99.589844 58.015625 L 99.414062 60.6875 M 66.152344 90.164062 C 73.328125 92.152344 82.015625 91.460938 88.457031 88.382812 L 90.332031 87.488281 L 92.734375 88.875 C 105.089844 96.007812 110.621094 106.957031 110.621094 124.285156 L 110.621094 129.558594 L 39.378906 129.558594 L 39.378906 124.285156 C 39.378906 106.648438 45.25 95.390625 58.125 88.34375 L 59.585938 87.546875 L 61.753906 88.546875 C 62.945312 89.097656 64.921875 89.824219 66.152344 90.164062" stroke-linecap="round"/>
</g>
</svg>