<svg xmlns="http://www.w3.org/2000/svg" width="47.973" height="47.973" viewBox="0 0 47.973 47.973">
<g id="Loading" transform="matrix(0.225, 0.974, -0.974, 0.225, 38.975, 0)">
<path id="Path_15147" data-name="Path 15147" d="M40,20A20.045,20.045,0,0,1,20,40,21.81,21.81,0,0,1,2.5,31.15v5.1a1.25,1.25,0,1,1-2.5,0v-10a1.25,1.25,0,0,1,1.553-1.212l10,2.5a1.25,1.25,0,1,1-.605,2.425L3.4,28.078A19.5,19.5,0,0,0,20,37.5,17.54,17.54,0,0,0,37.5,20,1.25,1.25,0,0,1,40,20ZM38.75,2.5A1.25,1.25,0,0,0,37.5,3.75V9.463A22.337,22.337,0,0,0,20,0,20.045,20.045,0,0,0,0,20a1.25,1.25,0,1,0,2.5,0A17.54,17.54,0,0,1,20,2.5a20.025,20.025,0,0,1,16.065,9.29l-7-1.75a1.25,1.25,0,0,0-.6,2.425l10,2.5a1.25,1.25,0,0,0,.29.035.05.05,0,0,0,.043-.015,1.215,1.215,0,0,0,.545-.133,1.083,1.083,0,0,0,.118-.095.078.078,0,0,0,.065-.023,1.021,1.021,0,0,1,.075-.093,1.25,1.25,0,0,0,.2-.25,1.146,1.146,0,0,0,.092-.173,1.205,1.205,0,0,0,.078-.338A1.052,1.052,0,0,0,40,13.75v-10A1.25,1.25,0,0,0,38.75,2.5Z" fill="#0288cc"/>
</g>
</svg>