<svg id="HEADER_TEAMS" xmlns="http://www.w3.org/2000/svg" width="27" height="23.622" viewBox="0 0 27 23.622">
  <path id="Path_15214" data-name="Path 15214" class="cls-1" d="M18.222,2.644A.844.844,0,0,1,18.6,1.512,4.059,4.059,0,0,1,20.668,1a4.7,4.7,0,0,1,4.687,4.71,4.786,4.786,0,0,1-1.383,3.543A3.8,3.8,0,0,1,21.3,10.287h-.26a.844.844,0,0,1-.8-.9.81.81,0,0,1,.889-.795,2.121,2.121,0,0,0,1.675-.567,3.17,3.17,0,0,0,.855-2.316,3.015,3.015,0,0,0-3-3.023,2.456,2.456,0,0,0-1.309.337.844.844,0,0,1-1.137-.381Zm6.013,8.577a.844.844,0,0,0-.936-.049,6.32,6.32,0,0,1-3.474.795.844.844,0,1,0,0,1.687,8.373,8.373,0,0,0,3.8-.739c1.7,1.719,1.738,5.139,1.662,6.644H22.777a.844.844,0,0,0,0,1.687h3.288a.844.844,0,0,0,.844-.739c.029-.273.791-6.7-2.669-9.286ZM5.693,10.28h.26a.844.844,0,0,0,.8-.891.8.8,0,0,0-.891-.8,2.129,2.129,0,0,1-1.675-.567,3.17,3.17,0,0,1-.855-2.316,3.015,3.015,0,0,1,3-3.022,2.377,2.377,0,0,1,1.309.337.848.848,0,1,0,.756-1.518A4.014,4.014,0,0,0,6.327,1,4.7,4.7,0,0,0,1.64,5.711,4.786,4.786,0,0,0,3.024,9.254,3.8,3.8,0,0,0,5.693,10.28ZM4.218,19.559H1.711c-.078-1.5-.044-4.925,1.664-6.644a8.378,8.378,0,0,0,3.8.739.844.844,0,0,0,0-1.687,6.323,6.323,0,0,1-3.479-.795.844.844,0,0,0-.936.049C-.7,13.8.06,20.234.095,20.507a.844.844,0,0,0,.844.739h3.28a.844.844,0,0,0,0-1.687Zm16.028,4.322a.844.844,0,0,1-.844.739H7.593a.844.844,0,0,1-.844-.739c-.037-.3-.862-7.267,2.868-10.059a.844.844,0,0,1,.94-.049,5.632,5.632,0,0,0,5.881,0,.844.844,0,0,1,.94.049C21.1,16.615,20.277,23.586,20.246,23.882ZM16.766,15.51a7.255,7.255,0,0,1-6.536,0C8.294,17.425,8.281,21.3,8.374,22.933H18.628C18.714,21.31,18.7,17.432,16.766,15.51ZM8.436,7.749A5.061,5.061,0,1,1,13.5,12.811,5.061,5.061,0,0,1,8.436,7.749Zm1.687,0A3.374,3.374,0,1,0,13.5,4.375a3.374,3.374,0,0,0-3.374,3.374Z" transform="translate(0.001 -0.999)"/>
</svg>
