<?xml version="1.0" encoding="UTF-8"?><svg xmlns="http://www.w3.org/2000/svg" xmlns:xlink="http://www.w3.org/1999/xlink" viewBox="0 0 113.14 101.42"><defs><style>.f{fill:#fff;}.f,.g,.h{fill-rule:evenodd;}.g,.i,.j{fill:#0288cc;}.k{clip-path:url(#e);}.j,.l{clip-rule:evenodd;}.m{clip-path:url(#d);}.l{fill:none;}</style><clipPath id="d"><path class="j" d="M81.13,43.36s.61-.94,.91-2.78c.31-1.89,.27-3.69,.27-3.69l-.64-.05s-2.35,.46-3.14,.96-2.94,1.98-2.94,1.98l-1.52-2.57s-1.86-.2-2.71,.96c-.85,1.15-.52,1.64-.52,1.64l1.77,4.39s.4,1.77,1.87,1.48c1.47-.29,6.64-2.32,6.64-2.32Z"/></clipPath><clipPath id="e"><path class="l" d="M41.13,23.78s-1,.15-2.43-1.02c-1.43-1.17-1.46-1.46-1.55-2.05-.09-.59,.02-1.48,.02-1.48l-1.64,7.24s-1.85-4.91-2.94-5.76c-1.08-.85-2.34-1.38-4.14-1.46-1.8-.07-2.91-.14-2.91-.14,0,0,.73-1.18,.14-1.34-.59-.16-5.94-.64-5.94-.64,0,0-.83-.53-.96,.18-.13,.71-.11,1.8-.11,1.8,0,0-3.94-.29-5.73,.73-1.79,1.02-2.28,3.09-2.98,6.1-.71,3.01-1.75,10.95-1.59,11.76,.16,.81,.8,3.21,3.48,2.84,2.69-.36,6.26-4.12,6.26-4.12,0,0,.17,1.15,.18,2.82,0,1.67-.02,3.98-.02,3.98l13.7,1.18v-14.72l2.41,3.91s2.91,2.81,4.37,.64c1.46-2.17,2.82-10.63,2.82-10.63l-.43,.16Zm-26.78,9.24l.71-2.71,1.14,1.57-1.84,1.14Zm10.17-1.05c-.12,.63-1.21,.46-1.21,.46l-2.57-.07-.89,.5s.14,.77,.14,1.23c0,.46-.43,1.12-.43,1.12,0,0-.34,.34-.77,.27-.44-.07-1.4-1-1.84-2.21-.44-1.21-.07-1.87-.07-1.87l.59-.61s-.14-2.14-.07-3.6c.07-1.46,1.25-1.78,1.25-1.78l-.11-1.23,6.76,.02s-.66,7.13-.77,7.76Z"/></clipPath></defs><g id="a"/><g id="b"><g id="c"><g><path class="f" d="M84.49,82.85s-.87-.19-1.01-.14c-.13,.05-1.68,.56-1.68,.56l-1.08,1.4-.5,1.62,.26,2.47-.26,1.12-1.27,1.31-.45,.82-.32,1.17,.21,.85,.5,.97,.82,.62,.87,.45s.97,.29,1.8-.16c.83-.45,1.54-1.65,1.76-2.91,.21-1.27-.52-2.24-.32-3.11,.2-.87,.66-1.52,.66-1.52l.64-1.27-.64-4.23Z"/><path class="f" d="M75.2,86.87c.87-.47,2.45,.2,2.49,1.29,.02,.49,.08,1.45-.39,2.09-.56,.77-1.68,1.24-1.77,2.11,0,0-.07,1.07,.7,2.11,.77,1.04-1.86,3.64-4.19,1.69-2.33-1.96,.57-2.39,.68-3.84,.11-1.45-1.49-3.31,2.47-5.44Z"/><path class="f" d="M107.3,73.54l1.52,1.03,.72,1.21,.21,1.36-.14,1.21-.48,1.5-1.03,.93-1.21,.69-.62,.59,.24,1.5,.17,1.5-.41,1.1-1.34,.89-1.48,.52-.52,.69v1.34l-.17,1.24-1.24,.93-1.1,.34s-2.13,.4-3.76-4.45l.31-1.06,.82-.59,1.42-.66,.66-1,.24-1.1-.48-2,.03-1.21,.24-.91,.76-.37,1.21-.43h.93l.66-.94,.31-2.15,.83-1.41,1.24-.31s.99-.33,1.48,0Z"/><g><path class="h" d="M112.44,52.95c.39,0,.71,.32,.71,.71s-.32,.71-.71,.71-.71-.32-.71-.71,.32-.71,.71-.71Z"/><path class="h" d="M110.02,52.95c.39,0,.71,.32,.71,.71s-.32,.71-.71,.71-.71-.32-.71-.71,.32-.71,.71-.71Z"/><path class="h" d="M107.6,52.95c.39,0,.71,.32,.71,.71s-.32,.71-.71,.71-.71-.32-.71-.71,.32-.71,.71-.71Z"/><path class="h" d="M107.6,52.95c.39,0,.71,.32,.71,.71s-.32,.71-.71,.71-.71-.32-.71-.71,.32-.71,.71-.71Z"/><path class="h" d="M105.18,52.95c.39,0,.71,.32,.71,.71s-.32,.71-.71,.71-.71-.32-.71-.71,.32-.71,.71-.71Z"/><path class="h" d="M102.77,52.95c.39,0,.71,.32,.71,.71s-.32,.71-.71,.71-.71-.32-.71-.71,.32-.71,.71-.71Z"/><path class="h" d="M100.35,52.95c.39,0,.71,.32,.71,.71s-.32,.71-.71,.71-.71-.32-.71-.71,.32-.71,.71-.71Z"/><path class="h" d="M112.44,52.95c.39,0,.71,.32,.71,.71s-.32,.71-.71,.71-.71-.32-.71-.71,.32-.71,.71-.71Z"/><path class="h" d="M110.02,52.95c.39,0,.71,.32,.71,.71s-.32,.71-.71,.71-.71-.32-.71-.71,.32-.71,.71-.71Z"/><path class="h" d="M107.6,52.95c.39,0,.71,.32,.71,.71s-.32,.71-.71,.71-.71-.32-.71-.71,.32-.71,.71-.71Z"/><path class="h" d="M107.6,52.95c.39,0,.71,.32,.71,.71s-.32,.71-.71,.71-.71-.32-.71-.71,.32-.71,.71-.71Z"/><path class="h" d="M105.18,52.95c.39,0,.71,.32,.71,.71s-.32,.71-.71,.71-.71-.32-.71-.71,.32-.71,.71-.71Z"/><path class="h" d="M102.77,52.95c.39,0,.71,.32,.71,.71s-.32,.71-.71,.71-.71-.32-.71-.71,.32-.71,.71-.71Z"/><path class="h" d="M100.35,52.95c.39,0,.71,.32,.71,.71s-.32,.71-.71,.71-.71-.32-.71-.71,.32-.71,.71-.71Z"/><path class="h" d="M112.44,55.38c.39,0,.71,.32,.71,.71s-.32,.71-.71,.71-.71-.32-.71-.71,.32-.71,.71-.71Z"/><path class="h" d="M110.02,55.38c.39,0,.71,.32,.71,.71s-.32,.71-.71,.71-.71-.32-.71-.71,.32-.71,.71-.71Z"/><path class="h" d="M107.6,55.38c.39,0,.71,.32,.71,.71s-.32,.71-.71,.71-.71-.32-.71-.71,.32-.71,.71-.71Z"/><path class="h" d="M107.6,55.38c.39,0,.71,.32,.71,.71s-.32,.71-.71,.71-.71-.32-.71-.71,.32-.71,.71-.71Z"/><path class="h" d="M105.18,55.38c.39,0,.71,.32,.71,.71s-.32,.71-.71,.71-.71-.32-.71-.71,.32-.71,.71-.71Z"/><path class="h" d="M102.77,55.38c.39,0,.71,.32,.71,.71s-.32,.71-.71,.71-.71-.32-.71-.71,.32-.71,.71-.71Z"/><path class="h" d="M100.35,55.38c.39,0,.71,.32,.71,.71s-.32,.71-.71,.71-.71-.32-.71-.71,.32-.71,.71-.71Z"/></g><g><rect class="i" x="39.06" y="40.18" width="3.52" height=".9" transform="translate(-16.77 40.76) rotate(-45)"/><rect class="i" x="40.37" y="38.87" width=".9" height="3.52" transform="translate(-16.77 40.77) rotate(-45.01)"/></g><g><path d="M98.52,37.98c.31,.09,.5,.43,.39,.74-.11,.31-.44,.49-.75,.38-.31-.1-.47-.43-.37-.73,.11-.3,.41-.48,.73-.39Z"/><path d="M99.11,35.7c.32,.07,.51,.39,.44,.71-.07,.33-.41,.51-.72,.43-.32-.08-.49-.4-.42-.71,.07-.31,.38-.51,.7-.44Z"/><path d="M99.55,33.39c.32,.05,.54,.36,.48,.68-.05,.33-.36,.54-.67,.48-.32-.06-.53-.37-.48-.68,.05-.31,.35-.53,.67-.48Z"/><path d="M99.85,31.05c.32,.03,.55,.32,.52,.65-.04,.33-.33,.56-.65,.52-.32-.04-.55-.33-.52-.65,.04-.32,.33-.55,.65-.52Z"/><path d="M99.98,28.7c.32,0,.6,.28,.57,.61-.02,.33-.3,.58-.62,.57-.32-.02-.57-.29-.55-.61,.02-.32,.27-.57,.6-.57Z"/><path d="M99.95,26.34c.32-.02,.6,.24,.61,.57,.02,.33-.24,.6-.57,.61-.32,0-.58-.25-.6-.57-.02-.32,.23-.59,.56-.61Z"/><path d="M99.74,24c.32-.04,.61,.19,.65,.52,.04,.33-.2,.62-.52,.65-.32,.03-.61-.2-.65-.52-.03-.32,.2-.61,.52-.65Z"/><path d="M99.32,21.68c.32-.07,.63,.13,.71,.46,.06,.33-.16,.64-.47,.7-.32,.06-.62-.15-.68-.46-.07-.31,.12-.62,.44-.69Z"/><path d="M98.67,19.41c.31-.11,.63,.06,.74,.38,.1,.32-.07,.65-.38,.74-.31,.09-.64-.08-.73-.38-.09-.3,.08-.63,.38-.74Z"/><path d="M97.71,17.27c.28-.16,.64-.04,.8,.27,.16,.3,.02,.66-.28,.79-.29,.13-.63,0-.78-.27-.14-.27-.03-.62,.26-.78Z"/><path d="M96.38,15.33c.24-.22,.62-.18,.85,.09,.22,.27,.13,.66-.13,.84-.28,.19-.61,.11-.8-.12-.19-.23-.15-.59,.09-.81Z"/><path d="M94.69,13.69c.21-.26,.58-.27,.82-.04,.25,.23,.27,.61,.04,.84-.22,.23-.59,.25-.82,.04-.23-.21-.24-.59-.05-.84Z"/><path d="M92.74,12.36c.16-.28,.53-.38,.83-.21,.29,.19,.35,.58,.16,.84-.19,.27-.54,.32-.79,.15-.27-.15-.36-.5-.2-.78Z"/><path d="M90.61,11.37c.11-.31,.45-.45,.77-.33,.32,.13,.47,.47,.33,.76-.14,.29-.48,.44-.77,.33-.29-.11-.43-.45-.33-.76Z"/><path d="M88.33,10.78c.05-.31,.37-.56,.7-.46,.33,.08,.53,.41,.45,.72-.08,.31-.39,.51-.69,.43-.3-.09-.51-.36-.46-.68Z"/><path d="M85.99,10.57c0-.32,.29-.58,.62-.57,.34,0,.58,.31,.55,.63-.03,.32-.31,.54-.62,.54-.31,0-.56-.28-.55-.6Z"/><path d="M83.64,10.64c-.03-.32,.22-.6,.55-.62,.33-.02,.61,.22,.62,.55,0,.32-.24,.6-.55,.62s-.59-.23-.62-.55Z"/><path d="M81.3,10.93c-.05-.32,.17-.62,.5-.66,.33-.05,.63,.18,.67,.5,.04,.32-.18,.62-.5,.66-.31,.04-.61-.18-.67-.5Z"/><path d="M78.99,11.39c-.07-.32,.13-.63,.46-.69,.32-.07,.64,.14,.7,.46,.06,.32-.14,.63-.45,.69-.31,.06-.63-.14-.7-.46Z"/><path d="M76.7,11.96c-.09-.31,.1-.63,.42-.71,.32-.08,.64,.11,.72,.42,.08,.31-.11,.63-.42,.71-.31,.08-.63-.11-.72-.42Z"/><path d="M74.44,12.63c-.1-.31,.08-.64,.4-.73,.32-.09,.64,.08,.73,.39,.09,.31-.09,.64-.4,.73-.31,.09-.64-.09-.73-.4Z"/><path d="M72.2,13.35c-.1-.31,.07-.64,.38-.74,.31-.1,.64,.07,.74,.38,.1,.31-.07,.64-.38,.74-.31,.1-.64-.07-.74-.37Z"/><path d="M69.97,14.12c-.11-.31,.05-.64,.36-.75,.31-.11,.64,.05,.75,.36,.11,.31-.06,.64-.36,.75-.31,.11-.64-.05-.75-.36Z"/><path d="M67.75,14.91c-.11-.3,.05-.64,.35-.76,.31-.11,.64,.04,.75,.35,.11,.3-.05,.64-.35,.75-.3,.11-.64-.04-.75-.35Z"/><path d="M65.54,15.73c-.11-.3,.04-.65,.35-.76,.31-.11,.65,.04,.76,.35,.11,.3-.04,.64-.35,.75-.3,.11-.64-.04-.76-.34Z"/><path d="M63.34,16.57c-.12-.3,.04-.64,.34-.76,.3-.12,.64,.04,.76,.34,.11,.3-.04,.64-.34,.76-.3,.12-.64-.04-.76-.34Z"/><path d="M61.08,17.25c-.06-.32,.13-.63,.43-.69,.29-.09,.61,.08,.71,.39,.1,.31-.08,.64-.41,.75-.34,.07-.66-.13-.72-.45Z"/><path d="M58.75,17.53c-.01-.33,.23-.59,.54-.61,.31-.04,.59,.2,.63,.52,.04,.32-.2,.61-.54,.65-.34,.03-.62-.24-.63-.56Z"/><path d="M56.39,17.48c.03-.32,.31-.56,.62-.55,.31,.01,.56,.29,.56,.61,0,.32-.28,.58-.62,.56-.34,0-.58-.3-.56-.62Z"/><path d="M54.06,17.18c.05-.32,.35-.54,.67-.49,.31,.05,.54,.35,.5,.67-.04,.32-.34,.54-.67,.49-.33-.05-.55-.35-.5-.67Z"/><path d="M51.75,16.72c.07-.32,.38-.51,.7-.44,.31,.06,.52,.37,.46,.69-.06,.32-.38,.53-.7,.46-.32-.07-.52-.39-.45-.71Z"/><path d="M49.46,16.15c.09-.31,.41-.5,.72-.42,.31,.08,.5,.4,.42,.72-.08,.31-.4,.5-.72,.42-.32-.08-.51-.4-.42-.72Z"/><path d="M47.19,15.5c.09-.31,.42-.49,.73-.39,.31,.09,.49,.41,.4,.72-.09,.31-.42,.49-.73,.4-.31-.1-.49-.42-.4-.73Z"/><path d="M44.94,14.8c.1-.31,.43-.48,.74-.38,.31,.1,.48,.43,.39,.74-.1,.31-.43,.48-.74,.38-.31-.1-.48-.43-.38-.74Z"/><path d="M42.7,14.07c.1-.31,.43-.47,.74-.37,.31,.1,.48,.43,.38,.74-.1,.31-.43,.48-.74,.37-.31-.1-.48-.43-.38-.74Z"/><path d="M40.46,13.34c.1-.31,.43-.47,.74-.37,.31,.1,.48,.43,.38,.74-.1,.31-.43,.47-.74,.37-.31-.1-.48-.43-.38-.74Z"/><path d="M38.22,12.6c.1-.31,.43-.48,.74-.38,.31,.1,.48,.43,.38,.74-.1,.31-.43,.48-.74,.38-.31-.1-.48-.43-.38-.74Z"/><path d="M35.98,11.89c.09-.31,.43-.49,.74-.39,.31,.1,.48,.43,.39,.74-.1,.31-.43,.48-.74,.38-.31-.1-.48-.42-.39-.73Z"/><path d="M33.72,11.22c.09-.31,.42-.49,.73-.4,.32,.09,.49,.42,.4,.73-.09,.31-.42,.48-.73,.4-.31-.09-.49-.42-.4-.73Z"/><path d="M31.45,10.59c.08-.31,.4-.5,.72-.42,.32,.08,.5,.41,.42,.72-.09,.31-.41,.5-.72,.42-.31-.08-.5-.41-.42-.72Z"/><path d="M29.15,10.04c.07-.31,.39-.52,.71-.44,.32,.08,.52,.4,.44,.71-.08,.32-.39,.51-.71,.43-.31-.08-.51-.38-.44-.7Z"/><path d="M26.84,9.59c.05-.32,.36-.53,.69-.47,.33,.06,.54,.37,.47,.69-.06,.32-.37,.52-.69,.47-.32-.06-.53-.36-.47-.68Z"/><path d="M24.51,9.24c.04-.32,.33-.55,.66-.5s.55,.34,.51,.66c-.05,.32-.34,.55-.66,.5-.32-.04-.54-.34-.51-.66Z"/><path d="M22.16,9.05c.01-.32,.3-.57,.63-.56,.33,.02,.58,.32,.55,.64-.03,.33-.31,.56-.63,.54-.32-.01-.56-.29-.55-.61Z"/><path d="M19.81,9.02c-.01-.32,.25-.59,.58-.59,.33,0,.6,.26,.6,.58,0,.32-.26,.59-.58,.59-.32,0-.58-.26-.6-.58Z"/><path d="M17.46,9.22c-.04-.32,.19-.62,.52-.67,.33-.03,.62,.22,.65,.54,.03,.32-.21,.6-.53,.63-.31,.04-.6-.18-.65-.5Z"/><path d="M15.15,9.66c-.08-.31,.12-.63,.45-.7,.33-.07,.64,.13,.7,.45,.06,.32-.14,.63-.45,.7-.31,.07-.62-.13-.7-.45Z"/><path d="M12.9,10.38c-.13-.3,.03-.65,.35-.78,.32-.1,.66,.07,.76,.38,.1,.31-.07,.64-.37,.73-.28,.11-.61-.03-.74-.33Z"/><path d="M10.84,11.51c-.19-.27-.1-.63,.19-.82,.28-.19,.66-.08,.82,.2,.16,.29,.06,.62-.2,.8-.26,.17-.62,.09-.8-.18Z"/><path d="M9.01,12.99c-.22-.24-.2-.61,.05-.83,.25-.22,.62-.2,.83,.06,.2,.25,.18,.62-.06,.83-.23,.21-.6,.18-.83-.05Z"/><path d="M7.4,14.71c-.25-.21-.27-.58-.05-.83,.22-.25,.59-.28,.83-.05,.23,.22,.26,.59,.05,.83s-.58,.26-.83,.05Z"/><path d="M5.99,16.59c-.27-.18-.33-.55-.14-.82,.19-.27,.56-.34,.82-.14,.25,.19,.32,.56,.13,.82-.18,.26-.55,.32-.82,.14Z"/><path d="M4.75,18.6c-.28-.16-.38-.52-.21-.81,.16-.29,.54-.38,.81-.21,.28,.17,.35,.52,.2,.8-.16,.28-.51,.37-.8,.21Z"/><path d="M3.68,20.7c-.29-.14-.42-.49-.28-.79,.15-.3,.51-.42,.8-.27,.29,.15,.4,.5,.26,.78-.14,.29-.48,.41-.78,.28Z"/><path d="M2.76,22.87c-.31-.12-.45-.46-.33-.77,.13-.31,.47-.45,.77-.33,.3,.13,.44,.47,.32,.76-.12,.29-.46,.44-.76,.33Z"/><path d="M2,25.1c-.31-.09-.48-.42-.38-.74,.1-.32,.43-.49,.74-.38,.3,.1,.47,.43,.38,.74-.1,.3-.42,.48-.73,.38Z"/><path d="M1.4,27.37c-.31-.07-.52-.39-.44-.72,.09-.32,.41-.51,.72-.43,.31,.08,.5,.4,.42,.71-.08,.31-.38,.51-.7,.43Z"/><path d="M.95,29.69c-.32-.05-.53-.35-.48-.68,.06-.33,.36-.54,.68-.48,.32,.06,.53,.37,.48,.68-.06,.31-.36,.53-.68,.48Z"/><path d="M.68,32.03c-.32-.02-.56-.31-.53-.64,.02-.33,.33-.57,.65-.53,.33,.04,.54,.33,.52,.64-.03,.32-.31,.55-.63,.53Z"/><path d="M.58,34.38c-.32,0-.6-.27-.58-.6,.01-.33,.28-.59,.61-.58,.32,.01,.58,.28,.57,.6-.02,.32-.27,.58-.59,.58Z"/><path d="M.67,36.74c-.32,.03-.6-.22-.62-.55-.02-.33,.22-.61,.55-.62,.32-.01,.6,.24,.62,.55,.02,.32-.22,.6-.55,.62Z"/><path d="M.97,39.07c-.32,.06-.63-.16-.68-.49-.04-.33,.19-.63,.51-.67,.32-.04,.61,.18,.65,.5,.06,.31-.16,.61-.48,.67Z"/><path d="M1.48,41.37c-.32,.09-.64-.1-.71-.43-.08-.33,.11-.65,.43-.72,.32-.07,.63,.12,.71,.43,.07,.31-.12,.63-.43,.71Z"/><path d="M2.24,43.6c-.3,.12-.64-.04-.76-.35-.12-.31,.04-.65,.35-.76,.3-.1,.63,.06,.75,.35,.11,.29-.04,.63-.34,.75Z"/><path d="M3.23,45.74c-.28,.15-.65,.04-.8-.26-.14-.3-.02-.66,.28-.8,.29-.14,.64-.01,.77,.27,.14,.28,.04,.62-.25,.78Z"/><path d="M4.46,47.75c-.26,.19-.63,.11-.81-.17-.18-.28-.11-.65,.17-.82,.28-.17,.64-.09,.81,.17,.17,.26,.1,.63-.17,.82Z"/><path d="M5.99,49.54c-.23,.23-.6,.22-.84-.03-.24-.24-.21-.63,.04-.84,.25-.21,.6-.18,.82,.04,.22,.22,.21,.59-.02,.82Z"/><path d="M7.77,51.08c-.19,.26-.57,.31-.84,.1-.26-.22-.29-.6-.08-.84,.21-.24,.58-.28,.81-.07,.25,.19,.3,.55,.1,.81Z"/><path d="M9.71,52.41c-.17,.28-.53,.36-.81,.18-.28-.18-.36-.55-.18-.81,.18-.27,.55-.35,.81-.18,.27,.17,.35,.54,.18,.81Z"/><path d="M11.78,53.54c-.14,.29-.5,.41-.8,.26-.3-.15-.4-.52-.24-.8,.16-.29,.51-.38,.79-.24,.29,.14,.4,.49,.26,.78Z"/><path d="M13.92,54.52c-.13,.3-.47,.43-.78,.3-.3-.13-.44-.48-.3-.77,.14-.29,.48-.43,.78-.3,.29,.13,.43,.48,.3,.77Z"/><path d="M16.12,55.39c-.11,.3-.45,.47-.76,.35-.31-.12-.46-.46-.34-.77,.12-.3,.46-.45,.76-.33,.3,.12,.46,.44,.35,.75Z"/><path d="M18.35,56.14c-.1,.31-.43,.48-.74,.38-.31-.1-.48-.44-.38-.74,.1-.31,.44-.47,.74-.37,.31,.1,.48,.43,.38,.74Z"/><path d="M20.6,56.82c-.09,.31-.41,.49-.73,.4-.32-.09-.5-.42-.4-.73s.42-.49,.73-.4c.31,.09,.49,.42,.4,.73Z"/><path d="M22.88,57.42c-.08,.32-.4,.51-.72,.42-.32-.08-.51-.4-.43-.72,.08-.31,.4-.5,.71-.42,.31,.08,.5,.4,.43,.71Z"/><path d="M25.18,57.95c-.07,.32-.38,.52-.71,.45-.32-.08-.52-.39-.44-.71,.07-.31,.39-.51,.7-.44,.32,.07,.52,.38,.45,.7Z"/><path d="M27.49,58.43c-.06,.32-.37,.52-.69,.46-.32-.06-.53-.37-.46-.69,.07-.32,.38-.52,.69-.46,.32,.06,.52,.37,.46,.69Z"/><path d="M29.8,58.86c-.06,.32-.36,.53-.68,.47-.32-.06-.53-.36-.48-.68,.06-.32,.37-.53,.68-.47,.32,.06,.53,.36,.48,.68Z"/><path d="M32.13,59.25c-.05,.32-.35,.54-.68,.48-.32-.05-.54-.36-.49-.68,.05-.32,.36-.54,.68-.48,.32,.05,.54,.36,.49,.67Z"/><path d="M34.46,59.6c-.05,.32-.34,.55-.67,.5-.32-.05-.55-.35-.5-.67,.05-.32,.35-.54,.67-.49,.32,.05,.54,.34,.5,.66Z"/><path d="M36.8,59.91c-.04,.32-.34,.55-.66,.51-.32-.04-.55-.34-.51-.66,.04-.32,.34-.54,.66-.5,.32,.04,.55,.34,.51,.66Z"/><path d="M39.14,60.2c-.04,.32-.33,.55-.65,.51-.32-.04-.56-.33-.52-.65,.04-.32,.33-.55,.65-.51,.32,.04,.55,.33,.52,.65Z"/><path d="M41.48,60.46c-.03,.32-.32,.56-.65,.52-.32-.04-.56-.32-.52-.65,.04-.32,.33-.56,.65-.52,.32,.03,.56,.32,.52,.65Z"/><path d="M43.82,60.69c-.03,.32-.32,.56-.64,.53-.33-.03-.56-.32-.53-.64,.03-.32,.32-.56,.64-.53,.32,.03,.56,.32,.53,.64Z"/><path d="M46.17,60.9c-.03,.32-.31,.56-.64,.53-.33-.03-.56-.31-.54-.64,.03-.32,.31-.56,.64-.53,.32,.03,.56,.31,.54,.64Z"/><path d="M48.52,61.1c-.03,.32-.31,.57-.63,.54-.32-.03-.57-.31-.54-.63,.03-.32,.31-.56,.63-.54,.32,.03,.57,.31,.54,.63Z"/><path d="M50.87,61.28c-.02,.32-.31,.57-.63,.54-.32-.03-.57-.31-.54-.63,.02-.32,.31-.57,.63-.54,.32,.02,.57,.31,.54,.63Z"/><path d="M53.22,61.46c-.02,.32-.31,.57-.63,.54-.32-.02-.57-.31-.54-.63,.02-.32,.31-.57,.63-.54,.32,.02,.57,.31,.54,.63Z"/><path d="M55.57,61.62c-.01,.32-.29,.57-.63,.55-.34-.02-.57-.3-.55-.62,.02-.32,.32-.56,.63-.55,.31,.02,.56,.29,.55,.62Z"/><path d="M57.93,61.6c.02,.32-.24,.6-.57,.61-.33,.02-.6-.25-.61-.57,0-.32,.25-.58,.57-.6,.32-.01,.59,.24,.61,.56Z"/><path d="M60.28,61.41c.04,.32-.2,.61-.53,.65-.33,.03-.62-.21-.64-.54-.03-.32,.21-.6,.53-.63,.32-.04,.61,.2,.64,.52Z"/><path d="M62.61,61.09c.05,.32-.17,.62-.5,.67-.33,.05-.63-.18-.67-.5-.04-.32,.18-.62,.5-.66,.32-.04,.62,.17,.67,.49Z"/><path d="M64.93,60.67c.06,.32-.14,.63-.47,.69-.32,.07-.63-.14-.69-.47-.06-.32,.15-.62,.47-.69,.32-.06,.62,.14,.69,.46Z"/><path d="M67.23,60.16c.08,.32-.12,.64-.44,.71-.32,.07-.64-.13-.71-.44-.07-.32,.13-.63,.44-.7,.31-.07,.63,.12,.71,.44Z"/><path d="M69.51,59.57c.09,.31-.1,.64-.42,.72-.32,.09-.64-.1-.72-.42-.08-.32,.11-.63,.42-.72,.31-.09,.63,.1,.72,.41Z"/><path d="M71.77,58.91c.1,.31-.08,.64-.39,.73-.31,.09-.64-.08-.73-.39-.09-.31,.09-.64,.39-.73,.31-.09,.64,.08,.73,.39Z"/><path d="M74.01,58.17c.11,.3-.06,.65-.37,.75-.31,.1-.65-.06-.75-.37-.1-.31,.06-.64,.37-.74,.31-.1,.64,.05,.75,.36Z"/><path d="M76.22,57.35c.12,.3-.04,.64-.34,.76-.31,.12-.65-.04-.76-.34-.11-.3,.04-.64,.34-.76,.3-.11,.64,.04,.76,.34Z"/><path d="M78.41,56.47c.13,.3-.02,.64-.32,.77-.3,.13-.65-.02-.77-.32-.12-.3,.02-.64,.32-.77,.3-.12,.64,.02,.77,.32Z"/><path d="M80.56,55.51c.14,.29,.01,.65-.29,.78-.3,.13-.65,0-.78-.3-.13-.3,0-.64,.29-.77,.29-.13,.64-.01,.78,.28Z"/><path d="M82.68,54.47c.15,.29,.03,.64-.26,.79-.29,.15-.65,.03-.79-.26-.14-.29-.02-.64,.26-.79,.29-.15,.64-.03,.79,.26Z"/><path d="M84.75,53.35c.16,.28,.06,.64-.23,.8-.29,.16-.65,.06-.8-.23-.15-.29-.05-.64,.23-.8s.64-.05,.8,.23Z"/><path d="M86.77,52.13c.17,.27,.09,.64-.19,.82-.28,.17-.65,.08-.81-.2-.17-.28-.08-.64,.2-.8,.27-.17,.63-.09,.81,.18Z"/><path d="M88.72,50.82c.19,.26,.12,.63-.15,.82-.27,.19-.64,.13-.82-.15-.18-.27-.11-.64,.15-.82,.26-.18,.63-.12,.82,.14Z"/><path d="M90.6,49.4c.21,.25,.16,.63-.1,.83-.26,.2-.63,.15-.83-.1-.19-.26-.15-.63,.11-.82,.26-.19,.62-.15,.82,.1Z"/><path d="M92.38,47.85c.22,.24,.2,.61-.04,.84-.24,.23-.62,.2-.83-.04-.21-.25-.18-.61,.05-.83,.23-.22,.6-.2,.82,.04Z"/><path d="M94.03,46.17c.24,.22,.26,.6,.02,.83-.23,.24-.61,.25-.84,.02-.23-.23-.24-.6-.02-.83,.22-.22,.59-.24,.83-.03Z"/><path d="M95.51,44.34c.26,.19,.31,.56,.11,.83-.2,.27-.57,.32-.83,.11-.25-.2-.29-.57-.1-.82,.19-.25,.55-.3,.82-.11Z"/><path d="M96.78,42.35c.28,.15,.4,.53,.22,.82-.18,.28-.55,.37-.82,.2-.27-.18-.36-.53-.19-.8,.17-.26,.5-.37,.79-.21Z"/><path d="M97.78,40.22c.3,.11,.44,.45,.31,.77-.13,.31-.48,.45-.77,.32-.29-.14-.43-.48-.31-.77,.12-.29,.47-.43,.77-.32Z"/></g><path class="h" d="M72.48,96.17c.34-.59,.93-1.02,.98-1.93,.03-.56-.14-1.15-.14-1.82,0-1.21,.61-1.96,1.23-2.59,.14-.14,.79-.82,.91-.27,.05,.23-.21,.41-.36,.55-.56,.52-1.17,1.23-1.18,2.25,0,.56,.14,1.24,.14,1.78-.01,1.73-1.42,1.9-1.3,3.73,.06,.86,.4,1.66,.73,2.3,.11,.22,.3,.43,.3,.71-.13,.08-.4-.02-.59-.02-.55-1.03-1.31-2.54-.91-4.1-.66-.47-1.28-.9-1.3-1.91,0-.39,.13-.8,.27-1.05,.26-.44,.97-.85,1.07-1.34,.1-.51-.19-1.02-.23-1.48-.1-1.43,.48-2.39,1.21-3.12,.57-.57,1.44-1.15,2.39-1.23,1.74-.14,2.83,1.68,2.12,3.28-.23,.51-.69,.98-1.07,1.37-.38,.39-.97,.84-1.02,1.39-.05,.48,.25,.86,.46,1.21,.25,.43,.6,.89,.48,1.55-.11,.55-.69,.97-1.16,1.23-.15,.09-.49,.26-.82,.39-.29,.11-.74,.26-.77-.09-.02-.26,.3-.35,.52-.43,.25-.1,.49-.2,.66-.3,.34-.19,.93-.53,1-.91,.1-.54-.35-.98-.52-1.3-.21-.37-.47-.83-.43-1.37,.05-.67,.6-1.19,1-1.59,.54-.55,1.25-1.08,1.3-2.03,.05-1.04-.56-1.81-1.5-1.82-.94,0-1.64,.54-2.14,1.02-.63,.61-1.18,1.4-1.09,2.68,.04,.57,.31,1.07,.23,1.62-.12,.76-1,1.11-1.25,1.8-.33,.91,.23,1.48,.82,1.87Z"/><path class="h" d="M3.9,100.66c.33-.09,1.06-.02,1.59-.02H102.67c.28,0,.45,0,.77,0,.75,.02,.74,.73-.02,.75-1.83,.06-3.77,0-5.51,0H5.01c-.56,0-1.23,.07-1.36-.21-.1-.2-.03-.45,.25-.52Z"/><path class="h" d="M83.67,82.46h.25c1.35,.14,1.7,1.04,2.05,2.23,.27,.91,.45,1.9,0,2.66-.23,.39-.6,.74-.93,1.07-.4,.4-.89,.8-.93,1.46-.05,.66,.24,1.38,.3,2.14,.16,2.07-.74,3.23-1.96,4.07-.18,.12-.69,.45-.77,.07-.06-.28,.31-.42,.52-.57,1.03-.73,1.84-1.92,1.62-3.78-.1-.81-.46-1.6-.2-2.41,.38-1.18,1.58-1.55,1.98-2.59,.28-.72-.06-1.66-.3-2.34-.21-.62-.44-1.13-.91-1.32-.74-.3-1.67,.11-2.18,.43-.79,.5-1.49,1.19-1.59,2.23-.13,1.35,.52,2.92-.07,4.05-.45,.87-1.32,1.32-1.77,2.14-.34,.62-.38,1.57-.09,2.21,.29,.62,.93,1.01,1.52,1.25-.2-1.1-.14-2.25,.23-3.03,.37-.78,1.07-1.35,1.32-2.14,.29-.93-.29-2.23,.11-3.14,.26-.59,.92-1.1,1.57-1.41,.2-.1,.59-.19,.64,.11,.06,.36-.65,.54-.89,.71-.43,.3-.83,.69-.89,1.3-.05,.49,.08,1.03,.11,1.52,.11,1.56-.97,2.29-1.46,3.32-.36,.78-.27,1.89-.14,2.78,.23,1.5,.5,3.27,.34,5.14-.02,.18,0,.47-.32,.48-.45-.05-.27-.71-.25-1.07,.07-1.36-.04-2.78-.27-3.89-1.25-.48-2.29-1.17-2.43-2.75v-.36c.06-.87,.43-1.48,.89-1.98,.43-.47,1.03-.92,1.3-1.55,.46-1.06-.14-2.41-.05-3.66,.07-.99,.63-1.72,1.23-2.25,.63-.56,1.41-1.02,2.43-1.11Z"/><path class="h" d="M99.02,91c.56-1.15-.2-2.66,.34-3.73,.31-.62,.91-.97,1.52-1.37,.41-.27,.93-.58,1.11-1,.52-1.18-.71-2.62-.14-3.8,.12-.25,.44-.5,.64-.61,.91-.52,2.36-.65,2.98-1.46,.21-.28,.41-.69,.52-1.09,.07-.25,.1-1.16,.43-1.18,.4-.02,.31,.44,.25,.8-.18,.99-.57,1.78-1.21,2.28-.42,.33-1.02,.56-1.59,.75-.51,.17-1.31,.32-1.5,.82-.16,.42,0,1.03,.09,1.46,.16,.75,.38,1.65,.02,2.37-.26,.51-.82,.87-1.32,1.18-.51,.33-1.13,.68-1.34,1.21-.2,.51-.07,1.27-.02,1.84,.05,.65,0,1.24-.23,1.71-.2,.44-.5,.81-.75,1.23-.96,1.6-.94,4.47-.82,7.01,.01,.25,.04,.58,.07,.93,.02,.22,.07,.64-.23,.66-.36,.02-.34-.54-.36-.91-.23-3.05-.27-6.83,1.18-8.51-.45-.57-.92-1.1-1.34-1.77-.46-.72-1.17-1.89-.71-2.96,.27-.62,.96-1.1,1.55-1.5,.51-.35,1.39-.81,1.57-1.46,.2-.73-.24-1.52-.39-2.28-.23-1.2-.12-2.41,.71-2.89,.89-.52,2.48-.38,2.96-1.21,.25-.44,.27-1.03,.34-1.52,.09-.63,.19-1.31,.5-1.8,.39-.62,1.22-1.01,2.14-1.07,1.39-.09,2.34,.52,2.96,1.23,.63,.72,1.08,1.8,1.09,3.03,.01,1.39-.48,2.36-1.11,3.05-.29,.31-.72,.68-1.16,.93-.39,.23-1.09,.45-1.21,.86-.11,.36,.08,.83,.18,1.21,.11,.39,.21,.83,.2,1.16,0,1.11-.61,1.87-1.25,2.32-.34,.24-.76,.42-1.21,.57-.44,.14-.98,.24-1.16,.61-.29,.62,.07,1.74-.2,2.53-.23,.65-.89,1.08-1.48,1.36-.2,.1-.53,.22-.86,.32-.32,.1-.76,.2-.82-.11-.06-.3,.32-.35,.61-.43,1.04-.3,2.02-.74,2.09-1.98,.05-.85-.15-1.7,.3-2.21,.36-.41,1.05-.53,1.59-.73,.79-.29,1.51-.88,1.73-1.73,.13-.51,.02-1.06-.11-1.55-.11-.41-.33-1.06-.16-1.55,.27-.76,1.2-.97,1.8-1.39,.6-.42,1.09-.98,1.39-1.8,.65-1.81-.11-3.84-1.25-4.62-.95-.65-2.93-.76-3.59,.3-.71,1.12-.24,2.97-1.23,3.75-.37,.29-.93,.44-1.5,.57-.63,.14-1.37,.25-1.64,.8-.6,1.24,.42,2.75,.39,3.94-.03,1.09-.95,1.61-1.68,2.12-.68,.47-1.55,.93-1.62,1.77-.06,.76,.39,1.5,.73,2.03,.38,.59,.77,1.1,1.21,1.52Z"/><path class="h" d="M36.6,62.79l-.52,9.81s-.28,3.26,1.09,4c1.37,.75,3.41,1,3.41,1l1-1.32s-3.03-.47-3.12-2.32c-.08-1.85,.64-10.85,.64-10.85l-2.5-.32Z"/><path class="h" d="M38.08,78.97h-1.14c-.38,0-.71,.31-.75,.68l-1.92,20.02c-.04,.38,.24,.68,.62,.68h1.14c.38,0,.71-.31,.75-.68l1.92-20.02c.04-.38-.24-.68-.62-.68Z"/><path class="h" d="M54.15,78.75h1.14c.38,0,.71,.31,.75,.68l1.92,20.02c.04,.38-.24,.68-.62,.68h-1.14c-.38,0-.71-.31-.75-.68l-1.92-20.02c-.04-.38,.24-.68,.62-.68Z"/><g><path class="f" d="M36.92,75.55h18.67c1.01,0,1.82,.81,1.82,1.82v1.64c0,.38-.31,.68-.68,.68h-20.94c-.38,0-.68-.31-.68-.68v-1.64c0-1.01,.82-1.82,1.82-1.82Z"/><path d="M56.72,79.98h-20.94c-.53,0-.97-.43-.97-.97v-1.64c0-1.16,.94-2.11,2.11-2.11h18.67c1.16,0,2.1,.95,2.1,2.11v1.64c0,.53-.43,.97-.97,.97Zm-19.8-4.14c-.85,0-1.54,.69-1.54,1.54v1.64c0,.22,.18,.4,.4,.4h20.94c.22,0,.4-.18,.4-.4v-1.64c0-.85-.69-1.54-1.54-1.54h-18.67Z"/></g><path class="f" d="M60.3,5.03v4.06c1.5,0,2.71,1.21,2.71,2.71s-1.21,2.71-2.71,2.71v5.52h-4.72c0,1.49-1.22,2.7-2.71,2.7s-2.7-1.21-2.71-2.7h-4.8v15.01h29.93v-15s.01-15.01,.01-15.01h-15.01Z"/><g><path class="f" d="M36.13,46.69h10.47c1.51,0,2.73,1.22,2.73,2.73v13.02c0,1.51-1.22,2.73-2.73,2.73h-10.47c-1.51,0-2.73-1.22-2.73-2.73v-13.02c0-1.51,1.22-2.73,2.73-2.73Z"/><path d="M46.6,65.45h-10.47c-1.66,0-3.02-1.35-3.02-3.02v-13.02c0-1.66,1.35-3.02,3.02-3.02h10.47c1.66,0,3.01,1.35,3.01,3.02v13.02c0,1.66-1.35,3.02-3.01,3.02Zm-10.47-18.48c-1.35,0-2.45,1.1-2.45,2.45v13.02c0,1.35,1.1,2.45,2.45,2.45h10.47c1.35,0,2.45-1.1,2.45-2.45v-13.02c0-1.35-1.1-2.45-2.45-2.45h-10.47Z"/></g><path d="M75.31,35.32h-29.93c-.16,0-.28-.13-.28-.28v-15.01c0-.16,.13-.28,.28-.28h4.8c.16,0,.28,.13,.28,.28,0,1.33,1.09,2.41,2.42,2.41s2.42-1.08,2.42-2.41c0-.16,.13-.28,.28-.28h4.43v-5.24c0-.16,.13-.28,.28-.28,1.34,0,2.42-1.09,2.42-2.42s-1.09-2.42-2.42-2.42c-.16,0-.28-.13-.28-.28V5.03c0-.16,.13-.28,.28-.28h15.01c.16,0,.28,.13,.28,.28v15.01s0,.05-.01,.08v14.92c0,.16-.13,.28-.28,.28Zm-29.65-.57h29.36v-14.71s0-.05,.01-.08V5.31h-14.44v3.5c1.52,.14,2.71,1.43,2.71,2.98s-1.19,2.84-2.71,2.98v5.25c0,.16-.13,.28-.28,.28h-4.45c-.15,1.51-1.43,2.7-2.98,2.7s-2.83-1.19-2.98-2.7h-4.24v14.44Z"/><path d="M67.84,22.99c-1.53,0-2.81-1.17-2.98-2.67h-4.79c-.16,0-.28-.13-.28-.28s.13-.28,.28-.28h5.06c.16,0,.28,.13,.28,.28,.02,1.32,1.1,2.39,2.42,2.39s2.41-1.07,2.42-2.39c0-.16,.13-.28,.28-.28h4.78c.16,0,.28,.13,.28,.28s-.13,.28-.28,.28h-4.51c-.16,1.5-1.44,2.67-2.98,2.67Z"/><path d="M60.45,35.32c-.16,0-.28-.13-.28-.28v-4.26c-1.5-.16-2.67-1.44-2.67-2.97s1.18-2.81,2.67-2.98v-4.79c0-.16,.13-.28,.28-.28s.28,.13,.28,.28v5.06c0,.16-.12,.28-.28,.28-1.32,.02-2.39,1.1-2.39,2.42s1.07,2.41,2.39,2.42c.16,0,.28,.13,.28,.28v4.53c0,.16-.13,.28-.28,.28Z"/><path class="g" d="M56.94,6.51c-.2-1.48-1.57-2.52-3.05-2.32l-.55-4.02-14.88,2.02,2.02,14.89,4.75-.65c.2,1.49,1.57,2.53,3.05,2.33,1.48-.2,2.52-1.57,2.32-3.05,0-.01,4.75-.66,4.75-.66l-.75-5.49c1.48-.2,2.52-1.57,2.32-3.05Z"/><path d="M47.95,19.19c-.65,0-1.28-.21-1.81-.61-.56-.43-.95-1.03-1.1-1.71l-4.48,.61c-.15,.02-.3-.09-.32-.24l-2.02-14.88c-.01-.07,0-.15,.06-.21,.05-.06,.11-.1,.19-.11L53.34,0c.07-.01,.15,0,.21,.06,.06,.05,.1,.11,.11,.19l.51,3.75c.7-.03,1.37,.18,1.93,.61,.64,.48,1.05,1.19,1.15,1.98,.21,1.54-.8,2.97-2.28,3.32l.71,5.22c.01,.07,0,.15-.06,.21-.05,.06-.11,.1-.19,.11l-4.49,.61c.06,1.53-1.05,2.89-2.59,3.1-.14,.02-.27,.03-.41,.03Zm-2.68-2.93c.06,0,.12,.02,.17,.06,.06,.05,.1,.11,.11,.19,.09,.65,.42,1.22,.94,1.61,.51,.39,1.15,.56,1.79,.47,1.32-.18,2.26-1.4,2.08-2.73-.02-.16,.09-.31,.24-.33l4.47-.61-.71-5.21c-.02-.16,.09-.3,.24-.32,1.32-.18,2.26-1.4,2.08-2.73-.09-.64-.42-1.21-.94-1.6-.52-.39-1.15-.56-1.79-.47-.08,.01-.15,0-.21-.05-.06-.05-.1-.11-.11-.19l-.51-3.74-14.31,1.94,1.95,14.32,4.47-.61s.03,0,.04,0Z"/><path class="f" d="M85.28,62.82s8.75,13.55,9.49,14.34c.74,.79,2.28,2.33,1.57,4.05-.71,1.72-3.12,5.35-4.82,6.83-1.7,1.48-2.26,1.05-2.66,.66-.4-.39-.39-1.25-.39-1.25,0,0-2.34,2.38-3.14,2.43-.81,.06-1.67-1.68-1.39-2.89,.29-1.21,.93-5.42,.93-5.42,0,0-11.58-12.13-14.5-14.56-2.91-2.44-4.24-4.84-4.16-6.19,.08-1.35,.63-3.55,2.28-4.35,1.65-.8,11.04-2.37,11.04-2.37l3-4.89s-1.23-.57-1.43-1.32c-.2-.75-.64-2.62-.64-2.62,0,0-1.03-.3-1.41-.59-.38-.29-.73-.77-.73-.77,0,0-4.31,1.79-5.42,.46-1.11-1.34-4.39-9.35-4.39-9.35l-.89-1.05s-1.42-.66-1.37-1.36c.06-.7,.73-1.41,.73-1.41,0,0,.77-.72,.98-.71,.2,.02,.45,.14,.45,.14,0,0,.25-.65,.52-.64,.27,.01,.39-.05,.39-.05,0,0-1.43-3.2-1.11-3.53,.32-.33,.6-.66,.91-.09,.31,.57,2.12,4.57,2.12,4.57,0,0,.37-1.7,.75-1.57,.38,.13,.48,.07,.45,.41-.02,.34-.12,1.68-.11,2.21,0,.53,.05,2.09,.05,2.09l3.12,5.17s2.68-2.21,3.94-2.43c1.26-.22,2.84-.42,2.94-.71,.09-.29,.32-3.25,.32-3.25,0,0-1.54,.38-2.16-.59-.63-.97-.91-2.18-.91-2.18,0,0-.35-.29-.48-.59-.13-.31-.11-.35,.05-.5,.15-.15,.69-.25,1.3-1.91,.61-1.66,2.21-2.84,4.37-2.03,2.16,.81,2.85,.32,4.53,7.21,1.67,6.9,3.76,13.25,3.39,13.58-.37,.34-1.09,.27-1.09,.27,0,0,3.47,8.15,4.32,10.08,.86,1.93,1.52,3.32,1.41,3.91-.1,.59,.04,.86-.45,.93-.5,.07-11.81,.52-11.81,.52l.14,1.3Z"/><path class="h" d="M81.28,27.8c-.19-.06-.4,.05-.45,.24l-.12,.39c-.06,.19,.05,.4,.24,.45,.19,.06,.4-.05,.45-.24l.12-.39c.06-.19-.05-.4-.24-.45Z"/><path class="f" d="M94.37,57.75c-.24-1.53-.76-2.98-1.35-4.4-.21-.5-.43-.99-.66-1.48-.25-.54-.52-1.08-.74-1.64-.16-.41-.3-.83-.45-1.25-.02-.03-7.52,.3-7.52,.3l-3.32,5.8s-7.03,.07-11.75,2.28c-4.72,2.21-.71,6.28-.71,6.28l14.73,14.71c.06-.46,.16-.92,.33-1.35,.13-.34,.28-.72,.5-1.02,.14-.18,.27-.36,.44-.52,.16-.15,.34-.28,.52-.41,.23-.16,.48-.3,.74-.42,.31-.14,.63-.29,.96-.38,.36-.1,.75-.12,1.12-.15,.03-.09,.06-.19,.11-.28,.12-.24,.3-.47,.51-.64,.13-.11,.27-.22,.43-.3,.15-.08,.3-.14,.46-.2,.27-.1,.55-.16,.82-.25,.14-.1,.23-.19,.34-.24,.27-.14,.48-.2,.78-.23,.12-.01,.24,0,.35,.03,.16-.02,.31-.02,.45-.01-.17-.26-.34-.51-.52-.76-.24-.25-.46-.52-.65-.81-.17-.27-.32-.54-.47-.81-.07-.13-.15-.25-.22-.37-.17-.19-.33-.39-.48-.6-.31-.41-.54-.87-.76-1.32-.15-.26-.31-.52-.49-.77-.24-.3-.5-.6-.74-.91-.25-.32-.49-.71-.56-1.11,0-.03,0-.06-.01-.08-.16-.13-.3-.27-.41-.47-.22-.4-.2-.88,.04-1.24l-.84-1.3,7.19-.25c.1-.13,.22-.24,.36-.34,.23-.17,.47-.33,.7-.5,.09-.07,.18-.15,.27-.22,0-.09,.01-.19,.03-.28,.11-.53,.36-1.02,.46-1.55,.01-.17,0-.34-.02-.52Z"/><g><path class="f" d="M83.92,53.09s-.15,2.02,.64,2.98c.79,.96,2.16,1.8,2.16,1.8,0,0,1.6-.85,1.77-2.05,.18-1.2-.11-2.57-.11-2.57l-4.46-.16Z"/><path class="f" d="M91.09,53.09s-.31,1.73,.48,2.75,2.18,1.82,2.18,1.82l.48-.36s.15-.74-.43-2.03c-.58-1.29-1.09-2.37-1.09-2.37l-1.62,.18Z"/></g><path class="g" d="M91.78,51.44c.44,.01,.89,.05,1.33,.02,.02,0,.75-.18,.77-.19l-2.43-5.65-1.97,.41,1.39,3.6,.91,1.82Z"/><g><path class="g" d="M81.13,43.36s.61-.94,.91-2.78c.31-1.89,.27-3.69,.27-3.69l-.64-.05s-2.35,.46-3.14,.96-2.94,1.98-2.94,1.98l-1.52-2.57s-1.86-.2-2.71,.96c-.85,1.15-.52,1.64-.52,1.64l1.77,4.39s.4,1.77,1.87,1.48c1.47-.29,6.64-2.32,6.64-2.32Z"/><g class="m"><path class="g" d="M80.84,42.91s.61-.95,.91-2.78c.31-1.89,.27-3.69,.27-3.69l-.64-.27s-2,.51-3.14,1.18c-1.14,.67-2.94,1.98-2.94,1.98l-1.52-2.57s-1.72-.38-2.57,.77c-.85,1.15-.86,1.57-.86,1.57l1.98,4.64s.4,1.77,1.87,1.48c1.47-.29,6.64-2.32,6.64-2.32Z"/></g></g><path d="M70.42,39.49c-.16,0-.3-.11-.33-.27-.18-.85,.51-1.96,1.6-2.58,.7-.4,1.46-.53,2.02-.35,.35,.11,.61,.33,.75,.63,.08,.17,0,.37-.16,.46-.17,.08-.37,0-.45-.16-.06-.13-.18-.22-.34-.28-.38-.12-.95,0-1.48,.3-.82,.47-1.39,1.29-1.27,1.84,.04,.18-.08,.37-.26,.41-.02,0-.05,0-.07,0Z"/><path d="M82.72,77.43c-.08,0-.15-.03-.21-.09-.53-.57-12.97-13.98-14.24-16.16-.42-.73-.51-1.4-.26-2,.43-1.03,1.76-1.47,2.31-1.61,.65-.17,1.75-.4,4.56-.76,1.39-.17,3-.32,4.17-.43,.7-.06,1.36-.13,1.63-.16l2.27-6.07c.05-.15,.22-.22,.37-.17,.15,.05,.22,.22,.17,.37l-2.32,6.21s-.02,.05-.04,.08q-.1,.14-2.02,.32c-1.17,.11-2.77,.26-4.16,.43-2.78,.35-3.86,.58-4.49,.74-.36,.09-1.58,.46-1.92,1.28-.18,.42-.1,.92,.23,1.49,1.23,2.13,14.03,15.92,14.16,16.06,.11,.11,.1,.29-.02,.4-.05,.05-.12,.08-.19,.08Z"/><path d="M81.23,78.2c-.12,0-.23-.08-.27-.19-.02-.06-.43-1.36,.79-2.99,2.16-2.9,4.39-2.25,4.48-2.22,.15,.05,.23,.21,.19,.36-.05,.15-.21,.23-.36,.19-.08-.02-1.95-.54-3.86,2.01-1.03,1.38-.72,2.43-.71,2.47,.05,.15-.04,.31-.18,.36-.03,0-.06,.01-.09,.01Z"/><path d="M82.46,79.43c-.12,0-.23-.07-.27-.19-.02-.06-.43-1.36,.79-2.99,2.16-2.89,4.39-2.25,4.48-2.22,.15,.05,.23,.21,.19,.36-.05,.15-.21,.23-.36,.19-.08-.02-1.95-.54-3.86,2.01-1.03,1.38-.72,2.43-.71,2.47,.05,.15-.04,.31-.18,.36-.03,0-.06,.01-.09,.01Z"/><path d="M85.98,72.87s-.09-.01-.14-.04c-.14-.08-.19-.25-.11-.39,.04-.07,.92-1.63,2.78-2.09,1.31-.33,2,.06,2.03,.07,.14,.08,.18,.25,.1,.39-.08,.14-.25,.18-.39,.11,0,0-.54-.29-1.61-.02-1.61,.41-2.41,1.81-2.42,1.82-.05,.09-.15,.15-.25,.15Z"/><path d="M86.95,74.33s-.09-.01-.14-.04c-.14-.08-.19-.25-.11-.39,.04-.07,.93-1.63,2.78-2.09,1.31-.33,2,.06,2.03,.07,.14,.08,.18,.25,.1,.39-.08,.14-.25,.18-.39,.11,0,0-.55-.29-1.61-.02-1.61,.41-2.41,1.81-2.42,1.82-.05,.09-.15,.15-.25,.15Z"/><g><path class="h" d="M96.82,79.79s-1.03-.88-2.12,.2c-1.08,1.08-2.19,2.28-3.82,4.64-1.63,2.36-2.01,3.19-1.84,3.62,.17,.42,.11,.5,.11,.5l-.84-1.28s2.66-3.93,3.19-4.91c.53-.99,.55-1.82,.55-1.82,0,0,.1-2.68,.77-3.28,.68-.59,1.75-.52,1.75-.52,0,0,1.18,1.25,1.52,1.68,.34,.43,.73,1.16,.73,1.16Z"/><path class="h" d="M92.17,80.52s-1.31-.6-2.66,1.62c-1.36,2.22-3.14,4.4-3.85,5.35-.7,.95-1.11,1.78-.89,1.91,.23,.13-.84-.9-.75-1.73,.09-.83,.25-2.48,.25-2.48l.84,.43,2.48-3.66s.05-2.74,.66-3.32c.61-.58,.91-1.22,1.41-.77,.5,.45,2.5,2.66,2.5,2.66Z"/></g><path class="h" d="M83.61,30.79l-.89,13.99s-.33,1.07,.5,1.18c.83,.11,8.78,0,8.78,0,0,0,1.01-.03,.89-.64-.12-.61-4.8-17.93-4.8-17.93,0,0-.44-2.13-3.07-2.66-2.66-.54-3.58,.67-3.57,.68,0,0,.28,1.42,.68,2.03,.41,.61,.84,1.48,.84,1.48,0,0,1.25-.49,1.55,.36,.3,.85-.91,1.5-.91,1.5Z"/><g><path class="h" d="M92.05,46.28c1.7,3.87,3.4,7.57,5.05,11.51,.21,.51,.6,1.19,.66,1.68,.09,.72-.19,1.47-.64,1.71-.51,.27-1.54,.24-2.3,.27-.42,.02-.84,.01-1.25,.02-.42,.01-.86-.04-1.23,0-.15,.02-.36,.16-.57,.18-.75,.09-1.6,0-2.41,0-4.79,0-9.54-.02-14.29-.02h-1.21c-.34,0-.83,.01-.82-.36,.01-.33,.4-.32,.89-.32,5.56,0,11.05,.04,16.68,.05,.39,0,.83,.04,1.16-.02,.27-.05,.58-.32,.82-.5,.76-.57,1.32-1.37,1.32-2.64-.51,.11-1.15-.39-1.57-.73-.91-.73-1.49-1.75-1.59-3.37-.02-.34-.05-.75,.09-.89,.23-.23,.89-.04,1.23-.11-.31-.78-.75-1.63-1.11-2.43-2.83,.03-5.97,.09-8.83,.09-.67,1.06-1.4,2.24-2.09,3.39-.12,.2-.18,.44-.32,.52-.13,.08-.46,.1-.73,.14-2.73,.41-5.28,.86-7.85,1.43-.95,.21-1.97,.37-2.66,.77-.63,.37-1.08,1.05-1.41,1.84-.32,.78-.59,1.73-.48,2.78,.07,.64,.39,1.23,.66,1.77,.27,.54,.7,.97,1.07,1.37,5.27,5.67,10.79,10.93,16.29,16.43,.2,.19,.54,.49,.57,.64,.05,.24-.07,.62-.11,.89-.14,.8-.31,1.74-.43,2.53,.2,.1,.42,.17,.57,.32,.71-1.19,1.45-2.36,2.18-3.53,.19-1.8,.24-3.85,1.98-4.12-3.52-4.79-7.53-9.6-11.47-14.17-.23-.27-.75-.68-.68-1.02,.02-.11,.13-.24,.27-.25,.36-.04,.84,.76,1.02,.98,3.98,4.61,7.87,9.31,11.54,14.24,.56,.75,1.1,1.53,1.8,2.16,.22-1.41,.69-2.59,2.16-2.75-2.71-4.14-5.63-8.5-8.42-12.81-.17-.27-.78-1.02-.18-1.11,.38-.06,.71,.66,.89,.93,1.71,2.55,3.36,5.19,5.03,7.69,.99,1.48,1.89,2.77,2.91,4.35,.46,.71,.96,1.32,1.59,2.05,.54,.62,1.28,1.47,1.07,2.62-.18,.99-.76,1.86-1.25,2.64-.99,1.55-2.18,3.08-3.39,4.39-.5,.54-1.39,1.48-2.14,1.75-.7,.25-1.48-.32-1.75-.73-.1-.15-.13-.23-.2-.48-.36,.3-.72,.71-1.14,1.07-.38,.33-.92,.86-1.41,.93-.84,.13-1.5-.48-1.73-1.05-.28-.69-.25-1.67-.16-2.46,.14-1.15,.33-2.4,.55-3.62,.07-.39,.23-.87,.2-1.16-.01-.15-.35-.45-.55-.64-4.71-4.71-9.4-9.24-14.02-14.04-.78-.81-1.56-1.62-2.37-2.5-.36-.39-.75-.85-1.02-1.41-.26-.55-.56-1.21-.61-1.82-.08-.86,.09-1.7,.27-2.37,.35-1.28,1.07-2.53,2.21-3.03,.59-.26,1.28-.44,2-.61,2.84-.67,5.84-1.13,8.87-1.62,.96-1.48,1.87-3.02,2.78-4.55-1.41-.46-1.5-2.23-1.87-3.73-1.07-.1-1.76-.59-2.16-1.36-.69,.24-1.27,.47-1.91,.7-.64,.23-1.29,.52-2.07,.52-.77,0-1.22-.45-1.57-1.02-.99-1.62-1.68-3.4-2.53-5.26-.4-.88-.81-1.77-1.23-2.66-.14-.3-.25-.64-.41-.89-.13-.21-.43-.3-.59-.55-.14-.22-.16-.44-.3-.66-.78-.24-1.53-.99-1.52-1.91,0-.63,.49-1.34,1.09-1.48,.24-.32,.4-.72,1-.68,.24-.24,.42-.54,.82-.61-.13-.39-.32-.8-.5-1.25-.16-.41-.39-.87-.43-1.3-.07-.64,.29-1.4,.93-1.32,.66,.09,1.02,1.28,1.25,1.82,.35,.8,.63,1.47,.91,2.16,.17-.17,.23-.48,.52-.66,.34-.21,.95-.18,1.16,.14,.14,.22,.07,.66,.02,1.02-.1,.73-.08,1.47-.05,2.28,.02,.39-.02,.81,.05,1.14,.04,.2,.22,.42,.34,.64,.81,1.49,1.6,3.01,2.39,4.46,.98-.6,1.87-1.3,2.93-1.84,1.07-.55,2.33-.79,3.78-1,.11-.9,.15-1.87,.2-2.82-1.62,.21-2.48-.82-2.87-2.16-.1-.35-.39-1.2,.16-1.18,.37,0,.33,.45,.43,.77,.29-.04,.4-.48,.75-.45,.15,.01,.28,.11,.3,.27,.06,.46-.57,.61-.82,.86,.28,.62,.61,1.18,1.41,1.23,.41,.03,1.01-.22,1.23-.02,.24,.21,.05,1.52,.02,1.93-.02,.3-.04,.67-.07,1-.06,.69-.08,1.21-.75,1.25,.22,.15,.67,.26,.91,.39,.16-1.94,.29-3.9,.43-5.85-.19-.1-.57-.1-.59-.34-.05-.67,1.44-.31,1.21-1.39-.02-.11-.21-.37-.45-.39-.38-.03-.75,.6-1.16,.46-.07-.02-.19-.18-.2-.25-.04-.28,.2-.3,.25-.48-.23-.49-.5-.94-.96-1.21-.74,.23-.65-.75,.05-.57-.1-.28-.2-.56-.3-.84-.32,.24-.5,.74-.68,1.27-.18,.53-.29,1.31-.64,1.57-.3,.23-1.32,.48-1.34-.04-.02-.47,.61-.31,.91-.5,.39-.94,.56-1.96,1.16-2.68,.57-.68,1.31-1.3,2.43-1.39,1.22-.09,2.39,.27,3.21,.68,1.76,.88,2.29,2.84,2.8,4.96,.75,3.12,1.43,6.31,2.25,9.37,.39,1.46,.81,3.04,1.23,4.57,.14,.49,.38,1.07,.39,1.55,0,.63-.29,.9-.96,.84Zm-.48-3.66c-.27-.97-.53-1.95-.8-2.93-.79-2.94-1.43-5.99-2.16-9.01-.49-2.03-.84-4.11-2.46-5.01-1.04-.57-3.38-1.13-4.32-.11,.3,1.07,.77,1.98,1.27,2.84,.7-.32,1.38,.15,1.57,.71,.25,.72-.17,1.43-.75,1.73-.25,3.68-.51,7.37-.77,11.04-.09,1.22-.21,2.46-.18,3.69,.34,.1,.72,.09,1.09,.09,2.77,0,5.55,.07,8.26-.07-.15-1.01-.48-1.97-.75-2.96Zm-24.57-9.37c-.19-.28-.27-.8,.16-.8,.37,0,.49,.65,.64,1,.08,.19,.18,.4,.25,.57,.09,.2,.14,.43,.25,.57,.12,.15,.4,.26,.5,.41,.22,.32,.4,.79,.59,1.21,.59,1.25,1.13,2.51,1.68,3.73,.54,1.18,1.08,2.51,1.75,3.64,.23,.4,.49,.88,.82,1,.55,.2,1.46-.15,1.93-.32,1.42-.5,2.72-1.02,4.12-1.57,.37-.15,1.14-.56,1.11,.07-.01,.34-.69,.5-.98,.61-.43,.17-.78,.28-1.16,.43,.18,.44,.52,.72,1.02,.86,.27,.08,.67,.02,.91,.14,.29,.15,.38,1.27,.45,1.59,.25,1.11,.44,2.03,1.52,2.23,.57,.11,1.39,.05,2.05,.02,1.84-.08,3.73-.09,5.48-.18-.27-.71-.57-1.4-.82-2.14h-4.87c-.52,0-1.15,.04-1.57-.07-.69-.19-.62-.83-.57-1.62,.15-2.4,.51-4.75,.66-7.08-.29-.15-.68-.3-.98-.46-.24-.13-.62-.37-.89-.39-.33-.02-.8,.14-1.21,.25-1.15,.31-2.09,.97-2.89,1.5-.86,.57-1.72,1.17-2.55,1.82-.2,.16-.62,.61-.93,.55-.1-.02-.24-.13-.23-.34,.01-.34,.53-.56,.75-.73,.33-.26,.6-.45,.82-.68-.8-1.47-1.69-3.09-2.5-4.6-.12-.23-.29-.48-.34-.68-.08-.32-.04-.71-.05-1.07-.02-1.11-.1-2.2,.09-3.16-.29,.01-.39,.24-.48,.46-.08,.21-.15,.55-.11,.82,.03,.25,.24,.39,.2,.64-.02,.17-.17,.28-.34,.27-.25,0-.35-.28-.46-.52-.55-1.22-.98-2.35-1.48-3.5-.21-.48-.36-1.01-.71-1.3-.32,.56,.08,1.17,.27,1.66,.21,.54,.43,1.08,.61,1.59,.17,.16,.44,.22,.43,.5,0,.2-.15,.31-.32,.32-.29,.02-.68-.55-.98-.14,.09,.18,.27,.17,.25,.43-.04,.5-.57,.2-.86,.11-.25-.07-.31-.04-.46,.16,.14,.18,.38,.21,.36,.5-.04,.6-.79,.09-.98-.02-.59,.3-.51,1.4-.02,1.68Zm23.03,13.08c.58,1.72,1.34,3.26,2.07,4.82h1.37c-.71-1.63-1.44-3.24-2.16-4.85-.44-.01-.82,.04-1.27,.02Zm.25,2.82c-1.12,.1-2.42,.07-3.73,.11-1.29,.04-2.6,.1-3.78,.05-.06,.13-.27,.34-.2,.43,2.67-.05,5.35-.08,8.05-.09-.08-.25-.13-.52-.34-.5Zm3.82,6.14c.23,.56,.47,1.22,.5,1.96,.03,.74-.05,1.47-.3,2.16,.16,.09,.27,.13,.27,.34,0,.55-1.07,.66-1.27,1.07,.69-.03,1.29-.03,2.05-.07,.47-.02,1.17,0,1.46-.18,.22-.14,.33-.66,.27-1.05-.04-.29-.25-.63-.39-.96-.91-2.22-1.97-4.57-2.87-6.64-.45,.02-.96-.03-1.36,.02,.49,1.01,1.15,2.15,1.64,3.34Zm-2.8-1.98c-.02,2.12,.91,3.29,2.32,3.98,.51-.15,.16-.92,.02-1.3-.36-.98-.87-1.93-1.25-2.71-.38-.01-.73,.02-1.09,.02Zm.45,29.47c-.83,1.41-1.6,2.56-2.53,3.84-.17,.24-.5,.57-.52,.75-.03,.19,.12,.6,.2,.75,.16,.27,.57,.52,.86,.5,.32-.02,.83-.5,1.11-.75,1.05-.92,1.82-1.9,2.64-2.98,.81-1.07,1.6-2.13,2.25-3.34,.21-.39,.47-.94,.48-1.41,.01-1.02-.78-1.67-1.3-2.25-.13-.15-.29-.38-.43-.43-.19-.06-.71-.03-.8,0-.95,.33-1.17,1.62-1.32,2.8,.46,.9-.24,1.81-.66,2.53Zm-7.17,6.12c.15,.23,.52,.5,.84,.48,.32-.03,.83-.5,1.11-.75,1.04-.89,1.85-1.95,2.59-3.03,.8-1.15,1.48-2.18,2.18-3.44,.19-.34,.6-.9,.59-1.3-.01-.52-.61-.89-.93-1.23-.17-.18-.33-.39-.48-.59-.16-.22-.31-.47-.5-.59-.18-.12-.67-.29-.84-.18-.7,.45-.83,1.28-.96,2.25-.06,.42-.06,.97-.18,1.37-.1,.31-.41,.73-.64,1.09-.48,.78-.86,1.34-1.34,2.12-.21,.34-.44,.96-.8,.96-.36,0-.38-.41-.73-.43-.1,.89-.41,2.52,.07,3.28Z"/><path class="h" d="M82.56,30.15c-.06-.12-.15-.25-.02-.41,.06-.07,.69-.31,.84-.34,.22-.04,.36,.11,.36,.27,0,.36-.86,.56-1.18,.48Z"/><path class="h" d="M83.91,52.88c.24-.07,.84-.04,1.16-.02,.72,.03,1.45,.02,2.25,.02,.33,0,.85-.04,1.07,.07,.26,.12,.27,.53,.34,.89,.07,.36,.14,.67,.14,1.09,0,1.25-.57,2.07-1.32,2.68-.2,.17-.6,.49-.82,.5-.19,0-.53-.23-.73-.34-.7-.4-1.29-.9-1.68-1.52-.19-.3-.45-.74-.59-1.55-.07-.39-.25-1.67,.14-1.82,.01,0,.03,0,.05,0Zm.27,.59c-.03,2.22,1.01,3.37,2.53,4.05,.72-.48,1.52-1.12,1.59-2.28,.04-.63-.07-1.24-.2-1.8-1.27-.03-2.6,0-3.87-.05-.03,0-.05,.03-.05,.07Z"/></g><path class="f" d="M63.88,91.08l5.2-19.41s.36-3.13-1.57-3.98c-1.93-.85-15.04-2.23-15.04-2.23l2.73-10.99,5.26,5.51,4.41-3.91-5.6-9.49s-1.29-2.16-3.8-2.3c-2.51-.13-4.6,.04-4.48-.73,.11-.77,.84-3.73,.84-3.73,0,0,2.39-.85,2.21-2.71-.18-1.86-1.14-4.03-1.14-4.03l.64-1.96-1.02,.3-.23-2.39s-.4,1.19-.75,1.46c-.35,.26-.73,.57-.73,.57l-.66-.96-.8,1.23s-3.19-.18-4.05,1.23c-.86,1.41-.86,2.03-.86,2.03l-.66,.39,.82,.66s.12,2.69,1.34,3.64c1.22,.95,2.05,.84,2.05,.84l-.48,2.84s-.08,1.18-.86,1.27c-.79,.09-5.03-.7-6.37,1.05-1.34,1.75-2.49,4.81-3.44,7.33-.95,2.52-2.44,7.42-1.64,8.42,.8,1,4.44,.52,4.44,.52l-.52,.68s-2.18,7.72-1.75,9.56c.42,1.83,1.3,3.54,2.96,3.87,1.66,.33,5.46,.16,5.46,.16l2.94,24.94,9.72,.02,.05-.32,6.74-.11s-.45-2.58-1.84-3.32c-1.39-.74-2.39-1.02-2.39-1.02l1.38-5.14,1.52,.23Zm-8.18,5.8l-2.05-.75-.75-5.26,1.23-.05-.64-15.93,7.24,.09-5.03,21.89Z"/><g><path class="h" d="M56.37,94.63l-.73,2.12s.94,.36,1.48,.98c.54,.62,.82,.98,.82,.98l1.8,.23s.37-.97,1.34-1.48c.98-.51,1.8-.48,1.8-.48l-1.91-.84,.32-1.11-4.92-.39Z"/><path class="h" d="M48.07,95.36l.25,1.68s.65,.66,.96,1.09c.3,.43,.43,1.05,.43,1.05l2.64,.23s.6-1.21,1.55-1.68c.95-.48,2.48-.3,2.48-.3l-2.73-1.23-.23-1.21-5.35,.36Z"/></g><path class="h" d="M49.39,35.19c.18-.05,.37,.05,.42,.23l.1,.35c.05,.18-.05,.37-.23,.42-.18,.05-.37-.05-.42-.23l-.1-.35c-.05-.18,.05-.37,.23-.42Z"/><path class="h" d="M52.78,33.14l-1.05-1s-.95,.39-2.18,.64c-1.24,.25-2.61,.04-2.62,.8-.01,.76,1.52,3.76,1.52,3.76l-.5,.14s-.31-.02-.57-.27c-.26-.26-.43-.46-.43-.46,0,0-1.34,.34-.77,1.23,.56,.89,.93,.84,1.16,.91,.23,.07,.57,.02,.57,.02,0,0,.42,.37,.36,.52-.05,.15-.43,.8-.43,.8,0,0-1.85-.35-2.73-2.18-.89-1.84-.71-2.32-.71-2.32l-.71-.48,.84-.73s-.15-1.92,1.96-2.66c2.11-.74,2.84-.77,2.84-.77l.86-1.12,.68,.89s.71-.33,.93-.77c.22-.45,.55-.86,.55-.86l.27,2.14,.91-.07-.77,1.87Z"/><path class="h" d="M47.56,90.77l6.46-.05-.75-15.81,7.35-.09-3.34,15.61,6.51,.43,5.19-19.05s1.06-3.77-2.84-4.73c-3.9-.96-13.63-1.53-13.63-1.53l-1.89,.34,.28-1.11-7.6,.14-.53,1.83-4.56,.09-.9,2.94s-.24,4.94,2.62,5.71c2.85,.77,5.83,.27,5.83,.27l1.82,15Z"/><path class="h" d="M51.85,34.82c.18-.05,.37,.05,.42,.23l.1,.35c.05,.18-.05,.37-.23,.42-.18,.05-.37-.05-.42-.23l-.1-.35c-.05-.18,.05-.37,.23-.42Z"/><g><path class="f" d="M44,56.92c-.94,0-1.7,.89-1.7,2,0,1.1,.77,2,1.71,2l-.02-3.99Z"/><path d="M44.02,61.25c-1.13,0-2.05-1.05-2.05-2.34,0-.68,.25-1.32,.69-1.76,.37-.37,.85-.58,1.34-.58,.19,0,.34,.15,.34,.34s-.15,.34-.34,.34c-.32,0-.62,.13-.86,.38-.31,.32-.49,.78-.49,1.28,0,.91,.62,1.66,1.37,1.66,.19,0,.34,.15,.34,.34s-.15,.34-.34,.34Z"/></g><path class="f" d="M46.17,44.15s.17-1.61,.66-1.84c.49-.23,1-.2,1-.2,0,0,1.16,.64,2.18,.68,1.02,.04,1.3-.34,1.3-.34,0,0,.81-.09,.86,.45,.06,.55-.16,1.5-.16,1.5,0,0,1.96,1.62,1.96,4.51,0,2.89-1.48,9.9-1.48,9.9l-1.59,6.05-7.44-.07,.71-3.78s3.85-.82,4.12-1.64c.27-.82,.45-1.23,.45-1.23,0,0,1.88,.49,2.03,.16,.14-.33,.09-.71,.09-.71,0,0,.78-.06,.77-.52,0-.46-.32-.55-.32-.55,0,0,.9-.36,.8-.82-.11-.46-2.48-1.37-2.48-1.37,0,0,.21-.55,1.07-.59,.86-.04,1.67,.04,1.64-.48-.03-.52,.45-.68-.39-.68-.83,0-3.5-.11-4.3,1.34-.8,1.45-.98,2.75-.98,2.75l-1.21,.11s2.55-8.93,2.14-10.17c-.41-1.24-1.43-2.48-1.43-2.48Z"/><g><path class="h" d="M52.86,31.02c.32-.01,.66-.26,.89-.04,.25,.24-.1,.87-.2,1.18-.16,.47-.28,.84-.41,1.14,.07,.12,.07,.19,.14,.3,.13,.22,.4,.24,.46,.46,.04,.15-.07,.25-.09,.39,.4,1.02,.96,2.21,.61,3.57-.29,1.15-1.21,1.73-2.25,2.12-.12,.67-.27,1.3-.41,1.96,.32,.16,.69,.24,.84,.59,.15,.35,.04,.79,0,1.23,1.15,.07,2.27,.13,3.28,.23,1.1,.11,1.86,.39,2.55,.96,.66,.54,1.19,1.13,1.66,1.84,.44,.68,.83,1.47,1.21,2.28,1.3,2.78,2.58,5.51,3.94,8.33,.16,.33,.56,.92,.43,1.21-.06,.14-.15,.19-.32,.18-.31-.01-.52-.67-.68-1-1.27-2.66-2.53-5.31-3.78-7.94-.76-1.61-1.4-3.08-2.59-4.12-.66-.57-1.26-.93-2.3-1.05-.94-.11-1.96-.14-3.14-.2,.34,.72,.92,1.18,1.21,1.98,.28,.79,.34,1.78,.34,2.87,0,2.03-.34,4.05-.64,5.8-.61,3.64-1.61,7.09-2.43,10.44,.33-.06,.66-.13,.98-.2,1.27-4.4,2.64-9.1,3.94-13.63,.09-.32,.19-.7,.43-.73,.75-.07,.06,1.28,.05,1.52,1,1.99,2.1,4.17,3.16,6.23,.13,.25,.7,1.1,.05,1.11-.3,0-.45-.43-.57-.66-.95-1.87-1.95-3.84-2.91-5.69-1.14,3.87-2.26,7.75-3.37,11.65,3.45,.37,6.86,.67,10.28,1.09,1.12,.14,2.29,.18,3.28,.5,1.82,.58,3.32,2.53,2.91,5.17-.18,1.12-.5,2.21-.8,3.3-1.39,5.05-2.87,10.04-4.32,15.13-.08,.28-.17,.63-.3,.73-.28,.21-.86-.01-1.27,0-.5,1.53-.93,3.15-1.41,4.71,1.8,.48,3.21,1.28,3.85,3.03,.08,.23,.18,.53,.27,.87,.09,.31,.25,.79,.05,.96-.28,.22-1.22,.07-1.62,.07-1.7,0-3.51-.05-5.1-.07-.12,.15-.14,.32-.32,.36-.31,.08-.86,0-1.25-.02-1.31-.06-2.37-.02-3.73-.02-1.25,0-2.52,0-3.69,.02-.47,.01-1.15,.06-1.32-.14-.19-.22-.19-1.17-.23-1.52-.9-7.63-1.84-15.73-2.71-23.25-2.24-.05-4.8,.37-6.19-.55-.46-.31-.81-.65-1.14-1.14-.6-.88-1.12-2.04-1.11-3.44,0-1.41,.28-2.68,.68-3.85-.83,0-.35-.99-.2-1.5,.34-1.19,.73-2.52,1.02-3.62-2.02,.4-3.93-.27-3.91-2.23,0-.61,.12-1.24,.27-1.84,.57-2.19,1.34-4.42,2.02-6.46,.35-1.05,.68-2.12,1.11-3.14,.43-1,.87-2.01,1.46-2.78,.95-1.24,2.61-1.59,4.62-1.75,.63-.05,1.31,0,1.84-.27,.31-.81,.28-1.96,1.48-1.89,.16-.39,.18-.91,.3-1.34-1-.26-1.91-.68-2.5-1.5-.52-.73-.77-1.51-1.02-2.48-.03-.13-.05-.3-.09-.39-.16-.3-.79-.43-.75-.98,.03-.45,.53-.54,.82-.7,.25-1.13,.74-1.99,1.66-2.53,.67-.38,1.45-.67,2.32-.82,.29-.05,.65-.01,.93-.11,.2-.07,.36-.39,.55-.61,.17-.21,.35-.53,.61-.52,.4,0,.43,.61,.61,.82,.62-.31,.67-1.34,1.25-1.64,.09-.05,.21-.06,.34,0,.49,.22,.29,1.42,.39,2.07Zm-1.21-.18c-.21,.23-.65,.59-.93,.55-.34-.05-.32-.5-.55-.71-.3,.27-.39,.71-.75,.84-.18,.06-.4,.05-.59,.07-.63,.07-1.11,.2-1.62,.39-.62,.22-1.29,.42-1.73,.96-.3,.37-.46,.86-.59,1.32-.05,.16-.04,.38-.14,.52-.13,.2-.43,.2-.66,.34,.12,.26,.47,.34,.59,.59,.12,.25,.17,.59,.25,.87,.47,1.69,1.11,2.87,2.93,3.18,.07-.21-.08-.24-.16-.36-1.01,0-1.84-.57-1.93-1.52-.04-.36,.03-.7,.25-.93,.15-.16,.71-.48,1.05-.41,.37,.08,.34,.66,.82,.68-.28-.55-.49-1.05-.75-1.59-.25-.52-.65-1.04-.64-1.75,.03-1.26,1.86-1.08,2.98-1.3,.39-.08,.75-.23,1.11-.39,.28-.12,1.37-.75,1.37-.09,0,.35-.67,.51-.96,.64-.42,.18-.73,.31-1.18,.43-.36,.1-.88,.14-1.39,.2-.43,.05-1.14,.12-1.25,.36-.12,.26,.11,.75,.25,1.05,.32,.67,.56,1.19,.89,1.8,.15,.28,.46,.68,.43,.93-.05,.39-.57,.29-1.09,.34-.37,.04-1.05,.45-1-.11,.02-.22,.18-.19,.36-.32-.04-.07-.11-.1-.14-.18-.36,.04-.5,.23-.45,.61,.03,.26,.28,.64,.57,.77,.26,.12,.67,.05,.93,.14,.23,.08,.58,.45,.61,.66,.03,.19-.03,.46-.07,.64-.13,.66-.24,1.12-.34,1.8,.33,.2,.64,.34,1.14,.43,.34,.06,1.1,.24,1.41,.09,.2-.09,.21-.35,.27-.61,.11-.48,.22-1.02,.32-1.46-.46-.02-1.73,.15-1.73-.41,0-.42,.52-.29,.84-.25,.81,.09,1.38-.09,1.93-.36,.71-.36,1.28-.95,1.34-1.87,.09-1.27-.46-2.19-.86-3.21-.43-.16-1-.04-1.18,.23-.1,.14-.21,.61-.05,.84,.26,.38,1.15,.18,1.27,.68,.13,.55-.62,.93-.7,.25-.44-.12-.81-.22-1.05-.5-.75-.89,.12-2.42,1.39-2.23-.1-.25-.56-1-.07-1.09,.16-.03,.26,.09,.32,.05,.09-.24,.23-.54,.25-.77-.18,.03-.36,.14-.55,.09-.49-.13-.11-1.33-.32-1.77-.14,.22-.24,.59-.48,.86Zm-.3,11.9c-.14,.01-.36,.27-.59,.32-.76,.17-1.88-.12-2.39-.34-.22-.1-.45-.26-.64-.3-.77-.15-.8,.33-.93,.8-.08,.3-.16,.54-.25,.77,.63,.68,1.18,1.44,1.32,2.59,.14,1.2-.08,2.49-.3,3.6-.43,2.15-1.1,4.27-1.62,6.26,.19-.01,.39-.02,.55-.07,.16-.55,.34-1.05,.52-1.55,.18-.49,.32-1.02,.64-1.46,.61-.85,1.95-1.19,3.32-1.25,.49-.02,1.08-.03,1.41,.14,.34,.17,.51,.67,.36,1.09-.3,.88-1.66,.48-2.5,.82,.6,.37,2.37,.49,2.02,1.68-.08,.27-.33,.33-.5,.55,.26,.44,.07,1.13-.48,1.11,0,.54-.21,.99-.64,1.07-.55,.1-1.18-.24-1.68-.27-.32,.83-.52,1.69-1.25,2.09-.86,.47-2.03,.45-3.09,.77-.28,1.16-.59,2.29-.86,3.46,2.34-.04,4.67-.08,7.01-.11,.82-3.29,1.68-6.61,2.28-10.17,.3-1.81,.59-3.69,.48-5.69-.06-1.06-.17-1.84-.61-2.5-.27-.4-.7-.88-.96-1.37-.08-.15-.25-.38-.27-.52-.06-.43,.24-.9,.09-1.32-.17-.08-.26-.22-.43-.2Zm-6.89,1.84c-1.55,.12-2.92,.27-3.87,.98-.56,.41-.99,1.15-1.34,1.87-.37,.75-.67,1.5-.96,2.28-.86,2.35-1.64,4.83-2.37,7.3-.25,.86-.55,1.65-.61,2.62-.08,1.2,.67,1.83,1.64,1.93,.44,.05,.96-.04,1.43-.09,2.7-.32,5.32-.74,7.83-1.32,.41-.1,.92-.18,1.21-.34,.54-.32,.67-1.07,.91-1.68-.37-.13-.68-.05-.68-.43,0-.46,.56-.29,.89-.21,.52,.13,.9,.23,1.46,.34,.29,.06,.63,.15,.64-.14,0-.16-.43-.31-.66-.41-.6-.25-1.05-.36-1.68-.55-.29-.08-.68-.17-.66-.48,.03-.6,1.18-.08,1.5,.02,.46,.15,.9,.29,1.23,.43,.23,.1,.58,.46,.84,.16,.08-.36-.36-.45-.61-.57-.6-.27-1.11-.45-1.75-.7-.23-.09-.73-.22-.73-.52,0-.55,.73-.2,1.02-.09,.74,.29,1.53,.61,2.16,.89,.06-.12,.38-.11,.34-.34-.02-.15-.49-.27-.71-.36-.54-.23-1.03-.44-1.55-.64-.3-.12-.61-.2-.61-.48,0-.32,.31-.41,.61-.25,.31-.22,.84-.4,1.39-.45,.51-.05,1.41,.11,1.37-.43-.66-.22-1.62-.1-2.21,.02-.64,.14-1.31,.29-1.68,.8-.21,.28-.35,.72-.5,1.11-.32,.85-.52,1.53-.8,2.43-.09,.29-.23,1.06-.55,1.09-.72,.07-.16-1.02-.11-1.27-2.46,.19-4.88,.55-7.35,.66-.1-.12-.17-.15-.16-.34,.04-.54,1.59-.31,1.98-.46,.51-1.37,1.13-2.96,1.68-4.39,.15-.4,.33-1.3,.71-1.32,.57-.04,.28,.61,.16,.93-.57,1.51-1.13,2.93-1.68,4.37-.04,.09-.09,.21-.07,.32,1.25-.11,2.49-.24,3.73-.36,.38-1.5,.81-3.01,1.21-4.6,.39-1.56,.88-3.21,.75-5.05-.08-1.15-.6-1.84-1.25-2.46-.43,.14-1.05,.14-1.52,.18Zm-.57,16.7c-1.5,.29-3.03,.53-4.62,.73-.42,1.51-.87,3-1.27,4.53,1.5,.05,3.07,.02,4.57,.07,.45-1.75,.96-3.56,1.32-5.32Zm-.3,4.03c-.08,.33-.16,.62-.25,1-.07,.29-.13,.79-.36,.91-.22,.11-.77,.04-1.07,.02-1.18-.05-2.41,.02-3.46-.02-.47,1.33-.91,3.04-.66,4.66,.22,1.42,1,2.82,2.12,3.37,.64,.32,1.65,.32,2.59,.32s1.99,.02,2.89-.04c-.02-.37-.1-.88-.16-1.34-.04-.36-.23-1.11,.25-1.12,.33,0,.36,.42,.41,.82,.64,5.5,1.3,11.21,1.91,16.59,1.92,.04,3.89,.03,5.82,.05-.32-6.24-.34-12.48-.77-18.64-.08-1.2-.19-2.44-.7-3.19-.78-1.13-2.58-1.43-4.46-1.23-.46,.05-1.46,.37-1.48-.16-.01-.46,1.02-.47,1.52-.52,2-.2,3.72,.16,4.69,1.18,1.37,1.45,1.01,4.2,1.25,6.76,2.28-.05,4.58-.08,6.87-.11,.07-.28,.18-.7,.27-1.09,.07-.32,.09-.91,.52-.86,.43,.05,.2,.71,.14,.96-1.3,5.51-2.62,11.21-3.91,16.59,1.97,.15,3.97,.27,5.94,.43,.89-3.03,1.73-5.92,2.55-8.87,.82-2.96,1.83-5.93,2.48-8.97,.2-.93,.29-1.62,.14-2.48-.26-1.45-1.43-2.63-2.84-2.87-3.25-.55-6.86-.86-10.26-1.18-.88-.08-1.76-.25-2.62-.25-.4,0-.89,.18-1.34,.27-.35,.07-1.1,.31-1.23-.05-.12-.35,.22-.66,.2-1.05-2.34,.03-4.66,.07-6.98,.11Zm10.12,10.08c.1,4.37,.45,9.26,.52,13.81,0,.51,.2,1.71-.07,1.91-.2,.15-.59,.03-.93,.07,.21,1.59,.41,3.18,.61,4.78,.52,.19,1,.42,1.55,.59,1.64-7.11,3.34-14.15,4.98-21.25-2.24,.02-4.42,.08-6.67,.09Zm2.91,18.88c1.46,.09,2.88,.22,4.35,.32,.33-1.14,.67-2.27,1-3.41-1.53-.09-3.03-.21-4.55-.32-.28,1.11-.58,2.32-.8,3.41Zm-8.3,.66c1.56-.11,3.11-.24,4.69-.34-.15-1.13-.31-2.26-.43-3.41-1.57,0-3.08-.04-4.66-.02,.08,1.23,.28,2.52,.41,3.78Zm8.17,0c0-.05-.06,0-.05,.05-.15,.61-.3,1.22-.43,1.84,.87,.42,1.71,.89,2.14,1.75,.43,.04,.86,.06,1.27,.11,.67-.72,1.17-1.61,2.25-1.91-.2-.04-.45-.18-.71-.23-.1-.02-.19,.01-.27-.02-.44-.2,.05-.87,.07-1.27-1.43-.11-2.83-.23-4.28-.32Zm-8.08,.66c.01,.5,.12,.92,.14,1.41,.74,.44,1.14,1.22,1.5,2.05,.73-.02,1.39,.04,2.12,.02,.7-.83,1.32-1.74,2.5-2.09-.36-.2-.98-.26-1.3-.5-.29-.22-.17-.76-.27-1.23-1.57,.1-3.12,.23-4.69,.34Zm15.29,2.28c-.22-.22-.58-.56-.96-.57-.44,0-1.03,.11-1.32,.27-.32,.17-.63,.57-.91,.86-.2,.22-.59,.85-.86,.91-.42,.09-.88-.12-1.23-.09,.04,.3,.12,.56,.16,.87,2.07,0,4.17,.09,6.21,.05-.26-.88-.53-1.74-1.09-2.3Zm-6.48,.5c-.18-.18-.44-.34-.68-.5-.33-.22-.59-.43-1.05-.39-.36,.03-1.05,.25-1.39,.48-.36,.24-.62,.61-.93,.98-.22,.26-.51,.73-.75,.8-.29,.08-1.01,.01-1.37,0-.3,0-1.06,.08-1.37-.07-.23-.11-.34-.6-.48-.86-.08-.16-.17-.3-.25-.43-.08-.14-.17-.33-.27-.32,.08,.8,.18,1.59,.27,2.39,3,0,6.05-.02,8.99,.04-.08-.77-.22-1.59-.73-2.12Z"/><path class="h" d="M49.4,34c.33-.04,1.14-.03,.8,.43-.15,.2-.76,.05-1.09,.23-.18,.1-.29,.26-.39,.39-.11,.15-.14,.37-.43,.34-.61-.05,.13-.93,.3-1.07,.23-.21,.52-.28,.82-.32Z"/><path class="h" d="M50.79,37.76s-.02-.02-.05-.02c.18,.24,.45,.45,.91,.47,.37,.02,.89-.21,.93,.13,.04,.32-.52,.44-.82,.43-.53-.02-.98-.17-1.27-.43-.12-.11-.39-.45-.39-.68,0-.25,.22-.49,.46-.52,.35-.05,.42,.22,.82,.27,.39,.06,1.19-.44,1.21,.09,0,.32-.7,.53-1.23,.48-.25-.02-.42-.15-.57-.2Z"/></g><g><path class="f" d="M17.99,36.71l-4.98,3.53s-1.75,.8-2.84,.18c-1.1-.62-2.19-1.94-1.73-5.01,.46-3.06,1.45-13.57,3.64-15.02,3.01-1.99,6.6-1.25,6.6-1.25,0,0-.3-2.02,.39-2.09,.69-.07,1.3,.05,1.3,.05l.05-3.05s-1.29,.04-1.89-.68c-.6-.72-.84-1.8-.84-1.8,0,0-1.41-.87-.98-1.93,.29-.72,1.02-1,1.02-1,0,0-.57-.78,.09-1.48,.66-.7,1.47-.39,1.84-.82,.37-.43,1.81-2.29,2.78-2.14,.86,.14,.64,.71,.64,.71,0,0,1.6-1.07,2.3-.5,.7,.57,.57,1.18,.57,1.18,0,0,1.01,.16,1.18,.73,.18,.57-.84,1.87-.84,1.87l.43,1.68s.3,.49,.45,.89c.16,.39,.18,.91,.18,.91,0,0,1.54,.49,1.68,.98,.15,.48-.11,.87-.11,.87,0,0,.47,.15,.34,.75-.13,.6-.7,1.02-.7,1.02,0,0,.16,.54-.43,1-.97,.75-1.59,.48-1.59,.48l-1.05-.23-1.43,.07-.16,.64s1.8,.1,1.89,.5c.09,.4-.09,1.48-.09,1.48,0,0,5.59-.43,6.96,1.59,1.38,2.03,2.98,5.55,2.98,5.55,0,0,1.15-6.58,1.5-6.78,.35-.2,.46-.36,.46-.36,0,0,.24-7.62,1.02-8.53,.42-.49,.57-.59,.57-.59l.34,2.41-.41,1s1.93-.45,2.18-.14c.25,.32,.47,.58,.05,.91-.42,.33-1.71,.98-1.71,.98,0,0,.19,.6,.27,1.46,.09,.86-.27,2.21-.27,2.21l.68,.25,1,.36-.39,1.75,.68,1.77s-1.09,6.65-1.55,8.26c-.45,1.61-1.29,3.8-3.85,3.35-1.97-.35-4.3-5.01-4.3-5.01l-.02,64.63,.25,2.55s3.12,1.7,3.62,2.53c.5,.83,.57,1.62,.57,1.62l-10.15-.09s-.46-4.09-.57-8.12c-.11-4.03-1.09-40.37-1.09-40.37l-7.6,43.3s-.4,2.53-.45,3.37c-.05,.84-.16,1.89-.16,1.89l-8.65,.04s-.01-2.09,1.02-2.82c1.04-.73,2.05-1.34,2.05-1.34l7.44-53.73s.26-2.51,.16-3.85c-.11-1.33-.34-2.55-.34-2.55Z"/><path class="f" d="M14.96,30.37l-.59,2.57,1.64-1.27-1.05-1.3Z"/></g><g><path class="h" d="M25.97,94.77l.16,2.37s.75,.63,1.14,1.21c.38,.58,.39,1.12,.39,1.12h2.89s.34-1.09,1.36-1.37c1.02-.27,2.43,.23,2.43,.23l-2.05-1.59-.39-1.84-5.94-.11Z"/><path class="h" d="M11.02,95.11l5.96,.05-.27,2.09-1.36,2.66-1.68-.09s-.35-1.26-1.5-1.59c-1.15-.33-2.3-.7-2.3-.7l1-.57,.16-1.84Z"/></g><g class="k"><path class="h" d="M41.26,24.62c-1.04,.07-2.41-.43-3.19-1.08-.54-.44-.76-.85-.76-.85l-1.55,6.46s-2.75-6.95-3.83-7.8c-1.08-.85-2.34-1.38-4.14-1.46s-2.39-.13-2.39-.13c0,0,.61-1.18,.02-1.34-.59-.16-6.34-.65-6.34-.65,0,0-.83-.53-.96,.18-.13,.71,0,1.3,0,1.3,0,0-3.4-.35-5.84,1.23-1.79,1.02-2.28,3.09-2.98,6.1-.7,3.01-1.75,10.95-1.59,11.76,.16,.81,.8,3.21,3.48,2.85,2.69-.36,6.26-4.12,6.26-4.12,0,0,.17,1.15,.18,2.82,0,1.67-.02,3.98-.02,3.98l13.26,.89,.24-20.51,.58,.17s-.07,.13-.13,.28c-.01,.03,.04,19.35,.04,19.35l4.17-1.71s2.67-5.49,4.13-7.66c1.46-2.17,3.31-11.28,3.31-11.28,0,0-.19,1.08-1.94,1.2Zm-29.57,11.32l1.72-2.6s.53-1.86,.88-3.08c.35-1.21,.9-2.66,.9-2.66l.19,.41-.33,2.3,.79,.92,.22,1.55-4.39,3.17Zm12.36-3.81c-.12,.63-1.24,.33-1.24,.33h-2.24l-1.38,1.05s.14,.77,.14,1.23c0,.46-.43,1.11-.43,1.11,0,0-.34,.34-.77,.27-.44-.07-1.4-1-1.84-2.21-.44-1.21-.07-1.87-.07-1.87l1.52-1.11s-.48-1.94-.41-3.4c.07-1.46,.67-1.47,.67-1.47l.76-.81,5.89-.39s-.46,6.65-.58,7.27Z"/></g><g><path class="f" d="M15.81,95.83c.51,0,.92,.51,.92,1.15s-.41,1.15-.92,1.15-.92-.51-.92-1.15,.41-1.15,.92-1.15Z"/><path class="f" d="M26.98,95.83c.51,0,.92,.51,.92,1.15s-.41,1.15-.92,1.15-.92-.51-.92-1.15,.41-1.15,.92-1.15Z"/></g><path class="f" d="M20.96,9.56s1.81,3.26,2.18,3.21c.37-.05,.97-.83,2-1.05,1.03-.22,1.82-.06,2.23,.05,.41,.1,1.37,.21,1.57,.7,.2,.49-.09,1.14-.09,1.14,0,0,.65,.29,.36,.98-.29,.69-.82,.68-.82,.68,0,0,.64,1.09-.86,1.34-1.51,.25-2.21-.23-2.21-.23,0,0-1.52,.79-2.78-.52-1.25-1.31-.82-2.03-.82-2.03l-1.46-2.82s-.35-.46-.8-.34c-.45,.12-1,.37-.75,1.16,.25,.79,.66,1.02,.98,1.02,.32,0,.77-.05,.77-.05l-.39,1.18s-1.16-.13-1.64-.89c-.47-.75-.86-1.66-.86-1.66,0,0-1.53-.88-.93-1.89,.59-1.01,1.14-.66,1.14-.66,0,0-.92-1.32,.18-1.98,1.1-.66,1.08-.07,1.46-.36,.38-.3,1.07-1.71,1.82-2.03,.75-.32,1.12-.41,1.41-.3,.37,.14,.45,.61,.45,.61,0,0,1.77-1,2.41-.34s.34,1.02,.34,1.02c0,0,1.24,.18,1.3,.96,.05,.77-.75,1.71-.75,1.71l-.52-.68s-.05-.15-.59-.25c-.54-.1-1.12-.16-1.12-.16,0,0,.38,.66-.34,.75-.72,.09-1.55-.43-1.55-.43,0,0,.21,.97-.27,1.48-.49,.51-1.07,.66-1.07,.66Z"/><path class="h" d="M23.52,9.84c.18-.04,.37,.08,.41,.26l.1,.44c.04,.18-.08,.37-.26,.41-.18,.04-.37-.08-.41-.26l-.1-.44c-.04-.18,.08-.37,.26-.41Z"/><g><path class="h" d="M39.65,11.56c.1,.09-.02,.34-.05,.45,.09,.14,.09,.49-.02,.61,.11,.19,.22,.25,.11,.52,.53-.07,1.25-.35,1.75-.11,.38,.18,.6,.75,.39,1.23-.25,.57-1.29,.84-1.8,1.18,.35,.8,.35,1.88,.16,2.84-.07,.36-.11,.95-.48,.96-.52,0-.25-.69-.18-1.07,.13-.69,.17-1.37,0-2.05-.07-.27-.27-.67-.23-.89,.06-.35,.74-.55,1.02-.71,.14-.08,.36-.2,.55-.32,.25-.15,.46-.24,.3-.52-.28-.14-.59-.02-.84,.02-.25,.04-.56,.06-.82,.18-.17,.08-.3,.29-.41,.46-.2,.32-.4,.76-.8,.39-.11,1.11-.17,2.23-.27,3.37-.03,.36-.04,.75-.14,1.07-.08,.25-.31,.36-.41,.59-.14,.31-.15,.74-.25,1.18-.53,2.38-1,4.59-1.55,7.05-.07,.3-.21,1.37-.73,.91-.24-.22,.03-.89,.09-1.16,.04-.18,.09-.39,.14-.59,.04-.2,.12-.44,.11-.59,0-.19-.19-.49-.3-.73-.72-1.61-1.42-3.42-2.46-4.69-.65-.8-1.53-1.15-2.75-1.34-.83-.13-1.78-.27-2.75-.32-.33-.02-.71-.06-1-.05-.22,.01-.24,.23-.5,.16-.55-.15,0-1.26-.09-1.71-1.86-.34-4.06-.48-6.23-.43-.1,.2-.06,.42-.07,.68,0,.21-.1,.55-.02,.73,.07,.18,.35,.09,.34,.41-.01,.47-.78,.31-1.18,.3-1.39-.06-3.21-.06-4.19,.3-1.58,.57-2.44,1.44-3,3.05-.52,1.48-.81,3.18-1.09,4.96-.43,2.72-.8,5.17-1.14,7.92-.12,.95-.2,1.9,.11,2.64,.3,.71,.84,1.31,1.41,1.62,.72,.39,1.64,.22,2.41-.14,.63-.29,1.19-.77,1.8-1.23,1.46-1.1,2.83-2.11,4.21-3.34,.25-.23,.68-.54,.75-.82,.07-.28,.07-.64,.05-.98-.03-.31-.15-.69-.07-.91,.16-.46,1.55-.37,1.02-1.12-.3-.03-.46,.09-.73,.23-.16,.08-.84,.53-.93,.02-.03-.15,.04-.25,.14-.36,.39-.46,.57-.96,1.02-1.41,.16-.16,.42-.34,.41-.57-.01-.18-.17-.31-.34-.32-.32,0-.74,.51-.91,.75-.13,.18-.26,.44-.34,.61-.16,.36-.28,.85-.73,.61,.06,.34,.15,.65,.27,1.09,.08,.32,.36,1.07-.16,1.07-.38,0-.4-.56-.5-.93-.1-.39-.21-.76-.3-1.12-1.34,.96-3.09,2.3-4.57,3.41-.19,.14-.48,.45-.75,.39-.1-.03-.22-.19-.23-.27-.03-.29,.27-.4,.45-.55,.57-.43,1.1-.87,1.66-1.27,.29-1.18,.66-2.57,1-3.87,.09-.35,.16-1.08,.48-1.14,.67-.12,.3,.81,.2,1.16-.11,.43-.17,.75-.27,1.05,.22,.41,.5,.76,.73,1.16,.37-.2,.78-.55,1.14-.84-.23-1.12-.36-2.34-.14-3.53,.11-.58,.32-.91,.68-1.25,.3-.29,.77-.68,1.27-.66,.49,.02,1.06,.58,.98,1.12-.08,.52-.57,.66-.84,1.02,.94-.38,1.8,.35,1.46,1.32,.22,.28,.49,.54,.48,.96-.02,.69-.72,1.03-1,1.46,.84-.29,1.4,.74,1.09,1.39-.19,.4-.68,.52-1.07,.71,.07,.66,.15,1.39-.07,1.91-.23,.54-.84,.95-1.27,1.32-.12,.11-.41,.31-.43,.41-.04,.16,.08,.54,.11,.8,.26,1.76,.43,3.87,.05,5.66,4.28,.36,8.67,.6,12.99,.91,.07-4.85-.07-10.05-.07-14.95,0-1.2-.03-2.42,.02-3.69,.02-.44-.03-.98,.36-.98,.41,0,.33,.55,.32,1-.02,.93-.09,1.74-.05,2.69,.02,.41-.05,.95,.02,1.32,.05,.25,.46,.75,.61,.98,.62,.96,1.23,1.96,1.89,2.82,.48,.63,1.01,1.12,1.93,1.23,.96,.11,1.66-.32,2.18-.91,.5-.57,.65-1.39,.89-2.28,.7-2.57,.95-5.16,1.52-7.92-.14,.14-.43,.46-.73,.39-.51-.13-.05-1.46,.02-1.89,.14-.82,.16-1.48,.3-2.09,.06-.26,.26-.57,.39-.82,.23-.45,.41-.87,.57-1.48,.08-.32,.11-.62,.34-.68,.61-.17,.46,.57,.34,1-.15,.53-.34,1.05-.59,1.55-.11,.21-.3,.44-.39,.68-.08,.22-.08,.41-.11,.68-.03,.23-.09,.58-.07,.73,.02,.12,.15,.21,.18,.36,.07,.32,.1,.55,.06,.95,.47,.14,.29,1.16,.19,1.67-.25,1.39-.53,2.89-.77,4.21-.18,.94-.32,1.87-.57,2.78-.25,.9-.46,1.79-.91,2.41-.48,.67-1.1,1.13-1.96,1.3-.96,.19-1.89-.12-2.55-.59-.59-.42-1.04-1.18-1.46-1.8-.45-.66-.88-1.29-1.3-1.93,.06,19.22,.02,38.29,.02,57.79,0,2.73-.11,5.52,.2,8.08,.85,.59,1.71,1.1,2.59,1.73,.38,.27,.82,.59,1.09,1.07,.12,.2,.22,.46,.34,.75,.1,.24,.28,.6,.16,.82-.12,.23-.74,.14-1.18,.16-2.56,.1-5.3,.02-7.99,.02-.38,0-1.1,.07-1.3-.05-.17-.1-.25-.83-.3-1.23-.38-3.07-.41-6.78-.5-10.08-.33-11.79-.71-23.5-1.02-35.24-2.37,13.4-4.62,27-6.98,40.54-.24,1.37-.39,2.96-.55,4.55-.05,.53-.03,1.36-.3,1.5-.18,.1-.75,.05-1.11,.05-2.3,0-4.49,.02-6.87,.02-.44,0-.98,.05-1.11-.11-.23-.27,.08-1.14,.18-1.5,.15-.53,.35-.93,.61-1.25,.58-.72,1.44-1.06,2.21-1.52,.54-5.05,1.27-10.04,1.93-15.02,.66-4.98,1.39-9.94,2.05-14.9,.66-5,1.33-9.94,2.09-14.86,.38-2.41,.78-4.85,1.16-7.3,.19-1.23,.4-2.49,.48-3.75,.08-1.28-.14-2.55-.32-3.87-1.06,.8-2.14,1.63-3.25,2.48-.96,.74-2.56,1.84-4.21,1.21-1.24-.48-2.25-1.84-2.3-3.48-.03-.86,.16-1.74,.27-2.62,.33-2.55,.7-5,1.11-7.53,.28-1.68,.53-3.28,1.07-4.69,.55-1.45,1.42-2.42,2.78-3,.67-.29,1.43-.51,2.34-.55,.87-.04,1.82-.07,2.8-.02,.07-.74-.11-1.53,.27-1.93,.27-.29,.78-.18,1.34-.2,.05-.78,0-1.66,.02-2.48-1.38-.3-2.24-1.13-2.59-2.46-.65-.22-1.45-1.42-1.09-2.32,.16-.41,.59-.61,.98-.84-.28-.35-.31-.95-.09-1.34,.24-.41,.71-.85,1.3-.93,.19-.03,.42,0,.66-.07,.35-.11,.66-.58,.93-.93,.46-.59,.81-1.08,1.64-1.32,.52-.15,1.24-.22,1.39,.34,1.03-.74,2.96-.56,3.03,.98,1.01-.02,1.57,.85,1.27,1.8-.14,.46-.52,.82-.73,1.16,.06,.2,.25,.39,.14,.64-.11,.26-.78,.19-1.07,.3-.17,.06-.42,.2-.43,.43-.05,.77,1.47,.49,.96,1.5,.17,.07,.39,.07,.57,.14-.03-.25-.13-.41-.27-.64-.15-.22-.56-.8-.02-.86,.33-.04,.57,.41,.71,.66,.18,.33,.26,.66,.3,1.07,1.02,.23,2.11,.79,1.77,2.07,.54,.67,.07,1.71-.57,1.93-.02,.34-.1,.7-.27,.91-.34,.41-1.37,.78-2.09,.7-.46-.05-.8-.34-1.14-.45-.13,.03-.3,.06-.45,.09-.15,.03-.35,0-.43,.11,0,.18,.25,.12,.34,.14,.34,.04,.9,.06,1.14,.27,.33,.28,.2,.95,.09,1.41,2.58,.21,5.18,.18,6.6,1.48,1.44,1.32,1.99,3.33,2.93,5.14,.34-1.4,.66-2.99,.98-4.48,.11-.49,.17-1.05,.34-1.46,.1-.25,.31-.28,.39-.5,.1-.28,.06-.7,.09-1.07,.15-1.76,.29-3.52,.52-5.21,.18-1.28,.33-2.42,1.34-2.8,.08,.12,.11,.06,.16,.25,.03,.11-.04,.26,.05,.34-.15,.23-.41,.32-.55,.59-.17,.34-.24,.95-.32,1.5-.08,.57-.14,1.16-.18,1.66,.16-.16,.33-.55,.57-.75,.08-.55,.21-1.11,.43-1.57,.06-.13,.13-.33,.27-.34Zm-12.76-4.64c.05-.26,0-.59-.18-.73-.25-.2-.7-.01-.98-.18-.28-.17-.09-.61-.25-.93-.33-.65-1.34-.42-1.84-.14-.32,.18-.69,.68-.93,.09-.08-.19-.03-.42-.32-.39-.93,.1-1.32,.69-1.77,1.27-.28,.36-.55,.76-.91,.96-.36,.19-.76,.09-1.18,.23-.25,.08-.72,.43-.73,.77,0,.41,.46,.64,.41,.98-.04,.26-.4,.33-.61,.46-.28,.16-.46,.33-.57,.5,.03,.48,.06,.81,.32,1.12,.17,.2,.56,.27,.71,.48,.16,.23,.22,.55,.34,.82,.33,.74,.86,1.15,1.71,1.37v-.43c-1.17,.18-1.87-1.16-1.55-1.91,.16-.39,.64-.86,1.16-.86,.33,0,.76,.33,.93,.57,.28,.39,.48,.94,.75,1.46,.12,.23,.23,.47,.36,.73,.12,.24,.33,.52,.36,.75,.09,.54-.04,.83,.09,1.18,.11,.28,.36,.53,.57,.71,.51,.42,1.05,.54,1.89,.41,.25-.04,.55-.14,.8-.11,.4,.05,.7,.46,1.21,.48,.25,.01,.55-.1,.77-.18,.18-.06,.52-.13,.64-.32,.14-.22,.02-.56,.16-.84,.18-.37,.78-.27,.75-.84-.02-.27-.25-.35-.27-.57-.03-.28,.13-.34,.11-.61-.02-.27-.25-.52-.41-.61-.24-.15-.58-.2-1-.32-.52-.15-.86-.38-1.36-.32-.64,.07-1.41,.36-1.77,.57-.35,.2-.53,.67-.93,.77-.56,.14-.74-.32-.98-.71-.4-.63-.68-1.17-1-1.82-.13-.26-.32-.72-.48-.93-.1-.13-.3-.14-.3-.39,0-.47,.44-.21,.8-.34,.22-.08,.42-.48,.5-.77,.09-.31,.02-.91,.2-1.07,.25-.23,.54,.04,.75,.16,.34,.19,.76,.43,1.02,.02,.11-.17,.06-.48,.3-.57,.38-.14,1.01,.24,1.41,.14,.26-.07,.33-.4,.59-.39,.18,0,.31,.16,.32,.32,.01,.18-.17,.28-.18,.43,.08,.07,.09,.21,.16,.3,.14-.26,.38-.43,.43-.73Zm-2.32,.64c-.19,.71-1.33,.99-1.96,.5-.1,.8-.43,1.37-1.02,1.68,.53,.96,.97,2,1.62,2.84,.51-.71,1.42-1.02,2.41-1.25-.03-.19,.09-.25,.11-.39-.54-.18-1.05-.66-1-1.3,.06-.68,.7-.99,1.36-1.12-.09-.31-.27-.55-.36-.86-.45,.02-.77-.08-1.16-.11Zm-5.44,4.07c-.02,.26,.28,.75,.48,.82,.41,.15,.95-.17,1.11,.2,.03,.07,.04,.17,.05,.25,.09,1.22-.07,2.59-.02,3.89,1.04,0,2.12,.18,3.03,.14-1.33-.32-2.28-1-2.34-2.53,0-.14,.03-.29,0-.43-.03-.14-.16-.33-.25-.5-.26-.5-.54-1.07-.77-1.5-.41-.08-1.07,.02-1-.43,.04-.27,.35-.23,.66-.18-.04-.1-.23-.26-.41-.3-.19,.14-.5,.27-.52,.57Zm-.89,16.18c.1-.24,.12-.61,.27-.86,.04-.06,.14-.18,.18-.23,.21-.22,.74-.5,.73-.73,0-.11-.21-.3-.39-.3-.22,0-.54,.28-.66,.39-.57,.49-.7,1.36-.61,2.43,.07-.3,.37-.45,.48-.71Zm1.3-.04c-.85,.29-1.36,1.29-1.66,2.14,.07,.25,.1,.56,.18,.8,.39-1.08,1.02-1.9,2-2.39,.07-.13,.05-.37,0-.5-.16-.11-.37-.1-.52-.04Zm-4.64,4.5c.27-.17,.52-.36,.75-.57-.16-.2-.28-.44-.43-.64-.12,.39-.21,.8-.32,1.21Zm-3.14,59.29c1.86-.04,3.8-.11,5.57-.16,2.31-13.28,4.58-27.09,6.94-40.48,.08-.44,.11-.99,.25-1.3,.09-.2,.38-.4,.57-.57,.42-.38,.77-.67,1.21-1.07,.16-.15,.6-.54,.8-.14,.12,.31-.18,.49-.34,.64-.38,.35-.7,.64-1.09,.98-.19,.17-.45,.32-.52,.52-.06,.15-.08,.38-.11,.57-.16,.92-.05,2.04,0,3.07,.04,.84,.03,1.67,.07,2.5,.14,3.35,.13,6.7,.27,10.03,.35,8.33,.42,16.88,.75,25.05,1.81,.05,3.61,.11,5.44,.14,.02,0,.03-.02,.02-.04,0-15.8,0-31.13,.02-46.67-4.39-.25-8.71-.59-13.08-.86-2.58,15.6-4.56,31.8-6.76,47.78Zm14.38,.41c0,.39,.04,.72,.02,1.12,1.8-.07,3.63-.12,5.41-.2v-.84c-1.82-.03-3.61-.1-5.41-.14-.03,0-.02,.04-.02,.07Zm-14.49,.27c-.02,.36-.1,.66-.11,1.02,1.84-.01,3.64,.01,5.46,.02,.07-.4,.15-.79,.2-1.21-1.86,.05-3.69,.11-5.55,.16Zm14.54,1.55c.04,.18,.02,.41,.02,.61,1.81,0,3.57-.04,5.37-.05v-.75c-1.82,.04-3.58,.13-5.39,.18Zm-14.77,.25c-.03,.25-.08,.5-.09,.77,1.78-.04,3.59-.04,5.41-.04,.04-.26,.09-.52,.14-.77-1.86,0-3.55-.04-5.44-.02-.03,0-.02,.04-.02,.07Zm14.81,1.05c.03,.61,.04,1.25,.07,1.87,.73,.56,1.31,1.27,1.57,2.3,.81,0,1.61,0,2.39-.02,.51-.87,1.16-1.59,2.43-1.68-.26-.24-.7-.27-.84-.61-.1-.24-.1-.6-.14-.91-.04-.32-.06-.65-.09-.98-1.82,0-3.59,.04-5.39,.04Zm-14.97,.39c-.16,.46-.02,1.29-.2,1.71-.06,.13-.28,.21-.25,.27,1.51,.14,2.42,.88,2.98,1.98,.41,0,.79,.04,1.21,.04,.38-.63,.76-1.32,1.11-1.98,.12-.22,.29-.49,.34-.71,.11-.45,.03-.89,.18-1.37-1.78,.03-3.57,.04-5.37,.05Zm23.44,3.44c-.25-.18-.55-.48-.8-.55-.26-.07-.44-.04-.71-.07-.23-.02-.48-.07-.73-.05-.72,.07-1.2,.65-1.5,1.14-.11,.17-.24,.44-.41,.5-.36,.12-1.06,.03-1.52,.05-.37,.02-1.28,.09-1.55-.02-.2-.08-.25-.46-.34-.73-.18-.53-.4-.93-.75-1.23,0-.02-.03-.02-.02,.02,.08,.85,.19,1.68,.3,2.5,2.97-.04,6.14-.02,9.21-.02-.21-.8-.63-1.14-1.18-1.55Zm-18.88,.55c-.13,.23-.29,.61-.52,.68-.28,.09-.61,.01-.89,0-.23,0-.71,.02-.91-.05-.19-.07-.35-.41-.5-.64-.14-.23-.31-.49-.48-.66-.58-.57-1.76-.66-2.75-.8-.05,0-.07,.03-.09,.05-.32,.21-.74,.44-.98,.77-.34,.46-.43,1.05-.59,1.71,2.71,0,5.35,0,7.99-.02,.02-.62,.16-1.23,.14-1.82-.15,.28-.25,.49-.41,.77Z"/><path class="h" d="M23.17,8.9c.25-.04,1.02-.1,.86,.41-.1,.32-.58,.08-.82,.14-.15,.03-.35,.26-.48,.39-.12,.13-.23,.4-.52,.32-.07-.02-.17-.13-.18-.23-.03-.3,.67-.89,.89-.98,.06-.03,.19-.04,.25-.05Z"/><path class="h" d="M25.81,12.38c.16-.03,.39,.03,.34,.32-.04,.21-.53,.45-.77,.5-.36,.07-.92-.16-.96-.43-.02-.12-.03-.32,.25-.34,.26-.02,.3,.22,.52,.23,.26,.01,.33-.22,.61-.27Z"/></g><path d="M26.97,91.63c-.15,0-.28-.12-.28-.28l-1.41-42.3c0-.16,.12-.29,.27-.29,.18,0,.29,.12,.29,.27l1.41,42.3c0,.16-.12,.29-.27,.29h0Z"/><g><path class="f" d="M19.32,22.89h5.09c.47,0,.86,.31,.86,.68l-.77,8.2c0,.38-.3,.68-.66,.68h-3.92c-.36,0-.66-.31-.66-.68l-.79-8.2c0-.38,.38-.68,.86-.68Z"/><path d="M23.84,32.75h-3.92c-.52,0-.94-.43-.94-.97l-.79-8.17c0-.56,.51-.99,1.14-.99h5.09c.63,0,1.14,.43,1.14,.97l-.77,8.23c0,.51-.42,.94-.94,.94Zm-4.51-9.57c-.31,0-.57,.18-.57,.4l.79,8.17c0,.25,.17,.43,.38,.43h3.92c.21,0,.38-.18,.38-.4l.77-8.23c0-.19-.26-.37-.57-.37h-5.09Z"/></g><g><path class="f" d="M19.53,20.89h4.69c.14,0,.24,.14,.31,.29l.25,.78c0,.11-.08,.21-.19,.21h-5.41c-.11,0-.21-.09-.21-.21l.25-.8c.07-.14,.19-.27,.32-.27Z"/><path d="M24.58,22.45h-5.41c-.27,0-.49-.22-.49-.49,0-.03,0-.06,.01-.08l.25-.8c.15-.31,.36-.47,.6-.47h4.69c.16,0,.39,.08,.56,.45l.26,.82s.01,.06,.01,.09c0,.27-.21,.49-.48,.49Zm-5.3-.57h5.17l-.19-.62c-.03-.05-.06-.09-.07-.1h-4.63s-.05,.06-.08,.12l-.18,.59Z"/></g><g><path class="f" d="M18.53,22.06h6.69c.19,0,.34,.24,.44,.48l.35,1.3c0,.19-.11,.34-.28,.34h-7.73c-.16,0-.3-.15-.3-.34l.35-1.32c.1-.24,.27-.46,.46-.46Z"/><path d="M25.74,24.46h-7.73c-.32,0-.58-.28-.58-.63,0-.02,0-.05,0-.07l.35-1.32c.17-.43,.44-.67,.74-.67h6.69c.29,0,.52,.22,.7,.65l.36,1.33s0,.05,0,.07c0,.35-.25,.63-.56,.63Zm-7.74-.6s7.73,.03,7.73,.03c0-.03-.34-1.28-.34-1.28-.1-.23-.18-.27-.18-.27h-6.68s-.12,.09-.2,.28l-.33,1.24Z"/></g><path class="f" d="M19.18,25.31l-.93,.52s-.48,.61-.48,.67-.28,.44-.28,.53-.07,1.26-.07,1.26l.61,.36,.44,1.85,.71,2.55,.56,.17,1.18-1.2v-.8s-.48-.26-.55-.17c-.07,.09-.29,.26-.44,.29-.15,.04-.23,.05-.36,.05s-.07-.21,.06-.34c.13-.14,.12,0,.31-.25,.18-.26,.49-.7,.54-.76,.05-.06,.11-.22,.17-.42,.06-.2,.04-.55-.02-.6-.06-.05-.21,.05-.16-.36,.05-.4,.13-.65,.06-.85-.07-.2-.1-.38-.27-.44-.17-.06-.32-.15-.48-.06-.16,.09-.24,.1-.43,.14-.18,.04-.32,.07-.37,.07s-.17-.06-.17-.06c0,0-.02-.23,.04-.32,.05-.09,.05-.15,.19-.22,.14-.07,.18-.11,.28-.18,.1-.07,.29-.24,.33-.34,.04-.1,.07-.29,.07-.4s.04-.21-.09-.38c-.12-.17-.45-.29-.45-.29Z"/><path class="h" d="M20.19,30.88c.28-.43,.98-.77,1-1.46,.01-.41-.25-.68-.48-.96,.34-.97-.52-1.7-1.46-1.32,.27-.37,.76-.51,.84-1.02,.08-.54-.49-1.09-.98-1.12-.51-.02-.97,.37-1.27,.66-.36,.34-.57,.67-.68,1.25-.23,1.19-.1,2.41,.14,3.53-.3,.25-.65,.54-.98,.75v.86c.4-.3,.78-.58,1.14-.83,.08,.36,.19,.72,.3,1.12,.1,.37,.12,.94,.5,.93,.52,0,.24-.75,.16-1.07-.12-.45-.22-.75-.27-1.09,.44,.24,.57-.26,.73-.61,.08-.17,.22-.44,.34-.61,.17-.24,.59-.76,.91-.75,.17,0,.33,.14,.34,.32,.01,.22-.24,.4-.41,.57-.45,.45-.63,.95-1.02,1.41-.1,.12-.16,.21-.14,.36,.09,.51,.77,.06,.93-.02,.27-.14,.43-.26,.73-.23,.52,.75-.86,.66-1.02,1.12-.08,.22,.04,.6,.07,.91,.03,.34,.03,.7-.05,.98-.07,.28-.5,.59-.75,.82-.47,.43-.95,.82-1.43,1.21h1.08c.07-.11,.3-.27,.41-.37,.43-.37,1.05-.78,1.27-1.32,.22-.52,.14-1.25,.07-1.91,.39-.18,.88-.31,1.07-.71,.31-.65-.25-1.68-1.09-1.39Zm-1.82-4.8c.12-.11,.44-.38,.66-.39,.18,0,.38,.19,.39,.3,.01,.23-.52,.51-.73,.73-.04,.05-.14,.16-.18,.23-.15,.25-.17,.63-.27,.86-.11,.26-.41,.4-.48,.71-.09-1.08,.04-1.94,.61-2.43Zm1.68,2.23c-.98,.49-1.61,1.31-2,2.39-.09-.24-.11-.54-.18-.8,.3-.85,.81-1.85,1.66-2.14,.15-.05,.36-.06,.52,.04,.05,.14,.07,.37,0,.5Z"/><polygon class="f" points="15.39 32.75 16.53 31.9 16.67 32.52 16.01 32.82 15.39 32.75"/><path class="h" d="M32,49.87s-.9-.51-1.43-2.53c-.63-2.37-.36-3.14-.36-3.14l1.68,.02,.11,5.64Z"/><path class="h" d="M17.36,49s1.5-.65,2.21-1.98c.76-1.43,1-3.21,1-3.21l-2.3-.2-.91,5.39Z"/><path d="M40.65,24.16c-.88-.02-1.9-.58-2.7-1.47-1.11-1.23-1.46-2.7-.84-3.49,.12-.15,.33-.17,.48-.05,.15,.12,.17,.33,.05,.48-.35,.43-.14,1.55,.81,2.6,.66,.73,1.53,1.23,2.17,1.24,.24,0,.44-.06,.57-.2,.13-.14,.35-.14,.48,0,.14,.13,.14,.35,0,.48-.26,.27-.62,.41-1.04,.41Z"/><path d="M19,35.69c-.22,0-.45-.06-.67-.17-.69-.34-1.28-1.15-1.56-2.11-.33-1.16-.21-2.35,.31-3.05,.11-.15,.33-.18,.48-.07,.15,.11,.18,.33,.07,.48-.39,.52-.47,1.51-.2,2.46,.22,.77,.69,1.44,1.2,1.69,.22,.11,.41,.12,.59,.06,.18-.07,.37,.02,.44,.19,.07,.18-.02,.37-.19,.44-.15,.06-.31,.09-.47,.09Z"/><g><path class="f" d="M11.36,61.05H101.63c.58,0,1.06,.47,1.06,1.06s-.47,1.06-1.06,1.06H11.36c-.58,0-1.06-.47-1.06-1.06s.47-1.06,1.06-1.06Z"/><path d="M101.63,63.45H11.36c-.74,0-1.34-.6-1.34-1.34s.6-1.34,1.34-1.34H101.63c.74,0,1.34,.6,1.34,1.34s-.6,1.34-1.34,1.34Zm-90.27-2.12c-.43,0-.77,.35-.77,.77s.35,.77,.77,.77H101.63c.43,0,.77-.35,.77-.77s-.35-.77-.77-.77H11.36Z"/></g><g><path class="f" d="M47.02,59.18h22.37c.13,0,.23,.1,.23,.23v.44c0,.63-.51,1.14-1.14,1.14h-20.55c-.63,0-1.14-.51-1.14-1.14v-.44c0-.13,.1-.23,.23-.23Z"/><path d="M68.48,61.32h-20.55c-.82,0-1.48-.66-1.48-1.48v-.44c0-.31,.26-.57,.57-.57h22.37c.31,0,.57,.26,.57,.57v.44c0,.82-.66,1.48-1.48,1.48Zm-21.35-1.8v.32c0,.44,.36,.8,.8,.8h20.55c.44,0,.8-.36,.8-.8v-.32h-22.14Z"/></g><g><path class="f" d="M57.81,47.81h14.84c.63,0,1.45,.9,1.28,1.49l-2.7,8.97c-.18,.58-.83,1.06-1.46,1.06h-14.84c-.63,0-1.45-.91-1.28-1.49l2.7-8.97c.18-.58,.83-1.06,1.46-1.06Z"/><path d="M69.78,59.67h-14.84c-.54,0-1.04-.42-1.31-.78-.29-.39-.4-.81-.3-1.15l2.7-8.97c.22-.73,1-1.3,1.78-1.3h14.84c.54,0,1.04,.42,1.31,.78,.29,.39,.4,.81,.29,1.15l-2.7,8.97c-.22,.73-1,1.3-1.78,1.3Zm-11.96-11.52c-.48,0-1,.37-1.13,.81l-2.7,8.97c-.04,.13,.04,.34,.19,.55,.21,.29,.54,.51,.76,.51h14.84c.48,0,1-.37,1.13-.81l2.7-8.97c.04-.13-.04-.34-.19-.54-.21-.29-.54-.51-.76-.51h-14.84Z"/></g><g><path class="f" d="M65.21,52.56c-.83,0-1.72,.71-2,1.6-.27,.89,.17,1.62,1,1.63,.83,0,1.72-.71,2-1.6,.28-.89-.17-1.62-1-1.63Z"/><path d="M64.23,56.07c-.48,0-.87-.19-1.12-.53-.28-.38-.34-.91-.17-1.46,.31-1.01,1.3-1.8,2.25-1.8,.48,0,.87,.19,1.12,.53,.28,.38,.34,.92,.17,1.46-.31,1.01-1.3,1.8-2.25,1.8Zm.96-3.22c-.69,0-1.48,.64-1.71,1.4-.12,.37-.08,.72,.09,.96,.14,.19,.36,.3,.64,.3,.71,0,1.49-.64,1.72-1.4,.12-.37,.08-.72-.09-.96-.14-.19-.36-.3-.64-.3h-.01Z"/></g></g></g></g></svg>