<?xml version="1.0" encoding="utf-8"?>
<!-- Generator: Adobe Illustrator 19.0.0, SVG Export Plug-In . SVG Version: 6.00 Build 0)  -->
<svg version="1.1" id="layer" xmlns="http://www.w3.org/2000/svg" xmlns:xlink="http://www.w3.org/1999/xlink" x="0px" y="0px"
	 viewBox="-153 -46 652 652" style="enable-background:new -153 -46 652 652;" xml:space="preserve">
<style type="text/css">
	.st0{fill:#FFFFFF;}
	.st1{fill:none;stroke:#000000;stroke-width:1.6741;}
	.st2{fill:#A41F35;}
	.st3{fill:none;stroke:#000000;stroke-width:1.8071;}
	.st4{fill:none;stroke:#000000;stroke-width:0.9424;}
	.st5{fill:none;stroke:#231815;stroke-width:0.9424;}
	.st6{fill:none;stroke:#FFFFFF;stroke-width:0.3659;}
	.st7{fill:none;stroke:#000000;stroke-width:0.9036;}
	.st8{fill:none;stroke:#000000;stroke-width:1.6741;stroke-linecap:round;}
</style>
<path class="st0" d="M-50.7,337.7c0,0,5.7-0.8,10.3-1.9c4.1-1,8.1-2.4,8.1-2.4l-2.9-5.7l2.6-7.1c0,0-4.9,1.4-9.2,2.3
	c-4.5,1-8.7,1.3-8.7,1.3L-50.7,337.7z"/>
<path class="st1" d="M-50.7,337.7c0,0,5.7-0.8,10.3-1.9c4.1-1,8.1-2.4,8.1-2.4l-2.9-5.7l2.6-7.1c0,0-4.9,1.4-9.2,2.3
	c-4.5,1-8.7,1.3-8.7,1.3L-50.7,337.7z"/>
<path class="st0" d="M-101.8,337.7c0,0-5.7-0.8-10.3-1.9c-4.1-1-8.1-2.4-8.1-2.4l2.9-5.7l-2.6-7.1c0,0,4.9,1.4,9.2,2.3
	c4.5,1,8.7,1.3,8.7,1.3L-101.8,337.7z"/>
<path class="st1" d="M-101.8,337.7c0,0-5.7-0.8-10.3-1.9c-4.1-1-8.1-2.4-8.1-2.4l2.9-5.7l-2.6-7.1c0,0,4.9,1.4,9.2,2.3
	c4.5,1,8.7,1.3,8.7,1.3L-101.8,337.7z"/>
<path class="st2" d="M-76.3,216.9c0,0,11.3,12.8,24.3,16.6c6.3,1.9,12.2,2.3,16.6,2.3c4.7,0,7.6-0.5,7.6-0.5s0.4,23.6,0.4,40.7
	c0,29-15.2,48.3-28.7,61.2c-12,11.5-18.7,14.1-20.1,14.5c0,0-8.1-3-20.2-14.5c-13.5-12.9-28.7-31.7-28.7-61.2
	c0-16.7,0.4-40.7,0.4-40.7s3,0.5,7.6,0.5c4.4,0,10.3-0.5,16.6-2.3C-87.6,229.6-76.3,216.9-76.3,216.9"/>
<path class="st3" d="M-76.3,216.9c0,0,11.3,12.8,24.3,16.6c6.3,1.9,12.2,2.3,16.6,2.3c4.7,0,7.6-0.5,7.6-0.5s0.4,23.6,0.4,40.7
	c0,29-15.2,48.3-28.7,61.2c-12,11.5-18.7,14.1-20.1,14.5c0,0-8.1-3-20.2-14.5c-13.5-12.9-28.7-31.7-28.7-61.2
	c0-16.7,0.4-40.7,0.4-40.7s3,0.5,7.6,0.5c4.4,0,10.3-0.5,16.6-2.3C-87.6,229.6-76.3,216.9-76.3,216.9z"/>
<rect x="-106.5" y="276.8" width="60.4" height="56.6"/>
<path class="st0" d="M-106.2,266.4c0,0,6.9-11.1,7.6-21.8c0.3-4.2,0-8.9,0.5-13.2c0.6-5.7,5.4-15.4,5.4-15.4l32.8,0
	c0,0,4.8,9.8,5.4,15.4c0.5,4.2,0.2,8.9,0.5,13.2c0.8,10.6,7.6,21.8,7.6,21.8L-106.2,266.4z"/>
<path class="st3" d="M-106.2,266.4c0,0,6.9-11.1,7.6-21.8c0.3-4.2,0-8.9,0.5-13.2c0.6-5.7,5.4-15.4,5.4-15.4l32.8,0
	c0,0,4.8,9.8,5.4,15.4c0.5,4.2,0.2,8.9,0.5,13.2c0.8,10.6,7.6,21.8,7.6,21.8L-106.2,266.4z"/>
<rect x="-98.6" y="280.5" width="44.5" height="58.9"/>
<path class="st0" d="M-53,340.5h-46.6v-61H-53V340.5z M-55.1,281.5h-42.5v56.8h42.5V281.5z"/>
<polygon points="-59.4,216.6 -59.9,216.6 -92.7,216.6 -93.2,216.6 -93.2,216.1 -93.2,214.2 -93.2,213.7 -92.7,213.7 -59.9,213.7 
	-59.4,213.7 -59.4,214.2 -59.4,216.1 "/>
<path d="M-59.9,214.2v1.9l-32.8,0v-1.9H-59.9z M-58.9,213.2h-0.9h-32.8h-0.9v0.9v1.9v0.9h0.9l32.8,0h0.9v-0.9v-1.9V213.2z"/>
<polygon points="-57.2,212.6 -94.3,212.6 -95.4,212.6 -96.7,209.6 -55.8,209.6 "/>
<polygon class="st4" points="-57.2,212.6 -94.3,212.6 -95.4,212.6 -96.7,209.6 -55.8,209.6 "/>
<polygon points="-92.7,214.2 -94.3,212.6 -58.2,212.6 -59.9,214.2 "/>
<polygon class="st5" points="-92.7,214.2 -94.3,212.6 -58.2,212.6 -59.9,214.2 "/>
<path d="M-106.1,277.4c-0.3-0.5-1.5-2.1-3.4-4c-2.3-2.3-5.3-3.6-6-3.8l-2.2-5.1h82.7l-2.2,5.1c-0.6,0.3-3.6,1.6-5.8,3.8
	c-2,2-2.9,3.5-3.2,3.9L-106.1,277.4z"/>
<path d="M-34.5,264.2l-2.4,5.6c0,0-3.4,1.4-5.8,3.8c-2.4,2.4-3.2,4-3.2,4l-60.4,0.1c0,0-1.2-1.9-3.4-4.1c-2.5-2.5-6-3.8-6-3.8
	l-2.4-5.6H-34.5 M-35.4,264.8h-81.7l1.9,4.5c0.9,0.3,3.7,1.6,5.9,3.8c1.7,1.7,2.9,3.3,3.3,3.9l59.7-0.1c0.4-0.6,1.3-2,3.1-3.9
	c2.1-2.1,5-3.5,5.8-3.8L-35.4,264.8z"/>
<polygon class="st0" points="-52.6,300.7 -53,300.7 -99.6,300.7 -100,300.7 -100,300.3 -100,297.8 -100,297.3 -99.6,297.3 
	-53,297.3 -52.6,297.3 -52.6,297.8 -52.6,300.3 "/>
<path d="M-53,300.3h-46.6v-2.5H-53V300.3z M-52.1,296.9H-53h-46.6h-0.8v0.8v2.5v0.8h0.8H-53h0.8v-0.8v-2.5V296.9z"/>
<path d="M-57.5,243.6c-0.3-3.6,0-7.5-0.4-11.1c-0.4-3.3-2.5-8.1-3.7-10.7c-0.3,0.2-0.7,0.4-1.1,0.4c-1,0-1.8-0.8-1.8-1.8
	c0-0.1,0-0.3,0-0.4l-23.7,0c0,0.1,0,0.3,0,0.4c0,1-0.8,1.8-1.8,1.8c-0.4,0-0.8-0.1-1.1-0.4c-1.2,2.6-3.3,7.3-3.6,10.7
	c-0.4,3.6-0.2,7.5-0.4,11.1c-0.6,9-5.2,18.3-5.2,18.3l48,0C-52.3,262-56.9,252.6-57.5,243.6"/>
<path class="st0" d="M-65.6,241.2c0-5.9-4.8-10.8-10.8-10.8c-5.9,0-10.8,4.8-10.8,10.8h-2.3l1.5,3.7h1.5l4.1,10.5h-2.3v2.7h16.7
	v-2.7h-2.4l3.9-10.4h1.7l1.5-3.7L-65.6,241.2z"/>
<path class="st6" d="M-65.6,241.2c0-5.9-4.8-10.8-10.8-10.8c-5.9,0-10.8,4.8-10.8,10.8h-2.3l1.5,3.7h1.5l4.1,10.5h-2.3v2.7h16.7
	v-2.7h-2.4l3.9-10.4h1.7l1.5-3.7L-65.6,241.2z"/>
<path d="M-68.9,241.2c0,4.1-3.3,7.4-7.4,7.4c-4.1,0-7.4-3.3-7.4-7.4s3.3-7.4,7.4-7.4C-72.2,233.7-68.9,237.1-68.9,241.2"/>
<polygon class="st0" points="-96.7,209.6 -95.4,212.6 -94.3,212.6 -92.7,214.2 -59.9,214.2 -58.3,212.6 -57.2,212.6 -55.9,209.6 "/>
<polygon class="st3" points="-96.7,209.6 -95.4,212.6 -94.3,212.6 -92.7,214.2 -59.9,214.2 -58.3,212.6 -57.2,212.6 -55.9,209.6 "/>
<polygon class="st0" points="-37.5,268.9 -115.1,268.9 -116.7,265.1 -35.9,265.1 "/>
<path d="M-34.5,264.2l-2.4,5.6h-78.8l-2.4-5.6H-34.5z M-37.2,266h-78.1l0.9,2h76.4L-37.2,266z"/>
<path class="st0" d="M-55.4,297.3h-0.5h-40.7h-0.4v-0.5c0-4.3,3.2-7.8,7.2-7.8c3.1,0,5.8,2.1,6.8,5.1c1-3,3.7-5.1,6.8-5.1
	c3.1,0,5.8,2.1,6.8,5.1c1-3,3.7-5.1,6.8-5.1c4,0,7.2,3.5,7.2,7.8V297.3z"/>
<path d="M-76.3,289.5c3.7,0,6.8,3.3,6.8,7.4c0-4.1,3-7.4,6.8-7.4c3.7,0,6.8,3.3,6.8,7.4h-40.7c0-4.1,3-7.4,6.8-7.4
	c3.8,0,6.8,3.3,6.8,7.4C-83.1,292.8-80,289.5-76.3,289.5 M-76.3,288.5c-2.9,0-5.5,1.8-6.8,4.4c-1.3-2.6-3.9-4.4-6.8-4.4
	c-4.2,0-7.7,3.7-7.7,8.3v0.9h0.9h40.7h0.9v-0.9c0-4.6-3.4-8.3-7.7-8.3c-2.9,0-5.5,1.8-6.8,4.4C-70.8,290.3-73.3,288.5-76.3,288.5"/>
<path class="st0" d="M-94.4,320.8v-23.5c0,0,0-5.1,4.5-5.1s4.5,5.1,4.5,5.1v23.5H-94.4z"/>
<path class="st7" d="M-94.4,320.8v-23.5c0,0,0-5.1,4.5-5.1s4.5,5.1,4.5,5.1v23.5H-94.4z"/>
<polygon class="st0" points="-88.9,292.1 -90.9,292.1 -91.3,287.1 -88.4,287.1 "/>
<polygon class="st7" points="-88.9,292.1 -90.9,292.1 -91.3,287.1 -88.4,287.1 "/>
<path class="st0" d="M-80.7,320.8v-23.5c0,0,0-5.1,4.5-5.1c4.5,0,4.5,5.1,4.5,5.1v23.5H-80.7z"/>
<path class="st7" d="M-80.7,320.8v-23.5c0,0,0-5.1,4.5-5.1c4.5,0,4.5,5.1,4.5,5.1v23.5H-80.7z"/>
<polygon class="st0" points="-75.3,292.1 -77.2,292.1 -77.7,287.1 -74.8,287.1 "/>
<polygon class="st7" points="-75.3,292.1 -77.2,292.1 -77.7,287.1 -74.8,287.1 "/>
<path class="st0" d="M-67.1,320.8v-23.5c0,0,0-5.1,4.5-5.1s4.5,5.1,4.5,5.1v23.5H-67.1z"/>
<path class="st7" d="M-67.1,320.8v-23.5c0,0,0-5.1,4.5-5.1s4.5,5.1,4.5,5.1v23.5H-67.1z"/>
<polygon class="st0" points="-61.6,292.1 -63.6,292.1 -64.1,287.1 -61.2,287.1 "/>
<polygon class="st7" points="-61.6,292.1 -63.6,292.1 -64.1,287.1 -61.2,287.1 "/>
<path class="st0" d="M-107.1,327.6l0,13.5c0,0,12.4,2.7,30.7,2.7s30.7-2.7,30.7-2.7l0-13.5c0,0-12.3,2.5-30.9,2.5
	C-95.2,330.1-107.1,327.6-107.1,327.6"/>
<path class="st8" d="M-107.1,327.6l0,13.5c0,0,12.4,2.7,30.7,2.7s30.7-2.7,30.7-2.7l0-13.5c0,0-12.3,2.5-30.9,2.5
	C-95.2,330.1-107.1,327.6-107.1,327.6z"/>
<path d="M-84.8,341c-0.5-0.1-0.8-0.1-0.9-0.1c-0.3,0-0.8-0.1-1.1-0.1l-0.1,0c-0.3,0-1.1-0.1-1.5-0.1c-0.1,0-0.5,0-0.8,0
	c-0.1,0-0.2-0.1-0.2-0.2l0-0.3l0.1-0.1c0,0,0.4,0,0.4,0c0.9,0,1.1-0.1,1.2-0.2c0.1-0.1,0.1-0.4,0.2-0.8l0.3-3.7c0-0.3,0.1-1.1,0-1.4
	c0-0.1-0.1-0.1-0.3-0.1c-0.1,0-0.1,0-0.2,0c-0.1,0-0.5,0-0.7,0c-0.2-0.1-0.2-0.3-0.2-0.5l0-0.1l0.1,0c0.9-0.1,1.3-0.2,1.9-0.5
	l0.1-0.1c0.1-0.1,0.2-0.1,0.3-0.1c0.1,0,0.4,0,0.4,0l-0.5,6.5c0,0.5,0,0.7,0.1,0.9c0.1,0.2,0.9,0.3,1.2,0.4c0.1,0,0.2,0,0.2,0l0.1,0
	l0,0.1l0,0.3L-84.8,341L-84.8,341z M-80,341.4c1.6,0,2.5-1.2,2.5-2.3c0-1.1-0.6-1.7-1.6-2.4c0.4-0.2,1.4-0.8,1.4-1.8
	c0-1.2-1.1-1.8-2.2-1.8c-1.4,0-2.2,0.7-2.3,1.9c0,1.1,0.7,1.6,1.3,2.1c-1,0.4-1.7,1.3-1.7,2.2C-82.6,340.5-81.7,341.3-80,341.4
	L-80,341.4z M-80.3,337.4c0.9,0.6,1.6,1.1,1.5,2c0,0.8-0.5,1.4-1.3,1.4h0c-0.6,0-1.3-0.6-1.3-1.7C-81.3,338.3-80.9,337.7-80.3,337.4
	 M-80,333.5l0,0.1c0.8,0,1.1,0.7,1.1,1.3c0,0.6-0.2,1-0.7,1.4l0,0c-0.6-0.4-1.3-0.9-1.3-1.6c0-0.4,0.3-1.1,1-1.1V333.5z
	 M-73.5,341.4c0.4,0,0.7-0.1,0.7-0.4c0.1-2.2,1.2-5.2,2.5-7.2l0-0.8l-4.8,0.1l-0.3,2l0.1,0.1h0.1c0.3,0,0.5,0,0.5-0.2
	c0-0.1,0.1-0.2,0.1-0.3c0-0.2,0.1-0.3,0.3-0.4c0.2-0.2,0.8-0.2,1.4-0.2l1.7,0c-0.5,0.8-1.2,2.3-1.6,3.1c-0.6,1.2-1.3,2.8-1.3,3.7
	c0,0.1,0,0.2,0.1,0.3C-74,341.4-73.9,341.4-73.5,341.4L-73.5,341.4z M-67.4,341l0.3,0c0.2,0,0.5-0.1,0.6-0.1c0.3,0,0.9-0.1,1.3-0.1
	l0.3,0c0.3,0,0.8-0.1,1.2-0.1c0.1,0,0.4,0,0.9,0l0.1-0.1l0-0.3l-0.1-0.1l-0.1,0c0,0-0.2,0-0.2,0c-0.8,0-1.1-0.1-1.2-0.2
	c-0.1-0.1-0.2-0.4-0.2-0.9l-0.5-6.5l-0.3,0c-0.1,0-0.2,0.1-0.3,0.2l-0.1,0.1c-0.5,0.4-0.9,0.6-1.8,0.8l-0.1,0l0,0.1
	c0,0.2,0,0.4,0.2,0.4c0.1,0,0.2,0,0.4-0.1c0.2,0,0.3-0.1,0.5-0.1c0,0,0.1,0,0.1,0c0.1,0,0.2,0,0.2,0.1c0.2,0.2,0.2,1.1,0.3,1.4
	l0.3,3.7c0,0.4,0.1,0.7,0,0.8c-0.1,0.2-1,0.3-1.3,0.4c-0.1,0-0.2,0-0.2,0l-0.1,0.1l0,0.3l0,0.2H-67.4z"/>
<path d="M-86,332.7L-86,332.7c0.1,0,0.2,0,0.2,0l-0.5,6.4c0,0.5,0,0.8,0.1,0.9c0.2,0.3,1.3,0.4,1.4,0.5c0,0,0,0,0,0l0,0.2
	c0,0,0,0,0,0c-0.4-0.1-0.7-0.1-0.8-0.1c-0.4-0.1-1-0.1-1.3-0.1c-0.3,0-1.1-0.1-1.5-0.1c-0.1,0-0.5,0-0.8,0c0,0,0,0,0,0l0-0.2
	c0,0,0,0,0.1-0.1c0,0,0,0,0.1,0c0.1,0,0.2,0,0.3,0c0.4,0,1.1,0,1.3-0.2c0.1-0.1,0.2-0.4,0.2-0.9l0.3-3.7c0-0.3,0.1-1.2,0-1.5
	c-0.1-0.1-0.2-0.2-0.4-0.2c-0.1,0-0.1,0-0.2,0c-0.2,0-0.4,0-0.7,0c-0.1-0.1-0.1-0.2-0.1-0.4c0.9-0.1,1.4-0.2,2-0.5
	C-86.2,332.8-86.1,332.7-86,332.7 M-86,332.5c-0.1,0-0.2,0.1-0.4,0.1c0,0-0.1,0-0.1,0c-0.6,0.3-1,0.4-1.9,0.5l-0.2,0l0,0.2
	c0,0.2,0,0.4,0.1,0.6l0.1,0h0.1c0.1,0,0.2,0,0.4,0c0.1,0,0.2,0,0.3,0c0.1,0,0.1,0,0.2,0c0.1,0,0.2,0,0.2,0.1c0.1,0.2,0.1,0.6,0,1.3
	l-0.3,3.7c0,0.4-0.1,0.7-0.1,0.7c0,0-0.2,0.1-1.1,0.1h-0.2h-0.1c-0.1,0-0.1,0-0.1,0c-0.1,0-0.2,0.1-0.3,0.3l0,0.2
	c0,0.2,0.1,0.3,0.2,0.3l0.1,0c0.3,0,0.7,0,0.7,0c0.4,0,1.3,0.1,1.5,0.1l0.1,0c0.3,0,0.8,0.1,1.1,0.1c0.1,0,0.4,0,0.8,0.1h0
	c0.1,0,0.3-0.1,0.3-0.3l0-0.2l0-0.2l-0.2-0.1c0,0-0.1,0-0.2,0c-0.9-0.1-1.1-0.3-1.1-0.3c-0.1-0.1-0.1-0.4-0.1-0.8l0.5-6.4l0-0.2
	l-0.2,0C-85.8,332.5-85.9,332.5-86,332.5L-86,332.5z M-79.9,333.1C-79.9,333.1-79.9,333.1-79.9,333.1c1.2,0,2.1,0.6,2.1,1.7
	c0,1-1,1.6-1.5,1.8c1.1,0.7,1.8,1.3,1.7,2.4c0,1-0.8,2.2-2.4,2.2c0,0,0,0-0.1,0c-1.4,0-2.4-0.7-2.4-2c0-1,0.9-1.8,1.9-2.2
	c-0.7-0.5-1.5-1-1.5-2.1C-82,333.8-81.1,333.1-79.9,333.1 M-79.7,336.5c0.6-0.4,0.8-0.9,0.9-1.6c0-0.6-0.3-1.4-1.2-1.4h0
	c-0.7,0-1.1,0.7-1.1,1.2C-81.1,335.5-80.3,336-79.7,336.5 M-80,340.9c0.8,0,1.3-0.6,1.4-1.5c0-1-0.7-1.5-1.6-2.1
	c-0.7,0.3-1.1,1-1.2,1.8C-81.5,340.3-80.6,340.9-80,340.9C-80,340.9-80,340.9-80,340.9 M-79.9,332.9L-79.9,332.9
	c-1.4,0-2.3,0.8-2.4,2.1c0,1,0.6,1.6,1.2,2c-0.9,0.4-1.6,1.3-1.6,2.2c0,1.4,1,2.2,2.6,2.3l0.1,0c1.6,0,2.6-1.2,2.6-2.4
	c0-1.1-0.6-1.7-1.5-2.4c0.6-0.4,1.2-1,1.3-1.9C-77.6,333.8-78.5,333-79.9,332.9L-79.9,332.9z M-79.7,336.2c-0.6-0.4-1.2-0.9-1.2-1.5
	c0-0.3,0.3-1,0.9-1c0.9,0,1,0.9,1,1.2C-79,335.5-79.2,335.8-79.7,336.2 M-80,340.9l0-0.2c-0.5,0-1.2-0.6-1.2-1.6
	c0-0.7,0.3-1.3,0.9-1.6c0.9,0.6,1.4,1,1.4,1.8c0,0.8-0.5,1.3-1.1,1.3V340.9z M-70.5,333.2l0,0.6c-1.3,1.9-2.4,4.9-2.5,7.1
	c0,0.2-0.1,0.3-0.6,0.3c0,0-0.1,0-0.1,0c-0.4,0-0.5-0.1-0.4-0.3c0-0.9,0.7-2.5,1.3-3.7c0.4-0.8,1.2-2.5,1.7-3.2l-1.9,0
	c-0.6,0-1.2,0-1.5,0.2c-0.3,0.3-0.3,0.4-0.4,0.7c0,0.1-0.2,0.1-0.5,0.1l0.3-1.9L-70.5,333.2 M-70.2,333l-0.2,0l-4.6,0.1l-0.2,0
	l0,0.2l-0.3,1.9l0,0.3l0.3,0h0.1c0.3,0,0.5,0,0.6-0.3c0-0.1,0.1-0.2,0.1-0.3c0-0.2,0.1-0.2,0.3-0.4c0.2-0.1,0.8-0.1,1.3-0.1h0.1
	l1.5,0c-0.5,0.8-1.1,2.2-1.5,2.9c-0.6,1.3-1.3,2.8-1.3,3.8c0,0,0,0.2,0.1,0.3c0.1,0.1,0.3,0.2,0.6,0.2h0.1c0.3,0,0.8,0,0.8-0.5
	c0.1-2.2,1.1-5.2,2.5-7l0-0.1v-0.1l0-0.6L-70.2,333z M-65.3,332.6l0.5,6.4c0,0.5,0.1,0.8,0.2,0.9c0.2,0.2,0.9,0.2,1.3,0.2h0.1
	c0.1,0,0.1,0,0.1,0c0.1,0,0,0,0.1,0l0,0.2c0,0,0,0,0,0c-0.4,0-0.8,0-0.9,0c-0.4,0-1,0.1-1.3,0.1c-0.3,0-1.1,0.1-1.5,0.1
	c-0.1,0-0.5,0.1-0.8,0.1c0,0,0,0,0,0l0-0.2c0,0,0,0,0-0.1c0.1,0,1.4-0.2,1.6-0.5c0.1-0.2,0.1-0.4,0.1-0.9l-0.3-3.7
	c0-0.3-0.1-1.2-0.3-1.4c-0.1-0.1-0.2-0.1-0.3-0.1c0,0-0.1,0-0.1,0c-0.2,0-0.5,0.1-0.8,0.1c-0.1,0-0.1-0.2-0.1-0.3
	c0.9-0.2,1.3-0.4,1.9-0.8c0.1-0.1,0.3-0.2,0.3-0.2C-65.4,332.6-65.4,332.6-65.3,332.6 M-65.1,332.4l-0.2,0c0,0-0.1,0-0.2,0l-0.1,0
	c-0.1,0-0.2,0.1-0.4,0.2c0,0-0.1,0-0.1,0.1c-0.5,0.4-0.9,0.5-1.8,0.8l-0.2,0l0,0.2c0,0.2,0,0.4,0.2,0.5l0.1,0l0.1,0
	c0.1,0,0.2,0,0.4-0.1c0.2,0,0.3-0.1,0.5-0.1c0,0,0.1,0,0.1,0c0.1,0,0.1,0,0.1,0c0.1,0.1,0.2,0.4,0.2,1.3l0.3,3.7c0,0.4,0,0.7,0,0.8
	c0,0.1-0.3,0.2-1.2,0.3c-0.1,0-0.2,0-0.2,0c-0.1,0-0.2,0.1-0.2,0.3l0,0.2c0,0.2,0.1,0.3,0.3,0.3l0.3,0c0.2,0,0.5-0.1,0.5-0.1
	c0.3,0,1-0.1,1.3-0.1l0.2,0l0.1,0c0.3,0,0.8-0.1,1.2-0.1c0.1,0,0.4,0,0.9,0c0.1,0,0.3-0.1,0.3-0.3l0-0.2l0-0.2l-0.2,0
	c0,0-0.1,0-0.2,0h-0.1h-0.1c-0.9,0-1.1-0.1-1.1-0.1c-0.1-0.1-0.1-0.4-0.2-0.8l-0.5-6.4L-65.1,332.4z"/>
<path d="M22,280.2c1-2.9,1.4-3.4,1.9-3.4c0.5,0,0.9,0.4,1.9,3.1c1.3,3.3,15,39.3,20.3,52.6c3.1,7.8,5.7,9.2,7.5,9.7
	c1.3,0.4,2.6,0.5,3.5,0.5c0.5,0,0.9,0.1,0.9,0.5c0,0.5-0.8,0.7-1.7,0.7c-1.3,0-7.7,0-13.7-0.2c-1.7-0.1-2.6-0.1-2.6-0.6
	c0-0.3,0.3-0.5,0.6-0.6c0.5-0.2,1-1,0.5-2.4L33,318.7c-0.2-0.3-0.3-0.5-0.8-0.5H13.4c-0.4,0-0.7,0.3-0.9,0.7l-5.2,15.4
	c-0.8,2.2-1.2,4.3-1.2,5.8c0,1.7,1.8,2.5,3.3,2.5h0.9c0.6,0,0.9,0.2,0.9,0.5c0,0.5-0.5,0.7-1.3,0.7c-2.1,0-5.8-0.3-6.8-0.3
	s-5.8,0.3-9.9,0.3c-1.1,0-1.7-0.2-1.7-0.7c0-0.3,0.3-0.5,0.8-0.5c0.6,0,1.8-0.1,2.5-0.2c4-0.5,5.8-3.8,7.3-8.2L22,280.2z M31,315.1
	c0.4,0,0.4-0.3,0.3-0.6l-8.3-23.6c-0.4-1.3-0.9-1.3-1.3,0l-7.7,23.6c-0.2,0.4,0,0.6,0.3,0.6H31z M67.8,303.3c0-13.6,0-16-0.2-18.8
	c-0.2-3-0.9-4.4-3.8-5c-0.7-0.2-2.2-0.3-3-0.3c-0.3,0-0.7-0.2-0.7-0.5c0-0.5,0.4-0.7,1.4-0.7c3.9,0,9.4,0.3,9.9,0.3
	c1,0,7.6-0.3,10.3-0.3c5.5,0,11.3,0.5,16,3.8c2.2,1.6,6,5.8,6,11.9c0,6.5-2.7,12.9-10.6,20.1c7.2,9.2,13.1,16.9,18.1,22.3
	c4.7,5,8.5,5.9,10.6,6.3c1.7,0.3,2.9,0.3,3.4,0.3c0.4,0,0.8,0.3,0.8,0.5c0,0.5-0.5,0.7-2.1,0.7h-6.2c-4.9,0-7.1-0.4-9.3-1.7
	c-3.8-2-6.8-6.3-11.8-12.8c-3.7-4.8-7.8-10.6-9.5-12.9c-0.3-0.3-0.6-0.5-1.1-0.5l-10.7-0.2c-0.4,0-0.6,0.3-0.6,0.7v2.1
	c0,8.4,0,15.3,0.4,18.9c0.3,2.5,0.8,4.5,3.4,4.8c1.2,0.2,3.1,0.3,3.9,0.3c0.5,0,0.7,0.3,0.7,0.5c0,0.4-0.4,0.7-1.4,0.7
	c-4.8,0-10.3-0.3-10.7-0.3c-0.1,0-5.6,0.3-8.2,0.3c-1,0-1.4-0.2-1.4-0.7c0-0.3,0.2-0.5,0.7-0.5c0.8,0,1.8-0.2,2.6-0.3
	c1.7-0.3,2.2-2.3,2.5-4.8c0.4-3.7,0.4-10.6,0.4-18.9V303.3z M74.7,310.9c0,0.4,0.2,0.8,0.6,1c1.3,0.8,5.3,1.4,9.2,1.4
	c2.1,0,4.5-0.3,6.5-1.7c3-2.1,5.3-6.8,5.3-13.4c0-10.9-5.8-17.5-15.1-17.5c-2.6,0-5,0.3-5.8,0.5c-0.4,0.2-0.7,0.5-0.7,1V310.9z
	 M132.9,318.6c0,8.4,0,15.3-0.4,18.9c-0.3,2.5-0.7,4.4-2.4,4.8c-0.7,0.2-1.7,0.3-2.5,0.3c-0.5,0-0.7,0.3-0.7,0.5
	c0,0.5,0.4,0.7,1.3,0.7c2.5,0,7.3-0.3,8-0.3c0.7,0,5.5,0.3,9.5,0.3c0.9,0,1.3-0.3,1.3-0.7c0-0.3-0.2-0.5-0.7-0.5
	c-0.7,0-2.1-0.2-3.2-0.3c-2.5-0.3-3-2.3-3.2-4.8c-0.4-3.7-0.4-10.6-0.4-18.9v-8.5h0.4c4,5.1,16.6,25.1,20.3,28.3
	c3.6,3,5.6,4.9,10,5.3c1.8,0.2,3.4,0.2,5.7,0.2h4.2c1.4,0,1.8-0.3,1.8-0.7c0-0.3-0.5-0.5-1.1-0.5c-0.6,0-3-0.2-5.1-1.1
	c-4-1.7-5.4-3.1-12.3-9.9c-3.4-3.3-15.7-22.1-17.8-24.6c1.7-2.2,16.2-17,18.2-19.1c3.7-3.7,5.5-5.9,8.9-7.5c1.7-0.8,3.4-1.2,4.6-1.2
	c0.7,0,0.8-0.2,0.8-0.6c0-0.4-0.3-0.6-1.2-0.6c-2.1,0-7.5,0.3-8,0.3c-2,0-4.6-0.3-6.2-0.3c-0.6,0-1,0.2-1,0.6c0,0.3,0.3,0.5,0.7,0.7
	c0.7,0.3,1.1,0.8,1.1,1.8c0,1.5-2.2,3.8-4.5,6.3c-3,3.4-18,19.5-19.4,21.1h-0.3v-5.2c0-13.6,0-16.1,0.2-18.8c0.2-3.1,0.8-4.5,3.1-5
	c1-0.2,1.5-0.3,2.1-0.3c0.3,0,0.7-0.2,0.7-0.5c0-0.5-0.4-0.7-1.3-0.7c-2.5,0-7.3,0.3-8,0.3c-0.5,0-5.4-0.3-9.1-0.3
	c-0.9,0-1.3,0.2-1.3,0.7c0,0.3,0.3,0.5,0.7,0.5c0.7,0,2.2,0.1,2.8,0.3c2.7,0.6,3.4,2,3.6,5c0.2,2.8,0.2,5.2,0.2,18.8V318.6z
	 M214,280.2c1-2.9,1.4-3.4,1.9-3.4c0.5,0,0.9,0.4,1.9,3.1c1.3,3.3,15,39.3,20.3,52.6c3.1,7.8,5.7,9.2,7.5,9.7
	c1.3,0.4,2.6,0.5,3.5,0.5c0.5,0,0.9,0.1,0.9,0.5c0,0.5-0.8,0.7-1.7,0.7c-1.3,0-7.7,0-13.7-0.2c-1.7-0.1-2.6-0.1-2.6-0.6
	c0-0.3,0.3-0.5,0.6-0.6c0.5-0.2,1-1,0.5-2.4l-8.1-21.5c-0.2-0.3-0.3-0.5-0.8-0.5h-18.8c-0.4,0-0.7,0.3-0.9,0.7l-5.2,15.4
	c-0.8,2.2-1.2,4.3-1.2,5.8c0,1.7,1.8,2.5,3.3,2.5h0.9c0.6,0,0.9,0.2,0.9,0.5c0,0.5-0.5,0.7-1.3,0.7c-2.1,0-5.8-0.3-6.8-0.3
	s-5.8,0.3-9.9,0.3c-1.1,0-1.7-0.2-1.7-0.7c0-0.3,0.3-0.5,0.8-0.5c0.6,0,1.8-0.1,2.5-0.2c4-0.5,5.8-3.8,7.3-8.2L214,280.2z
	 M223,315.1c0.4,0,0.4-0.3,0.3-0.6l-8.3-23.6c-0.4-1.3-0.9-1.3-1.3,0l-7.7,23.6c-0.2,0.4,0,0.6,0.3,0.6H223z M327.4,342.8
	c3.6,1.7,7.6,2.4,11.7,2.4c4.7,0,9.4-1,13.2-3.7c6-4.3,7.4-10.9,7.4-14.5c0-7-2.4-12.4-12.7-20.5l-2.4-1.9
	c-8.4-6.5-10.6-9.7-10.6-14.7c0-6.4,4.7-10.1,10.7-10.1c8,0,10.4,3.7,10.9,4.6c0.5,1,1,3.3,1.1,4.4c0.1,0.7,0.2,1.1,0.7,1.1
	c0.4,0,0.6-0.6,0.6-2c0-5.9,0.3-8.8,0.3-9.2c0-0.4-0.2-0.6-0.9-0.6c-0.7,0-1.4-0.1-3.1-0.4c-2.2-0.5-4.7-0.9-8.1-0.9
	c-11.1,0-18.1,6.4-18.1,15.7c0,5.9,2.1,11.3,11.3,18.9l3.9,3.2c7.5,6.2,10,9.7,10,15.7c0,5.6-4.1,11.6-12.5,11.6
	c-5.8,0-11.6-2.4-12.9-8.9c-0.3-1.2-0.3-2.4-0.3-3.2c0-0.7-0.1-1-0.6-1c-0.4,0-0.6,0.4-0.7,1.4c-0.1,1.4-0.4,4.9-0.4,9.2
	C326.1,341.8,326.1,342.2,327.4,342.8 M392.7,280.2c1-2.9,1.4-3.4,1.9-3.4c0.5,0,0.9,0.4,1.9,3.1c1.3,3.3,15,39.3,20.3,52.6
	c3.1,7.8,5.7,9.2,7.5,9.7c1.3,0.4,2.6,0.5,3.5,0.5c0.5,0,0.9,0.1,0.9,0.5c0,0.5-0.8,0.7-1.7,0.7c-1.3,0-7.7,0-13.7-0.2
	c-1.7-0.1-2.6-0.1-2.6-0.6c0-0.3,0.3-0.5,0.6-0.6c0.5-0.2,1-1,0.5-2.4l-8.1-21.5c-0.2-0.3-0.3-0.5-0.8-0.5h-18.8
	c-0.4,0-0.7,0.3-0.9,0.7l-5.2,15.4c-0.8,2.2-1.2,4.3-1.2,5.8c0,1.7,1.8,2.5,3.3,2.5h0.9c0.6,0,0.9,0.2,0.9,0.5
	c0,0.5-0.5,0.7-1.3,0.7c-2.1,0-5.8-0.3-6.8-0.3c-1,0-5.8,0.3-9.9,0.3c-1.1,0-1.7-0.2-1.7-0.7c0-0.3,0.3-0.5,0.8-0.5
	c0.6,0,1.8-0.1,2.5-0.2c4-0.5,5.8-3.8,7.3-8.2L392.7,280.2z M401.8,315.1c0.4,0,0.4-0.3,0.3-0.6l-8.3-23.6c-0.4-1.3-0.9-1.3-1.3,0
	l-7.7,23.6c-0.2,0.4,0,0.6,0.3,0.6H401.8z M434.8,342.8c3.6,1.7,7.6,2.4,11.7,2.4c4.7,0,9.4-1,13.2-3.7c6-4.3,7.4-10.9,7.4-14.5
	c0-7-2.4-12.4-12.7-20.5l-2.4-1.9c-8.4-6.5-10.6-9.7-10.6-14.7c0-6.4,4.7-10.1,10.7-10.1c8,0,10.4,3.7,10.9,4.6c0.5,1,1,3.3,1.1,4.4
	c0.1,0.7,0.2,1.1,0.7,1.1c0.4,0,0.6-0.6,0.6-2c0-5.9,0.3-8.8,0.3-9.2c0-0.4-0.2-0.6-0.9-0.6s-1.4-0.1-3.1-0.4
	c-2.2-0.5-4.7-0.9-8.1-0.9c-11.1,0-18.1,6.4-18.1,15.7c0,5.9,2.1,11.3,11.3,18.9l3.9,3.2c7.5,6.2,10,9.7,10,15.7
	c0,5.6-4.1,11.6-12.5,11.6c-5.8,0-11.6-2.4-12.9-8.9c-0.3-1.2-0.3-2.4-0.3-3.2c0-0.7-0.1-1-0.6-1c-0.4,0-0.6,0.4-0.7,1.4
	c-0.1,1.4-0.4,4.9-0.4,9.2C433.5,341.8,433.6,342.2,434.8,342.8 M262.4,290.3c2.5,3.1,11.4,14.1,20.5,25
	c8.3,9.9,19.6,22.8,20.5,23.6c4.2,4.6,5.1,5.6,5.7,5.6c0.5,0,0.7-0.4,0.7-6.2l0.2-51.1c0-5.2,0.3-7.2,2.9-7.8
	c0.9-0.3,1.5-0.3,1.9-0.3c0.5,0,0.9-0.3,0.9-0.6c0-0.5-0.5-0.6-1.4-0.6c-3.2,0-5.8,0.3-6.7,0.3s-4.6-0.3-8.2-0.3
	c-0.9,0-1.6,0.1-1.6,0.6c0,0.3,0.1,0.6,0.6,0.6c0.6,0,2.4,0.1,3.8,0.4c2.4,0.7,3,2.6,3.1,8.3l0.9,44.3c-2.5-2.9-11.1-13.5-18.8-22.8
	c-12.1-14.4-23.8-28.4-25-29.9c-0.8-0.9-2.1-2.8-2.7-2.8c-0.6,0-0.9,1-0.9,4.4l-0.1,50c0,7.9-0.4,10.5-2.4,11.1
	c-1.2,0.4-2.6,0.5-3.2,0.5c-0.4,0-0.6,0.2-0.6,0.5c0,0.6,0.5,0.7,1.3,0.7c3.5,0,6.8-0.3,7.5-0.3c0.7,0,3.8,0.3,8.3,0.3
	c0.9,0,1.4-0.2,1.4-0.7c0-0.3-0.2-0.5-0.6-0.5c-0.7,0-2.4-0.1-3.9-0.5c-2.1-0.7-2.9-3-3.1-10.1L262.4,290.3z M9.9,253.8
	c0,6.3,1.6,9.3,3.8,11.4c3.1,2.9,7.4,3.1,8.9,3.1c2.5,0,5.8-0.4,8.9-3.2c3.5-3.1,4-8.3,4-12.9v-4.6c0-6.7,0-8,0.1-9.3
	c0.1-1.5,0.4-2.2,1.6-2.5c0.5-0.1,0.8-0.1,1.1-0.1c0.2,0,0.3-0.1,0.3-0.3c0-0.3-0.2-0.3-0.7-0.3c-1.3,0-3.3,0.1-3.6,0.1
	c-0.3,0-2.6-0.1-4.6-0.1c-0.5,0-0.7,0.1-0.7,0.3c0,0.2,0.2,0.3,0.3,0.3c0.4,0,1.1,0,1.5,0.1c1.4,0.3,1.8,1,1.9,2.5
	c0.1,1.4,0.1,2.6,0.1,9.3v5.4c0,4.5-0.5,8.1-2.5,10.6c-1.6,1.9-4.2,3.1-6.8,3.1c-2.5,0-4.4-0.4-6.5-2.4c-1.9-1.8-3.2-4.5-3.2-10.7
	v-6.1c0-6.7,0-8,0.1-9.3c0.1-1.5,0.4-2.3,1.6-2.5c0.5-0.1,0.8-0.1,1.1-0.1c0.2,0,0.3-0.1,0.3-0.3c0-0.3-0.2-0.3-0.7-0.3
	c-1.3,0-3.9,0.1-4.3,0.1c-0.4,0-3-0.1-5-0.1c-0.5,0-0.7,0.1-0.7,0.3c0,0.2,0.2,0.3,0.3,0.3c0.4,0,1.1,0,1.5,0.1
	c1.4,0.3,1.8,1,1.9,2.5c0.1,1.4,0.1,2.6,0.1,9.3V253.8z M58.2,241.1c1.4,1.6,6.3,7,11.3,12.4c4.6,4.9,10.8,11.3,11.3,11.7
	c2.3,2.3,2.8,2.8,3.2,2.8c0.3,0,0.4-0.2,0.4-3.1l0.1-25.3c0-2.6,0.2-3.5,1.6-3.9c0.5-0.1,0.8-0.1,1-0.1c0.3,0,0.5-0.1,0.5-0.3
	c0-0.3-0.3-0.3-0.8-0.3c-1.8,0-3.2,0.1-3.7,0.1s-2.5-0.1-4.5-0.1c-0.5,0-0.9,0-0.9,0.3c0,0.2,0,0.3,0.3,0.3c0.3,0,1.3,0,2.1,0.2
	c1.3,0.3,1.6,1.3,1.7,4.1l0.5,22c-1.4-1.4-6.1-6.7-10.4-11.3c-6.7-7.1-13.1-14.1-13.8-14.8c-0.4-0.4-1.2-1.4-1.5-1.4
	c-0.3,0-0.5,0.5-0.5,2.2l0,24.8c0,3.9-0.2,5.2-1.3,5.5c-0.6,0.2-1.4,0.3-1.8,0.3c-0.2,0-0.3,0.1-0.3,0.3c0,0.3,0.3,0.3,0.7,0.3
	c2,0,3.8-0.1,4.2-0.1c0.4,0,2.1,0.1,4.6,0.1c0.5,0,0.8-0.1,0.8-0.3c0-0.2-0.1-0.3-0.3-0.3c-0.4,0-1.3,0-2.2-0.3
	c-1.2-0.3-1.6-1.5-1.7-5L58.2,241.1z M111.5,247.5c0-6.7,0-8,0.1-9.3c0.1-1.5,0.4-2.2,1.6-2.5c0.5-0.1,0.8-0.1,1.1-0.1
	c0.2,0,0.3-0.1,0.3-0.3c0-0.3-0.2-0.3-0.7-0.3c-1.3,0-4,0.1-4.2,0.1c-0.2,0-2.9-0.1-4.4-0.1c-0.5,0-0.7,0.1-0.7,0.3
	c0,0.2,0.2,0.3,0.3,0.3c0.3,0,0.9,0,1.3,0.2c0.9,0.2,1.4,0.9,1.5,2.4c0.1,1.4,0.1,2.6,0.1,9.3v7.6c0,4.2,0,7.6-0.2,9.4
	c-0.2,1.3-0.4,2.2-1.3,2.4c-0.4,0.1-0.9,0.2-1.3,0.2c-0.3,0-0.3,0.1-0.3,0.3c0,0.3,0.2,0.3,0.7,0.3c1.3,0,4-0.1,4.2-0.1
	c0.2,0,2.9,0.1,5.3,0.1c0.5,0,0.7-0.1,0.7-0.3c0-0.1-0.1-0.3-0.3-0.3c-0.4,0-1.3-0.1-1.9-0.2c-1.3-0.2-1.6-1.1-1.7-2.4
	c-0.2-1.8-0.2-5.2-0.2-9.4V247.5z M137.2,240.2c-0.6-1.7-1.2-3-1.2-3.6c0-0.3,0.1-0.6,0.6-0.9c0.4-0.2,1.2-0.2,1.6-0.2
	c0.3,0,0.4-0.1,0.4-0.3c0-0.2-0.4-0.3-1.2-0.3c-1.6,0-3.6,0.1-4,0.1c-0.5,0-3-0.1-5.1-0.1c-0.7,0-1.1,0-1.1,0.3
	c0,0.2,0.1,0.3,0.3,0.3c0.3,0,1,0,1.6,0.2c1.5,0.4,2.2,0.9,3.1,3.3l10.6,26.5c0.8,2.1,1,2.7,1.6,2.7c0.4,0,0.6-0.7,1.8-3.3
	c1-2.1,2.9-6.8,5.6-13.1c2.2-5.3,4.4-10.5,4.8-11.7c1.2-2.9,1.8-3.7,2.4-4.1c0.8-0.5,1.8-0.5,2.1-0.5c0.3,0,0.5-0.1,0.5-0.3
	c0-0.2-0.3-0.3-0.7-0.3c-1.3,0-3.1,0.1-3.4,0.1c-0.5,0-2.5-0.1-4.2-0.1c-0.7,0-1,0.1-1,0.3c0,0.2,0.2,0.3,0.5,0.3
	c0.5,0,1.1,0,1.6,0.2c0.4,0.2,0.6,0.6,0.6,1c0,0.4-0.2,1-0.4,1.6c-1,3.1-6.8,18.2-9.3,24L137.2,240.2z M177.5,255.1
	c0,4.1,0,7.6-0.2,9.4c-0.2,1.3-0.4,2.2-1.3,2.4c-0.4,0.1-0.9,0.2-1.3,0.2c-0.3,0-0.3,0.1-0.3,0.3c0,0.3,0.2,0.3,0.7,0.3
	c0.6,0,1.6-0.1,2.5-0.1c0.9,0,1.6,0,1.7,0c0.6,0,1.7,0,3.4,0.1c1.7,0,4.1,0.1,7.3,0.1c1.7,0,2,0,2.3-1.1c0.2-0.9,0.6-3.9,0.6-4.2
	c0-0.3,0-0.6-0.3-0.6c-0.2,0-0.3,0.2-0.4,0.6c-0.3,1.8-0.8,2.6-2,3.1c-1.1,0.5-3,0.5-4.1,0.5c-4.2,0-4.9-0.6-5-3.5
	c0-0.9,0-5.9,0-7.4v-3.8c0-0.2,0.1-0.3,0.3-0.3c0.7,0,5,0.1,6.2,0.2c1.7,0.2,2.1,0.9,2.3,1.5c0.2,0.6,0.2,1,0.2,1.4
	c0,0.2,0.1,0.4,0.3,0.4c0.3,0,0.3-0.5,0.3-0.8c0-0.3,0.1-1.9,0.2-2.8c0.1-1.4,0.3-2.2,0.3-2.4c0-0.3-0.1-0.3-0.2-0.3
	c-0.2,0-0.3,0.2-0.6,0.6c-0.4,0.4-1,0.5-2,0.6c-1,0.1-6.3,0.1-6.9,0.1c-0.2,0-0.3-0.1-0.3-0.4v-11.9c0-0.3,0.1-0.4,0.3-0.4
	c0.5,0,5.2,0,5.9,0.1c2.3,0.3,2.8,0.8,3.1,1.5c0.2,0.5,0.3,1.3,0.3,1.6c0,0.3,0.1,0.6,0.3,0.6c0.2,0,0.3-0.3,0.3-0.5
	c0.1-0.5,0.2-2.4,0.2-2.9c0.1-1.2,0.3-1.7,0.3-2c0-0.2,0-0.4-0.2-0.4c-0.2,0-0.4,0.2-0.6,0.2c-0.3,0.1-1,0.2-1.9,0.2
	c-1,0-9.6,0-9.9,0l-1.8-0.1c-1,0-2.1,0-3.1,0c-0.5,0-0.7,0.1-0.7,0.3c0,0.2,0.2,0.3,0.3,0.3c0.4,0,1.1,0,1.5,0.1
	c1.4,0.3,1.8,1,1.9,2.5c0.1,1.4,0.1,2.6,0.1,9.3V255.1z M213.2,247.5c0-6.7,0-8-0.1-9.3c-0.1-1.5-0.4-2.2-1.9-2.5
	c-0.3-0.1-1.1-0.1-1.5-0.1c-0.2,0-0.3-0.1-0.3-0.3c0-0.3,0.2-0.3,0.7-0.3c1.9,0,4.7,0.1,4.9,0.1c0.5,0,3.8-0.1,5.1-0.1
	c2.7,0,5.6,0.3,7.9,1.9c1.1,0.8,3,2.9,3,5.9c0,3.2-1.3,6.4-5.2,10c3.5,4.5,6.5,8.4,9,11.1c2.3,2.5,4.2,2.9,5.3,3.1
	c0.8,0.1,1.4,0.1,1.7,0.1c0.2,0,0.4,0.1,0.4,0.3c0,0.3-0.3,0.3-1,0.3H238c-2.4,0-3.5-0.2-4.6-0.8c-1.9-1-3.4-3.1-5.8-6.4
	c-1.8-2.4-3.8-5.3-4.7-6.4c-0.2-0.2-0.3-0.3-0.6-0.3l-5.3-0.1c-0.2,0-0.3,0.1-0.3,0.3v1c0,4.2,0,7.6,0.2,9.4
	c0.1,1.3,0.4,2.2,1.7,2.4c0.6,0.1,1.6,0.2,1.9,0.2c0.3,0,0.3,0.1,0.3,0.3c0,0.2-0.2,0.3-0.7,0.3c-2.4,0-5.1-0.1-5.3-0.1
	c0,0-2.8,0.1-4.1,0.1c-0.5,0-0.7-0.1-0.7-0.3c0-0.1,0.1-0.3,0.3-0.3c0.4,0,0.9-0.1,1.3-0.2c0.9-0.2,1.1-1.1,1.3-2.4
	c0.2-1.8,0.2-5.2,0.2-9.4V247.5z M216.7,251.3c0,0.2,0.1,0.4,0.3,0.5c0.6,0.4,2.6,0.7,4.5,0.7c1,0,2.2-0.1,3.2-0.8
	c1.5-1,2.6-3.4,2.6-6.7c0-5.4-2.9-8.7-7.5-8.7c-1.3,0-2.5,0.1-2.9,0.3c-0.2,0.1-0.3,0.3-0.3,0.5V251.3z M252.4,267.1
	c1.8,0.9,3.8,1.2,5.8,1.2c2.3,0,4.7-0.5,6.5-1.8c3-2.1,3.7-5.4,3.7-7.2c0-3.5-1.2-6.1-6.3-10.2l-1.2-0.9c-4.2-3.2-5.3-4.8-5.3-7.3
	c0-3.2,2.3-5,5.3-5c4,0,5.1,1.8,5.4,2.3c0.3,0.5,0.5,1.6,0.6,2.2c0,0.3,0.1,0.6,0.3,0.6c0.2,0,0.3-0.3,0.3-1c0-2.9,0.2-4.4,0.2-4.6
	c0-0.2-0.1-0.3-0.4-0.3c-0.3,0-0.7,0-1.5-0.2c-1.1-0.3-2.3-0.4-4-0.4c-5.5,0-9,3.2-9,7.8c0,2.9,1,5.6,5.6,9.4l2,1.6
	c3.7,3.1,5,4.8,5,7.8c0,2.8-2,5.8-6.2,5.8c-2.9,0-5.8-1.2-6.4-4.4c-0.1-0.6-0.1-1.2-0.1-1.6c0-0.3,0-0.5-0.3-0.5
	c-0.2,0-0.3,0.2-0.3,0.7c0,0.7-0.2,2.4-0.2,4.6C251.7,266.6,251.8,266.8,252.4,267.1 M292.7,247.5c0-6.7,0-8,0.1-9.3
	c0.1-1.5,0.4-2.2,1.6-2.5c0.5-0.1,0.8-0.1,1.1-0.1c0.2,0,0.3-0.1,0.3-0.3c0-0.3-0.2-0.3-0.7-0.3c-1.3,0-4,0.1-4.2,0.1
	c-0.2,0-2.9-0.1-4.4-0.1c-0.5,0-0.7,0.1-0.7,0.3c0,0.2,0.2,0.3,0.3,0.3c0.3,0,0.9,0,1.3,0.2c1,0.2,1.4,0.9,1.5,2.4
	c0.1,1.4,0.1,2.6,0.1,9.3v7.6c0,4.2,0,7.6-0.2,9.4c-0.2,1.3-0.4,2.2-1.3,2.4c-0.4,0.1-0.9,0.2-1.3,0.2c-0.3,0-0.3,0.1-0.3,0.3
	c0,0.3,0.2,0.3,0.7,0.3c1.3,0,4-0.1,4.2-0.1c0.2,0,2.9,0.1,5.3,0.1c0.5,0,0.7-0.1,0.7-0.3c0-0.1-0.1-0.3-0.3-0.3
	c-0.4,0-1.3-0.1-1.9-0.2c-1.3-0.2-1.6-1.1-1.7-2.4c-0.2-1.8-0.2-5.2-0.2-9.4V247.5z M326.6,236.8l5.4,0.1c4.2,0.1,5.2,1.1,5.3,2.4
	l0,0.5c0,0.6,0.1,0.7,0.3,0.7c0.2,0,0.3-0.2,0.3-0.6c0-0.5,0.1-3.5,0.1-4.8c0-0.3,0-0.5-0.2-0.5c-0.2,0-0.6,0.1-1.2,0.2
	c-0.7,0.1-1.7,0.2-3.1,0.2h-16.2c-0.5,0-2.2-0.1-3.4-0.2c-1.2-0.1-1.6-0.5-1.9-0.5c-0.2,0-0.3,0.6-0.4,0.8c-0.1,0.3-0.9,4.1-0.9,4.5
	c0,0.3,0.1,0.4,0.2,0.4c0.2,0,0.3-0.1,0.4-0.4c0.1-0.3,0.3-0.6,0.7-1.3c0.7-1,1.7-1.3,4.4-1.4l6.4-0.1v18.3c0,4.2,0,7.6-0.2,9.4
	c-0.2,1.3-0.4,2.2-1.3,2.4c-0.4,0.1-0.9,0.2-1.3,0.2c-0.3,0-0.3,0.1-0.3,0.3c0,0.3,0.2,0.3,0.7,0.3c1.3,0,4-0.1,4.2-0.1
	c0.2,0,2.9,0.1,5.3,0.1c0.5,0,0.7-0.1,0.7-0.3c0-0.1-0.1-0.3-0.3-0.3c-0.4,0-1.3-0.1-1.9-0.2c-1.3-0.2-1.6-1.1-1.7-2.4
	c-0.2-1.8-0.2-5.2-0.2-9.4V236.8z M361.4,260.2c0,0.7,0,2.5-0.1,4.3c-0.1,1.3-0.5,2.2-1.3,2.4c-0.4,0.1-0.9,0.2-1.3,0.2
	c-0.3,0-0.3,0.1-0.3,0.3c0,0.3,0.2,0.3,0.7,0.3c1.3,0,4-0.1,4.2-0.1c0.2,0,2.9,0.1,5.3,0.1c0.5,0,0.7-0.1,0.7-0.3
	c0-0.1-0.1-0.3-0.3-0.3c-0.4,0-1.3-0.1-1.9-0.2c-1.3-0.2-1.7-1.1-1.8-2.4c-0.1-1.8-0.1-3.6-0.1-4.3v-3.7c0-1.4,0-2.8,0.6-4.3
	c0.8-1.9,6.8-12,8.3-13.8c0.9-1.2,1.4-1.7,2.3-2.2c0.7-0.4,1.5-0.6,2-0.6c0.3,0,0.6-0.1,0.6-0.3c0-0.2-0.3-0.3-0.6-0.3
	c-0.8,0-3.9,0.1-4.2,0.1c-0.3,0-1.7-0.1-2.9-0.1c-0.4,0-0.7,0.1-0.7,0.3c0,0.2,0.3,0.3,0.6,0.4c0.5,0.1,0.7,0.6,0.7,1.2
	c0,0.6-0.2,1.3-0.7,2.2c-0.9,1.4-6.4,10.9-7.2,12.7c-0.8-1.3-7.3-12.4-8-13.7c-0.3-0.6-0.6-1.2-0.6-1.7c0-0.3,0.2-0.6,0.6-0.8
	c0.4-0.2,0.6-0.2,0.6-0.4c0-0.2-0.1-0.3-0.6-0.3c-1.7,0-3.3,0.1-3.6,0.1c-0.2,0-3.5-0.1-4.3-0.1c-0.4,0-0.6,0.1-0.6,0.3
	c0,0.2,0.2,0.3,0.4,0.3c0.4,0,1.2,0.3,1.9,0.7c0.8,0.5,1.9,1.6,2.9,3.2c1.5,2.2,7.3,11.8,7.6,12.5c0.6,1.3,1,2.2,1,4.5V260.2z
	 M417.9,234.4c9.7,0,17,6.1,17,16.2c0,9.7-6.8,17.7-17.3,17.7c-11.8,0-16.8-9.2-16.8-17C400.9,244.3,406,234.4,417.9,234.4
	 M418.9,266.6c3.9,0,11.9-2.3,11.9-14.8c0-10.4-6.3-16-13.1-16c-7.2,0-12.6,4.8-12.6,14.2C405,260.1,411.1,266.6,418.9,266.6
	 M454.7,255.1c0,4.1,0,7.6-0.2,9.4c-0.2,1.3-0.4,2.2-1.3,2.4c-0.4,0.1-0.9,0.2-1.3,0.2c-0.3,0-0.3,0.1-0.3,0.3
	c0,0.3,0.2,0.3,0.7,0.3c1.3,0,4-0.1,4.2-0.1c0.2,0,2.9,0.1,5.3,0.1c0.5,0,0.7-0.1,0.7-0.3c0-0.1-0.1-0.3-0.3-0.3
	c-0.4,0-1.3-0.1-1.9-0.2c-1.3-0.2-1.6-1.1-1.7-2.4c-0.2-1.8-0.2-5.2-0.2-9.4v-3.7c0-0.3,0.1-0.4,0.3-0.4c0.7,0,5.4,0,6.5,0.1
	c1.3,0.2,2,1,2.3,1.6c0.2,0.5,0.2,1.1,0.3,1.6c0,0.2,0.1,0.4,0.3,0.4c0.3,0,0.3-0.4,0.3-0.8c0-0.3,0.1-2,0.2-2.9
	c0.1-1.4,0.3-2.2,0.3-2.4c0-0.2,0-0.3-0.2-0.3s-0.3,0.2-0.5,0.4c-0.4,0.6-1,0.7-2,0.8c-0.6,0-1.2,0-1.9,0l-5.5,0
	c-0.3,0-0.3-0.1-0.3-0.4v-11.9c0-0.3,0.1-0.5,0.4-0.5l6.7,0.1c1.7,0,2.7,0.8,2.9,1.4c0.3,0.6,0.4,1.3,0.4,1.6c0,0.3,0.1,0.5,0.3,0.5
	c0.2,0,0.3-0.3,0.3-0.5c0.1-0.5,0.2-2.4,0.2-2.9c0.1-1.2,0.3-1.7,0.3-2c0-0.2-0.1-0.4-0.3-0.4c-0.2,0-0.3,0.2-0.6,0.3
	c-0.4,0.1-1.1,0.1-1.9,0.2c-1,0-9.8,0.1-10.6,0l-1.8-0.1c-1,0-2.1,0-3.1,0c-0.5,0-0.7,0.1-0.7,0.3c0,0.2,0.2,0.3,0.3,0.3
	c0.4,0,1.1,0,1.5,0.1c1.4,0.3,1.8,1,1.9,2.5c0.1,1.4,0.1,2.6,0.1,9.3V255.1z M468.5,342.1c0-1.7,1.4-3.2,3.2-3.2
	c1.8,0,3.2,1.4,3.2,3.2c0,1.8-1.4,3.2-3.2,3.2C469.9,345.3,468.5,343.9,468.5,342.1 M474.3,342.1c0-1.5-1.1-2.8-2.7-2.8
	c-1.6,0-2.7,1.2-2.7,2.8c0,1.6,1.1,2.8,2.7,2.8C473.2,344.9,474.3,343.7,474.3,342.1 M473.2,343.9h-0.5l-1-1.6h-0.8v1.6h-0.4v-3.6
	h1.6c0.9,0,1.3,0.4,1.3,0.9c0,0.7-0.5,1-1.1,1L473.2,343.9z M471.6,341.9c0.5,0,1.2,0.1,1.2-0.6c0-0.6-0.5-0.6-0.9-0.6h-1v1.3H471.6
	z"/>
</svg>
