<?xml version="1.0" encoding="UTF-8"?>
<svg xmlns="http://www.w3.org/2000/svg" xmlns:xlink="http://www.w3.org/1999/xlink" width="24px" height="24px" viewBox="0 0 24 24" version="1.1">
<g id="surface1">
<path style=" stroke:none;fill-rule:nonzero;fill:rgb(0%,0%,0%);fill-opacity:1;" d="M 18 10.5 C 17.417969 10.5 16.867188 10.632812 16.367188 10.855469 L 15.238281 9.445312 L 16.535156 7.5 L 18 7.5 C 18.550781 7.5 19 7.050781 19 6.5 C 19 5.949219 18.550781 5.5 18 5.5 L 15 5.5 C 14.449219 5.5 14 5.949219 14 6.5 C 14 6.785156 14.125 7.039062 14.316406 7.222656 L 13.464844 8.5 L 9 8.5 C 8.648438 8.5 8.324219 8.683594 8.140625 8.984375 L 7.125 10.679688 C 6.765625 10.574219 6.394531 10.5 6 10.5 C 3.792969 10.5 2 12.292969 2 14.5 C 2 16.707031 3.792969 18.5 6 18.5 C 7.859375 18.5 9.410156 17.21875 9.859375 15.5 L 12 15.5 C 12.410156 15.5 12.777344 15.25 12.929688 14.871094 L 14.292969 11.464844 L 14.808594 12.113281 C 14.308594 12.78125 14 13.601562 14 14.5 C 14 16.707031 15.792969 18.5 18 18.5 C 20.207031 18.5 22 16.707031 22 14.5 C 22 12.292969 20.207031 10.5 18 10.5 Z M 6 16.5 C 4.898438 16.5 4 15.601562 4 14.5 C 4 13.398438 4.898438 12.5 6 12.5 C 7.101562 12.5 8 13.398438 8 14.5 C 8 15.601562 7.101562 16.5 6 16.5 Z M 11.324219 13.5 L 9.859375 13.5 C 9.679688 12.8125 9.332031 12.191406 8.847656 11.699219 L 9.566406 10.5 L 12.523438 10.5 Z M 18 16.5 C 16.898438 16.5 16 15.601562 16 14.5 C 16 13.398438 16.898438 12.5 18 12.5 C 19.101562 12.5 20 13.398438 20 14.5 C 20 15.601562 19.101562 16.5 18 16.5 Z M 18 16.5 "/>
<path style=" stroke:none;fill-rule:nonzero;fill:rgb(0%,0%,0%);fill-opacity:1;" d="M 8 7.5 L 10 7.5 C 10.550781 7.5 11 7.050781 11 6.5 C 11 5.949219 10.550781 5.5 10 5.5 L 8 5.5 C 7.449219 5.5 7 5.949219 7 6.5 C 7 7.050781 7.449219 7.5 8 7.5 Z M 8 7.5 "/>
</g>
</svg>
