<?xml version="1.0" encoding="UTF-8"?>
<svg xmlns="http://www.w3.org/2000/svg" xmlns:xlink="http://www.w3.org/1999/xlink" width="24px" height="24px" viewBox="0 0 24 24" version="1.1">
<g id="surface1">
<path style=" stroke:none;fill-rule:evenodd;fill:rgb(0%,0%,0%);fill-opacity:1;" d="M 5.4375 9.820312 L 5.710938 9 L 5.25 9 C 4.835938 9 4.5 8.664062 4.5 8.25 C 4.5 7.835938 4.835938 7.5 5.25 7.5 C 5.710938 7.5 6.210938 7.5 6.210938 7.5 C 6.210938 7.5 6.566406 6.425781 6.789062 5.761719 C 6.890625 5.457031 7.175781 5.25 7.5 5.25 C 9.25 5.25 14.75 5.25 16.5 5.25 C 16.824219 5.25 17.109375 5.457031 17.210938 5.761719 L 17.789062 7.5 L 18.75 7.5 C 19.164062 7.5 19.5 7.835938 19.5 8.25 C 19.5 8.664062 19.164062 9 18.75 9 L 18.289062 9 L 18.5625 9.820312 C 19.535156 10.070312 20.25 10.953125 20.25 12 L 20.25 18.75 C 20.25 19.164062 19.914062 19.5 19.5 19.5 C 19.042969 19.5 18.457031 19.5 18 19.5 C 17.585938 19.5 17.25 19.164062 17.25 18.75 L 17.25 18 L 6.75 18 L 6.75 18.75 C 6.75 19.164062 6.414062 19.5 6 19.5 C 5.542969 19.5 4.957031 19.5 4.5 19.5 C 4.085938 19.5 3.75 19.164062 3.75 18.75 C 3.75 17.324219 3.75 14.167969 3.75 12 C 3.75 10.953125 4.464844 10.070312 5.4375 9.820312 Z M 6.75 12.75 C 7.164062 12.75 7.5 13.085938 7.5 13.5 C 7.5 13.914062 7.164062 14.25 6.75 14.25 C 6.09375 14.25 5.25 14.25 5.25 14.25 L 5.25 16.5 L 7.785156 16.5 C 7.785156 16.5 8.667969 14.738281 9.078125 13.914062 C 9.207031 13.660156 9.464844 13.5 9.75 13.5 C 10.773438 13.5 13.226562 13.5 14.25 13.5 C 14.535156 13.5 14.792969 13.660156 14.921875 13.914062 C 15.332031 14.738281 16.214844 16.5 16.214844 16.5 L 18.75 16.5 L 18.75 14.25 L 17.25 14.25 C 16.835938 14.25 16.5 13.914062 16.5 13.5 C 16.5 13.085938 16.835938 12.75 17.25 12.75 C 17.90625 12.75 18.75 12.75 18.75 12.75 L 18.75 12 C 18.75 11.585938 18.414062 11.25 18 11.25 C 15.636719 11.25 8.363281 11.25 6 11.25 C 5.585938 11.25 5.25 11.585938 5.25 12 L 5.25 12.75 Z M 13.785156 15 L 10.214844 15 L 9.464844 16.5 L 14.535156 16.5 Z M 8.039062 6.75 L 7.039062 9.75 L 16.960938 9.75 L 15.960938 6.75 Z M 8.039062 6.75 "/>
</g>
</svg>
