<?xml version="1.0" encoding="UTF-8"?>
<svg xmlns="http://www.w3.org/2000/svg" xmlns:xlink="http://www.w3.org/1999/xlink" width="24px" height="24px" viewBox="0 0 24 24" version="1.1">
<g id="surface1">
<path style=" stroke:none;fill-rule:evenodd;fill:rgb(3.137255%,0.392157%,0%);fill-opacity:1;" d="M 5.097656 7.085938 C 5.097656 7.085938 5.097656 7.089844 5.097656 7.089844 C 5.097656 7.089844 5.097656 7.121094 5.097656 7.121094 C 5.097656 7.121094 5.097656 7.527344 5.097656 7.125 L 5.097656 16.875 C 5.097656 19.914062 8.148438 22.476562 12 22.476562 C 15.851562 22.476562 18.902344 19.914062 18.902344 16.875 L 18.902344 7.125 C 18.902344 4.085938 15.851562 1.523438 12 1.523438 C 8.164062 1.523438 5.121094 4.066406 5.097656 7.085938 Z M 6.550781 7.097656 C 6.570312 4.769531 9.046875 2.976562 12 2.976562 C 14.96875 2.976562 17.449219 4.78125 17.449219 7.125 C 17.449219 7.125 17.449219 16.875 17.449219 16.875 C 17.449219 19.21875 14.96875 21.023438 12 21.023438 C 9.03125 21.023438 6.550781 19.21875 6.550781 16.875 L 6.550781 7.125 C 6.550781 7.527344 6.550781 7.097656 6.550781 7.097656 Z M 6.550781 7.097656 "/>
<path style=" stroke:none;fill-rule:evenodd;fill:rgb(3.137255%,0.392157%,0%);fill-opacity:1;" d="M 5.824219 10.867188 L 18.175781 10.867188 C 18.578125 10.867188 18.902344 10.539062 18.902344 10.140625 C 18.902344 9.738281 18.578125 9.414062 18.175781 9.414062 L 5.824219 9.414062 C 5.421875 9.414062 5.097656 9.738281 5.097656 10.140625 C 5.097656 10.539062 5.421875 10.867188 5.824219 10.867188 Z M 5.824219 10.867188 "/>
<path style=" stroke:none;fill-rule:evenodd;fill:rgb(0%,0%,0%);fill-opacity:1;" d="M 12.375 10.140625 L 12.375 8.484375 C 12.375 8.277344 12.207031 8.109375 12 8.109375 C 11.792969 8.109375 11.625 8.277344 11.625 8.484375 L 11.625 10.140625 C 11.625 10.347656 11.792969 10.515625 12 10.515625 C 12.207031 10.515625 12.375 10.347656 12.375 10.140625 Z M 12.375 10.140625 "/>
<path style=" stroke:none;fill-rule:evenodd;fill:rgb(0%,0%,0%);fill-opacity:1;" d="M 12.375 3.75 L 12.375 2.25 C 12.375 2.042969 12.207031 1.875 12 1.875 C 11.792969 1.875 11.625 2.042969 11.625 2.25 L 11.625 3.75 C 11.625 3.957031 11.792969 4.125 12 4.125 C 12.207031 4.125 12.375 3.957031 12.375 3.75 Z M 12.375 3.75 "/>
<path style=" stroke:none;fill-rule:evenodd;fill:rgb(3.137255%,0.392157%,0%);fill-opacity:1;" d="M 10.828125 5.078125 C 10.828125 5.382812 10.828125 5.289062 10.828125 5.089844 L 10.828125 7.300781 C 10.828125 8.140625 11.390625 8.773438 12 8.773438 C 12.609375 8.773438 13.171875 8.140625 13.171875 7.300781 L 13.171875 5.089844 C 13.171875 4.25 12.609375 3.617188 12 3.617188 C 11.390625 3.617188 10.832031 4.246094 10.828125 5.078125 Z M 11.554688 5.082031 C 11.558594 4.863281 11.617188 4.660156 11.722656 4.519531 C 11.796875 4.417969 11.890625 4.34375 12 4.34375 C 12.109375 4.34375 12.203125 4.417969 12.277344 4.519531 C 12.382812 4.664062 12.445312 4.867188 12.445312 5.089844 C 12.445312 5.089844 12.445312 7.300781 12.445312 7.300781 C 12.445312 7.523438 12.382812 7.726562 12.277344 7.871094 C 12.203125 7.96875 12.109375 8.046875 12 8.046875 C 11.890625 8.046875 11.796875 7.96875 11.722656 7.871094 C 11.617188 7.726562 11.554688 7.523438 11.554688 7.300781 C 11.554688 7.300781 11.554688 5.089844 11.554688 5.089844 C 11.554688 5.289062 11.554688 5.082031 11.554688 5.082031 Z M 11.554688 5.082031 "/>
</g>
</svg>
