<?xml version="1.0" encoding="UTF-8"?>
<svg xmlns="http://www.w3.org/2000/svg" xmlns:xlink="http://www.w3.org/1999/xlink" width="24px" height="24px" viewBox="0 0 24 24" version="1.1">
<g id="surface1">
<path style=" stroke:none;fill-rule:nonzero;fill:rgb(0%,0%,0%);fill-opacity:1;" d="M 19 7 L 14 7 L 14 11 L 10 11 L 10 7 L 5 7 L 5 8 L 2 8 L 2 16 L 5 16 L 5 17 L 10 17 L 10 13 L 14 13 L 14 17 L 19 17 L 19 16 L 22 16 L 22 8 L 19 8 Z M 4 14 L 4 10 L 5 10 L 5 14 Z M 8 15 L 7 15 L 7 9 L 8 9 Z M 16 9 L 17 9 L 17 15 L 16 15 Z M 20 10 L 20 14 L 19 14 L 19 10 Z M 20 10 "/>
</g>
</svg>
