<svg xmlns="http://www.w3.org/2000/svg" width="24.13" height="28.151" viewBox="0 0 24.13 28.151">
<path id="Icon_metro-file-code" data-name="Icon metro-file-code" d="M25.632,8.173a3.655,3.655,0,0,1,.754,1.194,3.625,3.625,0,0,1,.314,1.382v18.1a1.5,1.5,0,0,1-1.508,1.508H4.079a1.5,1.5,0,0,1-1.508-1.508V3.712A1.5,1.5,0,0,1,4.079,2.2H18.155a3.627,3.627,0,0,1,1.382.314,3.655,3.655,0,0,1,1.194.754ZM18.657,4.34v5.907h5.907a1.716,1.716,0,0,0-.346-.644L19.3,4.686a1.716,1.716,0,0,0-.644-.346Zm6.032,24V12.258H18.155a1.5,1.5,0,0,1-1.508-1.508V4.214H4.582v24.13H24.69ZM10.111,14.268a.459.459,0,0,1,.33-.2.52.52,0,0,1,.377.1l.8.6a.459.459,0,0,1,.2.33.52.52,0,0,1-.1.377L8.855,19.3l2.859,3.817a.52.52,0,0,1,.1.377.459.459,0,0,1-.2.33l-.8.6a.52.52,0,0,1-.377.1.459.459,0,0,1-.33-.2l-3.55-4.729a.46.46,0,0,1,0-.6ZM22.71,19a.46.46,0,0,1,0,.6l-3.55,4.729a.458.458,0,0,1-.33.2.52.52,0,0,1-.377-.1l-.8-.6a.459.459,0,0,1-.2-.33.52.52,0,0,1,.1-.377L20.417,19.3l-2.859-3.817a.52.52,0,0,1-.1-.377.458.458,0,0,1,.2-.33l.8-.6a.52.52,0,0,1,.377-.1.459.459,0,0,1,.33.2Zm-9.74,7.242a.46.46,0,0,1-.322-.2.51.51,0,0,1-.086-.377L14.73,12.6a.46.46,0,0,1,.2-.322.51.51,0,0,1,.377-.086l.99.157a.459.459,0,0,1,.322.2.51.51,0,0,1,.086.377L14.541,25.988a.46.46,0,0,1-.2.322.51.51,0,0,1-.377.086Z" transform="translate(-2.571 -2.203)" fill="#0288cc"/>
</svg>