<svg xmlns="http://www.w3.org/2000/svg" xmlns:xlink="http://www.w3.org/1999/xlink" version="1.1" xml:space="preserve" viewBox="2.5 3.5 150 125.35">
<desc>Created with Fabric.js 3.6.3</desc>
<defs>
</defs>
<g transform="matrix(1 0 0 1 77.5 66.18)" id="surface1">
<path style="stroke: none; stroke-width: 1; stroke-dasharray: none; stroke-linecap: butt; stroke-dashoffset: 0; stroke-linejoin: miter; stroke-miterlimit: 4; fill: rgb(2,136,204); fill-rule: nonzero; opacity: 1;" transform=" translate(-75, -75)" d="M 150 105.929688 C 150 97.152344 147.371094 88.675781 142.398438 81.417969 C 138.820312 76.199219 134.214844 71.863281 128.875 68.644531 C 135.160156 62.691406 139.09375 54.277344 139.09375 44.960938 C 139.09375 26.964844 124.453125 12.324219 106.460938 12.324219 C 95.789062 12.324219 85.792969 17.601562 79.722656 26.265625 C 78.179688 26.039062 76.605469 25.917969 75 25.917969 C 73.394531 25.917969 71.820312 26.042969 70.277344 26.265625 C 64.207031 17.601562 54.210938 12.324219 43.539062 12.324219 C 25.546875 12.324219 10.90625 26.964844 10.90625 44.960938 C 10.90625 54.277344 14.839844 62.691406 21.125 68.644531 C 15.785156 71.863281 11.179688 76.199219 7.601562 81.417969 C 2.628906 88.675781 0 97.152344 0 105.929688 L 0 124.082031 L 31.460938 124.082031 L 31.460938 137.675781 L 118.539062 137.675781 L 118.539062 124.082031 L 150 124.082031 Z M 106.460938 20.378906 C 120.011719 20.378906 131.039062 31.40625 131.039062 44.960938 C 131.039062 58.515625 120.011719 69.539062 106.460938 69.539062 C 106.214844 69.539062 105.972656 69.539062 105.730469 69.53125 C 105.75 69.476562 105.765625 69.425781 105.78125 69.375 C 106.203125 68.183594 106.550781 66.960938 106.832031 65.714844 C 106.851562 65.625 106.875 65.539062 106.894531 65.449219 C 106.964844 65.113281 107.03125 64.773438 107.09375 64.433594 C 107.121094 64.269531 107.152344 64.109375 107.179688 63.949219 C 107.230469 63.644531 107.277344 63.339844 107.320312 63.03125 C 107.347656 62.820312 107.375 62.605469 107.398438 62.394531 C 107.433594 62.121094 107.464844 61.851562 107.488281 61.578125 C 107.515625 61.300781 107.535156 61.023438 107.550781 60.742188 C 107.566406 60.523438 107.585938 60.304688 107.59375 60.082031 C 107.617188 59.609375 107.628906 59.132812 107.628906 58.660156 C 107.628906 58.625 107.632812 58.589844 107.632812 58.554688 C 107.632812 58.535156 107.632812 58.515625 107.632812 58.496094 C 107.632812 58.011719 107.617188 57.53125 107.59375 57.050781 C 107.589844 56.910156 107.582031 56.769531 107.574219 56.632812 C 107.546875 56.222656 107.519531 55.816406 107.480469 55.410156 C 107.46875 55.320312 107.464844 55.226562 107.453125 55.136719 C 106.238281 43.375 98.804688 33.304688 88.085938 28.648438 C 92.707031 23.457031 99.386719 20.378906 106.460938 20.378906 Z M 66.496094 35.492188 C 66.574219 35.460938 66.652344 35.433594 66.730469 35.40625 C 66.976562 35.320312 67.222656 35.238281 67.46875 35.15625 C 67.65625 35.097656 67.847656 35.039062 68.035156 34.984375 C 68.175781 34.941406 68.3125 34.902344 68.453125 34.863281 C 68.699219 34.796875 68.949219 34.730469 69.203125 34.667969 C 71.0625 34.21875 73.003906 33.972656 75 33.972656 C 76.996094 33.972656 78.9375 34.21875 80.800781 34.671875 C 81.050781 34.730469 81.296875 34.796875 81.542969 34.863281 C 81.683594 34.902344 81.824219 34.945312 81.964844 34.984375 C 82.152344 35.039062 82.339844 35.097656 82.527344 35.15625 C 82.777344 35.238281 83.027344 35.320312 83.273438 35.410156 C 83.347656 35.4375 83.425781 35.460938 83.5 35.492188 C 91.722656 38.53125 97.886719 45.847656 99.28125 54.726562 C 99.289062 54.796875 99.300781 54.867188 99.3125 54.9375 C 99.355469 55.238281 99.394531 55.542969 99.425781 55.847656 C 99.4375 55.957031 99.453125 56.070312 99.464844 56.183594 C 99.488281 56.460938 99.507812 56.738281 99.527344 57.019531 C 99.535156 57.140625 99.542969 57.257812 99.550781 57.378906 C 99.566406 57.738281 99.578125 58.097656 99.578125 58.460938 C 99.578125 58.492188 99.578125 58.523438 99.578125 58.554688 C 99.578125 58.566406 99.578125 58.582031 99.578125 58.597656 C 99.578125 58.945312 99.566406 59.296875 99.550781 59.640625 C 99.546875 59.75 99.542969 59.859375 99.535156 59.96875 C 99.515625 60.304688 99.492188 60.636719 99.460938 60.96875 C 99.449219 61.097656 99.429688 61.222656 99.417969 61.351562 C 99.390625 61.566406 99.363281 61.78125 99.335938 61.992188 C 99.3125 62.15625 99.289062 62.324219 99.261719 62.488281 C 99.21875 62.738281 99.175781 62.988281 99.125 63.238281 C 99.082031 63.457031 99.035156 63.679688 98.988281 63.898438 C 98.957031 64.03125 98.925781 64.164062 98.894531 64.296875 C 98.816406 64.621094 98.730469 64.945312 98.640625 65.269531 C 98.601562 65.398438 98.570312 65.527344 98.53125 65.65625 C 98.472656 65.839844 98.414062 66.023438 98.351562 66.207031 C 98.304688 66.355469 98.253906 66.5 98.203125 66.644531 C 98.144531 66.8125 98.089844 66.976562 98.027344 67.140625 C 97.921875 67.421875 97.8125 67.699219 97.699219 67.972656 C 97.648438 68.09375 97.59375 68.214844 97.542969 68.335938 C 97.441406 68.566406 97.339844 68.792969 97.234375 69.019531 C 97.222656 69.042969 97.210938 69.070312 97.195312 69.097656 C 97.160156 69.175781 97.121094 69.257812 97.082031 69.335938 C 96.960938 69.582031 96.839844 69.820312 96.710938 70.058594 C 96.660156 70.152344 96.613281 70.246094 96.5625 70.335938 C 96.558594 70.34375 96.558594 70.347656 96.554688 70.355469 C 96.414062 70.609375 96.269531 70.859375 96.121094 71.105469 C 96.0625 71.203125 96.003906 71.304688 95.945312 71.402344 C 95.785156 71.660156 95.617188 71.921875 95.449219 72.175781 C 95.339844 72.332031 95.230469 72.488281 95.121094 72.644531 C 95.027344 72.777344 94.9375 72.910156 94.839844 73.039062 C 94.714844 73.207031 94.589844 73.375 94.460938 73.539062 C 94.375 73.652344 94.289062 73.761719 94.199219 73.875 C 94.0625 74.042969 93.925781 74.210938 93.789062 74.375 C 93.703125 74.480469 93.613281 74.582031 93.523438 74.679688 C 93.378906 74.847656 93.234375 75.015625 93.085938 75.175781 C 92.996094 75.273438 92.90625 75.367188 92.816406 75.460938 C 92.574219 75.714844 92.324219 75.964844 92.070312 76.210938 C 91.921875 76.355469 91.773438 76.503906 91.617188 76.644531 C 91.511719 76.742188 91.402344 76.835938 91.292969 76.933594 C 91.117188 77.089844 90.941406 77.246094 90.757812 77.394531 C 90.667969 77.472656 90.574219 77.550781 90.480469 77.625 C 90.261719 77.804688 90.042969 77.976562 89.816406 78.148438 C 89.753906 78.195312 89.695312 78.242188 89.632812 78.289062 C 85.542969 81.328125 80.476562 83.132812 75 83.132812 C 69.519531 83.132812 64.457031 81.328125 60.363281 78.285156 C 60.304688 78.242188 60.246094 78.195312 60.183594 78.148438 C 59.957031 77.976562 59.734375 77.800781 59.515625 77.625 C 59.425781 77.546875 59.332031 77.472656 59.242188 77.398438 C 59.058594 77.246094 58.882812 77.089844 58.703125 76.929688 C 58.597656 76.835938 58.488281 76.742188 58.382812 76.644531 C 58.226562 76.503906 58.078125 76.355469 57.925781 76.210938 C 57.671875 75.964844 57.425781 75.714844 57.179688 75.457031 C 57.09375 75.363281 57 75.273438 56.914062 75.175781 C 56.765625 75.015625 56.621094 74.847656 56.476562 74.679688 C 56.386719 74.578125 56.296875 74.480469 56.210938 74.375 C 56.070312 74.210938 55.9375 74.042969 55.800781 73.875 C 55.710938 73.761719 55.625 73.652344 55.535156 73.539062 C 55.410156 73.375 55.28125 73.207031 55.160156 73.039062 C 55.0625 72.910156 54.972656 72.777344 54.878906 72.644531 C 54.769531 72.488281 54.65625 72.332031 54.550781 72.175781 C 54.382812 71.917969 54.214844 71.660156 54.054688 71.398438 C 53.996094 71.300781 53.9375 71.203125 53.878906 71.109375 C 53.730469 70.855469 53.582031 70.601562 53.441406 70.347656 C 53.390625 70.25 53.339844 70.15625 53.289062 70.058594 C 53.160156 69.820312 53.035156 69.578125 52.917969 69.335938 C 52.875 69.25 52.832031 69.160156 52.792969 69.074219 C 52.785156 69.0625 52.777344 69.046875 52.773438 69.035156 C 52.660156 68.800781 52.554688 68.5625 52.449219 68.324219 C 52.402344 68.207031 52.351562 68.09375 52.304688 67.980469 C 52.1875 67.699219 52.074219 67.417969 51.96875 67.132812 C 51.910156 66.980469 51.855469 66.824219 51.804688 66.667969 C 51.746094 66.507812 51.691406 66.347656 51.640625 66.1875 C 51.582031 66.015625 51.527344 65.839844 51.472656 65.664062 C 51.394531 65.402344 51.320312 65.140625 51.25 64.875 C 51.199219 64.691406 51.152344 64.503906 51.109375 64.316406 C 51.074219 64.167969 51.039062 64.023438 51.007812 63.875 C 50.964844 63.695312 50.925781 63.511719 50.890625 63.332031 C 50.832031 63.046875 50.78125 62.761719 50.734375 62.476562 C 50.710938 62.320312 50.6875 62.167969 50.667969 62.011719 C 50.632812 61.78125 50.605469 61.550781 50.578125 61.320312 C 50.566406 61.207031 50.550781 61.09375 50.539062 60.980469 C 50.507812 60.640625 50.480469 60.296875 50.460938 59.953125 C 50.457031 59.855469 50.453125 59.757812 50.445312 59.660156 C 50.429688 59.292969 50.417969 58.921875 50.417969 58.554688 C 50.417969 58.15625 50.429688 57.761719 50.449219 57.367188 C 50.453125 57.261719 50.464844 57.15625 50.46875 57.050781 C 50.488281 56.753906 50.507812 56.460938 50.535156 56.167969 C 50.546875 56.066406 50.558594 55.964844 50.570312 55.863281 C 50.601562 55.546875 50.640625 55.234375 50.6875 54.917969 C 50.699219 54.859375 50.707031 54.796875 50.714844 54.738281 C 52.105469 45.851562 58.273438 38.53125 66.496094 35.492188 Z M 18.960938 44.960938 C 18.960938 31.40625 29.988281 20.378906 43.539062 20.378906 C 50.613281 20.378906 57.292969 23.460938 61.914062 28.648438 C 51.191406 33.304688 43.757812 43.378906 42.542969 55.144531 C 42.535156 55.226562 42.53125 55.304688 42.523438 55.386719 C 42.480469 55.804688 42.449219 56.226562 42.425781 56.648438 C 42.417969 56.777344 42.410156 56.90625 42.40625 57.035156 C 42.382812 57.539062 42.367188 58.046875 42.367188 58.554688 C 42.367188 59.066406 42.382812 59.582031 42.40625 60.09375 C 42.414062 60.300781 42.429688 60.503906 42.445312 60.707031 C 42.464844 61.003906 42.484375 61.296875 42.511719 61.59375 C 42.535156 61.851562 42.566406 62.113281 42.597656 62.371094 C 42.625 62.597656 42.652344 62.824219 42.683594 63.050781 C 42.722656 63.347656 42.769531 63.640625 42.816406 63.933594 C 42.847656 64.109375 42.878906 64.28125 42.910156 64.457031 C 42.972656 64.785156 43.03125 65.113281 43.101562 65.4375 C 43.125 65.546875 43.152344 65.652344 43.175781 65.757812 C 43.449219 66.96875 43.789062 68.152344 44.195312 69.304688 C 44.21875 69.378906 44.242188 69.457031 44.269531 69.53125 C 44.027344 69.539062 43.78125 69.539062 43.539062 69.539062 C 29.988281 69.539062 18.960938 58.515625 18.960938 44.960938 Z M 38.210938 96.304688 C 38.125 96.445312 38.039062 96.585938 37.953125 96.726562 C 37.765625 97.023438 37.585938 97.324219 37.410156 97.625 C 37.308594 97.792969 37.214844 97.960938 37.121094 98.128906 C 36.960938 98.410156 36.804688 98.6875 36.652344 98.972656 C 36.554688 99.148438 36.460938 99.328125 36.367188 99.507812 C 36.222656 99.785156 36.078125 100.070312 35.9375 100.351562 C 35.851562 100.53125 35.761719 100.707031 35.675781 100.886719 C 35.535156 101.183594 35.398438 101.484375 35.261719 101.785156 C 35.1875 101.949219 35.113281 102.113281 35.039062 102.277344 C 34.882812 102.640625 34.734375 103.003906 34.585938 103.367188 C 34.542969 103.472656 34.496094 103.578125 34.457031 103.6875 C 34.269531 104.160156 34.089844 104.636719 33.921875 105.117188 C 33.882812 105.226562 33.847656 105.339844 33.808594 105.449219 C 33.683594 105.816406 33.558594 106.1875 33.441406 106.5625 C 33.386719 106.730469 33.339844 106.90625 33.289062 107.074219 C 33.191406 107.390625 33.101562 107.707031 33.011719 108.027344 C 32.960938 108.214844 32.910156 108.40625 32.863281 108.59375 C 32.78125 108.898438 32.707031 109.207031 32.632812 109.511719 C 32.585938 109.707031 32.542969 109.902344 32.5 110.097656 C 32.429688 110.410156 32.363281 110.722656 32.300781 111.035156 C 32.265625 111.222656 32.226562 111.410156 32.191406 111.597656 C 32.128906 111.941406 32.070312 112.28125 32.015625 112.625 C 31.988281 112.785156 31.960938 112.945312 31.9375 113.105469 C 31.863281 113.609375 31.792969 114.113281 31.738281 114.621094 C 31.734375 114.628906 31.734375 114.632812 31.734375 114.640625 C 31.683594 115.101562 31.636719 115.5625 31.601562 116.027344 L 8.054688 116.027344 L 8.054688 105.929688 C 8.054688 92.132812 15.984375 79.75 28.410156 73.863281 C 32.9375 76.242188 38.082031 77.59375 43.539062 77.59375 C 45.117188 77.59375 46.703125 77.476562 48.273438 77.246094 C 48.519531 77.597656 48.765625 77.941406 49.023438 78.28125 C 49.113281 78.394531 49.203125 78.503906 49.289062 78.617188 C 49.546875 78.945312 49.804688 79.265625 50.070312 79.582031 C 50.179688 79.710938 50.292969 79.835938 50.402344 79.964844 C 50.652344 80.25 50.90625 80.535156 51.164062 80.8125 C 51.300781 80.957031 51.441406 81.101562 51.578125 81.246094 C 51.816406 81.488281 52.054688 81.730469 52.300781 81.96875 C 52.390625 82.058594 52.480469 82.152344 52.570312 82.238281 C 52.222656 82.449219 51.875 82.667969 51.53125 82.886719 C 51.476562 82.925781 51.421875 82.960938 51.363281 83 C 51.019531 83.222656 50.679688 83.449219 50.34375 83.683594 C 50.226562 83.761719 50.113281 83.84375 49.996094 83.925781 C 49.695312 84.136719 49.398438 84.351562 49.105469 84.570312 C 49.011719 84.640625 48.917969 84.707031 48.824219 84.777344 C 48.453125 85.058594 48.082031 85.347656 47.714844 85.644531 C 47.636719 85.707031 47.558594 85.773438 47.476562 85.839844 C 47.1875 86.078125 46.898438 86.320312 46.617188 86.566406 C 46.503906 86.660156 46.394531 86.757812 46.285156 86.851562 C 46 87.101562 45.71875 87.359375 45.441406 87.617188 C 45.371094 87.683594 45.296875 87.75 45.222656 87.816406 C 44.882812 88.136719 44.546875 88.464844 44.214844 88.796875 C 44.128906 88.886719 44.042969 88.972656 43.957031 89.0625 C 43.703125 89.320312 43.453125 89.582031 43.207031 89.847656 C 43.109375 89.953125 43.007812 90.058594 42.910156 90.164062 C 42.632812 90.46875 42.359375 90.777344 42.089844 91.089844 C 42.046875 91.140625 42.003906 91.1875 41.960938 91.238281 C 41.652344 91.597656 41.351562 91.960938 41.054688 92.332031 C 40.96875 92.4375 40.890625 92.539062 40.808594 92.644531 C 40.585938 92.929688 40.363281 93.214844 40.148438 93.503906 C 40.0625 93.617188 39.980469 93.726562 39.898438 93.839844 C 39.613281 94.226562 39.332031 94.617188 39.0625 95.015625 C 38.769531 95.441406 38.488281 95.871094 38.210938 96.304688 Z M 39.511719 129.621094 L 39.511719 119.523438 C 39.511719 119.074219 39.523438 118.628906 39.539062 118.1875 C 39.542969 118.039062 39.554688 117.894531 39.5625 117.75 C 39.578125 117.453125 39.589844 117.15625 39.613281 116.859375 C 39.625 116.679688 39.644531 116.503906 39.664062 116.324219 C 39.6875 116.066406 39.707031 115.804688 39.734375 115.546875 C 39.757812 115.355469 39.785156 115.167969 39.808594 114.980469 C 39.839844 114.734375 39.871094 114.488281 39.90625 114.242188 C 39.933594 114.046875 39.96875 113.855469 40.003906 113.660156 C 40.042969 113.425781 40.078125 113.1875 40.125 112.953125 C 40.160156 112.753906 40.203125 112.558594 40.246094 112.359375 C 40.292969 112.132812 40.335938 111.902344 40.386719 111.675781 C 40.433594 111.476562 40.484375 111.28125 40.53125 111.082031 C 40.585938 110.859375 40.640625 110.636719 40.695312 110.414062 C 40.75 110.214844 40.808594 110.019531 40.867188 109.820312 C 40.925781 109.601562 40.984375 109.386719 41.050781 109.171875 C 41.113281 108.972656 41.179688 108.773438 41.242188 108.574219 C 41.3125 108.363281 41.378906 108.152344 41.449219 107.945312 C 41.519531 107.746094 41.59375 107.550781 41.664062 107.355469 C 41.738281 107.148438 41.8125 106.941406 41.894531 106.734375 C 41.96875 106.539062 42.050781 106.347656 42.128906 106.152344 C 42.210938 105.949219 42.292969 105.746094 42.378906 105.542969 C 42.460938 105.351562 42.550781 105.160156 42.636719 104.96875 C 42.726562 104.769531 42.8125 104.570312 42.90625 104.375 C 42.996094 104.183594 43.089844 103.996094 43.183594 103.804688 C 43.28125 103.613281 43.375 103.417969 43.472656 103.226562 C 43.574219 103.039062 43.675781 102.851562 43.777344 102.667969 C 43.878906 102.476562 43.980469 102.289062 44.085938 102.101562 C 44.1875 101.917969 44.296875 101.734375 44.40625 101.550781 C 44.515625 101.367188 44.621094 101.183594 44.734375 101 C 44.847656 100.816406 44.960938 100.640625 45.074219 100.460938 C 45.191406 100.277344 45.304688 100.097656 45.421875 99.921875 C 45.542969 99.742188 45.664062 99.566406 45.785156 99.390625 C 45.90625 99.214844 46.027344 99.042969 46.152344 98.867188 C 46.277344 98.695312 46.40625 98.523438 46.53125 98.351562 C 46.660156 98.179688 46.789062 98.011719 46.917969 97.84375 C 47.046875 97.671875 47.183594 97.503906 47.316406 97.339844 C 47.449219 97.171875 47.585938 97.007812 47.71875 96.84375 C 47.859375 96.679688 48 96.515625 48.136719 96.355469 C 48.277344 96.191406 48.417969 96.03125 48.5625 95.871094 C 48.703125 95.710938 48.851562 95.554688 48.996094 95.398438 C 49.140625 95.242188 49.289062 95.085938 49.4375 94.933594 C 49.585938 94.777344 49.738281 94.625 49.890625 94.472656 C 50.042969 94.320312 50.195312 94.171875 50.347656 94.019531 C 50.503906 93.871094 50.660156 93.726562 50.816406 93.582031 C 50.972656 93.433594 51.132812 93.289062 51.292969 93.144531 C 51.453125 93 51.617188 92.859375 51.777344 92.71875 C 51.941406 92.578125 52.105469 92.4375 52.273438 92.296875 C 52.4375 92.160156 52.605469 92.023438 52.773438 91.890625 C 52.945312 91.753906 53.113281 91.617188 53.289062 91.484375 C 53.457031 91.355469 53.628906 91.222656 53.800781 91.09375 C 53.976562 90.964844 54.15625 90.835938 54.332031 90.707031 C 54.507812 90.582031 54.683594 90.457031 54.863281 90.335938 C 55.042969 90.210938 55.226562 90.085938 55.410156 89.964844 C 55.589844 89.847656 55.773438 89.730469 55.953125 89.613281 C 56.140625 89.496094 56.332031 89.375 56.519531 89.261719 C 56.703125 89.148438 56.890625 89.039062 57.074219 88.929688 C 57.269531 88.816406 57.464844 88.703125 57.660156 88.59375 C 57.847656 88.488281 58.039062 88.386719 58.226562 88.28125 C 58.425781 88.175781 58.628906 88.070312 58.828125 87.964844 C 59.023438 87.867188 59.214844 87.769531 59.410156 87.675781 C 59.5625 87.601562 59.714844 87.527344 59.871094 87.453125 C 64.394531 89.835938 69.542969 91.1875 75 91.1875 C 80.457031 91.1875 85.605469 89.835938 90.128906 87.453125 C 90.28125 87.527344 90.4375 87.597656 90.585938 87.671875 C 90.785156 87.769531 90.980469 87.867188 91.171875 87.96875 C 91.371094 88.070312 91.570312 88.175781 91.769531 88.28125 C 91.960938 88.382812 92.152344 88.488281 92.34375 88.597656 C 92.535156 88.703125 92.730469 88.816406 92.917969 88.925781 C 93.109375 89.039062 93.296875 89.148438 93.480469 89.261719 C 93.667969 89.378906 93.855469 89.492188 94.042969 89.613281 C 94.226562 89.730469 94.410156 89.847656 94.589844 89.96875 C 94.773438 90.089844 94.953125 90.210938 95.132812 90.335938 C 95.3125 90.457031 95.492188 90.582031 95.667969 90.707031 C 95.84375 90.835938 96.019531 90.964844 96.191406 91.09375 C 96.367188 91.222656 96.542969 91.355469 96.714844 91.488281 C 96.882812 91.617188 97.054688 91.753906 97.222656 91.886719 C 97.390625 92.023438 97.558594 92.160156 97.726562 92.296875 C 97.890625 92.4375 98.054688 92.574219 98.21875 92.714844 C 98.382812 92.855469 98.542969 93 98.707031 93.144531 C 98.863281 93.285156 99.023438 93.433594 99.179688 93.578125 C 99.339844 93.726562 99.496094 93.871094 99.652344 94.023438 C 99.804688 94.171875 99.957031 94.320312 100.105469 94.472656 C 100.257812 94.625 100.414062 94.777344 100.5625 94.933594 C 100.710938 95.085938 100.855469 95.242188 101 95.394531 C 101.148438 95.554688 101.292969 95.710938 101.4375 95.875 C 101.582031 96.03125 101.71875 96.191406 101.859375 96.351562 C 102 96.515625 102.140625 96.679688 102.277344 96.84375 C 102.414062 97.007812 102.546875 97.171875 102.679688 97.335938 C 102.816406 97.503906 102.949219 97.671875 103.082031 97.84375 C 103.210938 98.011719 103.339844 98.179688 103.464844 98.347656 C 103.59375 98.519531 103.722656 98.695312 103.847656 98.867188 C 103.972656 99.039062 104.09375 99.214844 104.210938 99.390625 C 104.335938 99.566406 104.457031 99.742188 104.574219 99.921875 C 104.691406 100.097656 104.808594 100.277344 104.921875 100.457031 C 105.035156 100.636719 105.152344 100.816406 105.265625 101 C 105.375 101.179688 105.484375 101.363281 105.589844 101.546875 C 105.699219 101.730469 105.808594 101.914062 105.914062 102.101562 C 106.019531 102.289062 106.121094 102.476562 106.222656 102.664062 C 106.324219 102.851562 106.425781 103.039062 106.523438 103.226562 C 106.621094 103.417969 106.71875 103.613281 106.8125 103.804688 C 106.90625 103.996094 107.003906 104.183594 107.09375 104.375 C 107.183594 104.570312 107.273438 104.769531 107.363281 104.964844 C 107.449219 105.160156 107.535156 105.351562 107.621094 105.546875 C 107.707031 105.746094 107.785156 105.945312 107.867188 106.148438 C 107.949219 106.34375 108.03125 106.539062 108.105469 106.734375 C 108.183594 106.941406 108.257812 107.144531 108.332031 107.351562 C 108.40625 107.550781 108.480469 107.746094 108.546875 107.945312 C 108.621094 108.152344 108.6875 108.367188 108.753906 108.578125 C 108.820312 108.773438 108.886719 108.972656 108.945312 109.171875 C 109.011719 109.386719 109.070312 109.601562 109.132812 109.820312 C 109.1875 110.019531 109.25 110.214844 109.300781 110.414062 C 109.359375 110.636719 109.410156 110.859375 109.464844 111.082031 C 109.515625 111.277344 109.566406 111.476562 109.609375 111.675781 C 109.660156 111.902344 109.707031 112.132812 109.753906 112.359375 C 109.792969 112.558594 109.835938 112.753906 109.875 112.953125 C 109.917969 113.183594 109.957031 113.421875 109.996094 113.65625 C 110.027344 113.851562 110.0625 114.046875 110.09375 114.242188 C 110.128906 114.484375 110.15625 114.730469 110.191406 114.972656 C 110.214844 115.164062 110.242188 115.355469 110.265625 115.546875 C 110.292969 115.804688 110.3125 116.066406 110.335938 116.324219 C 110.351562 116.503906 110.375 116.679688 110.386719 116.859375 C 110.410156 117.15625 110.421875 117.453125 110.4375 117.75 C 110.445312 117.894531 110.457031 118.039062 110.460938 118.1875 C 110.476562 118.628906 110.484375 119.074219 110.484375 119.523438 L 110.484375 129.621094 Z M 118.402344 116.027344 C 118.320312 115.046875 118.207031 114.070312 118.0625 113.101562 C 118.042969 112.949219 118.015625 112.796875 117.988281 112.644531 C 117.933594 112.292969 117.875 111.941406 117.808594 111.59375 C 117.777344 111.410156 117.738281 111.226562 117.703125 111.042969 C 117.636719 110.726562 117.574219 110.40625 117.5 110.089844 C 117.460938 109.902344 117.414062 109.710938 117.371094 109.519531 C 117.296875 109.207031 117.21875 108.898438 117.136719 108.589844 C 117.089844 108.402344 117.039062 108.214844 116.988281 108.027344 C 116.902344 107.707031 116.808594 107.386719 116.710938 107.070312 C 116.660156 106.898438 116.613281 106.730469 116.558594 106.5625 C 116.441406 106.183594 116.316406 105.808594 116.183594 105.433594 C 116.148438 105.328125 116.117188 105.222656 116.078125 105.117188 C 115.910156 104.636719 115.730469 104.160156 115.542969 103.683594 C 115.503906 103.582031 115.460938 103.480469 115.417969 103.378906 C 115.269531 103.011719 115.117188 102.640625 114.957031 102.277344 C 114.886719 102.113281 114.8125 101.953125 114.742188 101.792969 C 114.605469 101.488281 114.464844 101.183594 114.320312 100.882812 C 114.238281 100.707031 114.148438 100.53125 114.0625 100.355469 C 113.921875 100.070312 113.777344 99.785156 113.628906 99.503906 C 113.539062 99.324219 113.445312 99.148438 113.347656 98.972656 C 113.195312 98.691406 113.039062 98.410156 112.878906 98.128906 C 112.785156 97.960938 112.6875 97.792969 112.589844 97.625 C 112.414062 97.320312 112.230469 97.023438 112.046875 96.722656 C 111.960938 96.585938 111.875 96.445312 111.789062 96.304688 C 111.511719 95.871094 111.230469 95.441406 110.9375 95.015625 C 110.664062 94.617188 110.386719 94.226562 110.101562 93.839844 C 110.019531 93.726562 109.933594 93.617188 109.851562 93.507812 C 109.632812 93.214844 109.414062 92.925781 109.1875 92.644531 C 109.109375 92.539062 109.027344 92.4375 108.945312 92.335938 C 108.648438 91.960938 108.347656 91.59375 108.039062 91.234375 C 107.996094 91.1875 107.957031 91.144531 107.914062 91.097656 C 107.644531 90.78125 107.367188 90.46875 107.085938 90.164062 C 106.988281 90.058594 106.890625 89.953125 106.792969 89.847656 C 106.546875 89.582031 106.292969 89.316406 106.039062 89.058594 C 105.953125 88.972656 105.871094 88.886719 105.785156 88.800781 C 105.453125 88.46875 105.117188 88.136719 104.773438 87.816406 C 104.703125 87.75 104.628906 87.683594 104.558594 87.621094 C 104.28125 87.359375 103.996094 87.105469 103.710938 86.851562 C 103.601562 86.757812 103.492188 86.660156 103.382812 86.566406 C 103.097656 86.320312 102.808594 86.078125 102.519531 85.839844 C 102.441406 85.773438 102.363281 85.707031 102.28125 85.644531 C 101.917969 85.347656 101.546875 85.058594 101.171875 84.777344 C 101.078125 84.707031 100.984375 84.640625 100.890625 84.570312 C 100.597656 84.351562 100.304688 84.136719 100.003906 83.925781 C 99.886719 83.84375 99.769531 83.761719 99.652344 83.679688 C 99.320312 83.453125 98.980469 83.226562 98.640625 83.003906 C 98.582031 82.964844 98.523438 82.925781 98.464844 82.886719 C 98.121094 82.667969 97.777344 82.453125 97.425781 82.242188 C 97.515625 82.15625 97.601562 82.0625 97.691406 81.976562 C 97.941406 81.734375 98.183594 81.488281 98.425781 81.238281 C 98.5625 81.101562 98.695312 80.960938 98.828125 80.820312 C 99.09375 80.535156 99.347656 80.25 99.601562 79.957031 C 99.710938 79.835938 99.820312 79.710938 99.925781 79.585938 C 100.195312 79.265625 100.457031 78.9375 100.714844 78.609375 C 100.800781 78.5 100.886719 78.394531 100.96875 78.285156 C 101.230469 77.945312 101.480469 77.597656 101.726562 77.246094 C 103.296875 77.476562 104.878906 77.59375 106.457031 77.59375 C 111.917969 77.59375 117.0625 76.242188 121.589844 73.863281 C 134.015625 79.75 141.945312 92.132812 141.945312 105.929688 L 141.945312 116.027344 Z M 118.402344 116.027344" stroke-linecap="round"/>
</g>
</svg>