<svg id="Layer_1" data-name="Layer 1" xmlns="http://www.w3.org/2000/svg" viewBox="0 0 566.93 167">
  <defs>
    <style>
      .cls-1 {
        fill: #fd0;
      }
    </style>
  </defs>
  <title>JBH logo-2</title>
  <g>
    <rect x="15.12" y="19.07" width="513.6" height="138.21"/>
    <rect class="cls-1" x="27.43" y="31.29" width="486.14" height="112.82"/>
    <path d="M554,135.45a8,8,0,0,1,2.26,5.75A8.16,8.16,0,0,1,554,147a7.44,7.44,0,0,1-10.87,0,8.22,8.22,0,0,1-2.24-5.78,8.05,8.05,0,0,1,2.25-5.75,7.38,7.38,0,0,1,10.86,0Zm.9-.91a8.42,8.42,0,0,0-6.33-2.75,8.32,8.32,0,0,0-6.29,2.75,9.79,9.79,0,0,0,0,13.31,8.55,8.55,0,0,0,12.64,0,9.79,9.79,0,0,0,0-13.31Zm-5,6.21a4.3,4.3,0,0,1-1.63.23h-1.59v-3.73h1.49a4.42,4.42,0,0,1,2.1.37,1.93,1.93,0,0,1-.37,3.13Zm-4.94,5.59h1.72v-4.1H548a3.83,3.83,0,0,1,1.94.35c.61.38.91,1.15.91,2.37v.83l0,.32v.12s0,.07,0,.11h1.63l0-.14a1.32,1.32,0,0,1-.09-.53,7,7,0,0,1,0-.77v-.76a2.84,2.84,0,0,0-.55-1.61,2.36,2.36,0,0,0-1.67-1,3.29,3.29,0,0,0,1.4-.48,2.3,2.3,0,0,0,1-2,2.6,2.6,0,0,0-1.52-2.63,7.58,7.58,0,0,0-2.68-.37h-3.45Z"/>
    <path d="M495.86,114.25c-.57-3.67-2.63-8.13-6.1-12.54-5.17-6.54-11.27-10.19-15.52-9.68v-.1H442.56c-14.37-15.48-29.14-31.49-32.2-35.12-5.6-6.67-9.21-6.75-10.48-6.47L63,50.39v0c-7.7-.22-11.34,2-13,4.13-2.38,3.13-2.25,7.63.33,13.43l.09,0a36,36,0,0,0,9,11.76c7.79,7,16.17,10,20.8,7.87h20.93c14.56,15.72,29.84,32.27,33,36,5.62,6.6,9.67,6,10.11,6-.33,0,324.62,0,331.85,0,1.58.32,12.66,2.29,17.76-3.59C496.37,123.19,497,119.26,495.86,114.25ZM487,103.55a.84.84,0,0,0,.18.2,31,31,0,0,1,2.56,3.81H476.25a32.85,32.85,0,0,1-2.12-4Zm-20.74,13.88c-.54-.61-1.13-1.22-1.72-1.88h13.83c.66.67,1.3,1.29,2,1.88Zm16.13,1.65c.45.33.94.64,1.38.94H468.68c-.27-.3-.57-.63-.87-.94ZM463,113.91c-.59-.61-1.14-1.23-1.76-1.89h14.1c.16.19.3.4.44.59.38.44.71.86,1.1,1.3Zm-3.28-3.52c-.65-.7-1.32-1.4-2-2.13h15.09c.39.71.83,1.41,1.32,2.13Zm13.93-14.82c1.65-1.29,6.77.62,11.95,6.35H473.51a11.82,11.82,0,0,1-.71-4.58A2.54,2.54,0,0,1,473.64,95.57Zm-1.74,11.05H456.21L454,104.27h16.84C471.17,105,471.49,105.81,471.9,106.62Zm-19.42-4c-.5-.54-1-1.09-1.52-1.66H469.8c.13.53.28,1.09.44,1.66ZM470,95.21a6.11,6.11,0,0,0-.46,1.74,8.36,8.36,0,0,0-.07,1.13c0,.41,0,.84.08,1.26H449.42c-1.24-1.36-2.53-2.74-3.81-4.13ZM407.81,58.9c.38.46,1,1.1,1.66,1.88H80.84c-1.59-1.71-2.93-3.13-4-4.22H405.61A23.41,23.41,0,0,1,407.81,58.9Zm-330,3.53c1,1.07,2.09,2.23,3.28,3.53H74.6c-.47-.45-.9-.9-1.38-1.36-.88-.77-1.77-1.49-2.66-2.17ZM68.3,60.78a35.6,35.6,0,0,0-3.54-2.07h9.59c.56.58,1.2,1.27,1.93,2.07Zm331.93-7.16.3-.07s1.12-.13,3.16,1.36H75.33c-.36-.37-.6-.65-.7-.74l-.32-.32-.18-.18ZM72.8,57.06H61a13.46,13.46,0,0,0-1.65-.5h13A5.77,5.77,0,0,1,72.8,57.06Zm-4.81-3a6.31,6.31,0,0,1,2.49.8H54.83C57,53.83,60.92,53.1,68,54.11ZM52.67,56.56h.27a1,1,0,0,0-.32.1A.93.93,0,0,0,52.67,56.56Zm-.29,6.15A3.21,3.21,0,0,1,53,60.26a3.29,3.29,0,0,1,2.39-.9c3.62-.2,9.21,2.43,14.26,6.6H53.16A10.53,10.53,0,0,1,52.38,62.71Zm1.53,4.89H71.59a37.66,37.66,0,0,1,5.19,5.89H58A31.19,31.19,0,0,1,53.91,67.6Zm7.81,9.67c-.78-.69-1.53-1.42-2.25-2.14H77.86a17.38,17.38,0,0,1,2.26,5.17H65.57A38,38,0,0,1,61.72,77.27ZM80.33,82a3,3,0,0,1-.66,2.1c-1.57,1.74-6.23,1-11.55-2.12H80.33ZM76.27,67.6h6.37q2.56,2.75,5.47,5.89H80.77A34.57,34.57,0,0,0,76.27,67.6Zm13.36,7.53c1.55,1.67,3.19,3.39,4.82,5.17h-11a15.8,15.8,0,0,0-1.81-5.17ZM96,81.93c.21.25.44.48.68.74H83.55c0-.26.07-.49.07-.74Zm-13.65,4a5.63,5.63,0,0,0,.92-1.64H98.16l1.53,1.64Zm50.84,31.5-3.64-4h4v-1.63H128l-3.22-3.53h8.72v-1.64H123.31c-1.65-1.8-3.41-3.68-5.21-5.65h15.43V99.34h-17l-4.12-4.47h21.07V93.22H110.94l-3.25-3.52h25.84V88.06H106.19c-.76-.78-1.48-1.58-2.21-2.36h29.55V84.05H102.47c-.66-.71-1.32-1.41-2-2.12h33V80.3H99c-.45-.48-.87-1-1.32-1.41h35.87V77.24H96.14l-2-2.11h39.36V73.49H92.66c-.67-.73-1.32-1.44-2-2.13h42.84V69.71H89.16l-2-2.11h46.34V66H85.66c-1.16-1.25-2.26-2.45-3.28-3.53H410.93c.9,1,2,2.2,3.19,3.53h-3.95V67.6h5.43c.64.67,1.29,1.38,1.94,2.11h-7.37v1.65h8.9c.61.69,1.27,1.39,1.93,2.13H410.17v1.64h12.34c.63.69,1.29,1.39,2,2.11h-14.3v1.65H426c.43.46.88.93,1.3,1.41h-17.1v1.63h18.64c.64.71,1.3,1.41,2,2.12h-20.6V85.7h22.12l2.16,2.36H410.17V89.7H436c1.06,1.17,2.18,2.35,3.23,3.52H410.17v1.65h30.61c1.38,1.51,2.77,3,4.15,4.47H410.17V101h36.29c.51.57,1,1.12,1.53,1.66H410.17v1.64H449.5c.75.78,1.46,1.57,2.19,2.35H410.17v1.64h43.06c.66.73,1.34,1.43,1.95,2.13h-45v3h.09V112h46.46l1.76,1.89H410.17v1.64H460c.62.65,1.22,1.27,1.76,1.88Zm1.47,1.65H463.31c.68.76,1.37,1.46,2,2.11H136.51C136.09,120.69,135.45,120,134.64,119.08Zm9.4,7.23c-.24,0-2.45.15-6-3.48H466.79c2,2.1,3.15,3.35,3.2,3.41h0Zm332.7,0a9.27,9.27,0,0,1-2.91-1.11h15.91C485.73,127.52,479.07,126.82,476.74,126.3Zm14.91-2.76H472c-.34-.35-.92-1-1.77-1.88H487a11.15,11.15,0,0,0,2.63.69,6.29,6.29,0,0,0,2.89-.28A6.08,6.08,0,0,1,491.65,123.54Zm.28-4.8a2.66,2.66,0,0,1-1.93.37c-2.7-.32-7.32-3.08-11.63-8.53-.36-.47-.69-.92-1-1.39h13.33c.2.42.37.79.55,1.2h0a32.27,32.27,0,0,1,1.52,5C492.89,117,492.59,118.21,491.93,118.74Z"/>
    <g>
      <path d="M146.05,99.06c3.19,4.69,5.64,3,8.54,3,1.67,0,2.79-1.78,2.79-5.22V68.51h11.05V94.86c0,11.33-4.23,17.18-13.14,17.69-8.63.5-11-1.14-15.78-6.51Z"/>
      <path d="M192.4,111.41V68.51h16.13c7.58,0,13.61,2.27,13.61,10.8a12.09,12.09,0,0,1-4.38,9.35c3.63,1.18,5.6,5.19,5.6,9.83,0,9.6-5.75,12.92-14.51,12.92Zm11.07-17.92v7.92h4.82c2.74,0,4.79-.71,4.79-3.93,0-3.76-2.59-4-6.1-4Zm0-14.95v7.13h4.58a3.47,3.47,0,0,0,3.8-3.74c0-3.33-2.16-3.39-4.51-3.39Z"/>
      <path d="M255.16,111.41V68.51h11V83h10.47V68.51h11v42.9h-11V94.79H266.21v16.62Z"/>
      <path d="M295.63,68.51h11v25.7c0,4.22.66,7.85,5.21,7.85,4,0,5.16-3.21,5.16-7.85V68.51h11V92.78c0,13.76-5,19.77-16.19,19.77-10.44,0-16.25-5.06-16.25-19.85Z"/>
      <path d="M357,91.93l-.42-9.76V68.51h10.57v42.9H356.77l-12-23.34.42,9.76v13.58H334.58V68.51h10.36Z"/>
      <path d="M371.79,68.51H402.7V79.78h-9.92v31.63h-11V79.78h-9.94Z"/>
      <path d="M175.52,100.76a5.77,5.77,0,1,0,5.8,5.78A5.77,5.77,0,0,0,175.52,100.76Z"/>
      <path d="M232.05,100.76a5.77,5.77,0,1,0,5.8,5.78A5.79,5.79,0,0,0,232.05,100.76Z"/>
    </g>
  </g>
</svg>
