<svg xmlns="http://www.w3.org/2000/svg" width="47.275" height="41.373" viewBox="0 0 47.275 41.373">
  <g id="Warning_Triangle" transform="translate(-0.003 -1)">
    <path id="Path_15219" data-name="Path 15219" d="M22.174,26.3,20.7,14.482a1.478,1.478,0,0,1,1.463-1.661h2.955a1.478,1.478,0,0,1,1.478,1.661L25.114,26.3a1.478,1.478,0,0,1-2.935,0Zm3.531,5.107a2.991,2.991,0,0,0-4.167,0,4.318,4.318,0,0,0-.65.975,3.15,3.15,0,0,0,0,2.246,3.546,3.546,0,0,0,.65.975,2.937,2.937,0,0,0,2.1.857,2.819,2.819,0,0,0,2.069-.857,2.955,2.955,0,0,0,0-4.2Zm20.861,8.742a4.654,4.654,0,0,1-3.972,2.222H4.688A4.684,4.684,0,0,1,.5,35.594l19-32.1A4.61,4.61,0,0,1,23.637,1a4.657,4.657,0,0,1,4.19,2.589L46.741,35.505a4.693,4.693,0,0,1-.163,4.646Zm-2.438-3.236L25.215,5a1.773,1.773,0,0,0-1.578-1.043,1.7,1.7,0,0,0-1.546.955l-19,32.1a1.676,1.676,0,0,0,.127,1.59,1.7,1.7,0,0,0,1.478.819h37.9a1.726,1.726,0,0,0,1.546-2.5Z" transform="translate(0 0)" fill="#cc2d24"/>
  </g>
</svg>