<?xml version="1.0" encoding="UTF-8"?>
<svg xmlns="http://www.w3.org/2000/svg" xmlns:xlink="http://www.w3.org/1999/xlink" width="24px" height="24px" viewBox="0 0 24 24" version="1.1">
<g id="surface1">
<path style=" stroke:none;fill-rule:evenodd;fill:rgb(5.098039%,5.098039%,5.098039%);fill-opacity:1;" d="M 14.90625 8.25 L 14.445312 6.75 L 12.75 6.75 C 12.335938 6.75 12 6.414062 12 6 C 12 5.585938 12.335938 5.25 12.75 5.25 L 15 5.25 C 15.328125 5.25 15.621094 5.464844 15.71875 5.78125 L 16.476562 8.25 L 18 8.25 C 18.414062 8.25 18.75 8.585938 18.75 9 C 18.75 9.414062 18.414062 9.75 18 9.75 L 16.9375 9.75 L 17.863281 12.753906 C 17.910156 12.75 17.953125 12.75 18 12.75 C 19.65625 12.75 21 14.09375 21 15.75 C 21 17.40625 19.65625 18.75 18 18.75 C 16.34375 18.75 15 17.40625 15 15.75 C 15 14.671875 15.570312 13.722656 16.429688 13.195312 L 15.976562 11.730469 C 14.507812 12.46875 13.5 13.992188 13.5 15.75 C 13.5 16.164062 13.164062 16.5 12.75 16.5 L 8.90625 16.5 C 8.570312 17.792969 7.398438 18.75 6 18.75 C 4.34375 18.75 3 17.40625 3 15.75 C 3 14.351562 3.957031 13.179688 5.25 12.84375 L 5.25 12 L 4.5 12 C 4.300781 12 4.109375 11.921875 3.96875 11.78125 C 3.828125 11.640625 3.75 11.449219 3.75 11.25 C 3.75 11.050781 3.828125 10.859375 3.96875 10.71875 C 4.109375 10.578125 4.300781 10.5 4.5 10.5 C 5.882812 10.5 8.691406 10.5 8.691406 10.5 C 8.691406 10.5 10.152344 9.035156 10.71875 8.46875 C 10.859375 8.328125 11.050781 8.25 11.25 8.25 Z M 18 14.25 C 18.828125 14.25 19.5 14.921875 19.5 15.75 C 19.5 16.578125 18.828125 17.25 18 17.25 C 17.171875 17.25 16.5 16.578125 16.5 15.75 C 16.5 14.921875 17.171875 14.25 18 14.25 Z M 6 14.25 C 6.828125 14.25 7.5 14.921875 7.5 15.75 C 7.5 16.578125 6.828125 17.25 6 17.25 C 5.171875 17.25 4.5 16.578125 4.5 15.75 C 4.5 14.921875 5.171875 14.25 6 14.25 Z M 15.367188 9.75 L 11.5625 9.75 C 11.5625 9.75 10.097656 11.214844 9.53125 11.78125 C 9.390625 11.921875 9.199219 12 9 12 L 6.75 12 L 6.75 12.84375 C 7.804688 13.117188 8.632812 13.945312 8.90625 15 L 12.046875 15 C 12.308594 12.894531 13.667969 11.125 15.53125 10.28125 Z M 15.367188 9.75 "/>
</g>
</svg>
