<?xml version="1.0" encoding="UTF-8"?>
<svg xmlns="http://www.w3.org/2000/svg" xmlns:xlink="http://www.w3.org/1999/xlink" width="24px" height="24px" viewBox="0 0 24 24" version="1.1">
<g id="surface1">
<path style=" stroke:none;fill-rule:nonzero;fill:rgb(0%,0%,0%);fill-opacity:1;" d="M 12 2 C 6.476562 2 2 6.476562 2 12 C 2 17.523438 6.476562 22 12 22 C 17.523438 22 22 17.523438 22 12 C 22 6.476562 17.523438 2 12 2 Z M 12 20 C 7.582031 20 4 16.417969 4 12 C 4 7.582031 7.582031 4 12 4 C 16.417969 4 20 7.582031 20 12 C 20 16.417969 16.417969 20 12 20 Z M 12 20 "/>
<path style=" stroke:none;fill-rule:nonzero;fill:rgb(0%,0%,0%);fill-opacity:1;" d="M 14 12 L 16 12 L 16 14 L 14 14 Z M 14 12 "/>
<path style=" stroke:none;fill-rule:nonzero;fill:rgb(0%,0%,0%);fill-opacity:1;" d="M 10 12 L 12 12 L 12 14 L 10 14 Z M 10 12 "/>
<path style=" stroke:none;fill-rule:nonzero;fill:rgb(0%,0%,0%);fill-opacity:1;" d="M 12 16 L 14 16 L 14 18 L 12 18 Z M 12 16 "/>
</g>
</svg>
