<?xml version="1.0" encoding="UTF-8"?>
<svg xmlns="http://www.w3.org/2000/svg" xmlns:xlink="http://www.w3.org/1999/xlink" width="24px" height="24px" viewBox="0 0 24 24" version="1.1">
<g id="surface1">
<path style=" stroke:none;fill-rule:evenodd;fill:rgb(0%,0%,0%);fill-opacity:1;" d="M 18.054688 2.253906 C 18.035156 2.25 18.019531 2.25 18 2.25 L 6 2.25 C 5.773438 2.25 5.558594 2.351562 5.414062 2.53125 L 2.414062 6.28125 C 2.21875 6.527344 2.195312 6.871094 2.359375 7.140625 L 11.035156 21.378906 C 11.058594 21.417969 11.085938 21.453125 11.113281 21.488281 C 11.128906 21.507812 11.148438 21.527344 11.167969 21.546875 C 11.246094 21.621094 11.34375 21.679688 11.453125 21.714844 C 11.519531 21.734375 11.589844 21.75 11.664062 21.75 C 11.738281 21.75 11.8125 21.742188 11.878906 21.722656 C 11.992188 21.695312 12.089844 21.640625 12.171875 21.570312 C 12.191406 21.550781 12.210938 21.53125 12.230469 21.511719 C 12.261719 21.476562 12.292969 21.441406 12.316406 21.398438 L 21.625 7.164062 C 21.632812 7.152344 21.636719 7.144531 21.644531 7.132812 L 21.648438 7.128906 C 21.707031 7.023438 21.746094 6.90625 21.75 6.777344 L 21.75 6.730469 C 21.746094 6.609375 21.714844 6.496094 21.660156 6.394531 C 21.644531 6.367188 21.628906 6.339844 21.609375 6.3125 L 21.59375 6.292969 L 18.703125 2.542969 C 18.558594 2.359375 18.339844 2.25 18.105469 2.25 C 18.089844 2.25 18.070312 2.25 18.054688 2.253906 Z M 9.90625 7.5 L 11.765625 17.390625 L 14.105469 7.5 Z M 4.335938 7.5 L 10.183594 17.101562 L 8.378906 7.5 Z M 19.613281 7.5 L 15.648438 7.5 L 13.398438 17.003906 Z M 16.738281 6 L 19.4375 6 L 18.066406 4.28125 Z M 4.738281 6 L 6.105469 4.226562 L 7.472656 6 Z M 12 4.226562 L 13.367188 6 C 13.367188 6 10.632812 6 10.632812 6 Z M 13.527344 3.75 L 15.054688 5.730469 L 16.582031 3.75 Z M 7.632812 3.75 L 9.054688 5.589844 L 10.472656 3.75 Z M 7.632812 3.75 "/>
</g>
</svg>
