<?xml version="1.0" encoding="UTF-8"?>
<svg xmlns="http://www.w3.org/2000/svg" xmlns:xlink="http://www.w3.org/1999/xlink" width="24px" height="24px" viewBox="0 0 24 24" version="1.1">
<g id="surface1">
<path style=" stroke:none;fill-rule:nonzero;fill:rgb(0%,0%,0%);fill-opacity:1;" d="M 12 5 C 7.613281 4.925781 3.644531 7.589844 2.050781 11.679688 L 1.949219 12 L 2.058594 12.320312 C 3.652344 16.40625 7.617188 19.070312 12 19 C 16.386719 19.074219 20.355469 16.410156 21.949219 12.320312 L 22.058594 12 L 21.949219 11.679688 C 20.355469 7.589844 16.386719 4.925781 12 5 Z M 12 17 C 8.582031 17.113281 5.441406 15.132812 4.070312 12 C 5.441406 8.867188 8.582031 6.886719 12 7 C 15.417969 6.886719 18.558594 8.867188 19.929688 12 C 18.558594 15.132812 15.417969 17.113281 12 17 Z M 12 17 "/>
<path style=" stroke:none;fill-rule:nonzero;fill:rgb(0%,0%,0%);fill-opacity:1;" d="M 16 10 L 14 10 L 14 11 L 13 11 L 13 10 L 11 10 L 11 11 L 10 11 L 10 10 L 8 10 L 8 11 L 7 11 L 7 13 L 8 13 L 8 14 L 10 14 L 10 13 L 11 13 L 11 14 L 13 14 L 13 13 L 14 13 L 14 14 L 16 14 L 16 13 L 17 13 L 17 11 L 16 11 Z M 16 10 "/>
</g>
</svg>
