<?xml version="1.0" encoding="UTF-8"?>
<svg xmlns="http://www.w3.org/2000/svg" xmlns:xlink="http://www.w3.org/1999/xlink" width="24px" height="24px" viewBox="0 0 24 24" version="1.1">
<g id="surface1">
<path style=" stroke:none;fill-rule:nonzero;fill:rgb(0%,0%,0%);fill-opacity:1;" d="M 20.808594 13.890625 C 22.554688 10.796875 22.089844 6.929688 19.660156 4.339844 C 18.214844 2.910156 16.253906 2.117188 14.21875 2.140625 C 9.226562 2.246094 5.207031 6.269531 5.101562 11.261719 C 5.097656 12.335938 5.316406 13.402344 5.738281 14.390625 L 2.738281 16.539062 C 1.527344 17.394531 1.011719 18.945312 1.46875 20.355469 C 1.929688 21.769531 3.253906 22.71875 4.738281 22.699219 L 5 22.699219 C 5.992188 22.617188 6.902344 22.101562 7.480469 21.289062 L 9.640625 18.289062 C 10.628906 18.710938 11.695312 18.929688 12.769531 18.929688 C 13.734375 18.925781 14.691406 18.761719 15.601562 18.441406 C 16.34375 19.574219 17.679688 20.175781 19.019531 19.980469 C 20.363281 19.785156 21.46875 18.828125 21.859375 17.527344 C 22.25 16.230469 21.851562 14.824219 20.839844 13.921875 Z M 9.238281 6.289062 C 10.558594 4.945312 12.355469 4.175781 14.238281 4.148438 C 15.734375 4.132812 17.171875 4.714844 18.238281 5.761719 C 20.058594 7.742188 20.367188 10.683594 19 13 C 18.839844 12.988281 18.679688 12.988281 18.519531 13 C 16.902344 13.003906 15.496094 14.113281 15.121094 15.691406 L 7.78125 8.359375 C 8.144531 7.589844 8.636719 6.890625 9.238281 6.289062 Z M 5.828125 20.121094 C 5.597656 20.449219 5.230469 20.660156 4.828125 20.699219 C 4.421875 20.742188 4.015625 20.59375 3.730469 20.300781 C 3.4375 20.011719 3.292969 19.609375 3.328125 19.199219 C 3.367188 18.796875 3.582031 18.433594 3.910156 18.199219 L 6.789062 16.140625 C 6.957031 16.347656 7.132812 16.542969 7.320312 16.730469 C 7.507812 16.917969 7.703125 17.09375 7.910156 17.261719 Z M 8.710938 15.289062 C 7.664062 14.222656 7.082031 12.785156 7.101562 11.289062 C 7.085938 11.054688 7.085938 10.816406 7.101562 10.578125 L 13.390625 16.871094 C 11.671875 17.074219 9.953125 16.492188 8.710938 15.289062 Z M 18.5 18 C 17.671875 18 17 17.328125 17 16.5 C 17 15.671875 17.671875 15 18.5 15 C 19.328125 15 20 15.671875 20 16.5 C 20 17.328125 19.328125 18 18.5 18 Z M 18.5 18 "/>
</g>
</svg>
