<?xml version="1.0" encoding="UTF-8"?>
<svg xmlns="http://www.w3.org/2000/svg" xmlns:xlink="http://www.w3.org/1999/xlink" width="24px" height="24px" viewBox="0 0 24 24" version="1.1">
<g id="surface1">
<path style=" stroke:none;fill-rule:evenodd;fill:rgb(0%,0%,0%);fill-opacity:1;" d="M 15.464844 9 L 17.546875 9 C 18.550781 9 19.484375 9.5 20.042969 10.335938 C 20.386719 10.855469 20.800781 11.472656 21.207031 12.085938 C 21.59375 12.660156 21.628906 13.398438 21.300781 14.007812 C 20.976562 14.621094 20.339844 15 19.648438 15 C 17.621094 15 15.464844 15 15.464844 15 C 15.464844 15 13.351562 19.226562 12.671875 20.585938 C 12.542969 20.839844 12.285156 21 12 21 C 11.285156 21 9.898438 21 9 21 C 8.785156 21 8.582031 20.90625 8.4375 20.746094 C 8.296875 20.585938 8.230469 20.371094 8.253906 20.15625 C 8.460938 18.503906 8.898438 15 8.898438 15 L 3 15 C 2.800781 15 2.609375 14.921875 2.46875 14.78125 C 2.328125 14.640625 2.25 14.449219 2.25 14.25 C 2.25 12.679688 2.25 9.070312 2.25 7.5 C 2.25 7.300781 2.328125 7.109375 2.46875 6.96875 C 2.609375 6.828125 2.800781 6.75 3 6.75 C 3.695312 6.75 4.699219 6.75 5.25 6.75 C 5.5 6.75 5.734375 6.875 5.875 7.085938 C 6.292969 7.710938 7.152344 9 7.152344 9 L 8.902344 9 C 8.902344 9 8.46875 5.492188 8.265625 3.84375 C 8.238281 3.628906 8.304688 3.414062 8.449219 3.253906 C 8.589844 3.09375 8.796875 3 9.011719 3 C 9.90625 3 11.285156 3 12 3 C 12.285156 3 12.542969 3.160156 12.671875 3.414062 C 13.351562 4.773438 15.464844 9 15.464844 9 Z M 18.792969 11.167969 C 18.515625 10.75 18.046875 10.5 17.546875 10.5 C 15.210938 10.5 8.46875 10.5 6.75 10.5 C 6.5 10.5 6.265625 10.375 6.125 10.164062 C 5.707031 9.539062 4.847656 8.25 4.847656 8.25 L 3.75 8.25 L 3.75 13.5 L 9.75 13.5 C 9.964844 13.5 10.171875 13.59375 10.3125 13.753906 C 10.453125 13.914062 10.519531 14.128906 10.496094 14.34375 C 10.289062 15.996094 9.851562 19.5 9.851562 19.5 L 11.535156 19.5 C 11.535156 19.5 13.652344 15.273438 14.328125 13.914062 C 14.457031 13.660156 14.714844 13.5 15 13.5 C 16.015625 13.5 18.445312 13.5 19.648438 13.5 C 19.785156 13.5 19.914062 13.425781 19.980469 13.300781 C 20.042969 13.179688 20.035156 13.03125 19.960938 12.917969 C 19.625 12.414062 19.144531 11.691406 18.792969 11.167969 Z M 11.535156 4.5 L 9.851562 4.5 L 10.414062 9 L 13.785156 9 Z M 11.535156 4.5 "/>
</g>
</svg>
