<?xml version="1.0" encoding="UTF-8"?>
<svg xmlns="http://www.w3.org/2000/svg" xmlns:xlink="http://www.w3.org/1999/xlink" width="24px" height="24px" viewBox="0 0 24 24" version="1.1">
<g id="surface1">
<path style=" stroke:none;fill-rule:nonzero;fill:rgb(0%,0%,0%);fill-opacity:1;" d="M 18.378906 5.660156 L 16 5.179688 L 16 1.378906 L 10.761719 4 C 6.445312 4.082031 2.992188 7.605469 3 11.921875 L 3 16 L 7.21875 16 L 6.21875 20 L 4 20 L 4 22 L 20 22 L 20 20 L 17.820312 20 L 16.21875 12 L 16.851562 12 C 17.832031 12.273438 18.890625 12.074219 19.703125 11.457031 C 20.515625 10.84375 20.996094 9.882812 21 8.859375 C 20.992188 7.308594 19.902344 5.972656 18.378906 5.660156 Z M 18.480469 9.890625 C 18.128906 10.121094 17.6875 10.160156 17.300781 10 L 11.53125 10 L 9.828125 7.449219 L 8.171875 8.550781 L 10.460938 12 L 14.179688 12 L 15.78125 20 L 8.28125 20 L 10 13.238281 L 8 12.761719 L 7.71875 14 L 5 14 L 5 11.921875 C 5.007812 10.863281 5.296875 9.828125 5.839844 8.921875 C 6.925781 7.105469 8.886719 5.996094 11 6 L 11.238281 6 L 14 4.621094 L 14 6.820312 L 18 7.621094 C 18.582031 7.746094 19 8.261719 19 8.859375 C 19 9.265625 18.800781 9.644531 18.46875 9.878906 Z M 18.480469 9.890625 "/>
</g>
</svg>
