<?xml version="1.0" encoding="UTF-8"?>
<svg xmlns="http://www.w3.org/2000/svg" xmlns:xlink="http://www.w3.org/1999/xlink" width="24px" height="24px" viewBox="0 0 24 24" version="1.1">
<g id="surface1">
<path style=" stroke:none;fill-rule:nonzero;fill:rgb(0%,0%,0%);fill-opacity:1;" d="M 19 2 L 5 2 L 5 5 L 2 5 L 2 9 C 2.007812 10.976562 3.457031 12.648438 5.410156 12.941406 C 6.023438 14.402344 7.296875 15.484375 8.839844 15.859375 L 8.148438 20 L 6 20 L 6 22 L 18 22 L 18 20 L 15.851562 20 L 15.160156 15.859375 C 16.703125 15.484375 17.976562 14.402344 18.589844 12.941406 C 20.542969 12.648438 21.992188 10.976562 22 9 L 22 5 L 19 5 Z M 4 9 L 4 7 L 5 7 L 5 10.730469 C 4.382812 10.375 4 9.714844 4 9 Z M 14 14 L 12.820312 14 L 13.820312 20 L 10.179688 20 L 11.179688 14 L 10 14 C 8.34375 14 7 12.65625 7 11 L 7 4 L 17 4 L 17 11 C 17 12.65625 15.65625 14 14 14 Z M 20 7 L 20 9 C 20 9.714844 19.617188 10.375 19 10.730469 L 19 7 Z M 20 7 "/>
<path style=" stroke:none;fill-rule:nonzero;fill:rgb(0%,0%,0%);fill-opacity:1;" d="M 12 6 C 10.34375 6 9 7.34375 9 9 C 9 10.65625 10.34375 12 12 12 C 13.65625 12 15 10.65625 15 9 C 15 7.34375 13.65625 6 12 6 Z M 12 10 C 11.449219 10 11 9.550781 11 9 C 11 8.449219 11.449219 8 12 8 C 12.550781 8 13 8.449219 13 9 C 13 9.550781 12.550781 10 12 10 Z M 12 10 "/>
</g>
</svg>
