<?xml version="1.0" encoding="UTF-8"?>
<svg xmlns="http://www.w3.org/2000/svg" xmlns:xlink="http://www.w3.org/1999/xlink" width="24px" height="24px" viewBox="0 0 24 24" version="1.1">
<g id="surface1">
<path style=" stroke:none;fill-rule:evenodd;fill:rgb(0%,0%,0%);fill-opacity:1;" d="M 21 5.25 C 21.414062 5.25 21.75 5.585938 21.75 6 C 21.75 6.414062 21.414062 6.75 21 6.75 L 15 6.75 L 15 8.25 L 17.867188 8.25 C 18.683594 8.25 19.4375 8.691406 19.835938 9.40625 C 20.375 10.382812 21.179688 11.824219 21.917969 13.15625 C 22.304688 13.855469 22.292969 14.703125 21.890625 15.390625 C 21.484375 16.078125 20.75 16.5 19.949219 16.5 L 18 16.5 L 18 18 L 21 18 C 21.199219 18 21.390625 18.078125 21.53125 18.21875 C 21.671875 18.359375 21.75 18.550781 21.75 18.75 C 21.75 19.164062 21.414062 19.5 21 19.5 C 18.636719 19.5 11.363281 19.5 9 19.5 C 8.585938 19.5 8.25 19.164062 8.25 18.75 C 8.25 18.550781 8.328125 18.359375 8.46875 18.21875 C 8.609375 18.078125 8.800781 18 9 18 C 10.09375 18 12 18 12 18 L 12 16.5 L 9.75 16.5 C 9.335938 16.5 9 16.164062 9 15.75 C 9 15.375 9 15 9 15 L 3 15 C 2.585938 15 2.25 14.664062 2.25 14.25 C 2.25 12.96875 2.25 10.125 2.25 9.75 C 2.25 9.550781 2.328125 9.359375 2.46875 9.21875 C 2.609375 9.078125 2.800781 9 3 9 C 3.5 9 4.128906 9 4.5 9 C 4.699219 9 4.890625 9.078125 5.03125 9.21875 C 5.445312 9.636719 6.3125 10.5 6.3125 10.5 L 9 10.5 L 9 9.75 C 9 9.351562 9.15625 8.972656 9.441406 8.691406 C 9.722656 8.40625 10.101562 8.25 10.5 8.25 C 11.808594 8.25 13.5 8.25 13.5 8.25 L 13.5 6.75 L 7.5 6.75 C 7.085938 6.75 6.75 6.414062 6.75 6 C 6.75 5.585938 7.085938 5.25 7.5 5.25 Z M 16.5 16.5 L 13.5 16.5 L 13.5 18 L 16.5 18 Z M 9.75 13.5 C 9.949219 13.5 10.140625 13.578125 10.28125 13.71875 C 10.421875 13.859375 10.5 14.050781 10.5 14.25 C 10.5 14.625 10.5 15 10.5 15 L 19.949219 15 C 20.214844 15 20.460938 14.859375 20.597656 14.628906 C 20.730469 14.402344 20.734375 14.117188 20.605469 13.886719 C 20.292969 13.320312 19.976562 12.75 19.976562 12.75 L 15.75 12.75 C 15.335938 12.75 15 12.414062 15 12 C 15 11.585938 15.335938 11.25 15.75 11.25 C 16.945312 11.25 19.140625 11.25 19.140625 11.25 C 19.140625 11.25 18.769531 10.582031 18.523438 10.136719 C 18.390625 9.898438 18.140625 9.75 17.867188 9.75 C 16.214844 9.75 10.5 9.75 10.5 9.75 C 10.5 9.75 10.5 10.59375 10.5 11.25 C 10.5 11.664062 10.164062 12 9.75 12 C 8.398438 12 5.691406 12 5.691406 12 L 4.191406 10.5 L 3.75 10.5 L 3.75 13.5 Z M 9.75 13.5 "/>
</g>
</svg>
