<?xml version="1.0" encoding="UTF-8"?>
<svg xmlns="http://www.w3.org/2000/svg" xmlns:xlink="http://www.w3.org/1999/xlink" width="24px" height="24px" viewBox="0 0 24 24" version="1.1">
<g id="surface1">
<path style=" stroke:none;fill-rule:evenodd;fill:rgb(0%,0%,0%);fill-opacity:1;" d="M 16.441406 16.523438 C 16.492188 16.410156 16.484375 16.273438 16.414062 16.167969 C 16.34375 16.058594 16.226562 15.996094 16.097656 15.996094 L 7.789062 15.996094 C 7.660156 15.996094 7.542969 16.0625 7.472656 16.171875 C 7.402344 16.28125 7.398438 16.417969 7.453125 16.535156 C 7.453125 16.535156 8.394531 18.472656 8.734375 19.421875 C 9.0625 20.324219 9.503906 22.210938 9.503906 22.210938 C 9.542969 22.378906 9.695312 22.5 9.867188 22.5 L 14.023438 22.5 C 14.191406 22.5 14.339844 22.386719 14.382812 22.222656 C 14.382812 22.222656 14.898438 20.316406 15.234375 19.386719 C 15.578125 18.4375 16.441406 16.523438 16.441406 16.523438 Z M 15.523438 16.746094 C 15.234375 17.394531 14.761719 18.484375 14.527344 19.132812 C 14.265625 19.863281 13.894531 21.179688 13.734375 21.75 C 13.734375 21.75 10.164062 21.75 10.164062 21.75 C 10.023438 21.171875 9.699219 19.875 9.441406 19.167969 C 9.207031 18.515625 8.695312 17.40625 8.382812 16.746094 Z M 15.523438 16.746094 "/>
<path style=" stroke:none;fill-rule:evenodd;fill:rgb(0%,0%,0%);fill-opacity:1;" d="M 16.097656 8.003906 C 16.226562 8.003906 16.34375 7.941406 16.414062 7.832031 C 16.484375 7.726562 16.492188 7.589844 16.441406 7.476562 C 16.441406 7.476562 15.578125 5.5625 15.234375 4.613281 C 14.898438 3.683594 14.382812 1.777344 14.382812 1.777344 C 14.339844 1.613281 14.191406 1.5 14.023438 1.5 L 9.867188 1.5 C 9.695312 1.5 9.542969 1.621094 9.503906 1.789062 C 9.503906 1.789062 9.0625 3.675781 8.734375 4.578125 C 8.394531 5.527344 7.453125 7.464844 7.453125 7.464844 C 7.398438 7.582031 7.402344 7.71875 7.472656 7.828125 C 7.542969 7.9375 7.660156 8.003906 7.789062 8.003906 Z M 15.523438 7.253906 L 8.382812 7.253906 C 8.695312 6.59375 9.207031 5.484375 9.441406 4.832031 C 9.699219 4.125 10.023438 2.828125 10.164062 2.25 C 10.164062 2.25 13.734375 2.25 13.734375 2.25 C 13.894531 2.820312 14.265625 4.136719 14.527344 4.867188 C 14.761719 5.515625 15.234375 6.605469 15.523438 7.253906 Z M 15.523438 7.253906 "/>
<path style=" stroke:none;fill-rule:evenodd;fill:rgb(0%,0%,0%);fill-opacity:1;" d="M 17.25 7.574219 C 17.25 7.160156 16.914062 6.824219 16.5 6.824219 L 7.390625 6.824219 C 6.976562 6.824219 6.640625 7.160156 6.640625 7.574219 L 6.640625 16.414062 C 6.640625 16.828125 6.976562 17.164062 7.390625 17.164062 L 16.5 17.164062 C 16.914062 17.164062 17.25 16.828125 17.25 16.414062 Z M 15.75 8.324219 L 15.75 15.664062 C 15.75 15.664062 8.140625 15.664062 8.140625 15.664062 C 8.140625 15.664062 8.140625 8.324219 8.140625 8.324219 Z M 15.75 8.324219 "/>
</g>
</svg>
